<svg xmlns="http://www.w3.org/2000/svg" width="20.707" height="20.707" viewBox="0 0 20.707 20.707">
    <path data-name="패스 188" d="M1.081 0a.965.965 0 0 1 .971.971l-.1 24.28a.987.987 0 0 1-.981.981.965.965 0 0 1-.971-.971L.1.981A.987.987 0 0 1 1.081 0z" transform="rotate(-45 2.356 .475)" style="stroke:#000;stroke-width:.5px"/>
    <path data-name="패스 189" d="M.971 0a.987.987 0 0 1 .981.981l.1 24.28a.965.965 0 0 1-.971.971.987.987 0 0 1-.981-.981L0 .971A.965.965 0 0 1 .971 0z" transform="rotate(45 9.024 22.995)" style="stroke:#000;stroke-width:.5px"/>
</svg>
