<svg xmlns="http://www.w3.org/2000/svg" width="270" height="45.946" viewBox="0 0 270 45.946">
    <defs>
        <clipPath id="bn4xpnqk5a">
            <path data-name="사각형 5707" style="fill:none" d="M0 0h270v45.946H0z"/>
        </clipPath>
    </defs>
    <g data-name="그룹 6675" style="clip-path:url(#bn4xpnqk5a)">
        <path data-name="패스 11200" d="M288.626 48.244a12.249 12.249 0 0 1-4.176-.818 12.564 12.564 0 0 1-7.772-7.433 11.226 11.226 0 0 1-.781-3.815c-.054-2.774-.021-5.551-.023-8.326 0-1.06-.034-2.122.01-3.179.035-.847.2-1.685.317-2.525.1-.734.452-1.389.617-2.1.034-.148.069-.263.11-.409a.947.947 0 0 1 .177-.317l.1-.13c.052-.07.1-.142.155-.213.1-.14.2-.282.307-.421.2-.281.411-.56.623-.835a15.2 15.2 0 0 1 1.36-1.566A8.985 8.985 0 0 1 281.071 15a19.3 19.3 0 0 1 3.652-1.852 18.971 18.971 0 0 1 4.416-.951 20.043 20.043 0 0 1 3.072-.172 21.121 21.121 0 0 1 6.31.957 13.676 13.676 0 0 1 7.853 6.06 17.192 17.192 0 0 1 .717 1.723 12.658 12.658 0 0 1 .755 4.282c.206 2.926.065 5.853.084 8.779a20.049 20.049 0 0 1-.448 4.836 11.512 11.512 0 0 1-2.366 4.786 11.388 11.388 0 0 1-4.4 3.422 19.039 19.039 0 0 1-4.7 1.381c-.294.037-.587-.009-.88.042a.187.187 0 0 0-.09.033c-.058.049-5.494.019-5.566-.037a.348.348 0 0 0-.227-.047q-.311.008-.618 0m.5-17.183h-.01c0 1.642-.017 3.285.007 4.927a2.763 2.763 0 0 0 1.04 2.035 2.722 2.722 0 0 0 4.113-.877 6.952 6.952 0 0 0 .387-2.707c0-3.33.156-6.663-.085-9.991a2.662 2.662 0 0 0-.755-1.811 2.9 2.9 0 0 0-1.6-.7 2.4 2.4 0 0 0-2.487.865 3.163 3.163 0 0 0-.7 2.028c-.02.574.083 1.152.089 1.728.014 1.5 0 3 0 4.5" transform="translate(-55.827 -2.432)" style="fill:#262f4a"/>
        <path data-name="패스 11201" d="M59.885 48.439c-.348-.06-.075-.014-.248-.04s-.245-.028-.358-.04a14.091 14.091 0 0 1-8.444-3.041 11.259 11.259 0 0 1-4.219-6.56 27.3 27.3 0 0 1-.626-6.6c.015-5.812 0-11.622 0-17.434a2.117 2.117 0 0 1 .571-1.649 1.366 1.366 0 0 1 1-.415c3.259 0 6.517-.006 9.777.01a1.491 1.491 0 0 1 1.572 1.592l-.021 20.719c0 1.9.8 2.84 2.63 3.372A4.419 4.419 0 0 0 64.656 38a2.905 2.905 0 0 0 1.614-2.519 18.332 18.332 0 0 0 .122-2.323q-.017-9.353-.01-18.706c0-1.3.495-1.785 1.809-1.784h9.242c1.136 0 1.665.483 1.666 1.59.009 6.853.044 13.707-.014 20.56a14.631 14.631 0 0 1-1.585 6.733 11.6 11.6 0 0 1-6.406 5.649 20.818 20.818 0 0 1-3.522 1.027 12.834 12.834 0 0 1-1.854.217c-.3.012-.059.02-.506.06-1.924 0-3.4-.069-5.326-.069" transform="translate(-9.307 -2.563)" style="fill:#978eff"/>
        <path data-name="패스 11202" d="M0 13.577c0-.1.1-.178.184-.267a1.882 1.882 0 0 1 1.453-.653q14.559.013 29.119.008a1.667 1.667 0 0 1 1.838 1.835c0 2.42-.054 4.842.014 7.26a2.026 2.026 0 0 1-1.965 1.932c-2.422-.034-4.843-.021-7.266-.025a3.367 3.367 0 0 0-.531.023c-.17.026-.3.105-.24.324a5.7 5.7 0 0 1 .053 1.423q.008 10.468 0 20.935c0 1.306-.47 1.806-1.791 1.812q-4.727.024-9.456 0c-1.189-.006-1.675-.519-1.675-1.705q0-11.077.014-22.153c0-.55-.14-.664-.679-.656-2.332.033-4.666 0-7 .019A2.006 2.006 0 0 1 .107 22.8c-.041-.069-.028-.194-.1-.247 0-3.039-.015-5.931-.015-8.97" transform="translate(0 -2.562)" style="fill:#978eff"/>
        <path data-name="패스 11203" d="M115.245 27.79v-8.023c0-1.819-.01-3.639-.013-5.458a1.476 1.476 0 0 1 1.638-1.646h8.548c1.314 0 1.776.449 1.776 1.747q0 15.342-.006 30.684c0 .546-.053 1.092-.079 1.638-.05 1.015-.451 1.42-1.5 1.445-1 .024-1.994.013-2.992.013-1.513 0-3.028-.041-4.54 0a2.627 2.627 0 0 1-2.434-1.319q-2.661-4.031-5.345-8.045-1.368-2.053-2.743-4.1c-.1-.143-.214-.271-.316-.4a.261.261 0 0 0-.189.311c.136 3.955.043 7.91.047 11.865 0 1.184-.511 1.672-1.7 1.677q-4.274.017-8.547 0c-1.212 0-1.7-.52-1.7-1.736q0-15.209.006-30.418c0-.636-.017-1.272-.006-1.908a1.372 1.372 0 0 1 1.48-1.454c2.618-.006 5.236 0 7.853 0a2.465 2.465 0 0 1 2.2 1.257 175.867 175.867 0 0 1 2.48 4c1.853 3.1 3.734 6.192 5.612 9.282a5.183 5.183 0 0 0 .474.584" transform="translate(-19.254 -2.563)" style="fill:#978eff"/>
        <path data-name="패스 11204" d="M143.624 30.32V14.367c0-1.2.475-1.7 1.7-1.7q12.823-.007 25.646 0a1.464 1.464 0 0 1 1.5 1.524c.013 2.4 0 4.8 0 7.207 0 .429-.858 1.194-1.364 1.231-.2.014-.392.007-.588.007h-14c-.7 0-.7 0-.7.7 0 .636.012 1.273-.02 1.908-.022.429.109.574.567.572 4.471-.022 8.941-.018 13.411-.024a1.4 1.4 0 0 1 1.309.627 1.178 1.178 0 0 1 .164.656c-.006 2.226 0 4.452-.013 6.678 0 .809-.519 1.3-1.444 1.377-.176.016-.356.008-.534.008-4.274 0-8.549.007-12.823-.009-.467 0-.667.088-.629.6a15.024 15.024 0 0 1-.006 1.96c-.025.416.094.548.529.546 4.523-.017 9.047-.014 13.571-.015.48 0 .963-.014 1.442.01a1.379 1.379 0 0 1 1.487 1.509c.01 2.421.018 4.841-.021 7.261a1.248 1.248 0 0 1-1.279 1.165c-.391.024-.783.023-1.175.023h-24.2c-.373 0-.748 0-1.121-.022a1.318 1.318 0 0 1-1.382-1.371c-.015-.193-.012-.388-.012-.582v-15.9z" transform="translate(-29.065 -2.563)" style="fill:#978eff"/>
        <path data-name="패스 11205" d="M248.786 37.556h.116l.234-.006.467-.011c.31-.008.621-.015.932-.019h.364c2.742 0 5.485 0 8.228-.009a5.915 5.915 0 0 1 1.052.112 1.228 1.228 0 0 1 .983 1.364q.024 3.762 0 7.525A1.4 1.4 0 0 1 259.688 48c-3.454.03-6.908.034-10.361.037q-9.188.006-18.374 0c-.392 0-.784-.011-1.174-.039a1.33 1.33 0 0 1-1.223-1.214c-.067-2.012-.085-4.026 0-6.037a2.689 2.689 0 0 1 1.179-2.087c2.38-1.748 4.8-3.439 7.159-5.218a65.919 65.919 0 0 0 7.38-5.962 8.29 8.29 0 0 0 1.9-2.645 2.381 2.381 0 0 0-.173-2.516 2.23 2.23 0 0 0-2.44-.3 3 3 0 0 0-1.708 2.125 1.922 1.922 0 0 1-1.929 1.358c-3.2.036-6.41.029-9.615.026a1.075 1.075 0 0 1-1.2-1.192 9.992 9.992 0 0 1 .79-4.362 11.929 11.929 0 0 1 3.348-4.57 16.439 16.439 0 0 1 6.38-3.078 24.542 24.542 0 0 1 10.253-.027 14.983 14.983 0 0 1 6.679 3.2 9.231 9.231 0 0 1 2.911 4.927 11.1 11.1 0 0 1 .274 3.79 10.81 10.81 0 0 1-2.66 5.978 36.78 36.78 0 0 1-5.533 5.2q-.369.273-.743.539t-.75.53l-.752.528-.278.2-.139.1c-.033.023-.073.057-.106.078a.31.31 0 0 0-.128.108c-.021.031-.011.037.019.064a.1.1 0 0 0 .105.025" transform="translate(-46.242 -2.379)" style="fill:#262f4a"/>
        <path data-name="패스 11206" d="M200.788 12.667c4.328 0 8.656.019 12.983-.014a1.546 1.546 0 0 1 1.665 1.563c-.006 1.978.034 3.958-.01 5.935a8.566 8.566 0 0 1-.939 3.628c-.853 1.728-1.646 3.485-2.465 5.23l-6.527 13.926c-.64 1.364-1.3 2.721-1.937 4.084a2 2 0 0 1-1.921 1.155c-2.688.042-5.377.033-8.066.045-.634 0-1.269.027-1.9.006a1.108 1.108 0 0 1-.957-1.516c.731-1.572 1.417-3.164 2.159-4.732 1.02-2.15 2.044-4.3 2.988-6.486.471-1.092 1.043-2.153 1.539-3.238.926-2.025 1.929-4.014 2.819-6.058a22.8 22.8 0 0 1 1.292-2.7c.256-.424.016-.388-.26-.392-.463 0-.926-.01-1.389-.009q-6.011 0-12.021.01a1.432 1.432 0 0 1-1.46-1.443c-.018-2.561 0-5.123-.027-7.684a1.359 1.359 0 0 1 1.4-1.325c4.345.032 8.691.015 13.036.015" transform="translate(-37.712 -2.561)" style="fill:#262f4a"/>
        <path data-name="패스 11207" d="M323.319 5.906a6.06 6.06 0 0 1 12.09-.436 6.128 6.128 0 0 1-6.172 6.666 6.234 6.234 0 0 1-5.918-6.23" transform="translate(-65.43)" style="fill:#262f4a"/>
    </g>
</svg>
