<svg xmlns="http://www.w3.org/2000/svg" width="24" height="24" viewBox="0 0 24 24">
    <path data-name="패스 494" d="M0 0h24v24H0z" style="fill:none"/>
    <path d="M11.5 9.858v1.113a.479.479 0 0 1-.479.477H3.312a.479.479 0 0 1-.479-.477V9.858a.479.479 0 0 1 .479-.477h7.707a.479.479 0 0 1 .481.477zm-.479 2.862H3.312a.479.479 0 0 0-.479.477v1.113a.479.479 0 0 0 .479.477h7.707a.479.479 0 0 0 .479-.477V13.2a.479.479 0 0 0-.48-.48zm4.309-6.477v12.2a1.913 1.913 0 0 1-1.916 1.908H.916A1.913 1.913 0 0 1-1 18.444V2.908A1.913 1.913 0 0 1 .916 1h9.148a1.92 1.92 0 0 1 1.353.56l3.35 3.34a1.9 1.9 0 0 1 .563 1.343zm-5.11-3.18v3.025h3.038L10.22 3.063zm3.194 15.381V8H9.262a.954.954 0 0 1-.962-.958V2.908H.916v15.536z" transform="translate(5 1)" style="fill:#fff"/>
</svg>
