<svg xmlns="http://www.w3.org/2000/svg" width="20.083" height="21.475" viewBox="0 0 20.083 21.475">
    <defs>
        <clipPath id="81wg9drh8a">
            <path data-name="사각형 696" style="fill:none;stroke:#fefefe" d="M0 0h20.052v20.408H0z"/>
        </clipPath>
    </defs>
    <g data-name="icon01">
        <g data-name="그룹 2474">
            <path data-name="선 82" style="stroke-width:1.5px;stroke-miterlimit:10;fill:none;stroke:#fefefe" d="M0 0h7.822" transform="translate(3.02 5.067)"/>
            <path data-name="선 106" transform="translate(3.02 8.067)" style="stroke-width:1.5px;stroke-miterlimit:10;fill:none;stroke:#fefefe" d="M0 0h7.822"/>
            <path data-name="패스 11282" d="M0 0h4.411" transform="translate(3.02 11.067)" style="stroke-width:1.5px;fill:none;stroke:#fefefe"/>
        </g>
        <g data-name="그룹 316" transform="translate(.031 1.067)" style="clip-path:url(#81wg9drh8a)">
            <path data-name="패스 332" d="M19.3 14.691a4.968 4.968 0 1 1-4.968-4.968 4.967 4.967 0 0 1 4.968 4.968z" transform="translate(0 -1.322)" style="stroke-linecap:round;stroke-width:1.5px;stroke-miterlimit:10;fill:none;stroke:#fefefe"/>
            <path data-name="패스 333" d="M15.233 12.47a.9.9 0 1 1-.9-.9.9.9 0 0 1 .9.9" transform="translate(0 -1)" style="fill:#fff"/>
            <path data-name="패스 11283" d="M0 0v1.791" transform="translate(14.346 13.709)" style="stroke-linecap:round;stroke-width:1.5px;fill:none;stroke:#fefefe"/>
        </g>
        <g data-name="그룹 3753">
            <path data-name="사각형 697" d="M969.56 567.3v4.431a.461.461 0 0 0 .425.49H981.7a.462.462 0 0 0 .426-.491v-13.657a.462.462 0 0 0-.426-.491h-4.5" transform="rotate(180 491.436 286.483)" style="stroke-linecap:round;stroke-width:1.5px;stroke-miterlimit:10;fill:none;stroke:#fefefe"/>
        </g>
    </g>
</svg>
