<svg xmlns="http://www.w3.org/2000/svg" width="152.627" height="28.588" viewBox="0 0 152.627 28.588">
    <defs>
        <clipPath id="0hn6xge3ta">
            <path data-name="사각형 2789" transform="translate(0 .998)" style="fill:#7cb21d" d="M0 0h152.627v28.588H0z"/>
        </clipPath>
    </defs>
    <g data-name="그룹 5868" transform="translate(0 -.998)" style="clip-path:url(#0hn6xge3ta)">
        <path data-name="패스 3304" d="M28.661 12.424 18.028 1.192a4.083 4.083 0 0 0-5.723-.044L1.179 12.538a4.25 4.25 0 0 0-.044 5.828l8.333 8.8a4.007 4.007 0 0 0 5.675.016l6.118-6.517-6.213-.246a1.715 1.715 0 0 0-1.3.537s-.4.415-.575.575a.9.9 0 0 1-.775.318.946.946 0 0 1-.731-.319l-4.78-5.051a1.429 1.429 0 0 1 .046-1.931l7.207-7.5a1.357 1.357 0 0 1 1.909.021l7.713 8.148a1.366 1.366 0 0 1 .227 1.545l-5.828 11.731 5.646.087.457.007 5.123-10.881a6.762 6.762 0 0 0 .7-2.309 4.206 4.206 0 0 0-1.422-2.972" transform="translate(0 .999)" style="fill:#7fbf36"/>
        <path data-name="패스 3305" d="M68.023 14.913h11.206v-4.907H65.551a2.662 2.662 0 0 0-2.615 2.7v14.567a2.662 2.662 0 0 0 2.615 2.7h13.678v-4.906H68.023a.238.238 0 0 1-.233-.243V22.2h10.593v-4.419H67.79v-2.625a.238.238 0 0 1 .233-.243" transform="translate(-27.05 -.445)" style="fill:#070203"/>
        <path data-name="패스 3311" d="M68.023 14.913h11.206v-4.907H65.551a2.662 2.662 0 0 0-2.615 2.7v14.567a2.662 2.662 0 0 0 2.615 2.7h13.678v-4.906H68.023a.238.238 0 0 1-.233-.243V22.2h10.593v-4.419H67.79v-2.625a.238.238 0 0 1 .233-.243" transform="translate(72.275 -.445)" style="fill:#070203"/>
        <path data-name="사각형 2787" transform="translate(91.508 2.801)" style="fill:#7fbf36" d="M0 0h4.871v4.96H0z"/>
        <path data-name="사각형 2788" transform="translate(91.508 9.56)" style="fill:#070203" d="M0 0h4.871v19.969H0z"/>
        <path data-name="패스 3307" d="M207.871 10.006h-9.529a2.7 2.7 0 0 0-2.64 2.743v17.225h5.16v-6.029h7.009a4.631 4.631 0 0 0 4.533-4.713v-4.513a4.631 4.631 0 0 0-4.533-4.713m-.085 5.1v3.734a.243.243 0 0 1-.239.247h-6.47a.235.235 0 0 1-.216-.162v-3.9a.235.235 0 0 1 .216-.162h6.47a.243.243 0 0 1 .239.247" transform="translate(-96.967 -.445)" style="fill:#070203"/>
        <path data-name="패스 3308" d="M147.62 25.049h10.48v4.926h-12.952a2.668 2.668 0 0 1-2.615-2.712V10.007h4.854V24.8a.239.239 0 0 0 .233.245" transform="translate(-68.945 -.445)" style="fill:#070203"/>
        <path data-name="패스 3309" d="M240.324 25.049h9.982v4.926h-12.454a2.668 2.668 0 0 1-2.615-2.712V10.007h4.854V24.8a.239.239 0 0 0 .233.245" transform="translate(-117.447 -.445)" style="fill:#070203"/>
        <path data-name="패스 3310" d="M107.618 29.974V15.223a.24.24 0 0 1 .239-.242h6.478a.241.241 0 0 1 .239.242v14.751h4.873V14.642a4.593 4.593 0 0 0-4.538-4.636h-9.523a2.675 2.675 0 0 0-2.642 2.7v17.268z" transform="translate(-48.212 -.445)" style="fill:#070203"/>
    </g>
</svg>
