<svg xmlns="http://www.w3.org/2000/svg" width="66" height="19" viewBox="0 0 66 19">
    <defs>
        <clipPath id="z7tcluc2qa">
            <path data-name="사각형 4767" style="fill:none" d="M0 0h66v19H0z"/>
        </clipPath>
    </defs>
    <path data-name="패스 11365" d="M0 0v4.832h3.083v14.154h5.044V0z" style="fill:#ffc600"/>
    <g data-name="그룹 4233">
        <g data-name="그룹 4232" style="clip-path:url(#z7tcluc2qa)">
            <path data-name="패스 11366" d="M42.63 0h-7.879a4.359 4.359 0 0 0-4.247 4.454v14.533h4.419v-6.506a.234.234 0 0 1 .234-.235h7.065a.235.235 0 0 1 .235.235v6.506h4.42V4.454A4.359 4.359 0 0 0 42.63 0m-.171 4.983v2.564a.236.236 0 0 1-.235.235h-7.065a.236.236 0 0 1-.235-.235V4.983a.236.236 0 0 1 .235-.235h7.065a.236.236 0 0 1 .235.235"/>
            <path data-name="패스 11367" d="M23.425 0h-9.34a2.6 2.6 0 0 0-2.588 2.608v16.379h5.061v-6.213h6.87a4.468 4.468 0 0 0 4.442-4.481V4.481A4.468 4.468 0 0 0 23.425 0m-.083 4.852v3.07a.235.235 0 0 1-.234.235h-6.35A.229.229 0 0 1 16.551 8V4.77a.229.229 0 0 1 .211-.154h6.346a.235.235 0 0 1 .234.235"/>
            <path data-name="패스 11368" d="M66 .013h-4.83l-3.36 5.924L54.459.013h-4.833l5.837 10.334V19h4.7v-8.654z"/>
        </g>
    </g>
</svg>
