<svg xmlns="http://www.w3.org/2000/svg" width="70" height="56" viewBox="0 0 70 56">
    <defs>
        <style>
            .cls-2{fill:#ffffff}
        </style>
    </defs>
    <g id="Ios_on" transform="translate(-458 -209)">
        <rect id="사각형_2340" data-name="사각형 2340" width="70" height="56" rx="6" transform="translate(458 209)" style="fill:#fff;opacity:0"/>
        <g id="그룹_3281" data-name="그룹 3281">
            <g id="그룹_3262" data-name="그룹 3262" transform="translate(482 224)">
                <g id="그룹_2722" data-name="그룹 2722">
                    <path id="패스_974" data-name="패스 974" class="cls-2" d="M341.158 258.663a5.844 5.844 0 0 1 2.793-4.92 6.057 6.057 0 0 0-4.728-2.571c-2.017-.2-3.937 1.189-4.956 1.189s-2.6-1.156-4.27-1.123a6.334 6.334 0 0 0-5.356 3.241c-2.281 3.96-.586 9.829 1.642 13.04 1.086 1.572 2.38 3.338 4.08 3.274 1.642-.063 2.261-1.059 4.243-1.059s2.538 1.059 4.273 1.033c1.762-.037 2.881-1.609 3.957-3.181a14.352 14.352 0 0 0 1.794-3.684 5.708 5.708 0 0 1-3.472-5.239z" transform="translate(-323.557 -244.917)"/>
                    <path id="패스_975" data-name="패스 975" class="cls-2" d="M394.96 215.065a5.675 5.675 0 0 0 1.347-4.13 5.794 5.794 0 0 0-3.809 1.958 5.422 5.422 0 0 0-1.376 4.007 4.8 4.8 0 0 0 3.838-1.835z" transform="translate(-380.62 -210.935)"/>
                </g>
            </g>
            <circle id="타원_148" data-name="타원 148" class="cls-2" cx="1.5" cy="1.5" r="1.5" transform="translate(506 222)"/>
        </g>
    </g>
</svg>
