<svg data-name="그룹 6679" xmlns="http://www.w3.org/2000/svg" width="15" height="17.837" viewBox="0 0 15 17.837">
    <path data-name="패스 970" d="M643.4 367.424a1 1 0 0 0 .995.995h.936v2.481a1.1 1.1 0 0 0 1.1 1.1 1.1 1.1 0 0 0 1.1-1.1v-2.483h1.455v2.483a1.1 1.1 0 0 0 1.1 1.1 1.1 1.1 0 0 0 1.1-1.1v-2.483h.936a1 1 0 0 0 .995-.995v-7.2h-9.7z" transform="translate(-640.745 -354.161)" style="fill:#0a072b"/>
    <path data-name="패스 971" d="M623.12 358.067a1.1 1.1 0 0 0-1.1 1.1v4.549a1.1 1.1 0 0 0 2.191 0v-4.549a1.1 1.1 0 0 0-1.091-1.1z" transform="translate(-622.025 -352.271)" style="fill:#0a072b"/>
    <path data-name="패스 972" d="M726.4 358.067a1.1 1.1 0 0 0-1.1 1.1v4.549a1.1 1.1 0 0 0 2.191 0v-4.549a1.1 1.1 0 0 0-1.091-1.1z" transform="translate(-712.497 -352.271)" style="fill:#0a072b"/>
    <path data-name="패스 973" d="m650.7 313.02.815-1.41a.186.186 0 0 0-.322-.186l-.827 1.431a5.175 5.175 0 0 0-2.116-.447 5.174 5.174 0 0 0-2.116.447l-.827-1.431a.186.186 0 0 0-.322.186l.815 1.41a4.414 4.414 0 0 0-2.4 3.856v.05h9.7v-.05a4.414 4.414 0 0 0-2.4-3.856zm-4.7 2.18a.418.418 0 1 1 .418-.418.418.418 0 0 1-.418.418zm4.49 0a.418.418 0 1 1 .418-.418.418.418 0 0 1-.417.418z" transform="translate(-640.745 -311.331)" style="fill:#0a072b"/>
</svg>
