<svg xmlns="http://www.w3.org/2000/svg" width="110.142" height="104.621" viewBox="0 0 110.142 104.621">
    <defs>
        <style>
            .cls-1,.cls-2,.cls-3,.cls-4{fill:#fff}.cls-1{stroke:#d6d6d6}.cls-1,.cls-2,.cls-4{stroke-linecap:round;stroke-linejoin:round}.cls-1,.cls-2{stroke-width:4.4px}.cls-2{stroke:#8c8c8c}.cls-5,.cls-6{stroke:none}.cls-6{fill:#3c71fd}
        </style>
    </defs>
    <g id="그룹_2914" transform="translate(-1322.261 -252.461)">
        <path id="사각형_1728" d="M0 0H74.935V53.773H0z" class="cls-1" transform="translate(1324.461 301.109)"/>
        <path id="사각형_1729" d="M0 0H74.935V8.445H0z" class="cls-1" transform="translate(1324.461 292.664)"/>
        <path id="사각형_1730" d="M0 0H44.178V32.522H0z" class="cls-1" transform="translate(1386.025 297.651)"/>
        <path id="사각형_1731" d="M0 0H44.178V6.26H0z" class="cls-1" transform="translate(1386.025 291.39)"/>
        <path id="사각형_1732" d="M0 0H81.801V68.404H0z" class="cls-2" transform="translate(1336.139 276.931)"/>
        <path id="선_131" d="M0 0L81.801 0" class="cls-2" transform="translate(1336.139 286.149)"/>
        <path id="선_132" d="M0 0L17.347 0" class="cls-1" transform="translate(1389.894 328.398)"/>
        <path id="선_133" d="M0 0L17.347 0" class="cls-1" transform="translate(1389.894 336.11)"/>
        <path id="패스_1041" d="M1370.549 312.2h20.34c1.1-2.977 3.862-8.661 10.747-20.051.028-.046.057-.091.088-.137.424-.628.839-1.308 1.232-2.019a25.354 25.354 0 1 0-44.494-.01l.024.043c.386.7.79 1.362 1.2 1.97.032.046.062.093.09.141 6.924 11.457 9.68 17.103 10.773 20.063z" class="cls-3" transform="translate(-4.3)"/>
        <g id="그룹_2932" transform="translate(1354.727 256.728)">
            <g id="그룹_2925" transform="translate(0 0)">
                <g id="그룹_2924">
                    <g id="패스_1042" class="cls-4">
                        <path d="M1389.93 304.75h-17.253l-.001-.13-.021-.143c-.355-2.438-5.345-10.901-7.473-14.427l-.029-.047-.03-.046c-.3-.444-.592-.92-.868-1.419l-.02-.037-.023-.037-.012-.023-.02-.039c-1.544-2.839-2.36-6.055-2.36-9.3 0-10.744 8.74-19.484 19.484-19.484 10.744 0 19.484 8.74 19.484 19.483 0 3.272-.828 6.51-2.394 9.362-.286.521-.594 1.028-.915 1.506l-.029.044-.027.045c-2.188 3.62-4.044 6.886-5.369 9.442-1.918 3.703-2.047 4.597-2.101 4.978l-.021.143-.002.13z" class="cls-5" transform="translate(-1359.62 -257.418)"/>
                        <path d="M1388.231 302.551c.978-2.637 3.426-7.205 7.309-13.631.036-.06.073-.118.112-.176.285-.425.559-.875.813-1.34 1.389-2.529 2.123-5.4 2.123-8.303 0-9.53-7.754-17.283-17.284-17.283s-17.284 7.753-17.284 17.283c0 2.88.724 5.733 2.092 8.25l.024.045.043.075c.245.442.503.865.767 1.255.041.062.08.124.12.187 3.882 6.431 6.331 11.002 7.31 13.638h13.855m1.713 4.4h-17.28c-.586 0-1.146-.235-1.557-.652-.397-.403-.622-.942-.63-1.505-.123-.852-1.767-4.643-7.179-13.607-.334-.495-.66-1.027-.967-1.582-.03-.05-.059-.1-.085-.152-1.718-3.16-2.626-6.739-2.626-10.352 0-11.956 9.728-21.683 21.684-21.683 11.956 0 21.684 9.727 21.684 21.683 0 3.64-.921 7.243-2.665 10.42-.322.587-.664 1.148-1.017 1.674-4.717 7.808-7.02 12.505-7.176 13.596-.007.564-.231 1.104-.628 1.507-.41.417-.972.653-1.558.653z" class="cls-6" transform="translate(-1359.62 -257.418)"/>
                    </g>
                </g>
            </g>
            <g id="그룹_2927" transform="translate(19.128 11.763)">
                <g id="그룹_2926" transform="translate(0.333)">
                    <g id="패스_1043" class="cls-4">
                        <path d="M1384.522 285.477c-.225 0-.41-.183-.41-.41v-9.907c0-.226.185-.41.41-.41.227 0 .41.184.41.41v9.908c0 .226-.183.41-.41.41z" class="cls-5" transform="translate(-1382.413 -272.079)"/>
                        <path d="M1384.522 287.177c-1.164 0-2.109-.944-2.109-2.11v-9.907c0-1.165.945-2.11 2.11-2.11s2.11.945 2.11 2.11v9.908c0 1.165-.945 2.11-2.11 2.11z" class="cls-6" transform="translate(-1382.413 -272.079)"/>
                    </g>
                </g>
                <g id="패스_1044" class="cls-4">
                    <path d="M1384.498 294.223c-.41 0-.742-.332-.742-.74 0-.41.333-.744.742-.744.41 0 .742.334.742.744 0 .408-.333.74-.742.74z" class="cls-5" transform="translate(-1382.056 -273.374)"/>
                    <path d="M1384.498 295.923c-1.347 0-2.442-1.092-2.442-2.44 0-1.35 1.095-2.444 2.442-2.444 1.35 0 2.442 1.094 2.442 2.444 0 1.348-1.092 2.44-2.442 2.44z" class="cls-6" transform="translate(-1382.056 -273.374)"/>
                </g>
            </g>
            <g id="그룹_2931" transform="translate(7.826 40.9)">
                <g id="그룹_2928">
                    <path id="패스_1045" d="M1394.538 310.254a3.393 3.393 0 0 1-2.73 3.945l-16.556 3.01a3.39 3.39 0 0 1-3.943-2.73 3.391 3.391 0 0 1 2.729-3.943l16.557-3.012a3.391 3.391 0 0 1 3.943 2.729z" class="cls-3" transform="translate(-1369.065 -305.283)"/>
                    <g id="패스_1046" class="cls-4">
                        <path d="M1374.286 316.898c-1.63 0-3.026-1.167-3.318-2.774-.162-.887.032-1.784.546-2.527.513-.74 1.285-1.238 2.173-1.4l16.556-3.012c.2-.037.404-.055.608-.055 1.631 0 3.027 1.166 3.32 2.774.161.886-.033 1.784-.546 2.526-.514.742-1.286 1.24-2.173 1.402l-16.557 3.01c-.2.037-.404.056-.61.056z" class="cls-5" transform="translate(-1368.712 -304.93)"/>
                        <path d="M1374.286 314.698c.072 0 .145-.007.215-.02l16.557-3.01c.318-.059.573-.223.757-.489.185-.267.25-.564.191-.882-.102-.56-.588-.967-1.155-.967-.072 0-.144.007-.215.02l-16.556 3.012c-.319.058-.574.223-.757.487-.185.266-.249.563-.19.881.101.56.586.968 1.153.968m0 4.4c-2.695 0-5-1.926-5.483-4.58-.267-1.465.054-2.947.901-4.173.848-1.224 2.122-2.045 3.588-2.312l16.557-3.013c.331-.06.668-.09 1.002-.09 2.695 0 5.001 1.926 5.484 4.58.267 1.465-.053 2.946-.901 4.172-.848 1.225-2.122 2.047-3.588 2.314l-16.557 3.011c-.33.06-.668.09-1.003.09z" class="cls-6" transform="translate(-1368.712 -304.93)"/>
                    </g>
                </g>
                <g id="그룹_2929" transform="translate(7.638 14.344)">
                    <g id="패스_1047" class="cls-4">
                        <path d="M1383.804 331.832c-2.216 0-4.02-1.803-4.02-4.019s1.804-4.02 4.02-4.02c2.216 0 4.02 1.804 4.02 4.02 0 2.216-1.804 4.019-4.02 4.019z" class="cls-5" transform="translate(-1377.585 -321.593)"/>
                        <path d="M1383.804 329.632c1.003 0 1.82-.816 1.82-1.819 0-1.003-.817-1.82-1.82-1.82-1.003 0-1.819.817-1.819 1.82 0 1.003.816 1.819 1.819 1.819m0 4.4c-3.429 0-6.219-2.79-6.219-6.219 0-3.43 2.79-6.22 6.219-6.22 3.43 0 6.22 2.79 6.22 6.22 0 3.429-2.79 6.219-6.22 6.219z" class="cls-6" transform="translate(-1377.585 -321.593)"/>
                    </g>
                </g>
                <g id="그룹_2930" transform="translate(0 7.092)">
                    <path id="패스_1048" d="M1394.538 318.494a3.392 3.392 0 0 1-2.73 3.944l-16.556 3.01a3.39 3.39 0 0 1-3.943-2.729 3.389 3.389 0 0 1 2.729-3.943l16.557-3.013a3.391 3.391 0 0 1 3.943 2.73z" class="cls-3" transform="translate(-1369.065 -313.522)"/>
                    <g id="패스_1049" class="cls-4">
                        <path d="M1374.287 325.137c-1.631 0-3.027-1.167-3.32-2.774-.16-.887.033-1.784.547-2.526.514-.742 1.284-1.239 2.17-1.399l16.556-3.014c.206-.036.411-.055.61-.055 1.632 0 3.028 1.167 3.32 2.774.334 1.832-.886 3.594-2.718 3.928l-16.557 3.01c-.2.037-.404.056-.608.056z" class="cls-5" transform="translate(-1368.712 -313.169)"/>
                        <path d="M1374.287 322.937c.07 0 .144-.007.214-.02l16.557-3.01c.639-.117 1.064-.732.948-1.37-.102-.56-.588-.968-1.155-.968-.069 0-.145.007-.221.02l-16.549 3.013h-.005c-.316.058-.57.222-.754.488-.184.266-.248.561-.19.88.102.56.588.967 1.155.967m0 4.4c-2.695 0-5-1.926-5.484-4.58-.267-1.465.054-2.948.902-4.173.848-1.224 2.122-2.046 3.588-2.31l16.556-3.015c.331-.059.668-.09 1.002-.09 2.695 0 5.001 1.927 5.484 4.58.55 3.025-1.463 5.935-4.49 6.486l-16.556 3.011c-.33.06-.668.09-1.002.09z" class="cls-6" transform="translate(-1368.712 -313.169)"/>
                    </g>
                </g>
            </g>
        </g>
    </g>
</svg>
