<svg xmlns="http://www.w3.org/2000/svg" width="15" height="15.704" viewBox="0 0 15 15.704">
    <path d="M7.5 8A7.681 7.681 0 0 0 0 15.852 7.681 7.681 0 0 0 7.5 23.7a7.681 7.681 0 0 0 7.5-7.848A7.681 7.681 0 0 0 7.5 8zm5.422 5.066H10.89a10.9 10.9 0 0 0-.944-3 6.2 6.2 0 0 1 2.976 3zM7.5 9.52c.562 0 1.47 1.3 1.911 3.546H5.589C6.03 10.824 6.937 9.52 7.5 9.52zm-6.048 6.332a6.7 6.7 0 0 1 .121-1.266h2.35c-.03.415-.051.833-.051 1.266s.021.852.051 1.266h-2.35a6.7 6.7 0 0 1-.121-1.266zm.626 2.786H4.11a10.9 10.9 0 0 0 .944 3 6.2 6.2 0 0 1-2.976-3zm2.032-5.572H2.078a6.2 6.2 0 0 1 2.976-3 10.9 10.9 0 0 0-.944 3zm3.39 9.119c-.563 0-1.47-1.3-1.911-3.546h3.825C8.97 20.88 8.062 22.185 7.5 22.185zm2.12-5.066H5.38c-.033-.405-.057-.823-.057-1.266s.024-.861.057-1.266h4.243c.033.405.057.823.057 1.266s-.027.86-.06 1.266zm.327 4.518a11 11 0 0 0 .944-3h2.032a6.2 6.2 0 0 1-2.976 3zm1.131-4.518c.03-.415.051-.833.051-1.266s-.021-.852-.051-1.266h2.35a6.69 6.69 0 0 1 0 2.533z" transform="translate(0 -8)" style="fill:#0a072b"/>
</svg>
