<svg data-name="그룹 6680" xmlns="http://www.w3.org/2000/svg" width="15" height="18.421" viewBox="0 0 15 18.421">
    <g data-name="그룹 2722">
        <path data-name="패스 974" d="M336.086 256.5a4.16 4.16 0 0 1 1.988-3.5 4.312 4.312 0 0 0-3.366-1.83c-1.436-.145-2.8.846-3.528.846s-1.852-.823-3.039-.8a4.508 4.508 0 0 0-3.812 2.307c-1.624 2.819-.417 7 1.169 9.282.773 1.119 1.694 2.376 2.9 2.331 1.169-.045 1.61-.754 3.021-.754s1.807.754 3.042.735c1.254-.026 2.051-1.145 2.817-2.264a10.217 10.217 0 0 0 1.277-2.622 4.063 4.063 0 0 1-2.469-3.731z" transform="translate(-323.557 -246.714)" style="fill:#fff"/>
        <path data-name="패스 975" d="M393.844 213.875a4.039 4.039 0 0 0 .959-2.94 4.124 4.124 0 0 0-2.711 1.394 3.859 3.859 0 0 0-.979 2.852 3.418 3.418 0 0 0 2.731-1.306z" transform="translate(-383.637 -210.935)" style="fill:#fff"/>
    </g>
</svg>
