<svg xmlns="http://www.w3.org/2000/svg" width="70" height="56" viewBox="0 0 70 56">
    <defs>
        <style>
            .cls-2{fill:#07e6ff}
        </style>
    </defs>
    <g id="an_on" transform="translate(-384 -209)">
        <rect id="사각형_2336" data-name="사각형 2336" width="70" height="56" rx="6" transform="translate(384 209)" style="fill:#fff;opacity:0"/>
        <g id="그룹_3282" data-name="그룹 3282">
            <g id="그룹_3261" data-name="그룹 3261" transform="translate(407 223)">
                <path id="패스_970" data-name="패스 970" class="cls-2" d="M643.4 371.558a1.566 1.566 0 0 0 1.566 1.566h1.474v3.909a1.724 1.724 0 0 0 1.724 1.724 1.724 1.724 0 0 0 1.724-1.724v-3.909h2.29v3.909a1.724 1.724 0 0 0 1.724 1.724 1.724 1.724 0 0 0 1.724-1.724v-3.909h1.474a1.566 1.566 0 0 0 1.566-1.566v-11.333H643.4z" transform="translate(-639.223 -350.678)"/>
                <path id="패스_971" data-name="패스 971" class="cls-2" d="M623.75 358.067a1.724 1.724 0 0 0-1.725 1.724v7.161a1.724 1.724 0 0 0 3.449 0v-7.161a1.724 1.724 0 0 0-1.724-1.724z" transform="translate(-622.025 -348.942)"/>
                <path id="패스_972" data-name="패스 972" class="cls-2" d="M727.031 358.067a1.724 1.724 0 0 0-1.724 1.724v7.161a1.724 1.724 0 0 0 3.449 0v-7.161a1.724 1.724 0 0 0-1.725-1.724z" transform="translate(-705.14 -348.942)"/>
                <path id="패스_973" data-name="패스 973" class="cls-2" d="m654.888 313.991 1.283-2.22a.293.293 0 0 0-.507-.293l-1.3 2.252a8.146 8.146 0 0 0-3.332-.7 8.144 8.144 0 0 0-3.332.7l-1.3-2.252a.293.293 0 0 0-.507.293l1.283 2.22a6.949 6.949 0 0 0-3.777 6.071v.079h15.269v-.079a6.949 6.949 0 0 0-3.78-6.071zm-7.392 3.438a.658.658 0 1 1 .658-.658.658.658 0 0 1-.654.658zm7.068 0a.658.658 0 1 1 .658-.658.658.658 0 0 1-.657.658z" transform="translate(-639.223 -311.331)"/>
            </g>
            <circle id="타원_147" data-name="타원 147" class="cls-2" cx="1.5" cy="1.5" r="1.5" transform="translate(430 222)"/>
        </g>
    </g>
</svg>
