<svg xmlns="http://www.w3.org/2000/svg" width="50" height="50" viewBox="0 0 50 50">
    <path d="M25 8a25 25 0 1 0 25 25A25 25 0 0 0 25 8zm18.075 16.129H36.3a33.594 33.594 0 0 0-3.145-9.546 20.209 20.209 0 0 1 9.919 9.546zM25 12.839c1.875 0 4.9 4.153 6.371 11.29H18.629c1.471-7.137 4.496-11.29 6.371-11.29zM4.839 33a20.411 20.411 0 0 1 .4-4.032h7.833c-.1 1.321-.171 2.651-.171 4.032s.071 2.712.171 4.032h-7.83A20.411 20.411 0 0 1 4.839 33zm2.087 8.871H13.7a33.594 33.594 0 0 0 3.145 9.546 20.209 20.209 0 0 1-9.919-9.546zM13.7 24.129H6.925a20.209 20.209 0 0 1 9.919-9.546 33.594 33.594 0 0 0-3.144 9.546zM25 53.161c-1.875 0-4.9-4.153-6.371-11.29h12.752C29.9 49.008 26.875 53.161 25 53.161zm7.067-16.129H17.933c-.111-1.29-.192-2.621-.192-4.032s.081-2.742.192-4.032h14.144c.111 1.29.192 2.621.192 4.032s-.092 2.742-.202 4.032zm1.089 14.385a33.913 33.913 0 0 0 3.144-9.546h6.774a20.209 20.209 0 0 1-9.919 9.546zm3.77-14.385c.1-1.321.171-2.651.171-4.032s-.071-2.712-.171-4.032h7.833a20.363 20.363 0 0 1 0 8.065z" transform="translate(0 -8)" style="fill:#07e6ff"/>
</svg>
