<svg xmlns="http://www.w3.org/2000/svg" width="52" height="52" viewBox="0 0 52 52">
    <path data-name="icon_script_Empty page" d="M496.936 316.192a3.684 3.684 0 0 0-4.01-.07l-5.866-6.237a8.971 8.971 0 1 0-15.2-1.031l-13.482 8.976a6.4 6.4 0 0 0-3.547-2.716l3.084-9.518a2.82 2.82 0 0 0 .347.035 3 3 0 1 0-1.814-.639l-3.191 9.844a6.422 6.422 0 1 0 3.86 11.284l13.165 7.453a6.439 6.439 0 0 0 .612 5.539l-5.115 4.065c-.061-.041-.114-.089-.179-.125a2.47 2.47 0 1 0 1.127 1.4l5.166-4.105a6.5 6.5 0 1 0 6.432-10.864l1.814-15.858a8.866 8.866 0 0 0 5.881-2.529l5.765 6.129a3.7 3.7 0 1 0 5.149-1.033zm-38.317 8.045a6.4 6.4 0 0 0 .638-4.132l13.984-9.311a9 9 0 0 0 4.535 2.617l-1.808 15.805a6.565 6.565 0 0 0-1.249.215 6.5 6.5 0 0 0-3.255 2.079z" transform="translate(-446.571 -295.64)" style="fill:#91aed5"/>
</svg>
