<svg xmlns="http://www.w3.org/2000/svg" width="70" height="56" viewBox="0 0 70 56">
    <g transform="translate(-532 -209)">
        <rect data-name="사각형 2342" width="70" height="56" rx="6" transform="translate(532 209)" style="fill:transparent"/>
        <g style="opacity:.4">
            <path d="M12.435 8C5.566 8 0 13.827 0 21.019s5.566 13.018 12.435 13.018 12.434-5.827 12.434-13.018S19.3 8 12.435 8zm8.99 8.4h-3.37a18.068 18.068 0 0 0-1.564-4.971 10.274 10.274 0 0 1 4.934 4.971zm-8.99-5.879c.933 0 2.437 2.163 3.169 5.879H9.266c.734-3.717 2.234-5.88 3.169-5.88zM2.407 21.019a11.111 11.111 0 0 1 .2-2.1H6.5c-.05.688-.085 1.381-.085 2.1s.035 1.412.085 2.1H2.6a11.111 11.111 0 0 1-.193-2.1zm1.038 4.62h3.369a18.068 18.068 0 0 0 1.564 4.971 10.274 10.274 0 0 1-4.934-4.971zM6.814 16.4H3.445a10.274 10.274 0 0 1 4.934-4.971A18.068 18.068 0 0 0 6.814 16.4zm5.621 15.118c-.933 0-2.437-2.163-3.169-5.879h6.343c-.737 3.717-2.241 5.879-3.174 5.879zm3.515-8.4H8.92c-.055-.672-.1-1.365-.1-2.1s.04-1.428.1-2.1h7.035c.055.672.1 1.365.1 2.1s-.055 1.428-.106 2.1zm.542 7.491a18.24 18.24 0 0 0 1.564-4.971h3.369a10.274 10.274 0 0 1-4.934 4.971zm1.875-7.491c.05-.688.085-1.381.085-2.1s-.035-1.412-.085-2.1h3.9a11.092 11.092 0 0 1 0 4.2z" transform="translate(555 216)" style="fill:#778daa" data-name="그룹 3286"/>
        </g>
    </g>
</svg>
