<svg xmlns="http://www.w3.org/2000/svg" width="78.555" height="58.14" viewBox="0 0 78.555 58.14">
    <defs>
        <clipPath id="apyt91264a">
            <path data-name="사각형 3410" transform="translate(-1)" style="stroke:#111a46;fill:#3c71fd" d="M0 0h65.757v53.329H0z"/>
        </clipPath>
    </defs>
    <g data-name="그룹 7043">
        <g data-name="그룹 4048" transform="translate(1)" style="clip-path:url(#apyt91264a)">
            <path data-name="패스 11297" d="M31.927 69.664v3.058h-5.962a1.423 1.423 0 0 0-1.431 1.4v.078a1.422 1.422 0 0 0 1.431 1.4h29.019a1.422 1.422 0 0 0 1.431-1.4v-.075a1.423 1.423 0 0 0-1.431-1.4h-6.673v-3.061z" transform="translate(-8.596 -23.275)" style="fill:#3c71fd"/>
            <path data-name="패스 11298" d="M0 54.064v3.054c0 1.039 1.6 1.889 3.557 1.889H60.2c1.957 0 3.561-.85 3.561-1.889v-4.385H0z" transform="translate(0 -15.533)" style="fill:#3c71fd"/>
            <path data-name="패스 11300" d="M67.023 5.8a4.135 4.135 0 0 0-3.092-1.408H8.5a4.18 4.18 0 0 0-4.163 4.167v29.407H68.1V8.559A4.142 4.142 0 0 0 67.023 5.8" transform="translate(-4.337 -3.397)" style="fill:#3c71fd"/>
        </g>
        <g data-name="그룹 4050">
            <g data-name="그룹 4011">
                <g data-name="그룹 4002">
                    <g data-name="패스 1172" style="fill:#3c71fd">
                        <path d="M12.588 26.68a13.996 13.996 0 0 1-9.962-4.127A13.998 13.998 0 0 1-1.5 12.59c0-3.764 1.465-7.302 4.126-9.963A13.996 13.996 0 0 1 12.588-1.5c3.764 0 7.302 1.466 9.963 4.127a13.998 13.998 0 0 1 4.126 9.963c0 3.763-1.465 7.302-4.126 9.963a13.996 13.996 0 0 1-9.963 4.127z" style="stroke:none" transform="translate(50.378 29.962)"/>
                        <path d="M12.588 25.18c6.953 0 12.589-5.637 12.589-12.59S19.541 0 12.588 0C5.636 0 0 5.637 0 12.59s5.636 12.59 12.588 12.59m0 3c-2.103 0-4.144-.413-6.068-1.227a15.533 15.533 0 0 1-4.954-3.34 15.534 15.534 0 0 1-3.34-4.954A15.496 15.496 0 0 1-3 12.589 15.534 15.534 0 0 1 1.566 1.566a15.533 15.533 0 0 1 11.022-4.565 15.533 15.533 0 0 1 11.023 4.566 15.534 15.534 0 0 1 3.34 4.955 15.496 15.496 0 0 1 1.226 6.069 15.534 15.534 0 0 1-4.566 11.024 15.533 15.533 0 0 1-11.023 4.566z" style="fill:#fff;stroke:none" transform="translate(50.378 29.962)"/>
                    </g>
                    <g data-name="그룹 3991">
                        <g data-name="합치기 20" style="fill:#3c71fd">
                            <path d="M9.747 14.687H3.45V9.74H-1.5V3.446h4.95V-1.5H9.747v4.946H14.685V9.74H9.747v4.946z" style="stroke:none" transform="translate(56.375 35.959)"/>
                            <path d="M4.95 0v4.946H0V8.24h4.95v4.946h3.297V8.24h4.938V4.946H8.247V0H4.95m-3-3h9.297v4.946h4.938v9.295h-4.938v4.946H1.95V11.24H-3V1.946h4.95V-3z" style="fill:#fff;stroke:none" transform="translate(56.375 35.959)"/>
                        </g>
                    </g>
                    <g data-name="그룹 3995">
                        <g data-name="패스 1172" style="fill:#3c71fd">
                            <path d="M12.588 26.68a13.996 13.996 0 0 1-9.962-4.127A13.998 13.998 0 0 1-1.5 12.59c0-3.764 1.465-7.302 4.126-9.963A13.996 13.996 0 0 1 12.588-1.5c3.764 0 7.302 1.466 9.963 4.127a13.998 13.998 0 0 1 4.126 9.963c0 3.763-1.465 7.302-4.126 9.963a13.996 13.996 0 0 1-9.963 4.127z" style="stroke:none" transform="translate(50.378 29.962)"/>
                            <path d="M12.588 25.18c6.953 0 12.589-5.637 12.589-12.59S19.541 0 12.588 0C5.636 0 0 5.637 0 12.59s5.636 12.59 12.588 12.59m0 3c-2.103 0-4.144-.413-6.068-1.227a15.533 15.533 0 0 1-4.954-3.34 15.534 15.534 0 0 1-3.34-4.954A15.496 15.496 0 0 1-3 12.589 15.534 15.534 0 0 1 1.566 1.566a15.533 15.533 0 0 1 11.022-4.565 15.533 15.533 0 0 1 11.023 4.566 15.534 15.534 0 0 1 3.34 4.955 15.496 15.496 0 0 1 1.226 6.069 15.534 15.534 0 0 1-4.566 11.024 15.533 15.533 0 0 1-11.023 4.566z" style="fill:#fff;stroke:none" transform="translate(50.378 29.962)"/>
                        </g>
                    </g>
                </g>
            </g>
        </g>
        <path data-name="패스 12570" d="M8.172.018V-2.2L3.114-5.328 8.172-8.5v-2.16L.936-6.192v1.764zm2.07 2.718h1.926l4.572-16.254h-1.926zm15.912-7.164v-1.764l-7.236-4.464V-8.5l5.04 3.168-5.04 3.132V.018z" transform="translate(19.001 24.658)" style="fill:#fff"/>
        <g data-name="그룹 7054">
            <path data-name="패스 12569" d="M1.992 21.639h5.639m5.639 0H7.631m0 0V16m0 5.639v5.639" transform="translate(55.37 21.019)" style="fill:none;stroke:#fff;stroke-linecap:round;stroke-linejoin:round;stroke-width:2.5px"/>
        </g>
    </g>
</svg>
