<svg xmlns="http://www.w3.org/2000/svg" width="70" height="56" viewBox="0 0 70 56">
    <defs>
        <clipPath id="clip-path">
            <path id="사각형_2343" data-name="사각형 2343" class="cls-1" d="M0 0h24.369v25.537H0z"/>
        </clipPath>
        <style>
            .cls-1{fill:#ffffff}
        </style>
    </defs>
    <g id="web_on" transform="translate(-532 -209)">
        <path id="패스_11190" data-name="패스 11190" d="M6 0h58a6 6 0 0 1 6 6v44a6 6 0 0 1-6 6H6a6 6 0 0 1-6-6V6a6 6 0 0 1 6-6z" transform="translate(532 209)" style="fill:#fff;opacity:0"/>
        <g id="그룹_3286" data-name="그룹 3286">
            <g id="그룹_3285" data-name="그룹 3285" transform="translate(74)">
                <circle id="타원_148" data-name="타원 148" class="cls-1" cx="1.5" cy="1.5" r="1.5" transform="translate(506 222)"/>
            </g>
            <g id="그룹_3287" data-name="그룹 3287" transform="translate(555 224)">
                <g id="그룹_3287-2" data-name="그룹 3287" style="clip-path:url(#clip-path)">
                    <path id="패스_11188" data-name="패스 11188" class="cls-1" d="M12.185 0C5.466 0 0 5.728 0 12.769s5.466 12.768 12.185 12.768 12.184-5.727 12.184-12.768S18.9 0 12.185 0M8.771 8.1c.779-3.951 2.34-6.082 3.414-6.082 1.089 0 2.664 2.275 3.413 6.081l.059.3H8.712zm7.164 2.316.019.23c.05.61.1 1.339.1 2.12 0 .716-.05 1.39-.1 2.043l-.024.307H8.439l-.019-.229c-.049-.608-.1-1.335-.1-2.121 0-.667.034-1.361.1-2.122l.021-.228zM2.967 8.045a10.546 10.546 0 0 1 5.055-5.092l.639-.3-.307.637a17.815 17.815 0 0 0-1.544 4.9l-.034.21H2.8zM2.1 14.916a11.539 11.539 0 0 1 .007-4.294l.039-.2h4.372l-.019.268c-.058.8-.084 1.456-.084 2.082s.026 1.287.084 2.083l.019.267H2.143zm5.917 7.67a10.546 10.546 0 0 1-5.055-5.092l-.162-.355h3.976l.034.21a17.811 17.811 0 0 0 1.543 4.9l.307.636zm7.583-5.148c-.755 3.805-2.331 6.08-3.419 6.08s-2.661-2.275-3.41-6.081l-.059-.3h6.952zm5.8.055a10.533 10.533 0 0 1-5.054 5.091l-.637.3.306-.636a17.911 17.911 0 0 0 1.542-4.9l.034-.21h3.974zm.86-6.872a11.238 11.238 0 0 1 0 4.294l-.039.2h-4.373l.02-.267c.057-.8.084-1.457.084-2.083s-.027-1.287-.084-2.082l-.02-.268h4.374zM21.566 8.4h-3.975l-.034-.21a17.761 17.761 0 0 0-1.542-4.9l-.306-.636.638.3A10.54 10.54 0 0 1 21.4 8.045z"/>
                </g>
            </g>
        </g>
    </g>
</svg>
