<svg xmlns="http://www.w3.org/2000/svg" width="62.971" height="77.332" viewBox="0 0 62.971 77.332">
    <defs>
        <style>
            .cls-1{fill:#07e6ff}
        </style>
    </defs>
    <g id="그룹_2773" transform="translate(0 0)">
        <g id="그룹_2722" transform="translate(0 0)">
            <path id="패스_974" d="M376.152 273.6c-.09-9.784 7.992-14.482 8.346-14.7a18.1 18.1 0 0 0-14.129-7.684c-6.026-.607-11.764 3.553-14.81 3.553s-7.773-3.454-12.76-3.355a18.927 18.927 0 0 0-16 9.685c-6.817 11.834-1.752 29.372 4.907 38.967 3.244 4.7 7.111 9.973 12.192 9.784 4.906-.189 6.758-3.165 12.68-3.165s7.584 3.165 12.77 3.085c5.265-.11 8.609-4.807 11.824-9.505a42.888 42.888 0 0 0 5.36-11.008 17.058 17.058 0 0 1-10.38-15.657z" class="cls-1" transform="translate(-323.557 -232.521)"/>
            <path id="패스_975" d="M402.654 223.277a16.959 16.959 0 0 0 4.026-12.342c-3.887.149-8.6 2.6-11.382 5.853-2.508 2.906-4.708 7.544-4.111 11.974 4.331.328 8.775-2.21 11.467-5.485z" class="cls-1" transform="translate(-359.804 -210.935)"/>
        </g>
    </g>
</svg>
