<svg xmlns="http://www.w3.org/2000/svg" width="41" height="41" viewBox="0 0 41 41">
    <g data-name="그룹 7073">
        <g data-name="그룹 4040">
            <g data-name="그룹 4033">
                <g data-name="그룹 4025">
                    <g data-name="그룹 4000" transform="translate(4.505 3.05)">
                        <rect data-name="사각형 3377" width="31.991" height="26.175" rx="3" transform="translate(0 8.725)" style="fill:#fff"/>
                        <path data-name="사각형 3380" d="M3 0h25.991a3 3 0 0 1 3 3v4.271H0V3a3 3 0 0 1 3-3z" transform="translate(0 4.362)" style="fill:#3c71fd"/>
                        <g data-name="그룹 4565">
                            <rect data-name="사각형 3381" width="8.156" height="7.821" rx="3" transform="translate(2.908 14.541)" style="fill:none"/>
                            <rect data-name="사각형 3746" width="8.156" height="7.821" rx="3" transform="translate(2.908 24.293)" style="fill:none"/>
                            <rect data-name="사각형 3742" width="8.156" height="7.821" rx="3" transform="translate(11.943 14.541)" style="fill:none"/>
                            <rect data-name="사각형 3745" width="8.156" height="7.821" rx="3" transform="translate(11.943 24.293)" style="fill:none"/>
                            <rect data-name="사각형 3833" width="8.156" height="7.821" rx="3" transform="translate(20.979 24.293)" style="fill:none"/>
                            <rect data-name="사각형 3743" width="8.156" height="7.821" rx="3" transform="translate(20.977 14.541)" style="fill:none"/>
                        </g>
                        <rect data-name="사각형 3378" width="4.362" height="8.725" rx="2.181" transform="translate(5.817)" style="fill:#fff"/>
                        <rect data-name="사각형 3379" width="4.362" height="8.725" rx="2.181" transform="translate(21.812)" style="fill:#fff"/>
                    </g>
                </g>
                <text data-name="1" transform="translate(20.5 31.799)" style="fill:#133b6d;stroke:#133b6d;stroke-linecap:round;stroke-linejoin:round;stroke-width:.8px;font-size:17px;font-family:NanumSquareRoundEB,NanumSquareRound;letter-spacing:-.05em"><tspan x="-5.27" y="0">1</tspan></text>
            </g>
        </g>
    </g>
</svg>
