<svg xmlns="http://www.w3.org/2000/svg" width="46.004" height="54.704" viewBox="0 0 46.004 54.704">
    <g data-name="그룹 6729">
        <path data-name="패스 970" d="M643.4 382.3a3.051 3.051 0 0 0 3.051 3.051h2.872v7.616a3.359 3.359 0 0 0 3.359 3.359 3.359 3.359 0 0 0 3.359-3.359v-7.616h4.459v7.616a3.359 3.359 0 0 0 3.359 3.359 3.359 3.359 0 0 0 3.359-3.359v-7.616h2.872a3.052 3.052 0 0 0 3.051-3.051v-22.075H643.4z" transform="translate(-635.267 -341.626)" style="fill:#07e6ff"/>
        <path data-name="패스 971" d="M625.385 358.067a3.359 3.359 0 0 0-3.359 3.359v13.95a3.359 3.359 0 0 0 6.719 0v-13.95a3.359 3.359 0 0 0-3.36-3.359z" transform="translate(-622.025 -340.289)" style="fill:#07e6ff"/>
        <path data-name="패스 972" d="M728.666 358.067a3.359 3.359 0 0 0-3.36 3.359v13.95a3.359 3.359 0 0 0 6.719 0v-13.95a3.359 3.359 0 0 0-3.359-3.359z" transform="translate(-686.02 -340.289)" style="fill:#07e6ff"/>
        <path data-name="패스 973" d="m665.784 316.512 2.5-4.325a.57.57 0 0 0-.988-.571L664.76 316a15.867 15.867 0 0 0-6.491-1.372 15.864 15.864 0 0 0-6.49 1.372l-2.536-4.388a.571.571 0 0 0-.988.571l2.5 4.325a13.538 13.538 0 0 0-7.358 11.827v.153h29.746v-.153a13.539 13.539 0 0 0-7.359-11.823zm-14.4 6.7a1.282 1.282 0 1 1 1.282-1.282 1.282 1.282 0 0 1-1.282 1.28zm13.77 0a1.282 1.282 0 1 1 1.282-1.282 1.282 1.282 0 0 1-1.282 1.28z" transform="translate(-635.267 -311.33)" style="fill:#07e6ff"/>
    </g>
</svg>
