<svg data-name="그룹 7082" xmlns="http://www.w3.org/2000/svg" width="33.85" height="29.618" viewBox="0 0 33.85 29.618">
    <path d="M4.231 61.618A4.235 4.235 0 0 1 0 57.387v-4.231a4.235 4.235 0 0 1 4.231-4.231h25.387a4.235 4.235 0 0 1 4.231 4.231v4.231a4.235 4.235 0 0 1-4.231 4.231zm17.512-4.76a1.587 1.587 0 1 0-1.587-1.587 1.587 1.587 0 0 0 1.587 1.587zm4.7-1.587a1.587 1.587 0 1 0 1.587-1.587 1.587 1.587 0 0 0-1.585 1.588z" transform="translate(0 -48.925)" style="fill:#3c71fd"/>
    <path data-name="server-solid" d="M4.231 44.694A4.235 4.235 0 0 1 0 40.462v-4.231A4.235 4.235 0 0 1 4.231 32h25.387a4.235 4.235 0 0 1 4.231 4.231v4.231a4.235 4.235 0 0 1-4.231 4.231zm17.512-4.76a1.587 1.587 0 1 0-1.587-1.587 1.587 1.587 0 0 0 1.587 1.586zm4.173-1.587A1.587 1.587 0 1 0 27.5 36.76a1.587 1.587 0 0 0-1.584 1.587z" transform="translate(0 -15.075)" style="fill:#fff"/>
    <circle data-name="타원 662" cx="2" cy="2" r="2" transform="translate(20 21.118)" style="fill:#133b6d"/>
    <circle data-name="타원 663" cx="2" cy="2" r="2" transform="translate(25.5 21.118)" style="fill:#133b6d"/>
    <circle data-name="타원 664" cx="2" cy="2" r="2" transform="translate(20 4.118)" style="fill:#133b6d"/>
    <circle data-name="타원 665" cx="2" cy="2" r="2" transform="translate(25.5 4.118)" style="fill:#133b6d"/>
</svg>
