<svg xmlns="http://www.w3.org/2000/svg" width="36.768" height="35.442" viewBox="0 0 36.768 35.442">
    <g data-name="그룹 7095">
        <g data-name="그룹 7083">
            <path d="M4.231 61.618A4.235 4.235 0 0 1 0 57.387v-4.231a4.235 4.235 0 0 1 4.231-4.231h25.387a4.235 4.235 0 0 1 4.231 4.231v4.231a4.235 4.235 0 0 1-4.231 4.231zm17.512-4.76a1.587 1.587 0 1 0-1.587-1.587 1.587 1.587 0 0 0 1.587 1.587zm4.7-1.587a1.587 1.587 0 1 0 1.587-1.587 1.587 1.587 0 0 0-1.585 1.588z" transform="translate(0 -48.925)" style="fill:#07e6ff"/>
            <path data-name="server-solid" d="M4.231 44.694A4.235 4.235 0 0 1 0 40.462v-4.231A4.235 4.235 0 0 1 4.231 32h25.387a4.235 4.235 0 0 1 4.231 4.231v4.231a4.235 4.235 0 0 1-4.231 4.231zm17.512-4.76a1.587 1.587 0 1 0-1.587-1.587 1.587 1.587 0 0 0 1.587 1.586zm4.173-1.587A1.587 1.587 0 1 0 27.5 36.76a1.587 1.587 0 0 0-1.584 1.587z" transform="translate(0 -15.075)" style="fill:#fff"/>
            <circle data-name="타원 662" cx="2" cy="2" r="2" transform="translate(20 21.118)" style="fill:#133b6d"/>
            <circle data-name="타원 663" cx="2" cy="2" r="2" transform="translate(25.5 21.118)" style="fill:#133b6d"/>
            <circle data-name="타원 664" cx="2" cy="2" r="2" transform="translate(20 4.118)" style="fill:#133b6d"/>
            <circle data-name="타원 665" cx="2" cy="2" r="2" transform="translate(25.5 4.118)" style="fill:#133b6d"/>
        </g>
        <g data-name="그룹 7085">
            <g data-name="합치기 32" style="fill:#fff">
                <path d="M17846.531-7701.558H17836c-1.656 0-3.002-1.262-3.002-2.814v-8.959c0-1.317.994-2.472 2.363-2.75.21-.045.424-.068.639-.068h1.268v-.85c0-1.102.896-1.999 1.998-1.999 1.103 0 2 .897 2 1.999v.85h.002v-.85c0-1.102.896-1.999 1.998-1.999 1.103 0 2 .897 2 1.999v.85h1.265c.217 0 .432.023.64.068 1.37.279 2.362 1.434 2.362 2.75v8.959c0 1.552-1.345 2.814-3.002 2.814z" style="stroke:none" transform="translate(-17813.766 7736)"/>
                <path d="M17846.531-7702.558c1.108 0 2.002-.815 2.002-1.814v-8.959c0-.868-.67-1.592-1.568-1.771a1.997 1.997 0 0 0-.434-.047h-2.265v-1.85c0-.55-.45-.999-1-.999a.997.997 0 0 0-.998.999v1.85h-2.002v-1.85c0-.55-.45-.999-1-.999a.997.997 0 0 0-.998.999v1.85H17836c-.148 0-.293.016-.434.047-.896.18-1.568.903-1.568 1.771v8.96c0 .998.897 1.813 2.002 1.813h10.531m0 2H17836c-2.207 0-4.002-1.71-4.002-3.814v-8.959c0-.91.34-1.79.959-2.48a4.066 4.066 0 0 1 2.2-1.249c.277-.059.56-.089.843-.089h.271a3.001 3.001 0 0 1 2.995-2.849c.767 0 1.468.29 2 .766a2.988 2.988 0 0 1 2-.766 3.003 3.003 0 0 1 2.996 2.85h.27c.284 0 .57.03.845.089.852.174 1.63.617 2.197 1.249.62.689.96 1.57.96 2.48v8.958c0 2.103-1.796 3.814-4.003 3.814z" style="fill:#133b6d;stroke:none" transform="translate(-17813.766 7736)"/>
            </g>
            <path data-name="사각형 5286" d="M2 0h10.5a2 2 0 0 1 2 2v3H0V2a2 2 0 0 1 2-2z" transform="translate(20.201 20.5)" style="fill:#07e6ff"/>
            <path data-name="사각형 5287" transform="translate(24.5 19)" style="fill:#fff" d="M0 0h2v4H0z"/>
            <path data-name="사각형 5288" transform="translate(28.5 19)" style="fill:#fff" d="M0 0h2v4H0z"/>
            <g data-name="그룹 7084" transform="translate(-572.162 -478.844)">
                <rect data-name="사각형 5278" width="3" height="2" rx="1" transform="translate(595.662 505.544)" style="fill:#133b6d"/>
                <rect data-name="사각형 5283" width="3" height="2" rx="1" transform="translate(595.662 508.544)" style="fill:#133b6d"/>
                <rect data-name="사각형 5280" width="3" height="2" rx="1" transform="translate(600.662 505.544)" style="fill:#133b6d"/>
                <rect data-name="사각형 5282" width="3" height="2" rx="1" transform="translate(600.662 508.544)" style="fill:#133b6d"/>
            </g>
        </g>
    </g>
</svg>
