<svg xmlns="http://www.w3.org/2000/svg" width="42.746" height="45.624" viewBox="0 0 42.746 45.624">
    <defs>
        <clipPath id="r54u84kqwa">
            <path data-name="사각형 3409" style="stroke:#111a46;fill:none" d="M0 0h14.289v12.438H0z"/>
        </clipPath>
    </defs>
    <g data-name="그룹 7140">
        <g data-name="그룹 7091">
            <g data-name="그룹 7074">
                <g data-name="그룹 4040">
                    <g data-name="그룹 4033">
                        <g data-name="그룹 4025">
                            <g data-name="그룹 4000" transform="translate(4.505 3.05)">
                                <rect data-name="사각형 3377" width="31.991" height="26.175" rx="3" transform="translate(0 8.725)" style="fill:#fff"/>
                                <path data-name="사각형 3380" d="M3 0h25.991a3 3 0 0 1 3 3v4.271H0V3a3 3 0 0 1 3-3z" transform="translate(0 4.362)" style="fill:#07e6ff"/>
                                <g data-name="그룹 4565">
                                    <rect data-name="사각형 3381" width="8.156" height="7.821" rx="3" transform="translate(2.908 14.541)" style="fill:none"/>
                                    <rect data-name="사각형 3746" width="8.156" height="7.821" rx="3" transform="translate(2.908 24.293)" style="fill:none"/>
                                    <rect data-name="사각형 3742" width="8.156" height="7.821" rx="3" transform="translate(11.943 14.541)" style="fill:none"/>
                                    <rect data-name="사각형 3745" width="8.156" height="7.821" rx="3" transform="translate(11.943 24.293)" style="fill:none"/>
                                    <rect data-name="사각형 3833" width="8.156" height="7.821" rx="3" transform="translate(20.979 24.293)" style="fill:none"/>
                                    <rect data-name="사각형 3743" width="8.156" height="7.821" rx="3" transform="translate(20.977 14.541)" style="fill:none"/>
                                </g>
                                <rect data-name="사각형 3378" width="4.362" height="8.725" rx="2.181" transform="translate(5.817)" style="fill:#fff"/>
                                <rect data-name="사각형 3379" width="4.362" height="8.725" rx="2.181" transform="translate(21.812)" style="fill:#fff"/>
                            </g>
                        </g>
                    </g>
                </g>
            </g>
            <g data-name="그룹 7080" transform="translate(-588 -486)">
                <rect data-name="사각형 5278" width="6" height="6" rx="2" transform="translate(596 504)" style="fill:#133b6d"/>
                <rect data-name="사각형 5283" width="6" height="6" rx="2" transform="translate(596 514)" style="fill:#133b6d"/>
                <rect data-name="사각형 5279" width="6" height="6" rx="2" transform="translate(614 504)" style="fill:#133b6d"/>
                <rect data-name="사각형 5281" width="6" height="6" rx="2" transform="translate(614 514)" style="fill:#133b6d"/>
                <rect data-name="사각형 5280" width="6" height="6" rx="2" transform="translate(605 504)" style="fill:#133b6d"/>
                <rect data-name="사각형 5282" width="6" height="6" rx="2" transform="translate(605 514)" style="fill:#133b6d"/>
            </g>
        </g>
        <g data-name="그룹 7092">
            <g data-name="그룹 4011">
                <g data-name="그룹 4002">
                    <path data-name="패스 1172" d="M8.938 17.879A8.939 8.939 0 1 0 0 8.939a8.939 8.939 0 0 0 8.938 8.94z" transform="translate(22.684 25.56)" style="fill:#fff"/>
                    <g data-name="그룹 3991">
                        <path data-name="합치기 20" d="M3.514 0v3.512H0v2.34h3.514v3.511h2.341V5.852h3.507v-2.34H5.855V0z" transform="translate(26.942 29.818)" style="fill:#fff"/>
                    </g>
                    <g data-name="그룹 3995">
                        <path data-name="패스 1172" d="M8.938 17.879A8.939 8.939 0 1 0 0 8.939a8.939 8.939 0 0 0 8.938 8.94z" transform="translate(22.684 25.56)" style="fill:#fff"/>
                    </g>
                </g>
                <path data-name="패스 1178" d="M9.623 18.563a8.939 8.939 0 1 1 8.938-8.939 8.939 8.939 0 0 1-8.938 8.939m0 2.184A11.124 11.124 0 1 0-1.5 9.624 11.136 11.136 0 0 0 9.623 20.748z" transform="translate(22 24.876)" style="fill:#133b6d"/>
            </g>
            <g data-name="그룹 4047">
                <g data-name="그룹 4046" transform="translate(23.882 28.281)" style="clip-path:url(#r54u84kqwa)">
                    <path data-name="패스 11295" d="m2 8.821 2.348.513L6.7 7.5l2.343 1.835 2.348-6.38" transform="translate(.099 -.635)" style="stroke-linecap:round;stroke-linejoin:round;stroke-width:2.5px;stroke:#111a46;fill:none"/>
                    <path data-name="패스 11296" d="M52.451 2.146 54.138 2l.88 1.467" transform="translate(-42.612 .1)" style="stroke-linecap:round;stroke-linejoin:round;stroke-width:2.5px;stroke:#111a46;fill:none"/>
                </g>
            </g>
        </g>
    </g>
</svg>
