<svg xmlns="http://www.w3.org/2000/svg" width="17" height="20" viewBox="0 0 17 20">
    <defs>
        <clipPath id="0i5e242fwa">
            <path data-name="사각형 28" style="fill:none" d="M0 0h17v20H0z"/>
        </clipPath>
    </defs>
    <g data-name="그룹 17" style="clip-path:url(#0i5e242fwa)">
        <path data-name="패스 13" d="M.636 3.661h8.12v.794a1.358 1.358 0 0 0 1.307 1.4h1.465a1.358 1.358 0 0 0 1.307-1.4v-.794h3.53A.69.69 0 0 0 17 2.928a.69.69 0 0 0-.636-.733h-3.53V1.4A1.358 1.358 0 0 0 11.528 0h-1.465a1.358 1.358 0 0 0-1.307 1.4v.793H.636A.69.69 0 0 0 0 2.928a.69.69 0 0 0 .636.733m9.392-2.19a.118.118 0 0 1 .036-.005h1.465a.118.118 0 0 1 .036.005v2.914a.118.118 0 0 1-.036.005h-1.466a.118.118 0 0 1-.036-.005z" style="fill:#2b2b2b"/>
        <path data-name="패스 14" d="M16.364 16.662H8.443v-.794a1.359 1.359 0 0 0-1.308-1.4H5.672a1.359 1.359 0 0 0-1.308 1.4v.794H.636a.741.741 0 0 0 0 1.467h3.729v.793a1.359 1.359 0 0 0 1.308 1.4h1.463a1.359 1.359 0 0 0 1.308-1.4v-.793h7.921a.741.741 0 0 0 0-1.467m-9.192 2.19a.124.124 0 0 1-.036.005H5.672a.11.11 0 0 1-.036-.006v-2.912a.126.126 0 0 1 .036-.005h1.464a.124.124 0 0 1 .036.005z" transform="translate(0 -7.395)" style="fill:#2b2b2b"/>
        <path data-name="패스 15" d="M16.364 31.126h-3.53v-.794a1.358 1.358 0 0 0-1.307-1.4h-1.464a1.358 1.358 0 0 0-1.307 1.4v.794H.636a.741.741 0 0 0 0 1.467h8.12v.793a1.358 1.358 0 0 0 1.307 1.4h1.465a1.358 1.358 0 0 0 1.307-1.4v-.793h3.53a.741.741 0 0 0 0-1.467m-4.8 2.19a.118.118 0 0 1-.036.005h-1.466a.118.118 0 0 1-.036-.005V30.4a.118.118 0 0 1 .036-.005h1.465a.118.118 0 0 1 .036.005z" transform="translate(0 -14.788)" style="fill:#2b2b2b"/>
    </g>
</svg>
