<svg xmlns="http://www.w3.org/2000/svg" width="160" height="160" viewBox="0 0 160 160">
    <defs>
        <clipPath id="6u0g6guw1b">
            <path data-name="사각형 1" transform="translate(-.343 -.343)" style="fill:#fff" d="M0 0h91v91H0z"/>
        </clipPath>
        <filter id="dt0sa99iaa" x="0" y="0" width="160" height="160" filterUnits="userSpaceOnUse">
            <feOffset dx="2" dy="4"/>
            <feGaussianBlur stdDeviation="5" result="blur"/>
            <feFlood flood-opacity=".259"/>
            <feComposite operator="in" in2="blur"/>
            <feComposite in="SourceGraphic"/>
        </filter>
    </defs>
    <g style="filter:url(#dt0sa99iaa)">
        <circle data-name="타원 1" cx="65" cy="65" r="65" transform="translate(13 11)" style="fill:#4696ff"/>
    </g>
    <g data-name="그룹 2">
        <g data-name="그룹 1" transform="translate(33.343 31.343)" style="clip-path:url(#6u0g6guw1b)">
            <path data-name="패스 1" d="m79.743 57.487 4.857-4.861a10.011 10.011 0 0 0 0-14.159l-4.861-4.861 10.938-10.932a1.427 1.427 0 0 0-2.019-2.019L77.725 31.587l-8.1-8.1 10.932-10.931a1.427 1.427 0 0 0-2.019-2.019L67.607 21.468l-8.1-8.1L70.438 2.437A1.428 1.428 0 0 0 68.419.418l-10.931 10.93-4.86-4.86a10.027 10.027 0 0 0-14.163 0l-4.86 4.86L22.674.418a1.428 1.428 0 0 0-2.019 2.02l10.932 10.931-8.1 8.1-10.93-10.931a1.427 1.427 0 0 0-2.019 2.019l10.931 10.93-8.1 8.1-10.932-10.93a1.427 1.427 0 1 0-2.018 2.019L11.35 33.607l-4.86 4.86a10.008 10.008 0 0 0 0 14.16l4.86 4.861L.419 68.421a1.427 1.427 0 0 0 2.018 2.019l10.934-10.934 8.1 8.1-10.932 10.933a1.427 1.427 0 0 0 2.019 2.019l10.931-10.934 8.1 8.1-10.934 10.934a1.427 1.427 0 1 0 2.019 2.019l10.934-10.933 4.86 4.86a10.026 10.026 0 0 0 14.161 0l4.86-4.86 10.93 10.932a1.427 1.427 0 0 0 2.019-2.019L59.506 77.725l8.1-8.1 10.933 10.932a1.427 1.427 0 1 0 2.019-2.019L69.625 67.606l8.1-8.1L88.657 70.44a1.427 1.427 0 1 0 2.019-2.019zm-4.037 0-8.1 8.1-2.019 2.019-8.1 8.1-2.019 2.019-4.86 4.86a7.167 7.167 0 0 1-10.124 0l-4.86-4.86-2.019-2.019-8.1-8.1-2.019-2.019-8.1-8.1-2.019-2.019-4.858-4.862a7.153 7.153 0 0 1 0-10.121l4.86-4.86 2.019-2.019 8.1-8.1 2.019-2.02 8.1-8.1 2.019-2.019 4.86-4.861a7.17 7.17 0 0 1 10.125 0l4.86 4.86 2.019 2.019 8.1 8.1 2.019 2.019 8.1 8.1 2.019 2.019 4.861 4.861a7.157 7.157 0 0 1 0 10.122l-4.861 4.861z" transform="translate(-.39 -.39)" style="fill:#fff"/>
        </g>
    </g>
    <g data-name="그룹 3">
        <path data-name="패스 3" d="M14.741 7h.243l3.863 11.833h-7.969zm-4.015-7L0 31.028h6.909l2.333-7.151H20.5l2.333 7.151h6.907L19.013 0z" transform="translate(55.689 60.206)" style="fill:#fff"/>
        <path data-name="사각형 2" transform="translate(88.934 60.206)" style="fill:#fff" d="M0 0h6.439v31.028H0z"/>
    </g>
</svg>
