<svg xmlns="http://www.w3.org/2000/svg" width="95" height="37" viewBox="0 0 95 37">
    <defs>
        <clipPath id="ejqhkkdt4a">
            <path data-name="사각형 5300" transform="translate(.275 .142)" style="fill:none" d="M0 0h95v37H0z"/>
        </clipPath>
    </defs>
    <g data-name="그룹 7101" transform="translate(-.275 -.142)" style="clip-path:url(#ejqhkkdt4a)">
        <path data-name="패스 12579" d="M111.864 33.435h-10.127a2.805 2.805 0 0 0-2.792 2.812V51.4a2.805 2.805 0 0 0 2.792 2.812h10.127a4.817 4.817 0 0 0 4.8-4.827V38.262a4.817 4.817 0 0 0-4.8-4.827m-8.121 8.149v-2.777a.252.252 0 0 1 .252-.252h7.616a.252.252 0 0 1 .252.252v2.777a.252.252 0 0 1-.252.252h-7.616a.252.252 0 0 1-.252-.252m0 4.584a.252.252 0 0 1 .252-.252h7.616a.252.252 0 0 1 .252.252v2.777a.252.252 0 0 1-.252.252h-7.616a.252.252 0 0 1-.252-.252z" transform="translate(-47.226 -16.383)" style="fill:#fff"/>
        <path data-name="사각형 5297" transform="translate(86.001 17.052)" style="fill:#fff" d="M0 0h5.167v20.781H0z"/>
        <path data-name="사각형 5298" transform="translate(72.682 24.845)" style="fill:#fff" d="M0 0h10.177v5.195H0z"/>
        <path data-name="패스 12580" d="m22.81 50.971-1.635-10.86L17.9 51.155c-.635 1.632-1.621 2.134-4.06 2.134h-1.717L9.4 40.112l-3.368 11.3c-.761 1.771-1.731 1.875-3.134 1.875H0l7.921-21.776c3.556 0 5.132.921 5.5 3.42l2.018 9.618 4.248-13.038c3.781 0 5.209 1.532 5.5 3.389l2.785 18.389h-1.803c-1.181 0-2.874.3-3.36-2.318" transform="translate(.19 -15.467)" style="fill:#80af4d"/>
        <path data-name="패스 12581" d="M76.1 38.32h-2.2a.524.524 0 0 1-.521-.524V32.87a.524.524 0 0 1 .521-.524h2.2a.524.524 0 0 1 .521.524v4.93a.524.524 0 0 1-.521.524" transform="translate(-34.974 -15.865)" style="fill:#80af4d"/>
        <path data-name="패스 12582" d="M72.407 33.435h-1.348v5.1h.7a.253.253 0 0 1 .251.253v10.076a.253.253 0 0 1-.251.253h-6.838a.252.252 0 0 1-.251-.253V38.787a.252.252 0 0 1 .251-.253h.7v-5.1H64.27a4.817 4.817 0 0 0-4.789 4.834v11.115a4.817 4.817 0 0 0 4.789 4.834h8.137a4.817 4.817 0 0 0 4.793-4.834V38.269a4.817 4.817 0 0 0-4.789-4.834" transform="translate(-28.314 -16.383)" style="fill:#fff"/>
        <path data-name="패스 12583" d="M162.368 0a6.94 6.94 0 0 0 0 13.879V15.5s6.9-1.835 6.9-8.561a6.92 6.92 0 0 0-6.9-6.939" transform="translate(-74.311 -.457)" style="fill:#80af4d"/>
        <path data-name="패스 12584" d="M162.985 8.286h1.576l1.5 4.953h-1.38l-.56-2.408c-.118-.474-.243-1.075-.363-1.57h-.031c-.106.5-.227 1.1-.353 1.57l-.561 2.408h-1.333zm-.425 2.887h2.41v1.013h-2.41z" transform="translate(-77.194 -4.404)" style="fill:#fff"/>
        <path data-name="사각형 5299" transform="translate(90.018 3.882)" style="fill:#fff" d="M0 0h1.302v4.953H0z"/>
    </g>
</svg>
