<svg xmlns="http://www.w3.org/2000/svg" width="117" height="25" viewBox="0 0 117 25">
    <defs>
        <clipPath id="h6j8aptbla">
            <path data-name="사각형 5301" transform="translate(-.17 .213)" style="fill:none" d="M0 0h117v25H0z"/>
        </clipPath>
    </defs>
    <g data-name="그룹 7104">
        <g data-name="그룹 7103" transform="translate(.17 -.213)" style="clip-path:url(#h6j8aptbla)">
            <path data-name="패스 12585" d="m42.854 21.891-3.942-6.079a1.05 1.05 0 0 1-.148-.767 1.02 1.02 0 0 1 .419-.649 7.327 7.327 0 0 0 2.937-6.1 7.94 7.94 0 0 0-7.981-7.96h-9.47a.64.64 0 0 0-.459.2.688.688 0 0 0-.19.477v4.305a.329.329 0 0 0 .3.335 6.338 6.338 0 0 1 0 12.627.329.329 0 0 0-.3.335v4.178a.661.661 0 0 0 .648.674h5.5a.661.661 0 0 0 .647-.674V20.78c0-1.435 1.192-1.783 2.1-.658l2.309 3.005a1.088 1.088 0 0 0 .786.343h6.029a.967.967 0 0 0 .863-.536 1.044 1.044 0 0 0-.055-1.044" transform="translate(.001 .28)" style="fill:#fe5000"/>
            <path data-name="패스 12586" d="M46.26.325h4.77a.662.662 0 0 1 .647.675v21.786a.66.66 0 0 1-.647.673h-4.77a.663.663 0 0 1-.649-.673V1a.662.662 0 0 1 .649-.675" transform="translate(-.386 .28)" style="fill:#fe5000"/>
            <path data-name="패스 12587" d="M59.568 6.034h-5.025a.661.661 0 0 1-.648-.668V1a.662.662 0 0 1 .648-.675h16.644a.662.662 0 0 1 .648.675v4.366a.661.661 0 0 1-.648.674h-4.9a.336.336 0 0 0-.323.337v16.409a.66.66 0 0 1-.647.673h-4.77a.661.661 0 0 1-.648-.673V6.371a.337.337 0 0 0-.328-.337" transform="translate(-.535 .28)" style="fill:#fe5000"/>
            <path data-name="패스 12588" d="M75.011.325h15.112a.662.662 0 0 1 .648.675v4.327a.684.684 0 0 1-.191.476.633.633 0 0 1-.458.2h-9.37a.337.337 0 0 0-.33.342v2.513a.345.345 0 0 0 .1.241.324.324 0 0 0 .233.1h8.7a.661.661 0 0 1 .648.674V13.7a.661.661 0 0 1-.648.673h-8.7a.336.336 0 0 0-.33.336v2.846a.336.336 0 0 0 .33.336h9.626a.662.662 0 0 1 .647.674V22.8a.66.66 0 0 1-.647.673h-15.37a.66.66 0 0 1-.647-.673V1a.683.683 0 0 1 .189-.477.637.637 0 0 1 .459-.2" transform="translate(-.902 .28)" style="fill:#fe5000"/>
            <path data-name="패스 12589" d="M105.2 0a12.109 12.109 0 0 0-12.255 11.981 12.278 12.278 0 0 0 24.548 0A12.118 12.118 0 0 0 105.2 0m0 18.291a5.932 5.932 0 0 1-4.294-1.842 6.413 6.413 0 0 1-1.771-4.465 6.086 6.086 0 1 1 12.162 0 6.267 6.267 0 0 1-6.092 6.307z" transform="translate(-1.235 .273)" style="fill:#fe5000"/>
            <path data-name="패스 12590" d="M12.131 0A11.789 11.789 0 0 1 20.9 3.986a.691.691 0 0 1 .17.5.68.68 0 0 1-.231.474L17.7 7.7a.632.632 0 0 1-.868-.039 6.642 6.642 0 0 0-4.7-2.017 6.075 6.075 0 0 0-6.065 6.273 6.048 6.048 0 0 0 6.065 6.241 6.65 6.65 0 0 0 4.7-2.017.631.631 0 0 1 .868-.04l3.145 2.738a.691.691 0 0 1 .061.974 11.785 11.785 0 0 1-8.773 3.987A11.814 11.814 0 0 1 0 11.915 11.84 11.84 0 0 1 12.131 0" transform="translate(.432 .273)" style="fill:#fe5000"/>
        </g>
    </g>
</svg>
