<svg xmlns="http://www.w3.org/2000/svg" width="81.621" height="29.105" viewBox="0 0 81.621 29.105">
    <defs>
        <clipPath id="2bgt7icgia">
            <path data-name="사각형 5063" style="fill:none" d="M0 0h81.621v29.105H0z"/>
        </clipPath>
    </defs>
    <path data-name="사각형 5060" transform="translate(9.887 19.233)" style="fill:#000" d="M0 0h7.779v3.949H0z"/>
    <path data-name="사각형 5061" transform="translate(3.703 13.309)" style="fill:#000" d="M0 0h3.949v15.797H0z"/>
    <g data-name="그룹 6421">
        <g data-name="그룹 6420" style="clip-path:url(#2bgt7icgia)">
            <path data-name="패스 12098" d="M5.275 0a5.275 5.275 0 0 0 0 10.55v1.232s5.275-1.4 5.275-6.508A5.275 5.275 0 0 0 5.275 0" style="fill:#80af4d"/>
            <path data-name="패스 12099" d="M7.165 8.286h1.2l1.147 3.765h-1.05l-.429-1.83c-.09-.36-.185-.817-.277-1.194h-.023c-.081.383-.174.834-.27 1.194l-.429 1.83H6.015zm-.325 2.195h1.842v.77H6.84z" transform="translate(-3.621 -4.988)" style="fill:#fff"/>
            <path data-name="사각형 5062" transform="translate(6.774 3.298)" style="fill:#fff" d="M0 0h.996v3.765H0z"/>
            <path data-name="패스 12100" d="M95.492 37.317h9.416v-3.882h-11.42a2.131 2.131 0 0 0-2.12 2.137v11.523a2.131 2.131 0 0 0 2.12 2.137h11.42v-3.883h-9.416a.191.191 0 0 1-.189-.192v-2.076h8.587v-3.495H95.3v-2.077a.191.191 0 0 1 .189-.192" transform="translate(-54.999 -20.126)" style="fill:#000"/>
            <path data-name="패스 12101" d="M64.171 41.675a2.037 2.037 0 0 0-2.016-2.042h-7.293a.193.193 0 0 1-.193-.194v-1.714a.193.193 0 0 1 .193-.194h5.07a.193.193 0 0 1 .193.194v1.033h4.045v-1.62a3.686 3.686 0 0 0-3.66-3.7h-6.219a3.686 3.686 0 0 0-3.66 3.7v4.541a2.037 2.037 0 0 0 1.91 2.034h7.383a.194.194 0 0 1 .193.194v1.715a.194.194 0 0 1-.193.194h-5.07a.194.194 0 0 1-.193-.194v-1.034h-4.03v.941a3.686 3.686 0 0 0 3.66 3.7h6.219a3.686 3.686 0 0 0 3.66-3.7v-3.854z" transform="translate(-30.477 -20.126)" style="fill:#000"/>
            <path data-name="패스 12102" d="M178.127 33.435h-4.94a2.15 2.15 0 0 0-2.151 2.145v11.507a2.15 2.15 0 0 0 2.151 2.145h4.94a6.447 6.447 0 0 0 6.45-6.43v-2.936a6.447 6.447 0 0 0-6.45-6.431m2.518 6.384v3.03a2.533 2.533 0 0 1-2.535 2.526h-2.945a.2.2 0 0 1-.2-.194v-7.694a.2.2 0 0 1 .2-.194h2.945a2.533 2.533 0 0 1 2.535 2.526" transform="translate(-102.956 -20.126)" style="fill:#000"/>
            <path data-name="패스 12103" d="M134.93 49.232v-11.67a.192.192 0 0 1 .194-.191h5.251a.193.193 0 0 1 .194.191v11.67h3.951V37.1a3.677 3.677 0 0 0-3.678-3.667h-7.72a2.141 2.141 0 0 0-2.142 2.136v13.66z" transform="translate(-78.843 -20.126)" style="fill:#000"/>
        </g>
    </g>
</svg>
