<svg xmlns="http://www.w3.org/2000/svg" width="143.061" height="16.418" viewBox="0 0 143.061 16.418">
    <defs>
        <clipPath id="n73fwjpcza">
            <path data-name="사각형 5069" style="fill:none" d="M0 0h143.061v16.418H0z"/>
        </clipPath>
    </defs>
    <g data-name="그룹 6428" style="clip-path:url(#n73fwjpcza)">
        <path data-name="패스 12113" d="M108.733 1.923h-7.672a2.12 2.12 0 0 0-2.116 2.119v11.421a2.12 2.12 0 0 0 2.116 2.119h7.672a3.64 3.64 0 0 0 3.634-3.637V5.56a3.64 3.64 0 0 0-3.634-3.637m-6.153 6.14V5.971a.191.191 0 0 1 .191-.19h5.77a.191.191 0 0 1 .191.19v2.092a.191.191 0 0 1-.191.19h-5.77a.191.191 0 0 1-.191-.19m0 3.454a.191.191 0 0 1 .191-.19h5.77a.191.191 0 0 1 .191.19v2.093a.191.191 0 0 1-.191.19h-5.77a.191.191 0 0 1-.191-.19z" transform="translate(-59.905 -1.164)" style="fill:#fff"/>
        <path data-name="패스 12114" d="M17.281 14.663 16.043 6.48l-2.478 8.32c-.481 1.229-1.228 1.608-3.076 1.608h-1.3L7.125 6.48 4.573 15A2.078 2.078 0 0 1 2.2 16.41H0L6 0c2.7 0 3.889.694 4.172 2.577L11.7 9.824 14.918 0c2.865 0 3.947 1.155 4.167 2.554L21.2 16.41h-1.373c-.895 0-2.177.225-2.545-1.747" style="fill:#80af4d"/>
        <path data-name="패스 12115" d="M75.438 5.335h-1.665a.4.4 0 0 1-.395-.395V1.229a.4.4 0 0 1 .395-.395h1.666a.4.4 0 0 1 .395.395v3.712a.4.4 0 0 1-.395.395" transform="translate(-44.425 -.505)" style="fill:#80af4d"/>
        <path data-name="패스 12116" d="M69.274 1.924h-1.021v3.842h.528a.191.191 0 0 1 .19.191v7.593a.191.191 0 0 1-.19.191H63.6a.191.191 0 0 1-.19-.191V5.956a.191.191 0 0 1 .19-.191h.528V1.924h-1.019a3.639 3.639 0 0 0-3.628 3.642v8.374a3.639 3.639 0 0 0 3.628 3.642h6.165A3.639 3.639 0 0 0 72.9 13.94V5.566a3.639 3.639 0 0 0-3.628-3.642" transform="translate(-36.012 -1.165)" style="fill:#fff"/>
        <path data-name="패스 12117" d="M253.611 1.924V7.39a.193.193 0 0 1-.193.193H248.4a.193.193 0 0 1-.193-.193V1.924H244.2v15.658h4.009v-5.517a.193.193 0 0 1 .193-.193h5.016a.193.193 0 0 1 .193.193v5.517h4.009V1.924z" transform="translate(-147.846 -1.165)" style="fill:#fff"/>
        <path data-name="사각형 5068" transform="translate(74.605 .759)" style="fill:#fff" d="M0 0h3.915v15.658H0z"/>
        <path data-name="패스 12118" d="M152.28 17.582h-11.533a2.145 2.145 0 0 1-2.135-2.149V1.924h4.34v11.428a.2.2 0 0 0 .195.2h2.1a.2.2 0 0 0 .195-.2V1.924h3.758v11.428a.2.2 0 0 0 .194.2h2.1a.2.2 0 0 0 .195-.2V1.924h4.258V13.89a3.684 3.684 0 0 1-3.668 3.692" transform="translate(-83.92 -1.165)" style="fill:#fff"/>
        <path data-name="패스 12119" d="M204.362 1.924v4.041h4.6v11.617h4.156V5.965h4.668V1.924z" transform="translate(-123.727 -1.165)" style="fill:#fff"/>
        <path data-name="패스 12120" d="M298.407 1.924h-6.457a3.586 3.586 0 0 0-3.482 3.676v11.982h3.623v-5.365a.193.193 0 0 1 .192-.194h5.792a.193.193 0 0 1 .192.194v5.365h3.623V5.6a3.586 3.586 0 0 0-3.482-3.673m-.14 4.109v2.112a.194.194 0 0 1-.192.194h-5.792a.194.194 0 0 1-.192-.194V6.033a.194.194 0 0 1 .192-.194h5.792a.194.194 0 0 1 .192.194" transform="translate(-174.648 -1.165)" style="fill:#80af4d"/>
        <path data-name="패스 12121" d="M335.588 1.924h-4.9a2.131 2.131 0 0 0-2.128 2.126v11.406a2.131 2.131 0 0 0 2.132 2.126h4.9a6.391 6.391 0 0 0 6.393-6.374V8.3a6.391 6.391 0 0 0-6.393-6.374m2.5 6.328v3a2.511 2.511 0 0 1-2.513 2.5h-2.919a.193.193 0 0 1-.195-.192V5.94a.193.193 0 0 1 .195-.192h2.919a2.511 2.511 0 0 1 2.513 2.5" transform="translate(-198.921 -1.165)" style="fill:#80af4d"/>
    </g>
</svg>
