<svg xmlns="http://www.w3.org/2000/svg" width="85.593" height="29.105" viewBox="0 0 85.593 29.105">
    <defs>
        <clipPath id="iwevhao2la">
            <path data-name="사각형 5073" style="fill:none" d="M0 0h85.593v29.106H0z"/>
        </clipPath>
    </defs>
    <path data-name="사각형 5070" transform="translate(9.887 19.233)" style="fill:#000" d="M0 0h7.779v3.949H0z"/>
    <path data-name="사각형 5071" transform="translate(3.703 13.309)" style="fill:#000" d="M0 0h3.949v15.797H0z"/>
    <g data-name="그룹 6431">
        <g data-name="그룹 6430" style="clip-path:url(#iwevhao2la)">
            <path data-name="패스 12122" d="M5.275 0a5.275 5.275 0 0 0 0 10.55v1.232s5.275-1.4 5.275-6.508A5.275 5.275 0 0 0 5.275 0" style="fill:#80af4d"/>
            <path data-name="패스 12123" d="M7.165 8.286h1.2l1.147 3.765h-1.05l-.429-1.83c-.09-.36-.185-.817-.277-1.194h-.023c-.081.383-.174.834-.27 1.194l-.429 1.83H6.015zm-.325 2.195h1.842v.77H6.84z" transform="translate(-3.621 -4.988)" style="fill:#fff"/>
            <path data-name="사각형 5072" transform="translate(6.774 3.298)" style="fill:#fff" d="M0 0h.996v3.765H0z"/>
            <path data-name="패스 12124" d="M49.5 33.435v4.077h4.638v11.72h4.193v-11.72h4.709v-4.077z" transform="translate(-29.797 -20.126)" style="fill:#000"/>
            <path data-name="패스 12125" d="M145.287 33.435h-11.635A2.164 2.164 0 0 0 131.5 35.6v13.632h4.379V37.7a.2.2 0 0 1 .2-.2h2.115a.2.2 0 0 1 .2.2v11.532h3.8V37.7a.2.2 0 0 1 .2-.2h2.106a.2.2 0 0 1 .2.2v11.532h4.3V37.16a3.717 3.717 0 0 0-3.7-3.725" transform="translate(-79.155 -20.126)" style="fill:#000"/>
            <path data-name="패스 12126" d="M95.048 37.317h9.416v-3.882h-11.42a2.131 2.131 0 0 0-2.12 2.137v11.523a2.131 2.131 0 0 0 2.12 2.137h11.42v-3.883h-9.416a.191.191 0 0 1-.189-.192v-2.076h8.587v-3.495h-8.587v-2.077a.191.191 0 0 1 .189-.192" transform="translate(-54.732 -20.126)" style="fill:#000"/>
            <path data-name="패스 12127" d="M194.555 41.675a2.037 2.037 0 0 0-2.016-2.042h-7.293a.193.193 0 0 1-.193-.194v-1.714a.193.193 0 0 1 .193-.194h5.07a.194.194 0 0 1 .193.194v1.033h4.044v-1.62a3.686 3.686 0 0 0-3.66-3.7h-6.219a3.686 3.686 0 0 0-3.66 3.7v4.541a2.037 2.037 0 0 0 1.91 2.034h7.383a.194.194 0 0 1 .193.194v1.715a.194.194 0 0 1-.193.194h-5.07a.194.194 0 0 1-.193-.194v-1.034h-4.03v.941a3.686 3.686 0 0 0 3.66 3.7h6.219a3.686 3.686 0 0 0 3.66-3.7v-3.854z" transform="translate(-108.962 -20.126)" style="fill:#000"/>
        </g>
    </g>
</svg>
