<svg xmlns="http://www.w3.org/2000/svg" width="84.288" height="16.417" viewBox="0 0 84.288 16.417">
    <defs>
        <clipPath id="2l77d9l3na">
            <path data-name="사각형 5065" style="fill:none" d="M0 0h84.288v16.417H0z"/>
        </clipPath>
    </defs>
    <g data-name="그룹 6424" style="clip-path:url(#2l77d9l3na)">
        <path data-name="패스 12105" d="M108.733 1.923h-7.672a2.119 2.119 0 0 0-2.116 2.119v11.42a2.119 2.119 0 0 0 2.116 2.119h7.672a3.639 3.639 0 0 0 3.633-3.637V5.56a3.639 3.639 0 0 0-3.633-3.637m-6.153 6.14V5.971a.191.191 0 0 1 .191-.19h5.77a.191.191 0 0 1 .191.19v2.092a.191.191 0 0 1-.191.19h-5.77a.191.191 0 0 1-.191-.19m0 3.454a.191.191 0 0 1 .191-.19h5.77a.191.191 0 0 1 .191.19v2.092a.191.191 0 0 1-.191.19h-5.77a.191.191 0 0 1-.191-.19z" transform="translate(-59.906 -1.164)" style="fill:#000"/>
        <path data-name="패스 12106" d="M69.447 1.924h-6.165a3.639 3.639 0 0 0-3.628 3.642v8.374a3.639 3.639 0 0 0 3.628 3.642h6.164a3.639 3.639 0 0 0 3.628-3.642V5.566a3.639 3.639 0 0 0-3.628-3.642m-5.861 4.032a.19.19 0 0 1 .19-.191h5.178a.19.19 0 0 1 .19.191v7.593a.191.191 0 0 1-.19.191h-5.178a.191.191 0 0 1-.19-.191z" transform="translate(-36.117 -1.165)" style="fill:#000"/>
        <path data-name="패스 12107" d="M183.53 17.582V6.015a.191.191 0 0 1 .192-.189h5.2a.191.191 0 0 1 .192.189v11.567h3.916V5.559a3.645 3.645 0 0 0-3.646-3.635h-7.652a2.123 2.123 0 0 0-2.123 2.118v13.54z" transform="translate(-108.747 -1.165)" style="fill:#000"/>
        <path data-name="패스 12108" d="M17.281 14.662 16.042 6.48l-2.477 8.32c-.481 1.229-1.228 1.608-3.076 1.608h-1.3L7.125 6.48 4.573 15A2.078 2.078 0 0 1 2.2 16.409H0L6 0c2.694 0 3.888.694 4.17 2.577l1.53 7.247L14.918 0c2.865 0 3.947 1.154 4.167 2.554l2.11 13.855h-1.369c-.895 0-2.177.225-2.545-1.747" style="fill:#80af4d"/>
        <path data-name="패스 12109" d="M155.042 5.335h-1.666a.4.4 0 0 1-.395-.395V1.229a.4.4 0 0 1 .395-.395h1.666a.4.4 0 0 1 .395.395V4.94a.4.4 0 0 1-.395.395" transform="translate(-92.623 -.505)" style="fill:#80af4d"/>
        <path data-name="패스 12110" d="M148.878 1.924h-1.021v3.842h.528a.191.191 0 0 1 .19.191v7.593a.191.191 0 0 1-.19.191h-5.178a.191.191 0 0 1-.19-.191V5.956a.191.191 0 0 1 .19-.191h.528V1.924h-1.021a3.639 3.639 0 0 0-3.628 3.642v8.374a3.639 3.639 0 0 0 3.628 3.642h6.165a3.639 3.639 0 0 0 3.628-3.642V5.566a3.639 3.639 0 0 0-3.628-3.642" transform="translate(-84.209 -1.165)" style="fill:#000"/>
    </g>
</svg>
