<svg xmlns="http://www.w3.org/2000/svg" width="22" height="22" viewBox="0 0 22 22">
    <path data-name="패스 977" d="M78.777 0H65.529A1.533 1.533 0 0 0 64 1.529v10.7h16.305v-10.7A1.533 1.533 0 0 0 78.777 0z" transform="translate(-61.153 2.885)" style="fill:#ffc7c8"/>
    <path data-name="패스 978" d="M15.712 64H4v7.808h11.712z" transform="translate(1.144 -58.904)" style="fill:#fff"/>
    <path data-name="패스 981" d="M19.5 75h-7.577a.985.985 0 0 1-1.023 1H9a1.062 1.062 0 0 1-1.024-1H.5a.5.5 0 0 0-.5.5v.5a2.006 2.006 0 0 0 2 2h16a2.006 2.006 0 0 0 2-2v-.5a.5.5 0 0 0-.5-.5z" transform="translate(1 -59)" style="fill:#fe4a4e"/>
</svg>
