<svg xmlns="http://www.w3.org/2000/svg" width="22" height="22" viewBox="0 0 22 22">
    <path data-name="패스 947" d="M171.337 160h-9.547a1.79 1.79 0 0 0-1.79 1.79v9.547a1.79 1.79 0 0 0 1.79 1.79h9.547a1.79 1.79 0 0 0 1.79-1.79v-9.547a1.79 1.79 0 0 0-1.79-1.79zm-.6 10.74h-8.354v-8.354h8.354z" transform="translate(-153.033 -153.033)" style="fill:#ffc7c8"/>
    <path data-name="패스 948" d="M5.967 13.127H1.79A1.79 1.79 0 0 1 0 11.337V1.79A1.79 1.79 0 0 1 1.79 0h9.547a1.79 1.79 0 0 1 1.79 1.79v4.177h-5.37a1.79 1.79 0 0 0-1.79 1.79z" transform="translate(1 1)" style="fill:#fe4a4e"/>
</svg>
