<svg data-name="icon_menu_billing _management" xmlns="http://www.w3.org/2000/svg" width="22" height="22" viewBox="0 0 22 22">
    <path data-name="Path 219" d="M139.586 12.527c2.305-.447 3.862-1.275 3.862-2.229V8.581a9.879 9.879 0 0 1-3.862 1.388zM139.4 8.7c2.414-.434 4.051-1.287 4.051-2.265V4.719c-1.428 1.01-3.882 1.553-6.465 1.682A4.5 4.5 0 0 1 139.4 8.7zm4.051-6.127c0-1.42-3.46-2.575-7.724-2.575S128 1.155 128 2.575s3.46 2.575 7.724 2.575 7.724-1.155 7.724-2.575z" transform="translate(-122.051 .8)" style="fill:#c6eb9d"/>
    <path data-name="Path 220" d="M7.724 166.437c4.264 0 7.724-1.44 7.724-3.218S11.988 160 7.724 160 0 161.44 0 163.218s3.46 3.219 7.724 3.219zM0 169.868v1.718c0 1.42 3.46 2.575 7.724 2.575s7.724-1.155 7.724-2.575v-1.718c-1.661 1.171-4.7 1.718-7.724 1.718s-6.063-.547-7.724-1.718zm0-4.22v2.076c0 1.42 3.46 2.575 7.724 2.575s7.724-1.155 7.724-2.575v-2.076c-1.661 1.368-4.7 2.076-7.724 2.076s-6.063-.708-7.724-2.076z" transform="translate(.8 -152.763)" style="fill:#84b64d"/>
</svg>
