<svg xmlns="http://www.w3.org/2000/svg" width="22" height="22" viewBox="0 0 22 22">
    <g data-name="그룹 6424">
        <g data-name="그룹 4127">
            <path data-name="합치기 9" d="m-10128.589 11.522-7.292-7.292-7.29 7.292a1 1 0 0 1-1.416 0l-.705-.708a1 1 0 0 1 0-1.413l8.484-8.487a1.193 1.193 0 0 1 1.7-.126 1.031 1.031 0 0 1 .154.126l8.486 8.487a1 1 0 0 1 0 1.413l-.708.708a.994.994 0 0 1-.706.292 1 1 0 0 1-.707-.292z" transform="translate(10147 .622)" style="fill:#fe4a4e"/>
            <path data-name="빼기 3" d="M-10161.689-189.44h-4.253v-7.728h-.059l6.536-6.659 6.483 6.659v7.727h-4.256v-5.434a1 1 0 0 0-1-1h-2.452a1 1 0 0 0-1 1v5.434z" transform="translate(10170.592 209.942)" style="fill:#ffc7c8"/>
        </g>
    </g>
</svg>
