<svg xmlns="http://www.w3.org/2000/svg" width="227.758" height="38.757" viewBox="0 0 227.758 38.757">
    <defs>
        <clipPath id="mkq5nvzfza">
            <path data-name="사각형 6080" style="fill:none" d="M0 0h227.758v38.757H0z"/>
        </clipPath>
    </defs>
    <g data-name="그룹 7575">
        <g data-name="그룹 7574" style="clip-path:url(#mkq5nvzfza)">
            <path data-name="패스 12764" d="M286.725 42.582a10.34 10.34 0 0 1-3.522-.69 10.6 10.6 0 0 1-6.557-6.27 9.477 9.477 0 0 1-.658-3.218c-.045-2.34-.017-4.682-.02-7.023 0-.894-.028-1.789.009-2.682.03-.714.171-1.421.267-2.129.084-.619.382-1.172.521-1.776.029-.124.058-.222.093-.345a.776.776 0 0 1 .149-.268l.081-.11.13-.18.259-.356c.173-.236.346-.471.525-.7a12.692 12.692 0 0 1 1.147-1.322 7.552 7.552 0 0 1 1.2-.971 16.224 16.224 0 0 1 3.081-1.562 15.962 15.962 0 0 1 3.724-.8 16.909 16.909 0 0 1 2.592-.145 17.8 17.8 0 0 1 5.323.808 11.529 11.529 0 0 1 6.624 5.112 14.224 14.224 0 0 1 .6 1.453 10.663 10.663 0 0 1 .637 3.613c.174 2.468.055 4.938.071 7.406a16.949 16.949 0 0 1-.379 4.079 9.717 9.717 0 0 1-2 4.038 9.62 9.62 0 0 1-3.715 2.886 16.065 16.065 0 0 1-3.968 1.164c-.247.032-.5-.007-.743.036a.156.156 0 0 0-.075.028c-.05.04-4.635.016-4.695-.031a.288.288 0 0 0-.192-.04q-.262.006-.521 0m.426-14.5h-.008c0 1.386-.014 2.771.006 4.156a2.33 2.33 0 0 0 .878 1.716 2.3 2.3 0 0 0 3.469-.739 5.881 5.881 0 0 0 .326-2.283c0-2.809.132-5.621-.072-8.428a2.242 2.242 0 0 0-.637-1.529 2.444 2.444 0 0 0-1.353-.591 2.029 2.029 0 0 0-2.1.73 2.675 2.675 0 0 0-.59 1.711c-.017.484.07.971.075 1.458.012 1.267 0 2.533 0 3.8" transform="translate(-90.347 -3.937)" style="fill:#262f4a"/>
            <path data-name="패스 12765" d="M57.727 42.846c-.293-.05-.063-.011-.209-.034s-.206-.024-.3-.034a11.891 11.891 0 0 1-7.123-2.565 9.5 9.5 0 0 1-3.559-5.534 23.039 23.039 0 0 1-.528-5.566c.013-4.9 0-9.8 0-14.706a1.783 1.783 0 0 1 .482-1.39 1.153 1.153 0 0 1 .841-.35c2.749 0 5.5 0 8.247.008a1.257 1.257 0 0 1 1.322 1.343q0 8.739-.015 17.482a2.612 2.612 0 0 0 2.215 2.84 3.728 3.728 0 0 0 2.648-.3 2.452 2.452 0 0 0 1.361-2.125 15.473 15.473 0 0 0 .1-1.96q-.014-7.89-.009-15.779c0-1.1.418-1.505 1.527-1.5h7.8c.958 0 1.4.407 1.405 1.341.008 5.781.037 11.563-.011 17.344a12.348 12.348 0 0 1-1.334 5.68 9.788 9.788 0 0 1-5.405 4.759 17.569 17.569 0 0 1-2.972.866 10.822 10.822 0 0 1-1.563.183c-.258.01-.05.017-.428.05-1.622 0-2.869-.059-4.492-.059" transform="translate(-15.062 -4.147)" style="fill:#978eff"/>
            <path data-name="패스 12766" d="M0 13.438c0-.088.087-.151.155-.225a1.583 1.583 0 0 1 1.226-.551q12.281.011 24.563.007a1.406 1.406 0 0 1 1.55 1.545c0 2.041-.046 4.085.012 6.124a1.709 1.709 0 0 1-1.657 1.63c-2.043-.029-4.086-.017-6.129-.021a2.922 2.922 0 0 0-.448.02c-.143.022-.25.089-.2.273a4.784 4.784 0 0 1 .045 1.2q.006 8.83 0 17.659c0 1.1-.4 1.523-1.51 1.529q-3.989.02-7.977 0c-1 0-1.412-.438-1.413-1.439q0-9.343.012-18.687c0-.464-.119-.56-.573-.554-1.967.028-3.936 0-5.9.016A1.69 1.69 0 0 1 .1 21.213C.06 21.155.071 21.049.013 21c0-2.559-.013-5-.013-7.562" transform="translate(0 -4.146)" style="fill:#978eff"/>
            <path data-name="패스 12767" d="M112.132 25.427v-6.768c0-1.534-.008-3.069-.011-4.6a1.245 1.245 0 0 1 1.382-1.388h7.211c1.108 0 1.5.378 1.5 1.473q0 12.941-.005 25.883c0 .461-.045.921-.067 1.382-.042.856-.381 1.2-1.264 1.219-.841.02-1.683.011-2.524.011-1.277 0-2.555-.036-3.83 0a2.217 2.217 0 0 1-2.053-1.113q-2.244-3.4-4.508-6.786-1.153-1.732-2.314-3.46c-.081-.12-.181-.229-.266-.336a.219.219 0 0 0-.159.262c.115 3.335.036 6.672.04 10.008 0 1-.432 1.41-1.436 1.414q-3.606.014-7.21 0c-1.023 0-1.435-.439-1.435-1.464V15.505c0-.537-.014-1.073 0-1.61a1.157 1.157 0 0 1 1.249-1.226c2.208-.006 4.416 0 6.624 0a2.076 2.076 0 0 1 1.854 1.06c.711 1.118 1.413 2.24 2.092 3.377 1.563 2.618 3.151 5.223 4.734 7.83a4.365 4.365 0 0 0 .4.492" transform="translate(-31.16 -4.147)" style="fill:#978eff"/>
            <path data-name="패스 12768" d="M143.674 27.562V14.105c0-1.014.4-1.434 1.431-1.435q10.816-.006 21.634 0A1.234 1.234 0 0 1 168 13.958c.01 2.027 0 4.053 0 6.08 0 .362-.724 1.008-1.151 1.038-.165.012-.33.006-.5.006h-11.808c-.595 0-.592 0-.591.59 0 .536.01 1.073-.017 1.609-.018.363.092.485.479.483 3.771-.018 7.541-.015 11.312-.02a1.179 1.179 0 0 1 1.1.529 1 1 0 0 1 .139.554c0 1.878 0 3.755-.011 5.633 0 .682-.438 1.092-1.217 1.162-.149.013-.3.006-.451.007-3.606 0-7.212.006-10.817-.007-.395 0-.562.074-.531.508a12.66 12.66 0 0 1-.005 1.653c-.02.351.079.463.446.461 3.816-.015 7.632-.012 11.448-.013.406 0 .812-.011 1.217.009a1.163 1.163 0 0 1 1.254 1.273c.007 2.042.015 4.083-.019 6.125a1.052 1.052 0 0 1-1.078.983c-.33.02-.661.019-.991.019h-20.417c-.315 0-.632 0-.946-.019a1.112 1.112 0 0 1-1.166-1.156c-.013-.163-.011-.328-.011-.492V27.562z" transform="translate(-47.038 -4.148)" style="fill:#978eff"/>
            <path data-name="패스 12769" d="M245.691 33.524H245.991l.393-.009c.262-.007.525-.013.787-.016h.307c2.314 0 4.627 0 6.94-.007a4.994 4.994 0 0 1 .888.094 1.035 1.035 0 0 1 .829 1.15q.02 3.174 0 6.347a1.177 1.177 0 0 1-1.244 1.258c-2.914.025-5.827.03-8.74.032h-15.5c-.33 0-.661-.009-.99-.033a1.123 1.123 0 0 1-1.032-1.025c-.056-1.7-.072-3.4 0-5.092a2.267 2.267 0 0 1 .994-1.76c2.008-1.474 4.052-2.9 6.039-4.4a55.547 55.547 0 0 0 6.226-5.03 6.987 6.987 0 0 0 1.6-2.231 2.007 2.007 0 0 0-.147-2.122 1.88 1.88 0 0 0-2.057-.254 2.526 2.526 0 0 0-1.441 1.792 1.623 1.623 0 0 1-1.627 1.145c-2.7.03-5.407.024-8.111.022a.908.908 0 0 1-1.011-1.006 8.428 8.428 0 0 1 .667-3.679 10.054 10.054 0 0 1 2.824-3.855 13.85 13.85 0 0 1 5.382-2.6 20.708 20.708 0 0 1 8.649-.023 12.647 12.647 0 0 1 5.634 2.7 7.784 7.784 0 0 1 2.456 4.157 9.378 9.378 0 0 1 .231 3.2 9.122 9.122 0 0 1-2.244 5.043 31.063 31.063 0 0 1-4.663 4.378q-.312.23-.628.455c-.21.151-.421.3-.632.448l-.635.445-.235.165-.117.083c-.028.02-.061.048-.089.066a.262.262 0 0 0-.108.091c-.018.026-.009.032.016.054a.083.083 0 0 0 .089.021" transform="translate(-74.836 -3.85)" style="fill:#262f4a"/>
            <path data-name="패스 12770" d="M198.594 12.67c3.651 0 7.3.016 10.952-.012a1.3 1.3 0 0 1 1.4 1.318c0 1.669.028 3.339-.009 5.007a7.24 7.24 0 0 1-.792 3.06c-.72 1.458-1.389 2.94-2.079 4.412l-5.506 11.747c-.54 1.151-1.092 2.3-1.634 3.445a1.691 1.691 0 0 1-1.621.975c-2.267.035-4.535.028-6.8.037-.535 0-1.071.023-1.605.005a.934.934 0 0 1-.807-1.279c.617-1.326 1.195-2.67 1.821-3.992.86-1.814 1.724-3.627 2.52-5.472.4-.921.879-1.815 1.3-2.731.781-1.708 1.627-3.386 2.378-5.11a19.148 19.148 0 0 1 1.088-2.28c.215-.357.013-.327-.219-.33-.391 0-.782-.008-1.172-.008q-5.071 0-10.14.008a1.207 1.207 0 0 1-1.232-1.217c-.015-2.16 0-4.321-.023-6.482a1.147 1.147 0 0 1 1.182-1.118c3.666.027 7.331.013 11 .013" transform="translate(-61.031 -4.144)" style="fill:#262f4a"/>
            <path data-name="패스 12771" d="M323.43 4.982a5.112 5.112 0 0 1 10.2-.367 5.168 5.168 0 0 1-5.207 5.622 5.258 5.258 0 0 1-4.992-5.255" transform="translate(-105.889)" style="fill:#262f4a"/>
        </g>
    </g>
</svg>
