<svg xmlns="http://www.w3.org/2000/svg" width="16.2" height="18.486" viewBox="0 0 16.2 18.486">
    <path d="M14.286 2.286h-1.715V.429A.43.43 0 0 0 12.143 0h-.286a.43.43 0 0 0-.429.429v1.857H4.571V.429A.43.43 0 0 0 4.143 0h-.286a.43.43 0 0 0-.429.429v1.857H1.714A1.715 1.715 0 0 0 0 4v12.571a1.715 1.715 0 0 0 1.714 1.714h12.572A1.715 1.715 0 0 0 16 16.571V4a1.715 1.715 0 0 0-1.714-1.714zM1.714 3.429h12.572a.573.573 0 0 1 .571.571v1.714H1.143V4a.573.573 0 0 1 .571-.571zm12.572 13.714H1.714a.573.573 0 0 1-.571-.571V6.857h13.714v9.714a.573.573 0 0 1-.571.572zm-9-5.714H3.857A.43.43 0 0 1 3.429 11V9.571a.43.43 0 0 1 .429-.429h1.428a.43.43 0 0 1 .429.429V11a.43.43 0 0 1-.429.429zm3.429 0H7.286A.43.43 0 0 1 6.857 11V9.571a.43.43 0 0 1 .429-.429h1.428a.43.43 0 0 1 .429.429V11a.43.43 0 0 1-.429.429zm3.429 0h-1.43a.43.43 0 0 1-.428-.429V9.571a.43.43 0 0 1 .429-.429h1.429a.43.43 0 0 1 .429.429V11a.43.43 0 0 1-.43.429zm-3.43 3.428H7.286a.43.43 0 0 1-.429-.429V13a.43.43 0 0 1 .429-.429h1.428a.43.43 0 0 1 .429.429v1.429a.43.43 0 0 1-.429.428zm-3.429 0H3.857a.43.43 0 0 1-.429-.429V13a.43.43 0 0 1 .429-.429h1.429a.43.43 0 0 1 .428.429v1.429a.43.43 0 0 1-.428.428zm6.857 0h-1.428a.43.43 0 0 1-.429-.429V13a.43.43 0 0 1 .429-.429h1.429a.43.43 0 0 1 .429.429v1.429a.43.43 0 0 1-.429.428z" transform="translate(.1 .1)" style="fill:#7abd2f;stroke:#85b74e;stroke-width:.2px"/>
</svg>
