<svg xmlns="http://www.w3.org/2000/svg" width="14.005" height="18.995" viewBox="0 0 14.005 18.995">
    <path data-name="-e-icon_password_off" d="M814.283 511.71A.956.956 0 0 1 814 511c.012-3.213.013-6.691 0-10.633a.974.974 0 0 1 .291-.71.948.948 0 0 1 .676-.268h1.058v-.393c0-.361 0-.712.008-1.062a6.691 6.691 0 0 1 .111-1.1 4.939 4.939 0 0 1 4.133-3.793A5.217 5.217 0 0 1 821 493a4.933 4.933 0 0 1 4.9 4.013 6.128 6.128 0 0 1 .071.967l.005.216c.007.284.005.569 0 .862v.335h1.057a.927.927 0 0 1 .964.98q-.005 1.5 0 3v3.065c0 1.524 0 3.047.005 4.571a.935.935 0 0 1-.658.939 1.437 1.437 0 0 1-.331.04h-4.8q-3.6 0-7.2.007v-.261.266a1.029 1.029 0 0 1-.73-.29zm1.582-10.508v8.978h10.283v-8.98h-6zm8.051-1.821h-.005.217v-.161h-.005v-.491c0-.319.006-.637 0-.956a3.1 3.1 0 0 0-3.13-2.978 2.918 2.918 0 0 0-.47.037 3.085 3.085 0 0 0-2.6 2.624 12.26 12.26 0 0 0-.033 1.126v.796h.258zm-3.8 7.768a1.467 1.467 0 0 1-.045-.381q-.005-1.426 0-2.852a1.477 1.477 0 0 1 .04-.351.924.924 0 0 1 1.788.014 1.588 1.588 0 0 1 .034.35v2.854a1.486 1.486 0 0 1-.04.348.892.892 0 0 1-.883.664v-.252.253a.9.9 0 0 1-.898-.646z" transform="translate(-813.995 -493.002)" style="fill:#e8e9ec"/>
</svg>
