<svg xmlns="http://www.w3.org/2000/svg" width="14.006" height="18.995" viewBox="0 0 14.006 18.995">
    <path data-name="-e-icon_password_on" d="M2842.283 511.71a.955.955 0 0 1-.288-.706c.013-3.213.013-6.691 0-10.633a.978.978 0 0 1 .291-.71.948.948 0 0 1 .676-.268h1.058V499c0-.361 0-.712.008-1.062a6.786 6.786 0 0 1 .111-1.1 4.939 4.939 0 0 1 4.134-3.793A5.2 5.2 0 0 1 2849 493a4.934 4.934 0 0 1 4.9 4.013 6.232 6.232 0 0 1 .07.967l.005.216c.007.284.006.569 0 .862v.335h1.058a.927.927 0 0 1 .964.98V506.438c0 1.524 0 3.047.005 4.571a.936.936 0 0 1-.659.939 1.43 1.43 0 0 1-.331.04h-4.8q-3.6 0-7.2.007v-.261.266a1.029 1.029 0 0 1-.729-.29zm1.582-10.508v8.978h10.283v-8.98h-6zm8.052-1.821h-.005.217v-.161h-.005v-.491c0-.319.007-.637 0-.956a3.1 3.1 0 0 0-3.129-2.978 2.913 2.913 0 0 0-.47.037 3.085 3.085 0 0 0-2.6 2.624c-.033.378-.034.764-.033 1.126v.796h.258zm-3.8 7.768a1.477 1.477 0 0 1-.044-.381q-.005-1.426 0-2.852a1.516 1.516 0 0 1 .038-.351.925.925 0 0 1 1.79.014 1.654 1.654 0 0 1 .034.35v2.854a1.476 1.476 0 0 1-.041.348.891.891 0 0 1-.882.664v-.252.253a.9.9 0 0 1-.9-.646z" transform="translate(-2841.995 -493.002)" style="fill:#bfe09a"/>
</svg>
