<svg data-name="ico_user_ possibility_on" xmlns="http://www.w3.org/2000/svg" width="20.052" height="20.408" viewBox="0 0 20.052 20.408">
    <defs>
        <clipPath id="iowcunntqa">
            <path data-name="사각형 696" style="stroke:#fff;fill:none" d="M0 0h20.052v20.408H0z"/>
        </clipPath>
    </defs>
    <g data-name="그룹 317">
        <g data-name="그룹 316" style="clip-path:url(#iowcunntqa)">
            <path data-name="패스 330" d="M9.684 4.225A3.476 3.476 0 1 1 6.208.749a3.476 3.476 0 0 1 3.476 3.476z" style="stroke-miterlimit:10;stroke:#07e6ff;stroke-width:1.5px;fill:none"/>
            <path data-name="패스 331" d="M.769 14.594a4.266 4.266 0 0 1-.019-.41c0-2.757 2.537-4.992 5.666-4.992a6.364 6.364 0 0 1 1.933.3" transform="translate(0 -.092)" style="stroke-linecap:round;stroke-miterlimit:10;stroke:#07e6ff;stroke-width:1.5px;fill:none"/>
            <path data-name="패스 332" d="M19.3 14.691a4.968 4.968 0 1 1-4.968-4.968 4.967 4.967 0 0 1 4.968 4.968z" style="stroke-linecap:round;stroke-miterlimit:10;stroke:#07e6ff;stroke-width:1.5px;fill:none"/>
            <path data-name="패스 12241" d="m12.012 14.92 1.757 1.869 2.878-3.389" style="stroke-linejoin:round;stroke-linecap:round;stroke:#07e6ff;stroke-width:1.5px;fill:none"/>
        </g>
    </g>
</svg>
