<svg xmlns="http://www.w3.org/2000/svg" width="24" height="24" viewBox="0 0 24 24">
    <defs>
        <clipPath id="9uc3c3joea">
            <path data-name="사각형 3398" transform="translate(0 -.105)" style="fill:#fff" d="M0 0h17v19H0z"/>
        </clipPath>
    </defs>
    <g data-name="그룹 5504" transform="translate(4 3.105)" style="clip-path:url(#9uc3c3joea)">
        <path data-name="패스 11731" d="M5.258 2.51c.12.084.237.164.355.24.247.16.538.348.838.532.57.35 1.178.722 1.789 1.083a.488.488 0 0 0 .248.061.507.507 0 0 0 .25-.061c.233-.136.463-.28.686-.42l.371-.231.69-.421c.34-.208.681-.416 1.019-.625a2.755 2.755 0 0 0 .274-.2l.106-.083a.213.213 0 0 0 .087-.178.217.217 0 0 0-.1-.173l-.256-.17a16.609 16.609 0 0 0-.549-.36A265.98 265.98 0 0 0 8.731.06.463.463 0 0 0 8.492 0a.512.512 0 0 0-.24.056c-.109.062-.208.13-.306.2-.066.045-.131.09-.2.132-.265.163-.53.324-.8.485-.335.2-.671.407-1 .613-.194.12-.38.244-.577.375L5.1 2.04a.211.211 0 0 0 0 .358zM8.492.222A.214.214 0 0 1 8.6.245a.22.22 0 0 0-.11-.023m0 3.983a.251.251 0 0 1-.12-.025.252.252 0 0 0 .118.025m-2.4-2.538c-.28.173-.549.359-.846.553.179.122.344.239.514.349-.17-.11-.335-.227-.514-.349.3-.195.566-.381.846-.553" transform="translate(.012)" style="fill:#07e6ff"/>
        <path data-name="패스 11732" d="M9.175 14.918c.251-.15.5-.3.753-.447q.541-.319 1.08-.642c.2-.12.392-.245.6-.376l.288-.186a.212.212 0 0 0 0-.363l-.181-.119a26.71 26.71 0 0 0-.383-.246l-.039-.025c-.261-.164-.522-.328-.787-.487-.563-.337-1.164-.7-1.766-1.043a.5.5 0 0 0-.245-.059.53.53 0 0 0-.249.059c-.2.112-.39.232-.576.347l-.327.2-.851.507-.675.4c-.165.1-.33.2-.5.3l-.234.142a.212.212 0 0 0 0 .368c.105.066.207.132.308.2.224.143.434.279.654.412q.558.336 1.121.667l.729.433a.394.394 0 0 1 .028.04.778.778 0 0 0 .052.048.783.783 0 0 0 .511.213.8.8 0 0 0 .507-.2 1.592 1.592 0 0 1 .181-.136m-.689.119a.447.447 0 0 0 .116-.025.44.44 0 0 1-.115.025m0-3.888a.247.247 0 0 1 .116.024.251.251 0 0 0-.117-.024" transform="translate(.012 -.882)" style="fill:#07e6ff"/>
        <path data-name="패스 11733" d="m14.51 6.356.518-.318c.321-.2.641-.393.96-.59a.85.85 0 0 0 .146-.122l.047-.044a.212.212 0 0 0 .071-.176.222.222 0 0 0-.1-.164l-.311-.2c-.227-.148-.448-.293-.674-.433q-.448-.279-.9-.552a92.872 92.872 0 0 1-.7-.43c-.054-.033-.105-.07-.157-.107a2.5 2.5 0 0 0-.263-.169.543.543 0 0 0-.25-.058.435.435 0 0 0-.228.058c-.216.134-.428.272-.64.411-.194.127-.388.253-.584.376-.373.233-.749.461-1.124.689l-.53.323c-.03.018-.058.038-.093.062l-.051.035a.218.218 0 0 0-.1.17.212.212 0 0 0 .084.176c.025.019.047.039.069.057a1.577 1.577 0 0 0 .164.124c.337.214.675.427 1.015.637l.712.433q.526.32 1.05.643a.489.489 0 0 0 .264.082.508.508 0 0 0 .272-.086c.368-.232.739-.46 1.11-.687zM12.9 3.212h.008a.193.193 0 0 0-.1.018.182.182 0 0 1 .092-.02m.011 3.832A.247.247 0 0 1 12.783 7a.235.235 0 0 0 .127.041" transform="translate(.023 -.241)" style="fill:#07e6ff"/>
        <path data-name="패스 11734" d="M5.926 6.2q.615-.379 1.229-.76a1.519 1.519 0 0 0 .134-.1l.055-.043a.212.212 0 0 0-.016-.352L7 4.736c-.232-.152-.452-.3-.677-.435q-.478-.3-.96-.588l-.731-.447c-.036-.022-.069-.049-.1-.074a1.211 1.211 0 0 0-.221-.143.613.613 0 0 0-.258-.056.42.42 0 0 0-.224.057c-.224.138-.443.28-.663.424-.186.122-.374.244-.563.362-.365.229-.733.453-1.1.677l-.534.326a.948.948 0 0 0-.1.069l-.054.038a.21.21 0 0 0-.015.345l.071.058a1.839 1.839 0 0 0 .165.124q.505.321 1.015.636l.727.443q.51.31 1.017.622a.519.519 0 0 0 .277.086.505.505 0 0 0 .276-.086c.349-.218.7-.432 1.052-.647l.526-.327M3.961 3.233a.173.173 0 0 1 .089-.019h.013a.2.2 0 0 0-.1.017m.108 3.807a.261.261 0 0 0 .14-.048.26.26 0 0 1-.139.048m2.115-2.553C5.626 4.136 5.059 3.8 4.5 3.45c.563.347 1.13.687 1.691 1.035" transform="translate(.002 -.241)" style="fill:#07e6ff"/>
        <path data-name="패스 11735" d="M3.5 13.17q-.749-.455-1.5-.9L1.553 12l-.337-.2c-.207-.123-.416-.247-.616-.37-.05-.03-.1-.05-.157-.078l-.08-.039a.263.263 0 0 0-.114-.027.267.267 0 0 0-.124.031.22.22 0 0 0-.118.19v.996c0 .665 0 1.351-.008 2.025a.681.681 0 0 0 .387.643q.776.448 1.547.9l.347.2c.012.007.022.017.033.025a.947.947 0 0 0 .08.057l.684.406.217.128a.255.255 0 0 0 .131.036.29.29 0 0 0 .056-.006.246.246 0 0 0 .152-.1l.017-.017a.244.244 0 0 0 .05-.15v-3.144a.426.426 0 0 0-.2-.336m-.973 3c-.04-.025-.074-.059-.115-.083.041.024.075.058.115.083l.9.534-.9-.534m.935-2.668a.177.177 0 0 0-.029-.085.177.177 0 0 1 .029.085c.005 1.048 0 2.1 0 3.144v-3.144" transform="translate(0 -.911)" style="fill:#07e6ff"/>
        <path data-name="패스 11736" d="M4.553 11.841a.261.261 0 0 0 .111.025.257.257 0 0 0 .139-.04l.246-.162c.157-.1.293-.193.432-.277.651-.391 1.508-.9 2.375-1.414a.481.481 0 0 0 .273-.45v-2.97a1.269 1.269 0 0 0-.009-.134l-.01-.051A.22.22 0 0 0 8 6.2a.258.258 0 0 0-.218-.017l-.029.01a.372.372 0 0 0-.1.042l-.586.365-1.047.661c-.171.108-.343.212-.514.318-.276.169-.561.345-.838.523a.544.544 0 0 0-.239.406 43.13 43.13 0 0 0-.007 1.135v2a.219.219 0 0 0 .13.2m.8-.64q1.185-.713 2.377-1.415a.267.267 0 0 0 .161-.263.267.267 0 0 1-.161.263q-1.194.7-2.377 1.415" transform="translate(.01 -.497)" style="fill:#07e6ff"/>
        <path data-name="패스 11737" d="M3.51 8.128a9.799 9.799 0 0 0-.542-.36l-.9-.55-.828-.506c-.043-.027-.083-.058-.123-.088s-.1-.076-.156-.11a18.859 18.859 0 0 0-.394-.234L.38 6.17a.26.26 0 0 0-.13-.035.256.256 0 0 0-.116.027.22.22 0 0 0-.125.195V9.604a.418.418 0 0 0 .181.312c.171.122.334.228.5.324q.66.389 1.323.775l.552.323.151.091.421.269.191.123a.254.254 0 0 0 .138.04.249.249 0 0 0 .111-.026.219.219 0 0 0 .13-.2V8.451a.445.445 0 0 0-.193-.325M1.106 6.9c-.1-.061-.183-.138-.282-.2.1.061.183.138.282.2.574.353 1.153.7 1.727 1.056C2.258 7.6 1.68 7.249 1.106 6.9" transform="translate(0 -.495)" style="fill:#07e6ff"/>
        <path data-name="패스 11738" d="M9.087 6.137a.267.267 0 0 0-.115.027.22.22 0 0 0-.126.195v3.25a.392.392 0 0 0 .169.3c.2.137.379.252.547.351q.641.378 1.284.752l.61.357.045.029c.017.011.033.023.05.033l.445.281.167.106a.256.256 0 0 0 .136.039.27.27 0 0 0 .113-.025.221.221 0 0 0 .129-.2V8.469a.443.443 0 0 0-.18-.332 10.167 10.167 0 0 0-.577-.382l-.89-.544-.82-.5c-.043-.027-.083-.058-.124-.088a1.838 1.838 0 0 0-.156-.11c-.124-.077-.253-.152-.391-.233l-.184-.109a.264.264 0 0 0-.131-.035m.571.561c-.177-.11-.359-.213-.571-.339.212.125.394.229.571.339" transform="translate(.021 -.495)" style="fill:#07e6ff"/>
        <path data-name="패스 11739" d="M13.391 11.843a.254.254 0 0 0 .251-.016l.25-.163c.161-.106.3-.2.445-.284.69-.415 1.509-.906 2.357-1.4a.48.48 0 0 0 .274-.45V6.561a1.318 1.318 0 0 0-.009-.135l-.007-.063a.22.22 0 0 0-.126-.178.263.263 0 0 0-.114-.027.254.254 0 0 0-.118.028l-.056.028a1.22 1.22 0 0 0-.112.061l-.579.369c-.332.212-.665.425-1 .634l-.53.328c-.265.162-.538.33-.8.5a.55.55 0 0 0-.24.4 7.51 7.51 0 0 0-.009.579V11.648a.219.219 0 0 0 .13.2m3.165-2.058a.352.352 0 0 0 .124-.108.352.352 0 0 1-.124.108q-1.185.695-2.36 1.4 1.177-.707 2.36-1.4" transform="translate(.031 -.497)" style="fill:#07e6ff"/>
        <path data-name="패스 11740" d="M12.558 14.519a1.353 1.353 0 0 0-.009-.137l-.006-.064a.222.222 0 0 0-.128-.178.254.254 0 0 0-.113-.026.262.262 0 0 0-.12.028l-.056.028a1.186 1.186 0 0 0-.111.062l-.583.379-.552.359-.857.533a.274.274 0 0 0-.056.049h-.006c-.282.176-.573.359-.856.546a.534.534 0 0 0-.159.169.213.213 0 0 0-.09.173v3.168a.168.168 0 0 0 .005.045v.05a.219.219 0 0 0 .131.2.264.264 0 0 0 .252-.017l.249-.166c.161-.108.3-.2.445-.29.69-.423 1.51-.924 2.356-1.43a.486.486 0 0 0 .272-.455V15.4zm-3.439 1.939-.024-.014zm1.038-.771.86-.536-.86.536" transform="translate(.021 -1.139)" style="fill:#07e6ff"/>
        <path data-name="패스 11741" d="M16.962 12.478v-.994a.221.221 0 0 0-.136-.2.26.26 0 0 0-.105-.022.255.255 0 0 0-.149.047l-.146.108a2.541 2.541 0 0 1-.208.148q-.471.285-.943.567l-.56.336-.142.085c-.36.217-.733.44-1.1.667a.459.459 0 0 0-.21.35c-.005.851-.005 1.7 0 2.576v.566a.22.22 0 0 0 .119.191.258.258 0 0 0 .122.03.25.25 0 0 0 .117-.028l.079-.04c.053-.026.093-.046.132-.069l.356-.216c.186-.113.372-.226.559-.336q.758-.445 1.518-.887l.357-.209a.625.625 0 0 0 .347-.581c-.008-.7-.007-1.4-.006-2.09m-2.116.176c-.413.248-.826.5-1.234.75.408-.255.821-.5 1.234-.75l1.5-.9-1.5.9" transform="translate(.031 -.909)" style="fill:#07e6ff"/>
        <path data-name="패스 11742" d="M7.986 16.143a8.893 8.893 0 0 0-.551-.361c-.319-.194-.64-.387-.959-.579l-.4-.242-.2-.125-.3-.184-.01-.007c-.057-.042-.114-.084-.175-.121-.123-.075-.251-.149-.389-.229l-.182-.115a.261.261 0 0 0-.25-.013.245.245 0 0 0-.065.046.206.206 0 0 0-.072.153v3.258a.416.416 0 0 0 .183.313c.174.122.339.228.5.324q.54.314 1.082.625l.221.128 1.111.663.046.028.225.142a.258.258 0 0 0 .25.014.219.219 0 0 0 .13-.2v-.559c0-.9 0-1.77-.005-2.636a.442.442 0 0 0-.2-.326" transform="translate(.01 -1.141)" style="fill:#07e6ff"/>
    </g>
    <path data-name="사각형 4750" style="fill:none" d="M0 0h24v24H0z"/>
</svg>
