<svg xmlns="http://www.w3.org/2000/svg" width="24" height="24" viewBox="0 0 24 24">
    <g data-name="그룹 2496">
        <g data-name="그룹 2494">
            <path data-name="패스 640" d="M2766.175 204.18h-9.015a.926.926 0 0 0-.955.893v15.647a.926.926 0 0 0 .955.893h13.053a.925.925 0 0 0 .954-.893v-11.864z" transform="translate(-2751.205 -201.18)" style="stroke-linejoin:round;stroke:#07e6ff;stroke-linecap:round;stroke-width:1.5px;fill:none"/>
            <path data-name="패스 641" d="M2766.508 209.03h3.923l-4.849-4.85v3.92a.927.927 0 0 0 .926.93z" transform="translate(-2750.47 -201.18)" style="stroke-linejoin:round;stroke:#07e6ff;stroke-linecap:round;stroke-width:1.5px;fill:none"/>
        </g>
        <g data-name="그룹 2495">
            <path data-name="패스 332" d="M2767.825 214.815a4.466 4.466 0 1 1-4.466-4.467 4.466 4.466 0 0 1 4.466 4.467z" transform="translate(-2750.893 -201.349)" style="stroke-miterlimit:10;stroke:#07e6ff;stroke-linecap:round;stroke-width:1.5px;fill:none"/>
            <path data-name="패스 642" d="M2763.24 210.685v4.109l3.656-1.915" transform="translate(-2750.799 -201.338)" style="stroke-linejoin:round;stroke:#07e6ff;stroke-linecap:round;stroke-width:1.5px;fill:none"/>
        </g>
    </g>
</svg>
