<svg xmlns="http://www.w3.org/2000/svg" width="24" height="24" viewBox="0 0 24 24">
    <path data-name="패스 494" d="M0 0h24v24H0z" style="fill:none"/>
    <g data-name="그룹 2475">
        <path data-name="사각형 697" d="M982.122 566.015v3.847a.425.425 0 0 1-.425.425h-11.711a.426.426 0 0 1-.426-.426v-11.853a.426.426 0 0 1 .426-.426h4.5" transform="translate(-964.38 -551.209)" style="stroke-linecap:round;stroke-miterlimit:10;stroke:#07e6ff;stroke-width:1.5px;fill:none"/>
        <path data-name="패스 903" d="m978.481 564.782-4.29.892.842-4.34 5.772-5.772a1.025 1.025 0 0 1 1.45 0l2 2a1.024 1.024 0 0 1 0 1.449z" transform="translate(-964.502 -551.193)" style="stroke-linejoin:round;stroke:#07e6ff;stroke-width:1.5px;fill:none"/>
    </g>
</svg>
