<svg xmlns="http://www.w3.org/2000/svg" width="16.697" height="19.883" viewBox="0 0 16.697 19.883">
    <g>
        <g>
            <g>
                <path fill="none" stroke="#07e6ff" stroke-width="1.8px" d="M2729.136 209.5h10.492a1.078 1.078 0 0 1 1.154.982l1.048 11.086a1.079 1.079 0 0 1-1.153.982h-12.589a1.079 1.079 0 0 1-1.154-.982l1.048-11.086a1.078 1.078 0 0 1 1.154-.982z" transform="translate(-2725.407 -203.448) translate(2726.307 209.382) translate(-2726.934 -209.496)"/>
            </g>
        </g>
        <path fill="none" stroke="#07e6ff" stroke-linecap="round" stroke-width="1.8px" d="M2730.584 212.346V207.6a3.252 3.252 0 0 1 3.252-3.252 3.252 3.252 0 0 1 3.253 3.252v4.746" transform="translate(-2725.407 -203.448) translate(-.081)"/>
    </g>
</svg>
