<svg xmlns="http://www.w3.org/2000/svg" width="18.356" height="21.125" viewBox="0 0 18.356 21.125">
    <g data-name="그룹 7002">
        <g data-name="그룹 6958">
            <g data-name="그룹 320">
                <path data-name="사각형 697" d="M.457 0h13.321a.457.457 0 0 1 .457.457v15.594a.456.456 0 0 1-.456.456H.457A.457.457 0 0 1 0 16.05V.457A.457.457 0 0 1 .457 0z" transform="translate(.75 .75)" style="stroke-miterlimit:10;fill:none;stroke:#07e6ff;stroke-width:1.5px"/>
                <g data-name="그룹 2474">
                    <path data-name="선 82" style="stroke-miterlimit:10;fill:none;stroke:#07e6ff;stroke-width:1.5px" d="M0 0h8.261" transform="translate(3.748 5.501)"/>
                    <path data-name="선 106" transform="translate(3.748 8.669)" style="stroke-miterlimit:10;fill:none;stroke:#07e6ff;stroke-width:1.5px" d="M0 0h8.261"/>
                </g>
            </g>
            <g data-name="패스 12408" style="fill:#0c1439">
                <path d="M5.5 10.25C2.88 10.25.75 8.12.75 5.5S2.88.75 5.5.75s4.75 2.13 4.75 4.75-2.13 4.75-4.75 4.75z" style="stroke:none" transform="translate(7.356 10.125)"/>
                <path d="M5.5 1.5c-2.206 0-4 1.794-4 4s1.794 4 4 4 4-1.794 4-4-1.794-4-4-4m0-1.5a5.5 5.5 0 1 1 0 11 5.5 5.5 0 0 1 0-11z" style="fill:#07e6ff;stroke:none" transform="translate(7.356 10.125)"/>
            </g>
            <path data-name="패스 12075" d="M0 0h3.262" transform="translate(3.748 11.838)" style="fill:none;stroke:#07e6ff;stroke-width:1.5px"/>
            <path data-name="선 301" transform="translate(10.856 15.625)" style="stroke-linecap:round;fill:none;stroke:#07e6ff;stroke-width:1.5px" d="M0 0h4"/>
            <path data-name="선 302" transform="rotate(90 -.385 13.24)" style="stroke-linecap:round;fill:none;stroke:#07e6ff;stroke-width:1.5px" d="M0 0h4"/>
        </g>
    </g>
</svg>
