<svg xmlns="http://www.w3.org/2000/svg" width="24" height="24" viewBox="0 0 24 24">
    <g data-name="그룹 7116">
        <g data-name="그룹 7098">
            <path data-name="패스 12576" d="M11.263 18.158H3.684A1.684 1.684 0 0 1 2 16.474V4.684A1.684 1.684 0 0 1 3.684 3h13.474a1.684 1.684 0 0 1 1.684 1.684v7.579" transform="translate(1.579 .736)" style="fill:none;stroke:#07e6ff;stroke-linecap:round;stroke-width:1.5px"/>
            <path data-name="패스 12577" d="m2 6.684 15.262 11.048a2.526 2.526 0 1 0-3.573 0 2.526 2.526 0 0 0 3.573 0zm0 0 1.58 1.584" transform="translate(1.579 .42)" style="stroke-linejoin:round;fill:none;stroke:#07e6ff;stroke-linecap:round;stroke-width:1.5px"/>
            <path data-name="패스 12578" d="M3.5 6.769 6 9.462 10 3l3.5 2.692" transform="translate(3.5 4.77)" style="stroke-linejoin:round;fill:none;stroke:#07e6ff;stroke-linecap:round;stroke-width:1.5px"/>
        </g>
    </g>
</svg>
