<?xml version="1.0" encoding="utf-8"?>
<!-- Generator: Adobe Illustrator 27.8.1, SVG Export Plug-In . SVG Version: 6.00 Build 0)  -->
<svg version="1.1" id="Layer_1" xmlns="http://www.w3.org/2000/svg" xmlns:xlink="http://www.w3.org/1999/xlink" x="0px" y="0px"
	 viewBox="0 0 841.9 595.3" style="enable-background:new 0 0 841.9 595.3;" xml:space="preserve">
<style type="text/css">
	.st0{fill:#FFFFFF;}
	.st1{fill:#BBB5FF;}
</style>
<g id="튠_00000111185440074227620790000011481089894549174962_">
	<path class="st0" d="M550.7,324.3c-1.8,0-3.5-0.4-5.2-1c-4.6-1.7-8-4.7-9.7-9.3c-0.6-1.5-0.9-3.2-1-4.8c-0.1-3.5,0-7,0-10.4
		c0-1.3,0-2.7,0-4c0-1.1,0.3-2.1,0.4-3.2c0.1-0.9,0.6-1.7,0.8-2.6c0-0.2,0.1-0.3,0.1-0.5c0-0.2,0.1-0.3,0.2-0.4
		c0-0.1,0.1-0.1,0.1-0.2c0.1-0.1,0.1-0.2,0.2-0.3c0.1-0.2,0.3-0.4,0.4-0.5c0.3-0.4,0.5-0.7,0.8-1c0.5-0.7,1.1-1.4,1.7-2
		c0.5-0.5,1.1-1,1.8-1.4c1.4-0.9,3-1.7,4.6-2.3c1.8-0.7,3.6-1,5.5-1.2c1.3-0.2,2.6-0.3,3.9-0.2c2.7,0.1,5.4,0.3,7.9,1.2
		c4.1,1.4,7.6,3.7,9.8,7.6c0.4,0.7,0.6,1.4,0.9,2.2c0.7,1.7,0.8,3.5,0.9,5.4c0.3,3.7,0.1,7.3,0.1,11c0,2-0.1,4.1-0.6,6.1
		c-0.5,2.2-1.5,4.2-3,6c-1.5,1.8-3.3,3.4-5.5,4.3c-1.9,0.8-3.8,1.5-5.9,1.7c-0.4,0-0.7,0-1.1,0.1c0,0-0.1,0-0.1,0
		c-0.1,0.1-6.9,0-7,0c-0.1-0.1-0.2-0.1-0.3-0.1C551.2,324.3,551,324.3,550.7,324.3z M551.3,302.8
		C551.3,302.8,551.3,302.8,551.3,302.8c0,2.1,0,4.1,0,6.2c0,1,0.5,1.9,1.3,2.6c1.6,1.4,4.4,0.7,5.2-1.1c0.5-1.1,0.5-2.3,0.5-3.4
		c0-4.2,0.2-8.4-0.1-12.5c-0.1-0.9-0.3-1.6-0.9-2.3c-0.6-0.6-1.2-0.7-2-0.9c-1.3-0.3-2.3,0.1-3.1,1.1c-0.6,0.7-0.8,1.6-0.9,2.5
		c0,0.7,0.1,1.4,0.1,2.2C551.4,299,551.3,300.9,551.3,302.8z"/>
	<path class="st1" d="M322.2,324.4c-0.4-0.1-0.1,0-0.3,0c-0.2,0-0.3,0-0.4,0c-4,0-7.5-1.5-10.6-3.8c-2.8-2.1-4.5-4.9-5.3-8.2
		c-0.7-2.7-0.8-5.5-0.8-8.3c0-7.3,0-14.6,0-21.9c0-0.8,0.1-1.5,0.7-2.1c0.4-0.3,0.8-0.5,1.3-0.5c4.1,0,8.2,0,12.3,0c1.2,0,2,0.8,2,2
		c0,8.7,0,17.3,0,26c0,2.4,1,3.6,3.3,4.2c1.4,0.4,2.7,0.1,3.9-0.5c1.3-0.6,1.9-1.8,2-3.2c0.1-1,0.2-1.9,0.2-2.9c0-7.8,0-15.6,0-23.5
		c0-1.6,0.6-2.2,2.3-2.2c3.9,0,7.7,0,11.6,0c1.4,0,2.1,0.6,2.1,2c0,8.6,0.1,17.2,0,25.8c0,2.9-0.6,5.8-2,8.4c-1.8,3.4-4.4,5.7-8,7.1
		c-1.4,0.5-2.9,1-4.4,1.3c-0.8,0.1-1.5,0.2-2.3,0.3c-0.4,0-0.1,0-0.6,0.1C326.4,324.5,324.6,324.4,322.2,324.4z"/>
	<path class="st1" d="M258.7,280.7c0-0.1,0.1-0.2,0.2-0.3c0.5-0.5,1.1-0.8,1.8-0.8c12.2,0,24.3,0,36.5,0c1.5,0,2.3,0.8,2.3,2.3
		c0,3-0.1,6.1,0,9.1c0,1.2-1.2,2.4-2.5,2.4c-3,0-6.1,0-9.1,0c-0.2,0-0.4,0-0.7,0c-0.2,0-0.4,0.1-0.3,0.4c0.1,0.6,0.1,1.2,0.1,1.8
		c0,8.8,0,17.5,0,26.3c0,1.6-0.6,2.3-2.2,2.3c-4,0-7.9,0-11.9,0c-1.5,0-2.1-0.7-2.1-2.1c0-9.3,0-18.5,0-27.8c0-0.7-0.2-0.8-0.9-0.8
		c-2.9,0-5.9,0-8.8,0c-1,0-1.9-0.2-2.5-1.1c-0.1-0.1,0-0.2-0.1-0.3C258.8,288.1,258.7,284.5,258.7,280.7z"/>
	<path class="st1" d="M379.1,298.5c0-3.4,0-6.7,0-10.1c0-2.3,0-4.6,0-6.8c0-1.3,0.7-2.1,2.1-2.1c3.6,0,7.1,0,10.7,0
		c1.6,0,2.2,0.6,2.2,2.2c0,12.8,0,25.7,0,38.5c0,0.7-0.1,1.4-0.1,2.1c-0.1,1.3-0.6,1.8-1.9,1.8c-1.2,0-2.5,0-3.8,0
		c-1.9,0-3.8-0.1-5.7,0c-1.4,0-2.3-0.6-3.1-1.7c-2.2-3.4-4.5-6.7-6.7-10.1c-1.1-1.7-2.3-3.4-3.4-5.1c-0.1-0.2-0.3-0.3-0.4-0.5
		c-0.2,0.1-0.2,0.2-0.2,0.4c0.2,5,0.1,9.9,0.1,14.9c0,1.5-0.6,2.1-2.1,2.1c-3.6,0-7.1,0-10.7,0c-1.5,0-2.1-0.7-2.1-2.2
		c0-12.7,0-25.4,0-38.1c0-0.8,0-1.6,0-2.4c0-1.1,0.7-1.8,1.9-1.8c3.3,0,6.6,0,9.8,0c1.2,0,2.1,0.6,2.8,1.6c1.1,1.7,2.1,3.3,3.1,5
		c2.3,3.9,4.7,7.8,7,11.6C378.7,298.1,379,298.3,379.1,298.5z"/>
	<path class="st1" d="M402.4,301.7c0-6.7,0-13.3,0-20c0-1.5,0.6-2.1,2.1-2.1c10.7,0,21.4,0,32.2,0c1.1,0,1.9,0.8,1.9,1.9
		c0,3,0,6,0,9c0,0.5-1.1,1.5-1.7,1.5c-0.2,0-0.5,0-0.7,0c-5.9,0-11.7,0-17.6,0c-0.9,0-0.9,0-0.9,0.9c0,0.8,0,1.6,0,2.4
		c0,0.5,0.1,0.7,0.7,0.7c5.6,0,11.2,0,16.8,0c0.7,0,1.3,0.2,1.6,0.8c0.2,0.3,0.2,0.5,0.2,0.8c0,2.8,0,5.6,0,8.4c0,1-0.7,1.6-1.8,1.7
		c-0.2,0-0.4,0-0.7,0c-5.4,0-10.7,0-16.1,0c-0.6,0-0.8,0.1-0.8,0.8c0.1,0.8,0,1.6,0,2.5c0,0.5,0.1,0.7,0.7,0.7c5.7,0,11.3,0,17,0
		c0.6,0,1.2,0,1.8,0c1.2,0.1,1.9,0.7,1.9,1.9c0,3,0,6.1,0,9.1c0,0.7-0.6,1.4-1.6,1.5c-0.5,0-1,0-1.5,0c-10.1,0-20.2,0-30.4,0
		c-0.5,0-0.9,0-1.4,0c-1.1-0.1-1.6-0.6-1.7-1.7c0-0.2,0-0.5,0-0.7C402.4,315,402.4,308.3,402.4,301.7
		C402.4,301.7,402.4,301.7,402.4,301.7z"/>
	<path class="st0" d="M512.8,311c0,0,0.1,0,0.1,0c0.1,0,0.2,0,0.3,0c0.2,0,0.4,0,0.6,0c0.4,0,0.8,0,1.2,0c0.2,0,0.3,0,0.5,0
		c3.4,0,6.9,0,10.3,0c0.4,0,0.9,0.1,1.3,0.1c0.8,0.1,1.2,0.7,1.2,1.7c0,3.1,0,6.3,0,9.4c0,1.1-0.7,1.9-1.8,1.9c-4.3,0-8.7,0-13,0
		c-7.7,0-15.4,0-23,0c-0.5,0-1,0-1.5,0c-0.8-0.1-1.5-0.7-1.5-1.5c-0.1-2.5-0.1-5,0-7.6c0-1.1,0.6-2,1.5-2.6c3-2.2,6-4.3,9-6.5
		c3.2-2.4,6.5-4.6,9.3-7.5c1-1,1.9-2,2.4-3.3c0.4-1.1,0.5-2.2-0.2-3.2c-0.6-0.7-2-0.8-3.1-0.4c-1.2,0.5-1.8,1.5-2.1,2.7
		c-0.3,1.1-1.4,1.7-2.4,1.7c-4,0-8,0-12.1,0c-1,0-1.5-0.5-1.5-1.5c0-1.9,0.2-3.8,1-5.5c1-2.2,2.2-4.2,4.2-5.7c2.4-1.9,5.1-3.1,8-3.9
		c2.5-0.6,5.1-0.8,7.6-0.7c1.8,0.1,3.5,0.2,5.2,0.6c3.1,0.8,6,1.9,8.4,4c1.8,1.7,3.1,3.7,3.7,6.2c0.4,1.6,0.5,3.2,0.3,4.8
		c-0.4,2.8-1.4,5.4-3.3,7.5c-2.1,2.4-4.4,4.6-6.9,6.5c-0.3,0.2-0.6,0.5-0.9,0.7c-0.3,0.2-0.6,0.4-0.9,0.7c-0.3,0.2-0.6,0.4-0.9,0.7
		c-0.1,0.1-0.2,0.2-0.3,0.2c-0.1,0-0.1,0.1-0.2,0.1c0,0-0.1,0.1-0.1,0.1c-0.1,0-0.1,0.1-0.2,0.1c0,0,0,0,0,0.1
		C512.7,311,512.7,311,512.8,311z"/>
	<path class="st0" d="M463.3,279.6c5.4,0,10.9,0,16.3,0c1.3,0,2.1,0.9,2.1,2c0,2.5,0,5,0,7.4c0,1.6-0.5,3.1-1.2,4.5
		c-1.1,2.2-2.1,4.4-3.1,6.6c-2.7,5.8-5.5,11.6-8.2,17.5c-0.8,1.7-1.6,3.4-2.4,5.1c-0.5,1-1.4,1.4-2.4,1.4c-3.4,0.1-6.7,0-10.1,0.1
		c-0.8,0-1.6,0-2.4,0c-0.8,0-1.6-1-1.2-1.9c0.9-2,1.8-4,2.7-5.9c1.3-2.7,2.6-5.4,3.7-8.1c0.6-1.4,1.3-2.7,1.9-4.1
		c1.2-2.5,2.4-5,3.5-7.6c0.5-1.1,1-2.3,1.6-3.4c0.3-0.5,0-0.5-0.3-0.5c-0.6,0-1.2,0-1.7,0c-5,0-10.1,0-15.1,0c-1,0-1.8-0.8-1.8-1.8
		c0-3.2,0-6.4,0-9.6c0-0.9,0.8-1.7,1.8-1.7C452.4,279.6,457.8,279.6,463.3,279.6z"/>
	<path class="st0" d="M582.2,274.3c-0.1-4.1,3.5-7.2,7-7.4c5.3-0.3,8,3.7,8.2,6.8c0.4,4.8-3.5,8.4-7.7,8.4
		C585.9,282,582,278.6,582.2,274.3z"/>
</g>
</svg>
