<svg xmlns="http://www.w3.org/2000/svg" width="24" height="24" viewBox="0 0 24 24">
    <g data-name="그룹 1192">
        <path data-name="패스 494" d="M130.866 52.1h24v24h-24z" style="fill:none" transform="translate(-130.866 -52.099)"/>
    </g>
    <path data-name="패스 1068" d="M142.866 56.609a7.534 7.534 0 0 1 1.576.167v2.162a5.391 5.391 0 0 1 2.1 1.217l1.871-1.081A7.471 7.471 0 0 1 150 61.8l-1.872 1.081a5.455 5.455 0 0 1 0 2.432L150 66.4a7.471 7.471 0 0 1-1.578 2.728q-.935-.542-1.871-1.081a5.391 5.391 0 0 1-2.1 1.217v2.162a7.564 7.564 0 0 1-3.152 0V69.26a5.383 5.383 0 0 1-2.1-1.217l-1.873 1.081a7.494 7.494 0 0 1-1.578-2.728l1.873-1.081a5.427 5.427 0 0 1 0-2.432l-1.885-1.083a7.485 7.485 0 0 1 1.578-2.728l1.872 1.081a5.394 5.394 0 0 1 2.1-1.217v-2.16a7.541 7.541 0 0 1 1.576-.167m0 10.024a2.534 2.534 0 1 0-2.534-2.534 2.534 2.534 0 0 0 2.534 2.534m0-12.024a9.489 9.489 0 0 0-1.995.212l-1.581.338v2.468a8.328 8.328 0 0 0-.241.139l-.735-.424-1.4-.808-1.084 1.2a9.41 9.41 0 0 0-2 3.458l-.495 1.538 1.4.808.736.424v.28l-.736.425-1.4.807.5 1.539a9.436 9.436 0 0 0 2 3.457l1.084 1.2 1.4-.807.154-.089.581-.335c.08.048.16.094.241.139v2.462l1.583.338a9.567 9.567 0 0 0 3.987 0l1.582-.338v-2.468c.082-.046.162-.092.242-.14l.734.424 1.4.807 1.084-1.2a9.4 9.4 0 0 0 2-3.458l.5-1.537-1.4-.808-.738-.425v-.28l.736-.424 1.4-.808-.5-1.538a9.424 9.424 0 0 0-2-3.458l-1.084-1.2-1.4.807-.734.425a7.242 7.242 0 0 0-.242-.14v-2.46l-1.581-.338a9.481 9.481 0 0 0-1.995-.212zm0 10.024a.534.534 0 1 1 .533-.534.535.535 0 0 1-.533.534z" transform="translate(-130.866 -52.099)" style="fill:#85b74e"/>
</svg>
