<svg data-name="그룹 6029" xmlns="http://www.w3.org/2000/svg" width="41.354" height="41.354" viewBox="0 0 41.354 41.354">
    <defs>
        <clipPath id="pxdky803qa">
            <path data-name="사각형 6007" style="fill:none" d="M0 0h41.354v41.354H0z"/>
        </clipPath>
        <clipPath id="l1r3cokp2b">
            <path data-name="패스 12356" d="M45.871 28.113a17.758 17.758 0 1 1-17.759-17.758 17.758 17.758 0 0 1 17.759 17.758" transform="translate(-10.354 -10.355)" style="fill:none"/>
        </clipPath>
    </defs>
    <g data-name="그룹 6026" style="clip-path:url(#pxdky803qa)">
        <g data-name="그룹 6025">
            <g data-name="그룹 6024" style="clip-path:url(#pxdky803qa)">
                <path data-name="패스 12354" d="M45.871 28.113a17.758 17.758 0 1 1-17.759-17.758 17.758 17.758 0 0 1 17.759 17.758" transform="translate(-7.435 -7.436)" style="fill:#6185ff"/>
                <g data-name="그룹 6023" style="opacity:.3">
                    <g data-name="그룹 6022">
                        <g data-name="그룹 6021" style="clip-path:url(#pxdky803qa)">
                            <g data-name="그룹 6020">
                                <g data-name="그룹 6019" style="clip-path:url(#l1r3cokp2b)" transform="translate(2.919 2.919)">
                                    <path data-name="패스 12355" d="M41.354 20.076H25.309l15.515-4.089-.306-1.161-15.587 4.108 13.992-8-.6-1.042-14.048 8.035L35.722 6.48l-.849-.849-11.345 11.345 8.079-13.861-1.037-.6-8.117 13.92L26.688.884 25.53.568l-4.253 15.619V0h-1.2v16.044L15.987.53l-1.161.305 4.108 15.586-8-13.991-1.042.6 8.037 14.051L6.48 5.632l-.849.849 11.344 11.343-13.86-8.078-.6 1.037 13.92 8.117L.884 14.665l-.316 1.158 15.619 4.253H0v1.2h16.043L.529 25.366l.306 1.161 15.586-4.108-13.992 8 .6 1.042 14.051-8.037L5.631 34.873l.849.849 11.344-11.345-8.078 13.862 1.037.6L18.9 24.918l-4.235 15.551 1.159.315 4.253-15.618v16.187h1.2V25.31l4.089 15.514 1.161-.306-4.108-15.586 8 13.992 1.042-.6-8.034-14.049 11.446 11.448.849-.849-11.345-11.346 13.862 8.079.6-1.037-13.921-8.116 15.552 4.235.315-1.158-15.619-4.254h16.188z" transform="translate(-2.918 -2.919)" style="fill:#fff"/>
                                </g>
                            </g>
                        </g>
                    </g>
                </g>
                <path data-name="패스 12357" d="M50.057 35A15.053 15.053 0 1 1 35 19.952 15.052 15.052 0 0 1 50.057 35" transform="translate(-14.327 -14.328)" style="fill:#174cff"/>
                <path data-name="패스 12358" d="M53.086 39.991a13.1 13.1 0 1 1-13.1-13.1 13.1 13.1 0 0 1 13.1 13.1" transform="translate(-19.313 -19.314)" style="fill:#6185ff"/>
            </g>
        </g>
    </g>
</svg>
