<svg xmlns="http://www.w3.org/2000/svg" width="28" height="30" viewBox="0 0 28 30">
    <defs>
        <clipPath id="r27h9fvuda">
            <path data-name="사각형 41" transform="translate(-1.7 -1.5)" style="fill:#fff" d="M0 0h28v30H0z"/>
        </clipPath>
    </defs>
    <g data-name="그룹 72" style="clip-path:url(#r27h9fvuda)" transform="translate(1.7 1.5)">
        <path data-name="패스 60" d="M21.119 3.239S18.52 0 12.3 0 3.272 3.238 3.272 3.238C1.461 4.994 0 7.824 0 12.386 0 23.42 7.91 26.179 7.91 26.179a11.375 11.375 0 0 0 2.44.75.975.975 0 0 0 1.084-1.329 4.219 4.219 0 0 1-.269-1.711h3.071s10.473.78 10.364-10.762c0-5-1.566-8.041-3.48-9.889m-1.295 14.7-.01-.015a2.18 2.18 0 0 1-1.958 1.183 2.243 2.243 0 0 1-2.368-1.7 3.26 3.26 0 0 0-6.3.243 2.26 2.26 0 0 1-2.3 1.453H6.88a2.18 2.18 0 0 1-1.958-1.172l-.01.015s-2.167-3.138.553-8.123 6.9-4.7 6.9-4.7 4.182-.283 6.9 4.7.553 8.123.553 8.123" transform="translate(0 .07)" style="fill:#fff"/>
        <path data-name="패스 61" d="M61.7 52.9a2.033 2.033 0 1 0 2.071 2.033A2.052 2.052 0 0 0 61.7 52.9" transform="translate(-49.329 -43.862)" style="fill:#fff"/>
    </g>
</svg>
