<svg xmlns="http://www.w3.org/2000/svg" width="60" height="52" viewBox="0 0 60 52">
    <path data-name="패스 12499" d="M55.825 46.282h5.626v5.627h-5.626zm8.752 0H70.2v5.627h-5.623zm-8.752-8.671h5.626v5.627h-5.626zm8.752 0H70.2v5.627h-5.623zm-8.752-8.751h5.626v5.626h-5.626zm8.752 0H70.2v5.626h-5.623zm-13.76 29.866h24.4V22.044h-24.4z" transform="translate(-15.213 -6.726)" style="fill:#fff"/>
    <path data-name="패스 12500" d="M4.688 26.253h5.626v5.584H4.688zm8.752 0h5.627v5.584H13.44zm8.752 0h5.626v5.584h-5.625zM4.688 16.017h5.626V21.6H4.688zm8.752 0h5.627V21.6H13.44zm8.752 0h5.626V21.6h-5.625zM4.688 5.78h5.626v5.583H4.688zm8.752 0h5.627v5.583H13.44zm8.752 0h5.626v5.583h-5.625zM0 0v52h10.159V39.282h12.19V52h10.158V0z" style="fill:#fff"/>
</svg>
