<svg xmlns="http://www.w3.org/2000/svg" width="22" height="22" viewBox="0 0 22 22">
    <path d="M21.484 8h-1.19a.525.525 0 0 0-.516.545l.1 4.372A10.563 10.563 0 0 0 11 8 10.756 10.756 0 0 0 .528 16.952a.527.527 0 0 0 .507.629h1.229a.521.521 0 0 0 .5-.423A8.486 8.486 0 0 1 11 10.306a8.41 8.41 0 0 1 7.677 5.114l-5.431-.133a.524.524 0 0 0-.528.532v1.229a.524.524 0 0 0 .516.532h8.25a.524.524 0 0 0 .516-.532V8.532A.524.524 0 0 0 21.484 8zm-.52 12.419h-1.228a.521.521 0 0 0-.5.423A8.486 8.486 0 0 1 11 27.694a8.41 8.41 0 0 1-7.677-5.114l5.431.133a.524.524 0 0 0 .528-.532v-1.229a.524.524 0 0 0-.516-.532H.516a.524.524 0 0 0-.516.532v8.516A.524.524 0 0 0 .516 30h1.19a.525.525 0 0 0 .515-.545l-.1-4.372A10.563 10.563 0 0 0 11 30a10.756 10.756 0 0 0 10.472-8.952.527.527 0 0 0-.508-.629z" transform="translate(0 -8)" style="fill:#3d4a87"/>
</svg>
