<svg xmlns="http://www.w3.org/2000/svg" width="71.395" height="57.901" viewBox="0 0 71.395 57.901">
    <defs>
        <clipPath id="pqg9dki0na">
            <path data-name="사각형 6073" transform="translate(-1)" style="stroke:#111a46;fill:#c1c8db" d="M0 0h71.395v57.901H0z"/>
        </clipPath>
        <clipPath id="khl7ineuab">
            <path data-name="사각형 6074" style="fill:none" d="M0 0h30v24H0z"/>
        </clipPath>
    </defs>
    <g data-name="그룹 7719">
        <g data-name="그룹 7716" transform="translate(1)" style="clip-path:url(#pqg9dki0na)">
            <path data-name="패스 12778" d="M32.561 69.664v3.321h-6.473a1.545 1.545 0 0 0-1.554 1.523v.082a1.544 1.544 0 0 0 1.554 1.524h31.507a1.544 1.544 0 0 0 1.554-1.524v-.082a1.545 1.545 0 0 0-1.554-1.523H50.35v-3.321z" transform="translate(-7.144 -19.299)" style="fill:#c1c8db"/>
            <path data-name="패스 12779" d="M0 54.178v3.316c0 1.128 1.735 2.051 3.862 2.051h61.5c2.125 0 3.866-.923 3.866-2.051v-4.761H0z" transform="translate(.086 -12.343)" style="fill:#c1c8db"/>
            <path data-name="패스 12780" d="M72.4 5.916a4.49 4.49 0 0 0-3.36-1.528H8.857a4.538 4.538 0 0 0-4.52 4.528v31.929h69.225V8.916a4.5 4.5 0 0 0-1.164-3" transform="translate(-4.251 -3.313)" style="fill:#c1c8db"/>
        </g>
        <g data-name="그룹 7718" transform="translate(21 7.024)" style="clip-path:url(#khl7ineuab)">
            <path data-name="패스 12781" d="M29.581 20.082 17.112 1.141a2.522 2.522 0 0 0-4.22 0L.414 20.082A2.532 2.532 0 0 0 2.524 24h24.957a2.524 2.524 0 0 0 2.1-3.918m-13.235.542a1.349 1.349 0 0 1-2.7 0v-.9a1.349 1.349 0 0 1 2.7 0zm0-5.287a1.349 1.349 0 1 1-2.7 0V5.813a1.349 1.349 0 1 1 2.7 0z" style="fill:#f6f6f6"/>
        </g>
    </g>
</svg>
