<svg xmlns="http://www.w3.org/2000/svg" width="41" height="41" viewBox="0 0 41 41">
    <g data-name="그룹 4032">
        <g data-name="그룹 4021">
            <g data-name="그룹 3978" transform="translate(.72 3.854)">
                <path data-name="합치기 18" d="M5.259 25.8a1.824 1.824 0 0 1-1.829-1.821v-9.814l-.712.712a.5.5 0 0 1-.707 0L.144 13.011a.5.5 0 0 1 0-.707L12.3.145a.621.621 0 0 1 .8 0L25.26 12.3a.5.5 0 0 1 0 .707l-1.867 1.867a.5.5 0 0 1-.706 0l-.368-.368v9.47a1.823 1.823 0 0 1-1.828 1.824z" transform="translate(1.804 .757)" style="fill:#fff"/>
                <g data-name="그룹 3974">
                    <g data-name="그룹 3975">
                        <path data-name="합치기 19" d="m16.64 21.014-4.233-3.375a1.253 1.253 0 0 1-.441-.7l-.526-1.83.415-.1a2.8 2.8 0 0 0 2.115-2.219l.58 2.477a.874.874 0 0 0 .311.514l3.639 2.9a1.49 1.49 0 0 1 .236 2.094 1.492 1.492 0 0 1-2.1.236zm-14-.1-.186-.051a1.393 1.393 0 0 1-.976-1.713l1.368-5a1.386 1.386 0 0 1 .511-.75 1.4 1.4 0 0 1 .37-.2l3.893-1.39-1.36-5.76-.584 1.518a1.316 1.316 0 0 1-.526.632 1.526 1.526 0 0 1-.208.165l-2.85 1.8A1.3 1.3 0 0 1 .168 9.65a1.743 1.743 0 0 1 .58-2.172 7.831 7.831 0 0 0 2.179-1.866 12.031 12.031 0 0 0 1.49-3.049l.005-.012A8.13 8.13 0 0 1 6.176.768a2.4 2.4 0 0 1 .537-.422h.005A2.49 2.49 0 0 1 7.945.014a12.593 12.593 0 0 1 6.193 1.446l2.214 1.15a2.557 2.557 0 0 1 1.328 1.762l.976 4.8a1.2 1.2 0 0 1-1.218 1.491A1.49 1.49 0 0 1 15.68 9.5l-.88-4.329-2.85-1.484 1.541 6.548a3.168 3.168 0 0 1-2.357 3.8l-2.834.687-.967.336A3.435 3.435 0 0 0 5.371 16.2l-1.023 3.734a1.392 1.392 0 0 1-1.713.976z" transform="translate(18.414 9.941)" style="fill:#92f0ff"/>
                        <path data-name="합치기 19 - 윤곽선" d="M18.2 28.059a1.49 1.49 0 0 0 1.17-.559 1.49 1.49 0 0 0-.236-2.094L15.5 22.5a.874.874 0 0 1-.311-.514L14.6 19.51a2.8 2.8 0 0 1-2.115 2.219l-.415.1.526 1.83a1.253 1.253 0 0 0 .441.7l4.233 3.375a1.485 1.485 0 0 0 .929.325m-14.559-.38a1.393 1.393 0 0 0 1.343-1.026l1.023-3.737a3.435 3.435 0 0 1 1.96-1.143l.967-.336 2.835-.683a3.168 3.168 0 0 0 2.357-3.8l-1.541-6.548 2.849 1.485.881 4.331a1.49 1.49 0 0 0 1.757 1.164 1.2 1.2 0 0 0 1.218-1.491l-.976-4.8a2.557 2.557 0 0 0-1.328-1.763L14.773 8.18a12.593 12.593 0 0 0-6.194-1.446 2.49 2.49 0 0 0-1.226.329h-.005a2.4 2.4 0 0 0-.537.421 8.131 8.131 0 0 0-1.754 1.79l-.005.012a12.031 12.031 0 0 1-1.49 3.049A7.831 7.831 0 0 1 1.383 14.2 1.743 1.743 0 0 0 .8 16.369a1.3 1.3 0 0 0 1.924.514l2.85-1.8a1.526 1.526 0 0 0 .208-.165 1.316 1.316 0 0 0 .526-.634l.584-1.518L8.25 18.53l-3.893 1.39a1.4 1.4 0 0 0-.37.2 1.386 1.386 0 0 0-.511.75l-1.368 5a1.393 1.393 0 0 0 .976 1.713l.186.051a1.4 1.4 0 0 0 .37.05m14.56 2.509a3.638 3.638 0 0 1-2.26-.791l-4.23-3.375a3.4 3.4 0 0 1-1.174-1.827l-.256-.889-.78.189-.952.33-.127.027a1.65 1.65 0 0 0-.509.2l-.865 3.16a3.534 3.534 0 0 1-3.4 2.6 3.534 3.534 0 0 1-.934-.126l-.189-.052A3.528 3.528 0 0 1 .049 25.3l1.368-5a3.523 3.523 0 0 1 .483-1.049 3.436 3.436 0 0 1-3.012-1.929A3.88 3.88 0 0 1 .2 12.416l.086-.057.066-.035a5.719 5.719 0 0 0 1.51-1.292A8.5 8.5 0 0 0 3 8.679c.033-.095.062-.179.107-.277l3.7-5.378.385 1.176.161-.161.6.6a4.642 4.642 0 0 1 .529-.039 8.06 8.06 0 0 1 .523-.016 15.374 15.374 0 0 1 6.715 1.683l.036.018 2.214 1.149a4.671 4.671 0 0 1 2.437 3.233l.976 4.8a3.323 3.323 0 0 1-3.1 4.045 3.63 3.63 0 0 1-1.514-.106l.4 1.7 3.3 2.627a3.63 3.63 0 0 1 1.04 4.339v.173l-.467.586a3.61 3.61 0 0 1-2.842 1.362z" transform="translate(17.78 3.222)" style="fill:#3c71fd"/>
                    </g>
                </g>
                <rect data-name="사각형 3346" width="7.332" height="8.597" rx=".5" transform="translate(7.622 15.933)" style="fill:#3c71fd"/>
            </g>
            <path data-name="패스 1171" d="M65.837 2.845A2.845 2.845 0 1 0 68.682 0a2.845 2.845 0 0 0-2.845 2.845" transform="translate(-43.199 7.41)" style="stroke:#3c71fd;stroke-miterlimit:10;stroke-width:1.5px;fill:#92f0ff"/>
        </g>
    </g>
</svg>
