<svg xmlns="http://www.w3.org/2000/svg" width="20" height="17.668" viewBox="0 0 20 17.668">
    <defs>
        <clipPath id="ekiifnafqa">
            <path data-name="사각형 5939" style="fill:none" d="M0 0h20v17.668H0z"/>
        </clipPath>
    </defs>
    <g data-name="그룹 7398" style="clip-path:url(#ekiifnafqa)">
        <path data-name="패스 12655" d="M12.045 1.843a.728.728 0 0 0 0 1.456h3.752a.728.728 0 0 0 0-1.456h-3.752z" style="fill:#07e6ff"/>
        <path data-name="패스 12656" d="M4.22 1.834a.728.728 0 0 0 0 1.456l3.75.01a.728.728 0 0 0 0-1.456H4.219z" style="fill:#07e6ff"/>
        <path data-name="패스 12657" d="M9.9 3.6a.822.822 0 0 0-.7.9v4.588a.822.822 0 0 0 .7.9.822.822 0 0 0 .7-.9V4.5a.822.822 0 0 0-.7-.9z" style="fill:#07e6ff"/>
        <path data-name="패스 12658" d="M9.9.008a2.374 2.374 0 0 1 0 4.747A2.373 2.373 0 0 1 8.227.7 2.358 2.358 0 0 1 9.9.008zm.916 2.374a.918.918 0 0 0-.916-.918.918.918 0 0 0-.646 1.566.841.841 0 0 0 .646.27.919.919 0 0 0 .918-.917" style="fill:#07e6ff"/>
        <path data-name="패스 12659" d="M2.376 0a2.374 2.374 0 0 1 0 4.747A2.372 2.372 0 0 1 .7.693 2.357 2.357 0 0 1 2.373 0zm.645 3.023a.918.918 0 0 0-.647-1.567.918.918 0 0 0 0 1.835.91.91 0 0 0 .648-.268" style="fill:#07e6ff"/>
        <path data-name="패스 12660" d="M17.629.018A2.375 2.375 0 0 1 20 2.393a2.377 2.377 0 0 1-2.373 2.371 2.373 2.373 0 0 1 0-4.746zm.915 2.373a.917.917 0 1 0-.918.917.919.919 0 0 0 .917-.917" style="fill:#07e6ff"/>
        <path data-name="패스 12661" d="M14.366 17.668H5.634a1.18 1.18 0 0 1-1.179-1.18V8.825a1.18 1.18 0 0 1 1.179-1.179h2.5a1.461 1.461 0 0 1 1.3.862l.525 1.247h4.409a1.182 1.182 0 0 1 1.18 1.18v5.553a1.182 1.182 0 0 1-1.18 1.18M5.91 16.212h8.18v-5H9.474a.729.729 0 0 1-.671-.445L8.1 9.1H5.91zm8.456-5z" style="fill:#07e6ff"/>
    </g>
</svg>
