<svg xmlns="http://www.w3.org/2000/svg" width="20" height="18" viewBox="0 0 20 18">
    <defs>
        <clipPath id="di3niedkoa">
            <path data-name="사각형 7052" style="fill:none" d="M0 0h20v18H0z"/>
        </clipPath>
    </defs>
    <g data-name="그룹 8277" style="clip-path:url(#di3niedkoa)">
        <path data-name="패스 12571" d="M38.977 77.812a2.817 2.817 0 0 1-5.617 0z" transform="translate(-26.214 -62.407)" style="fill:#b40000"/>
        <path data-name="패스 12572" d="M23.33 11.481V8.343a6.007 6.007 0 0 0-4.983-5.72v-.39a1.357 1.357 0 0 0-2.709-.059v.449a6.008 6.008 0 0 0-4.984 5.72v3.139a5.584 5.584 0 0 1-1.568 3.847.493.493 0 0 0 .412.815h14.988a.493.493 0 0 0 .412-.815 5.584 5.584 0 0 1-1.568-3.847" transform="translate(-7.037 -.739)" style="fill:#fd3c3c"/>
        <path data-name="패스 12573" d="M.725 6.2a.769.769 0 0 1-.292-.057.651.651 0 0 1-.37-.883 8.307 8.307 0 0 1 4.143-4.006.752.752 0 0 1 .966.316.648.648 0 0 1-.341.893A6.911 6.911 0 0 0 1.388 5.8a.73.73 0 0 1-.663.4" transform="translate(0 -.953)" style="fill:#b40000"/>
        <path data-name="패스 12574" d="M73.405 5.014a.769.769 0 0 0 .292-.057.651.651 0 0 0 .37-.883A8.307 8.307 0 0 0 69.924.066a.752.752 0 0 0-.966.316.648.648 0 0 0 .342.893 6.911 6.911 0 0 1 3.443 3.34.73.73 0 0 0 .663.4" transform="translate(-54.13)" style="fill:#b40000"/>
    </g>
</svg>
