<svg xmlns="http://www.w3.org/2000/svg" width="42" height="42" viewBox="0 0 42 42">
    <defs>
        <clipPath id="nnr8bnuqja">
            <path data-name="사각형 5440" style="fill:none" d="M0 0h8v13.998H0z"/>
        </clipPath>
    </defs>
    <g data-name="타원 686" style="stroke:#e31737;stroke-width:2px;fill:none">
        <circle cx="21" cy="21" r="21" style="stroke:none"/>
        <circle cx="21" cy="21" r="20" style="fill:none"/>
    </g>
    <g data-name="그룹 7027">
        <g data-name="그룹 7026" style="clip-path:url(#nnr8bnuqja)" transform="translate(17 14)">
            <path data-name="패스 12549" d="M1.744 14H.872A.838.838 0 0 1 0 13.2V.8A.838.838 0 0 1 .872 0h.872a.839.839 0 0 1 .872.8v12.4a.838.838 0 0 1-.872.8" style="fill:#e31737"/>
            <path data-name="패스 12550" d="M52.993 14h-.872a.838.838 0 0 1-.872-.8V.8a.838.838 0 0 1 .872-.8h.872a.839.839 0 0 1 .872.8v12.4a.838.838 0 0 1-.872.8" transform="translate(-45.865)" style="fill:#e31737"/>
        </g>
    </g>
</svg>
