<svg xmlns="http://www.w3.org/2000/svg" width="22.372" height="21.561" viewBox="0 0 22.372 21.561">
    <defs>
        <clipPath id="x6sakbw39a">
            <path data-name="사각형 7081" style="fill:#fff" d="M0 0h22.372v21.561H0z"/>
        </clipPath>
    </defs>
    <g data-name="그룹 8281" style="clip-path:url(#x6sakbw39a)">
        <path data-name="패스 12576" d="m.41 5.045 4.574 3.266a.98.98 0 1 0 1.139-1.595L4.038 5.227h10.821a5.56 5.56 0 0 1 5.553 5.553.98.98 0 1 0 1.96 0 7.522 7.522 0 0 0-7.513-7.513H4.038l2.085-1.489A.98.98 0 1 0 4.984.183L.41 3.45a.98.98 0 0 0 0 1.595" style="fill:#fff"/>
        <path data-name="패스 12577" d="m21.962 21.717-4.573-3.267a.98.98 0 1 0-1.139 1.595l2.085 1.49H7.513a5.56 5.56 0 0 1-5.553-5.554.98.98 0 0 0-1.96 0 7.522 7.522 0 0 0 7.513 7.513h10.821l-2.085 1.489a.98.98 0 1 0 1.139 1.595l4.573-3.267a.98.98 0 0 0 0-1.595" transform="translate(0 -5.2)" style="fill:#fff"/>
    </g>
</svg>
