<svg xmlns="http://www.w3.org/2000/svg" width="16" height="16" viewBox="0 0 16 16">
    <g data-name="그룹 7686" transform="translate(-310 -893.25)">
        <rect data-name="사각형 5118" width="16" height="16" rx="2" transform="translate(310 893.25)" style="fill:#eceff1"/>
        <path d="m36.519 80.03-5.883 5.883-2.162-2.162a.268.268 0 0 0-.38 0l-.633.633a.268.268 0 0 0 0 .38l2.984 2.984a.268.268 0 0 0 .38 0l6.706-6.706a.268.268 0 0 0 0-.38l-.631-.632a.268.268 0 0 0-.381 0z" transform="translate(285.617 817.298)" style="fill:#c4c4c4"/>
    </g>
</svg>
