<svg xmlns="http://www.w3.org/2000/svg" width="15.907" height="15.907" viewBox="0 0 15.907 15.907">
    <defs>
        <clipPath id="p1mw7r7hsa">
            <path data-name="사각형 6593" style="fill:#434756" d="M0 0h15.907v15.907H0z"/>
        </clipPath>
    </defs>
    <g data-name="그룹 7752" style="clip-path:url(#p1mw7r7hsa)">
        <path data-name="패스 12244" d="M7.954 0a7.954 7.954 0 1 0 7.954 7.954A7.963 7.963 0 0 0 7.954 0m5 9.2a9.797 9.797 0 0 1-.75.223 15.203 15.203 0 0 0 0-2.933c.262.069.515.142.75.224 1.209.421 1.75.927 1.75 1.242s-.541.823-1.75 1.244M1.2 7.954c0-.315.541-.822 1.75-1.243.235-.082.489-.155.75-.224a15.203 15.203 0 0 0 0 2.934 10.27 10.27 0 0 1-.75-.223C1.744 8.776 1.2 8.269 1.2 7.954m3.632 0a13.709 13.709 0 0 1 .111-1.727A18.363 18.363 0 0 1 7.352 6v3.9a18.34 18.34 0 0 1-2.406-.223 13.72 13.72 0 0 1-.111-1.728m3.72-6.607a3.553 3.553 0 0 1 1.493 1.68 8.872 8.872 0 0 1 .688 1.948 20.277 20.277 0 0 0-2.181-.17zm-1.2 0V4.8a20.277 20.277 0 0 0-2.181.176 8.855 8.855 0 0 1 .688-1.948 3.553 3.553 0 0 1 1.493-1.68m0 9.762v3.453a3.562 3.562 0 0 1-1.493-1.681 8.854 8.854 0 0 1-.688-1.948 20.351 20.351 0 0 0 2.18.176m1.2 3.453v-3.454a20.357 20.357 0 0 0 2.181-.176 8.888 8.888 0 0 1-.688 1.948 3.561 3.561 0 0 1-1.493 1.681m0-4.657V6a18.332 18.332 0 0 1 2.406.224 13.706 13.706 0 0 1 .111 1.727 13.72 13.72 0 0 1-.111 1.728 18.34 18.34 0 0 1-2.405.221m5.87-3.869a9.392 9.392 0 0 0-2.406-.831 9.535 9.535 0 0 0-1.3-3.4 6.778 6.778 0 0 1 3.7 4.237M5.186 1.8a9.536 9.536 0 0 0-1.3 3.4 9.39 9.39 0 0 0-2.406.835A6.777 6.777 0 0 1 5.186 1.8m-3.7 8.072a9.369 9.369 0 0 0 2.406.835 9.529 9.529 0 0 0 1.3 3.4 6.78 6.78 0 0 1-3.71-4.235m9.238 4.238a9.536 9.536 0 0 0 1.3-3.4 9.369 9.369 0 0 0 2.406-.835 6.781 6.781 0 0 1-3.7 4.238" style="fill:#ffffff"/>
    </g>
</svg>
