<svg xmlns="http://www.w3.org/2000/svg" width="60" height="58" viewBox="0 0 60 58">
    <defs>
        <clipPath id="in6651br8a">
            <path data-name="사각형 6998" transform="translate(0 -.273)" style="fill:#fff" d="M0 0h60v58H0z"/>
        </clipPath>
    </defs>
    <g data-name="그룹 8208" transform="translate(0 .273)" style="clip-path:url(#in6651br8a)">
        <path data-name="패스 12488" d="M28.543 30.788A15.395 15.395 0 1 0 13.3 15.394a15.336 15.336 0 0 0 15.243 15.394" transform="translate(-3.794)" style="fill:#fff"/>
        <path data-name="패스 12489" d="M42.527 48.366a24.81 24.81 0 0 0-6.589-4.626 17.657 17.657 0 0 1-22.376 0A23.4 23.4 0 0 0 0 64.7h34.725a12.913 12.913 0 0 1-.625-3.98 13.531 13.531 0 0 1 8.431-12.355" transform="translate(0 -14.048)" style="fill:#fff"/>
        <path data-name="패스 12490" d="M63.014 52.468c-6.429 0-11.641 4.949-11.641 11.055s5.211 11.055 11.641 11.055 11.64-4.95 11.64-11.055-5.211-11.055-11.64-11.055m7.306 9.882-7.855 7.46a1.982 1.982 0 0 1-2.7 0l-4.477-4.251a1.749 1.749 0 0 1 0-2.565 1.981 1.981 0 0 1 2.7 0l3.126 2.969 6.505-6.177a1.98 1.98 0 0 1 2.7 0 1.749 1.749 0 0 1 0 2.564" transform="translate(-14.654 -16.851)" style="fill:#fff"/>
    </g>
</svg>
