<svg xmlns="http://www.w3.org/2000/svg" width="60" height="52" viewBox="0 0 60 52">
    <defs>
        <clipPath id="w04wgj25wa">
            <path data-name="사각형 7001" style="fill:#fff" d="M0 0h60v52H0z"/>
        </clipPath>
    </defs>
    <g data-name="그룹 8215" style="clip-path:url(#w04wgj25wa)">
        <path data-name="패스 12505" d="M57.876 0H2.124A2.1 2.1 0 0 0 0 2.067v47.866A2.1 2.1 0 0 0 2.124 52h55.752A2.1 2.1 0 0 0 60 49.933V2.067A2.1 2.1 0 0 0 57.876 0M16.344 3.879a1.555 1.555 0 1 1-1.6 1.554 1.576 1.576 0 0 1 1.6-1.554m-5.372 0a1.555 1.555 0 1 1-1.6 1.554 1.575 1.575 0 0 1 1.6-1.554m-5.372 0A1.555 1.555 0 1 1 4 5.433a1.576 1.576 0 0 1 1.6-1.554m50.152 43.987H4.248V10.6h51.5z" style="fill:#fff"/>
        <path data-name="패스 12506" d="M55.216 47.141a1.877 1.877 0 0 0 .962.265 1.857 1.857 0 0 0 1.577-.86l4.51-7.171a1.754 1.754 0 0 0 0-1.876l-4.51-7.171a1.874 1.874 0 0 0-2.539-.595A1.769 1.769 0 0 0 54.6 32.2l3.919 6.234L54.6 44.67a1.77 1.77 0 0 0 .612 2.471" transform="translate(-15.866 -9.165)" style="fill:#fff"/>
        <path data-name="패스 12507" d="M23.608 46.546a1.858 1.858 0 0 0 1.577.86 1.877 1.877 0 0 0 .962-.265 1.77 1.77 0 0 0 .611-2.471l-3.919-6.234 3.92-6.236a1.77 1.77 0 0 0-.611-2.471 1.876 1.876 0 0 0-2.54.6L19.1 37.5a1.757 1.757 0 0 0 0 1.876z" transform="translate(-5.498 -9.165)" style="fill:#fff"/>
        <path data-name="패스 12508" d="M37.673 47.909a1.9 1.9 0 0 0 .51.07 1.843 1.843 0 0 0 1.775-1.3l4.853-16.433a1.791 1.791 0 0 0-1.264-2.224 1.855 1.855 0 0 0-2.285 1.231l-4.854 16.432a1.791 1.791 0 0 0 1.265 2.224" transform="translate(-10.61 -8.693)" style="fill:#fff"/>
    </g>
</svg>
