<svg xmlns="http://www.w3.org/2000/svg" width="18" height="18" viewBox="0 0 18 18">
    <defs>
        <clipPath id="qc046jdfwa">
            <path data-name="사각형 5205" style="fill:none" d="M0 0h18v18H0z"/>
        </clipPath>
    </defs>
    <g data-name="그룹 6848" style="clip-path:url(#qc046jdfwa)">
        <path data-name="패스 12257" d="M18 9a9 9 0 1 1-9-9 9 9 0 0 1 9 9" style="fill:#e31737"/>
        <path data-name="패스 12258" d="M9.848 12.814a.45.45 0 0 1-.318-.132l-1.875-1.874a.45.45 0 0 1 .636-.636l1.875 1.875a.45.45 0 0 1-.318.768" transform="translate(-3.254 -4.342)" style="fill:#830505"/>
        <path data-name="패스 12259" d="M7.974 12.814a.45.45 0 0 1-.318-.768l1.875-1.875a.45.45 0 0 1 .636.636l-1.874 1.875a.45.45 0 0 1-.318.132" transform="translate(-3.254 -4.342)" style="fill:#830505"/>
        <path data-name="패스 12260" d="M22.358 12.825a.491.491 0 0 1-.35-.145l-1.875-1.875a.5.5 0 1 1 .7-.7l1.875 1.875a.5.5 0 0 1-.35.846" transform="translate(-8.643 -4.307)" style="fill:#830505"/>
        <path data-name="패스 12261" d="M20.483 12.825a.5.5 0 0 1-.351-.846l1.876-1.879a.5.5 0 0 1 .7.7l-1.875 1.88a.491.491 0 0 1-.35.145" transform="translate(-8.643 -4.307)" style="fill:#830505"/>
        <path data-name="패스 12262" d="M16.7 20.388a2.034 2.034 0 0 1-.666 1.6.964.964 0 0 1-.6.225h-4.555a.964.964 0 0 1-.6-.225 2.034 2.034 0 0 1-.666-1.6c0-1.008.567-1.827 1.269-1.827h4.554c.693 0 1.269.819 1.269 1.827" transform="translate(-4.156 -8.027)" style="fill:#830505"/>
        <path data-name="패스 12263" d="M16.544 23.06a.962.962 0 0 1-.6.225h-4.557a.962.962 0 0 1-.6-.225 2.881 2.881 0 0 1 2.88-2.025 2.881 2.881 0 0 1 2.88 2.025" transform="translate(-4.663 -9.097)" style="fill:#b30000"/>
    </g>
</svg>
