<svg xmlns="http://www.w3.org/2000/svg" width="16.442" height="15.268" viewBox="0 0 16.442 15.268">
    <defs>
        <clipPath id="4yvy53vzna">
            <path data-name="사각형 6638" style="fill:#3c71fd" d="M0 0h15.153v13.921H0z"/>
        </clipPath>
        <clipPath id="22yp1593rb">
            <path data-name="사각형 6637" style="fill:#3c71fd" d="M0 0h16.442v15.268H0z"/>
        </clipPath>
    </defs>
    <g data-name="그룹 7834">
        <g data-name="그룹 7833" transform="translate(.858 .563)" style="clip-path:url(#4yvy53vzna)">
            <path data-name="패스 12290" d="M11.657 8.207a1.346 1.346 0 0 0-.457 1.371l1.075 4.322-3.959-2.323a1.458 1.458 0 0 0-1.478 0l-3.957 2.344 1.077-4.344a1.347 1.347 0 0 0-.458-1.37L0 5.323l4.6-.355a1.415 1.415 0 0 0 1.2-.842L7.572 0l1.783 4.127a1.416 1.416 0 0 0 1.2.842l4.6.355z" style="fill:#3c71fd"/>
        </g>
    </g>
    <g data-name="그룹 7832">
        <g data-name="그룹 7831" style="clip-path:url(#22yp1593rb)">
            <path data-name="패스 12289" d="M16.38 5.744a1.285 1.285 0 0 0-1.132-.873l-4.209-.322L9.417.775a1.31 1.31 0 0 0-2.392 0L5.4 4.545l-4.211.327a1.285 1.285 0 0 0-1.132.873A1.237 1.237 0 0 0 .456 7.09l3.205 2.644-.981 3.977a1.241 1.241 0 0 0 .492 1.31 1.321 1.321 0 0 0 1.442.063l3.607-2.131 3.606 2.131a1.321 1.321 0 0 0 1.442-.063 1.242 1.242 0 0 0 .492-1.31l-.984-3.962 3.209-2.659a1.237 1.237 0 0 0 .394-1.345m-4.443 3.033a1.236 1.236 0 0 0-.42 1.255l.983 3.961-3.606-2.13a1.322 1.322 0 0 0-1.346 0l-3.6 2.146.981-3.977A1.236 1.236 0 0 0 4.5 8.778l-3.18-2.64 4.188-.325a1.289 1.289 0 0 0 1.092-.77l1.617-3.778 1.624 3.778a1.29 1.29 0 0 0 1.093.771l4.187.325z" style="fill:#3c71fd"/>
        </g>
    </g>
</svg>
