<svg xmlns="http://www.w3.org/2000/svg" width="60" height="68" viewBox="0 0 60 68">
    <defs>
        <clipPath id="2llyfz8aoa">
            <path data-name="사각형 7084" style="fill:#fff" d="M0 0h60v68H0z"/>
        </clipPath>
    </defs>
    <g data-name="그룹 8286" style="clip-path:url(#2llyfz8aoa)">
        <path data-name="패스 12578" d="M72.206 58.971a1.145 1.145 0 0 1 0-2.289h19.835a1.145 1.145 0 0 1 0 2.289z" transform="translate(-52.934 -42.117)" style="fill:#fff"/>
        <path data-name="패스 12579" d="M37.014 44.282a1.14 1.14 0 0 1 1.61 0 1.16 1.16 0 0 1 0 1.622L34.359 50.2a1.131 1.131 0 0 1-1.607 0l-.022-.023-2.256-2.267a1.158 1.158 0 0 1 0-1.619 1.135 1.135 0 0 1 1.611 0l1.47 1.481z" transform="translate(-22.452 -32.656)" style="fill:#fff"/>
        <path data-name="패스 12580" d="M72.206 101.87a1.145 1.145 0 0 1 0-2.289h19.835a1.145 1.145 0 0 1 0 2.289z" transform="translate(-52.934 -73.992)" style="fill:#fff"/>
        <path data-name="패스 12581" d="M37.014 87.181a1.139 1.139 0 0 1 1.61 0 1.16 1.16 0 0 1 0 1.622L34.359 93.1a1.13 1.13 0 0 1-1.607 0l-.022-.019-2.256-2.271a1.157 1.157 0 0 1 0-1.618 1.134 1.134 0 0 1 1.611 0l1.47 1.48z" transform="translate(-22.452 -64.531)" style="fill:#fff"/>
        <path data-name="패스 12582" d="M72.206 144.772a1.145 1.145 0 0 1 0-2.289h19.835a1.145 1.145 0 0 1 0 2.289z" transform="translate(-52.934 -105.87)" style="fill:#fff"/>
        <path data-name="패스 12583" d="M37.014 130.081a1.14 1.14 0 0 1 1.61 0 1.16 1.16 0 0 1 0 1.622L34.359 136a1.137 1.137 0 0 1-1.607 0l-.022-.023-2.256-2.271a1.158 1.158 0 0 1 0-1.619 1.135 1.135 0 0 1 1.611 0l1.47 1.481z" transform="translate(-22.452 -96.407)" style="fill:#fff"/>
        <path data-name="패스 12584" d="M72.206 187.674a1.147 1.147 0 0 1 0-2.293h9.984a1.147 1.147 0 0 1 0 2.293z" transform="translate(-52.934 -137.744)" style="fill:#fff"/>
        <path data-name="패스 12585" d="M37.014 172.982a1.139 1.139 0 0 1 1.61 0 1.159 1.159 0 0 1 0 1.621l-4.266 4.3a1.136 1.136 0 0 1-1.607 0l-.022-.022-2.256-2.271a1.157 1.157 0 0 1 0-1.618 1.134 1.134 0 0 1 1.611 0l1.47 1.481z" transform="translate(-22.452 -128.284)" style="fill:#fff"/>
        <path data-name="패스 12586" d="M4.708 0a4.687 4.687 0 0 0-3.319 1.387l-.008.013A4.752 4.752 0 0 0 0 4.736v51.492a4.749 4.749 0 0 0 1.381 3.346h.008a4.677 4.677 0 0 0 3.319 1.391h20.285l.89-4.33H4.708a.415.415 0 0 1-.29-.115.433.433 0 0 1-.122-.287V6.14a.432.432 0 0 1 .118-.29.414.414 0 0 1 .29-.119h38.521a.4.4 0 0 1 .288.119.425.425 0 0 1 .119.29v29.719l2.981-3.591 1.318-1.581V4.736a4.75 4.75 0 0 0-1.38-3.336l-.008-.011A4.685 4.685 0 0 0 43.225 0z" style="fill:#fff"/>
        <path data-name="패스 12587" d="m137.935 118.141-3.677-3.1a2.135 2.135 0 0 0-1.518-.5h-.048a2.113 2.113 0 0 0-1.455.764l-1.378 1.656 6.97 5.87 1.374-1.655a2.18 2.18 0 0 0 .492-1.574 2.151 2.151 0 0 0-.759-1.465m-23.874 31.833-7.64 3.087a.526.526 0 0 1-.737-.339.569.569 0 0 1 0-.284l1.667-8.122zm-5.9-6.9 6.966 5.873 20.756-24.975-6.965-5.874z" transform="translate(-78.702 -85.108)" style="fill:#fff"/>
    </g>
</svg>
