<svg xmlns="http://www.w3.org/2000/svg" width="50" height="50" viewBox="0 0 50 50">
    <g data-name="그룹 7120">
        <path data-name="패스 12223" d="M25 0A25 25 0 1 1 0 25 25 25 0 0 1 25 0z" style="fill:#5a55e3"/>
        <path data-name="패스 11218" d="m-1.665-6.785-.484-8.832q-.136-2.581-.136-3.706a3.839 3.839 0 0 1 .658-2.388 2.081 2.081 0 0 1 1.733-.857 1.7 1.7 0 0 1 1.741 1.1 8.871 8.871 0 0 1 .439 3.162q0 1.217-.106 2.471l-.651 9.087a8.446 8.446 0 0 1-.454 2.489 1.192 1.192 0 0 1-1.15.867 1.146 1.146 0 0 1-1.135-.839 9.912 9.912 0 0 1-.455-2.554zM.015 5.348A2.152 2.152 0 0 1-1.6 4.62a2.848 2.848 0 0 1-.689-2.038A2.967 2.967 0 0 1-1.627.637a2.013 2.013 0 0 1 1.612-.8 2.055 2.055 0 0 1 1.627.8 2.924 2.924 0 0 1 .674 1.945A2.875 2.875 0 0 1 1.6 4.611a2.1 2.1 0 0 1-1.585.737z" transform="translate(24.759 33.569)" style="fill:#fff"/>
    </g>
</svg>
