<svg xmlns="http://www.w3.org/2000/svg" width="22" height="16" viewBox="0 0 22 16">
    <defs>
        <clipPath id="167tc1wbta">
            <path data-name="사각형 7031" style="fill:#ffffff" d="M0 0h22v16H0z"/>
        </clipPath>
    </defs>
    <g data-name="그룹 8233" style="clip-path:url(#167tc1wbta)">
        <path data-name="패스 12514" d="M62.352 40.232a2.111 2.111 0 0 0-.959-1.765 2.105 2.105 0 0 0 0 3.531 2.112 2.112 0 0 0 .959-1.765" transform="translate(-44.799 -28.672)" style="fill:#ffffff"/>
        <path data-name="패스 12515" d="M60.434 40.232A2.113 2.113 0 0 0 61.393 42a2.1 2.1 0 0 0 0-3.531 2.112 2.112 0 0 0-.959 1.765" transform="translate(-44.799 -28.672)" style="fill:#ffffff"/>
        <path data-name="패스 12516" d="M22 2.545v-.833A1.726 1.726 0 0 0 20.261 0H1.739A1.726 1.726 0 0 0 0 1.712v12.577A1.725 1.725 0 0 0 1.739 16h18.522A1.725 1.725 0 0 0 22 14.289V5.3H1.486V2.545zm-6.605 6.892a2.166 2.166 0 0 1 1.2.358 2.168 2.168 0 0 1 1.2-.358 2.124 2.124 0 1 1 0 4.247 2.17 2.17 0 0 1-1.2-.358 2.168 2.168 0 0 1-1.2.358 2.124 2.124 0 1 1 0-4.247M2.05 12.239h7.272v1.445H2.05z" style="fill:#ffffff"/>
    </g>
</svg>
