<svg xmlns="http://www.w3.org/2000/svg" width="38.291" height="42" viewBox="0 0 38.291 42">
    <g data-name="그룹 4054">
        <g data-name="그룹 4055">
            <g data-name="그룹 4051">
                <g data-name="그룹 3975">
                    <path data-name="합치기 19" d="m21.85 27.594-5.559-4.432a1.645 1.645 0 0 1-.579-.922l-.691-2.4.545-.128a3.675 3.675 0 0 0 2.777-2.912l.762 3.253a1.148 1.148 0 0 0 .409.674l4.779 3.81a1.957 1.957 0 0 1 .309 2.75 1.959 1.959 0 0 1-2.752.309zm-18.39-.137-.244-.067a1.829 1.829 0 0 1-1.282-2.249l1.8-6.561a1.819 1.819 0 0 1 .666-.98 1.838 1.838 0 0 1 .486-.262L10 15.508 8.22 7.944l-.767 1.994a1.728 1.728 0 0 1-.691.833 2 2 0 0 1-.272.217l-3.743 2.357a1.707 1.707 0 0 1-2.526-.674 2.288 2.288 0 0 1 .762-2.853 10.283 10.283 0 0 0 2.861-2.449 15.8 15.8 0 0 0 1.956-4l.007-.015a10.676 10.676 0 0 1 2.3-2.346 3.15 3.15 0 0 1 .7-.553l.014-.006a3.27 3.27 0 0 1 1.61-.432 16.536 16.536 0 0 1 8.132 1.9l2.906 1.509a3.358 3.358 0 0 1 1.744 2.314l1.287 6.308a1.57 1.57 0 0 1-1.6 1.958 1.957 1.957 0 0 1-2.308-1.529l-1.159-5.686-3.741-1.95 2.023 8.6a4.159 4.159 0 0 1-3.095 5l-3.722.9v-.005l-1.27.441a4.511 4.511 0 0 0-2.574 1.5l-1.345 4.899a1.828 1.828 0 0 1-2.249 1.281z" transform="translate(2.803 10.628)" style="fill:#fff"/>
                    <path data-name="합치기 19 - 윤곽선" d="M24.372 37.806a1.943 1.943 0 0 0 1.532-.751 2.019 2.019 0 0 0-.309-2.8l-4.779-3.885a1.173 1.173 0 0 1-.409-.687l-.762-3.314a3.715 3.715 0 0 1-2.777 2.968l-.545.13.691 2.449a1.681 1.681 0 0 0 .579.939l5.559 4.516a1.927 1.927 0 0 0 1.22.435M5.249 37.3a1.834 1.834 0 0 0 1.763-1.373l1.343-5a4.5 4.5 0 0 1 2.574-1.53l1.27-.449v.005l3.722-.913a4.242 4.242 0 0 0 3.095-5.09l-2.023-8.761 3.741 1.986 1.157 5.794a1.958 1.958 0 0 0 2.309 1.558 1.592 1.592 0 0 0 1.6-1.995l-1.282-6.427a3.415 3.415 0 0 0-1.744-2.358l-2.907-1.537a16.273 16.273 0 0 0-8.132-1.935 3.224 3.224 0 0 0-1.61.44l-.007.005a3.159 3.159 0 0 0-.7.564 10.786 10.786 0 0 0-2.3 2.391l-.007.015a16.235 16.235 0 0 1-1.956 4.079 10.325 10.325 0 0 1-2.861 2.5 2.358 2.358 0 0 0-.762 2.907 1.692 1.692 0 0 0 2.526.687l3.742-2.4a2.01 2.01 0 0 0 .272-.221 1.753 1.753 0 0 0 .691-.848l.767-2.031 1.78 7.707-5.119 1.847a1.827 1.827 0 0 0-.486.267 1.855 1.855 0 0 0-.672 1l-1.8 6.685a1.867 1.867 0 0 0 1.282 2.291l.244.069a1.8 1.8 0 0 0 .486.067m19.123 3.363A4.722 4.722 0 0 1 21.4 39.6l-5.559-4.516a4.563 4.563 0 0 1-1.541-2.437l-.336-1.19-1.031.253-1.25.442-.167.037a2.143 2.143 0 0 0-.669.263l-1.131 4.229a4.655 4.655 0 0 1-4.467 3.475 4.559 4.559 0 0 1-1.227-.169l-.248-.07a4.608 4.608 0 0 1-2.8-2.211 4.769 4.769 0 0 1-.444-3.589l1.8-6.685a4.755 4.755 0 0 1 .64-1.41 4.507 4.507 0 0 1-3.955-2.58 5.249 5.249 0 0 1 1.724-6.564l.112-.078.087-.047a7.545 7.545 0 0 0 1.983-1.728 11.464 11.464 0 0 0 1.487-3.149c.043-.127.082-.24.14-.371L9.913-.789V5.89l.211-.215.789.8a5.984 5.984 0 0 1 .695-.058c.142-.01.375-.021.687-.021a19.881 19.881 0 0 1 8.817 2.251l.048.025 2.906 1.537a6.237 6.237 0 0 1 3.2 4.326l1.281 6.425a4.583 4.583 0 0 1-.879 3.783 4.391 4.391 0 0 1-3.187 1.629 4.681 4.681 0 0 1-1.987-.142l.522 2.27 4.327 3.515a4.841 4.841 0 0 1 1.763 3.25 4.9 4.9 0 0 1-.4 2.555v.231l-.613.784a4.708 4.708 0 0 1-3.722 1.824z" transform="translate(1.5 .789)" style="fill:#c1c8db"/>
                </g>
            </g>
            <path data-name="패스 11301" d="M65.837 3.736A3.736 3.736 0 1 0 69.573 0a3.736 3.736 0 0 0-3.736 3.736" transform="translate(-58.434 1.474)" style="fill:#fff"/>
        </g>
        <g data-name="그룹 4056">
            <g data-name="그룹 4052">
                <g data-name="그룹 4002">
                    <path data-name="패스 1172" d="M8.949 0A8.95 8.95 0 1 1 0 8.95 8.95 8.95 0 0 1 8.949 0z" transform="translate(18.205 21.912)" style="fill:#c1c8db"/>
                    <g data-name="그룹 3991">
                        <path data-name="합치기 20" d="M3.519 9.375V5.859H0V3.516h3.519V0h2.344v3.516h3.511v2.343H5.863v3.516z" transform="translate(22.468 26.175)" style="fill:#fff"/>
                    </g>
                    <g data-name="그룹 3995">
                        <path data-name="패스 1172" d="M8.949 0A8.95 8.95 0 1 1 0 8.95 8.95 8.95 0 0 1 8.949 0z" transform="translate(18.205 21.912)" style="fill:#fff"/>
                    </g>
                </g>
                <path data-name="패스 1178" d="M9.636.687a8.95 8.95 0 1 0 8.949 8.95A8.95 8.95 0 0 0 9.636.687m0-2.187A11.138 11.138 0 1 1-1.5 9.638 11.15 11.15 0 0 1 9.636-1.5z" transform="translate(17.518 21.225)" style="fill:#c1c8db"/>
            </g>
            <g data-name="그룹 4053">
                <text transform="translate(20.594 35.11)" style="font-size:17px;font-family:NanumSquareRoundEB,NanumSquareRound;fill:#c1c8db"><tspan x="0" y="0">w</tspan></text>
                <path data-name="선 179" transform="translate(20.289 30.029)" style="fill:none;stroke:#c1c8db" d="M0 0h13.869"/>
            </g>
        </g>
    </g>
</svg>
