<svg xmlns="http://www.w3.org/2000/svg" width="68.272" height="61.787" viewBox="0 0 68.272 61.787">
    <defs>
        <clipPath id="rrrhgsoyxa">
            <path data-name="사각형 7041" transform="translate(-1.601 -1)" style="fill:#fff" d="M0 0h64.423v57.433H0z"/>
        </clipPath>
    </defs>
    <g data-name="그룹 8266" transform="matrix(.998 -.07 .07 .998 1.667 5.379)" style="clip-path:url(#rrrhgsoyxa)">
        <path data-name="패스 12524" d="M41.527 69.8a4.4 4.4 0 0 0-6.36-3.4l-15.68 7.983-7.19.852a6.874 6.874 0 0 0-5.814 5.086l-2.629.311a4.37 4.37 0 0 0-3.823 4.843L.472 89.2a4.371 4.371 0 0 0 4.85 3.822l2.308-.273a6.858 6.858 0 0 0 4.786 4.464l1.519 12.828a5.7 5.7 0 0 0 11.312-1.34l-1.383-11.668 15.367 3.682a4.4 4.4 0 0 0 5.39-4.793zm-4.061-.055a.634.634 0 0 1 .339.5L40.9 96.363a.647.647 0 0 1-.794.706l-16.328-3.912c-.792-6.016-1.681-13.1-1.939-15.771l15.03-7.652a.627.627 0 0 1 .6.006M19.977 93.009l-5.5.651a3.09 3.09 0 0 1-3.428-2.7l-1.016-8.578a3.09 3.09 0 0 1 2.7-3.428l5.432-.643c.208 2.288.744 6.645 1.807 14.7M4.295 84.348l2.169-.257.586 4.951-2.169.258a.618.618 0 0 1-.686-.54l-.441-3.725a.618.618 0 0 1 .541-.686m15.764 12.425 1.465 12.369a1.947 1.947 0 0 1-3.867.458l-1.465-12.369z" transform="translate(0 -60.758)" style="fill:#fff"/>
        <path data-name="패스 12525" d="M589.659 12.485a2.146 2.146 0 0 0 1.451-.791l6.6-8.179A2.159 2.159 0 1 0 594.35.8l-6.6 8.179a2.16 2.16 0 0 0 1.676 3.516 2.2 2.2 0 0 0 .233-.012" transform="translate(-541.317)" style="fill:#fff"/>
        <path data-name="패스 12526" d="m627.4 377.738-8.179-6.6a2.159 2.159 0 1 0-2.712 3.361l8.179 6.6a2.143 2.143 0 0 0 1.352.479 2.189 2.189 0 0 0 .233-.012 2.159 2.159 0 0 0 1.127-3.828" transform="translate(-567.526 -341.654)" style="fill:#fff"/>
        <path data-name="패스 12527" d="m601.982 229.253 9.584-1.023a2.16 2.16 0 0 0-.459-4.295l-9.584 1.023a2.16 2.16 0 0 0 .228 4.307 2.187 2.187 0 0 0 .231-.012" transform="translate(-552.675 -206.401)" style="fill:#fff"/>
    </g>
</svg>
