<svg xmlns="http://www.w3.org/2000/svg" width="25" height="25" viewBox="0 0 25 25">
    <g data-name="그룹 4578" transform="translate(-387.971 -1749.155)">
        <rect data-name="사각형 3829" width="25" height="15" rx="4" transform="translate(387.971 1752.009)" style="fill:#cf6161"/>
        <text transform="translate(400.975 1762.655)" style="font-size:10px;font-family:Helvetica;fill:#fff"><tspan x="-10.281" y="0">BUY</tspan></text>
        <g style="fill:#cf6161">
            <path d="M3.155 39.795a1.477 1.477 0 0 1-1.328-.821l-.216-.432-.273.312a1.331 1.331 0 0 1-1.004.456A1.342 1.342 0 0 1-1 37.962v-5.61a1.353 1.353 0 0 1 2.25-1.01l4.156 3.693a1.337 1.337 0 0 1-.887 2.333h-.175l.14.278c.176.354.205.757.08 1.133-.126.376-.39.681-.745.859a1.492 1.492 0 0 1-.664.157z" style="stroke:none" transform="translate(404.975 1732.611)"/>
            <path d="M.352 32a.352.352 0 0 0-.352.352v5.61c0 .197.15.348.334.348a.332.332 0 0 0 .251-.114l1.253-1.433.883 1.763a.485.485 0 1 0 .868-.433l-.862-1.725h1.791a.335.335 0 0 0 .223-.585L.585 32.089A.351.351 0 0 0 .352 32m0-2a2.35 2.35 0 0 1 1.562.594l4.16 3.697a2.337 2.337 0 0 1-.443 3.794c.03.337-.009.68-.119 1.01-.21.63-.652 1.14-1.246 1.437a2.497 2.497 0 0 1-1.11.263c-.68 0-1.31-.27-1.769-.736-.322.163-.683.25-1.053.25A2.343 2.343 0 0 1-2 37.963v-5.61A2.354 2.354 0 0 1 .352 30z" style="fill:#fff;stroke:none" transform="translate(404.975 1732.611)"/>
        </g>
    </g>
</svg>
