<svg xmlns="http://www.w3.org/2000/svg" width="55" height="60" viewBox="0 0 55 60">
    <defs>
        <clipPath id="kuzphm2pta">
            <path data-name="사각형 7000" style="fill:#ffffff" d="M0 0h55v60H0z"/>
        </clipPath>
    </defs>
    <g data-name="그룹 8213" style="clip-path:url(#kuzphm2pta)">
        <path data-name="패스 12501" d="M30.752 27.058a20.457 20.457 0 0 0 0 40.909 20.457 20.457 0 0 0 0-40.909m0 34.588a14.135 14.135 0 1 1 13.9-14.134 14.02 14.02 0 0 1-13.9 14.134" transform="translate(-3.252 -7.967)" style="fill:#ffffff"/>
        <path data-name="패스 12502" d="M27.5 16.292c.082 0 .162.006.244.006L18.161 0H0l12.787 21.745A22.559 22.559 0 0 1 27.5 16.292" style="fill:#ffffff"/>
        <path data-name="패스 12503" d="M55.019 21.745 67.807 0H49.646l-7.783 13.236 1.959 3.331a22.605 22.605 0 0 1 11.2 5.179" transform="translate(-12.807)" style="fill:#ffffff"/>
        <path data-name="패스 12504" d="M43.119 48.453h-4.578l-1.414-4.426a1.6 1.6 0 0 0-3.064 0l-1.415 4.426h-4.577a1.614 1.614 0 0 0-1.532 1.131 1.653 1.653 0 0 0 .585 1.831l3.7 2.735-1.415 4.425A1.653 1.653 0 0 0 30 60.406a1.592 1.592 0 0 0 1.893 0l3.7-2.735 3.7 2.735a1.59 1.59 0 0 0 1.893 0 1.653 1.653 0 0 0 .586-1.831l-1.409-4.425 3.7-2.735a1.653 1.653 0 0 0 .585-1.831 1.615 1.615 0 0 0-1.532-1.131" transform="translate(-8.095 -12.631)" style="fill:#ffffff"/>
    </g>
</svg>
