<svg xmlns="http://www.w3.org/2000/svg" width="17.5" height="17.5" viewBox="0 0 17.5 17.5">
    <path d="m16.991 3.109-2.72-2.72a.68.68 0 0 0-.962 0l-8.16 8.16a.68.68 0 0 0-.2.481v2.72a.68.68 0 0 0 .68.68H8.35a.68.68 0 0 0 .481-.2l8.16-8.16a.68.68 0 0 0 0-.961zM8.068 11.07H6.31V9.312l5.44-5.44 1.758 1.758zm6.4-6.4-1.757-1.76 1.079-1.078 1.758 1.758zm2.04 4.361v6.8a1.36 1.36 0 0 1-1.36 1.36H1.55A1.36 1.36 0 0 1 .19 15.83V2.23A1.36 1.36 0 0 1 1.55.871h6.8a.68.68 0 1 1 0 1.36h-6.8v13.6h13.6V9.03a.68.68 0 1 1 1.36 0z" transform="translate(.06 .06)" style="fill:#3c71fd;stroke:#3c71fd;stroke-width:.5px"/>
</svg>
