<svg xmlns="http://www.w3.org/2000/svg" width="20" height="20" viewBox="0 0 20 20">
    <defs>
        <clipPath id="pj064rc0aa">
            <path data-name="사각형 6700" transform="translate(830 592)" style="fill:none" d="M0 0h20v20H0z"/>
        </clipPath>
        <clipPath id="i1tzf62tkb">
            <path data-name="사각형 6696" style="fill:#fff" d="M0 0h19.651v18.591H0z"/>
        </clipPath>
    </defs>
    <g data-name="그룹 7929" transform="translate(-830 -592)" style="clip-path:url(#pj064rc0aa)">
        <g data-name="그룹 7928" style="clip-path:url(#i1tzf62tkb)" transform="translate(830 593)">
            <path data-name="패스 12354" d="M19.432 10.335a.729.729 0 0 0-1.057 0L16.8 11.97l-1.278-1.6V6.624h2.728a.761.761 0 0 0 .747-.775V3.615c0-2.041-.745-3.223-2.213-3.531A.718.718 0 0 0 16.45 0c-.084 0-.165 0-.245.01S16.036 0 15.948 0H5.371c-1.98 0-3.259 1.419-3.259 3.615V12.5H.747a.761.761 0 0 0-.747.774v2.034c0 2.91 1.563 3.283 2.925 3.283h9.635c1.43 0 2.959-.862 2.959-3.283V12.8l.65.814a.739.739 0 0 0 .541.28h.035a.735.735 0 0 0 .529-.227l2.159-2.238a.8.8 0 0 0 0-1.1M17.5 5.075h-1.981V3.451a2.886 2.886 0 0 1 .317-1.7.65.65 0 0 1 .422-.185c.824.072 1.243.491 1.243 2.052zM2.925 17.041c-.992 0-1.43-.07-1.43-1.734v-1.258h8.272v1.259a4.217 4.217 0 0 0 .334 1.734zm11.1-3.374v1.64c0 1.167-.479 1.734-1.464 1.734-.558 0-1.3-.18-1.3-1.734v-2.033a.761.761 0 0 0-.747-.775H3.606V3.615c0-1.332.627-2.066 1.764-2.066h8.877a5.8 5.8 0 0 0-.224 1.911V8.5l-2.447-3.071A.737.737 0 0 0 11 5.148a.736.736 0 0 0-.576.284l-2 2.528L6.99 6.445a.729.729 0 0 0-1.057-.01.8.8 0 0 0-.009 1.1l2.019 2.13a.729.729 0 0 0 .567.231.739.739 0 0 0 .544-.283L11 7.142l3.021 3.785z" style="fill:#fff"/>
        </g>
    </g>
</svg>
