<svg xmlns="http://www.w3.org/2000/svg" width="25" height="25" viewBox="0 0 25 25">
    <g data-name="그룹 4570">
        <g data-name="그룹 4584">
            <path d="M3.7 0a.929.929 0 0 1 .911.753l.058.482h16.24A1.252 1.252 0 0 1 22.1 2.8l-2.084 7.411a1.235 1.235 0 0 1-1.189.9H6.588l.355 1.852h11.89a.926.926 0 1 1 0 1.852H6.14a.921.921 0 0 1-.876-.753L2.938 1.852H.926A.926.926 0 1 1 .926 0zm6.8 6.947h1.7v1.7a.753.753 0 0 0 .772.772.774.774 0 0 0 .772-.772v-1.7h1.7a.774.774 0 0 0 .772-.772.753.753 0 0 0-.772-.772h-1.7V3.7a.773.773 0 0 0-.772-.772.751.751 0 0 0-.772.772v1.7h-1.7a.733.733 0 0 0-.772.772.753.753 0 0 0 .772.775zm-5.56 10.96a1.852 1.852 0 1 1 1.852 1.852 1.853 1.853 0 0 1-1.852-1.852zm14.819 0a1.852 1.852 0 1 1-1.852-1.852 1.853 1.853 0 0 1 1.852 1.852z" transform="translate(2 3)" style="fill:#85b74e"/>
            <g data-name="그룹 4567" transform="translate(11.604 5.931)">
                <rect data-name="사각형 3830" width="1.945" height="6.809" rx=".973" transform="translate(2.432)" style="fill:#fff"/>
                <rect data-name="사각형 3831" width="1.945" height="6.809" rx=".973" transform="rotate(90 2.188 4.62)" style="fill:#fff"/>
            </g>
        </g>
    </g>
</svg>
