<svg xmlns="http://www.w3.org/2000/svg" width="16.475" height="14.753" viewBox="0 0 16.475 14.753">
    <defs>
        <clipPath id="qlo3wj7t4a">
            <path data-name="사각형 6744" style="fill:#060f3b" d="M0 0h16.475v14.753H0z"/>
        </clipPath>
    </defs>
    <g data-name="그룹 7957" transform="translate(0 -.001)" style="clip-path:url(#qlo3wj7t4a)">
        <path data-name="패스 12378" d="M.967 14.754a.965.965 0 0 1-.54-.167.959.959 0 0 1-.368-1.129l.7-2.2a8.963 8.963 0 0 1 6.324-6l1.334-.346V.668A.668.668 0 0 1 9.551.191l6.724 6.587a.668.668 0 0 1 0 .954L9.551 14.32a.668.668 0 0 1-1.136-.477V9.9h-.051a7.662 7.662 0 0 0-5.649 3.119L1.711 14.4a.652.652 0 0 1-.077.088.961.961 0 0 1-.667.27m8.117-6.24a.668.668 0 0 1 .668.668v3.068l5.1-5-5.1-5v3.17a.668.668 0 0 1-.5.646l-1.834.48a7.636 7.636 0 0 0-5.387 5.108l-.04.126a8.993 8.993 0 0 1 6.279-3.21l.766-.054h.047" style="fill:#060f3b"/>
    </g>
</svg>
