<svg xmlns="http://www.w3.org/2000/svg" width="34" height="42" viewBox="0 0 34 42">
    <defs>
        <clipPath id="1nrxoa7a3a">
            <path data-name="사각형 6917" style="fill:#0dbe00" d="M0 0h34v42H0z"/>
        </clipPath>
    </defs>
    <g data-name="그룹 8475" style="clip-path:url(#1nrxoa7a3a)">
        <path data-name="패스 13187" d="m17 42-.525-.161a29.613 29.613 0 0 1-8.761-5.753C4.194 32.894 0 27.855 0 21.971V4.791l1.818.023h.377c3.254 0 9.36-.512 13.692-3.936L17 0l1.114.88c4.332 3.42 10.437 3.936 13.691 3.936h.377L34 4.791v17.18c0 5.883-4.195 10.923-7.713 14.114a29.611 29.611 0 0 1-8.761 5.753zM3.591 8.378v13.593c0 4.569 3.554 8.751 6.535 11.455A30.033 30.033 0 0 0 17 38.192a30.032 30.032 0 0 0 6.874-4.766c2.981-2.7 6.535-6.886 6.535-11.455V8.378C26.815 8.233 21.418 7.463 17 4.506 12.582 7.463 7.185 8.233 3.591 8.378" transform="translate(0 .001)" style="fill:#0dbe00"/>
        <path data-name="패스 13188" d="m200.943 307.152-5.968-5.968 2.845-2.844 3.123 3.123 9.1-9.1 2.845 2.844z" transform="translate(-185.901 -278.756)" style="fill:#0dbe00"/>
    </g>
</svg>
