<svg xmlns="http://www.w3.org/2000/svg" width="18.999" height="16.104" viewBox="0 0 18.999 16.104">
    <path d="M-10976-10505.4a5.507 5.507 0 0 1 5.5-5.5 5.506 5.506 0 0 1 5.5 5.5 5.506 5.506 0 0 1-5.5 5.5 5.506 5.506 0 0 1-5.5-5.5zm3.214.283a.711.711 0 0 0-.212.511.712.712 0 0 0 .212.513l1.94 1.943a.71.71 0 0 0 .513.212.7.7 0 0 0 .513-.212l1.943-1.943a.726.726 0 0 0 0-1.023.726.726 0 0 0-.513-.212.724.724 0 0 0-.513.212l-.705.706v-3.725a.726.726 0 0 0-.726-.728.726.726 0 0 0-.722.728v3.725l-.709-.706a.712.712 0 0 0-.513-.212.711.711 0 0 0-.509.215zm-1.734 4.827h-7.233a2.12 2.12 0 0 1-1.968-1.13 2.169 2.169 0 0 1 .1-2.285l5.056-8.022v-2.806h-1.122v-1.47h7.085v1.47h-1.122v2.806l.319.508a6.4 6.4 0 0 0-1.234.8l-.419-.667a.908.908 0 0 1-.141-.485v-2.966h-1.892v2.925a1.073 1.073 0 0 1-.162.564l-2.429 3.843h2.931a6.531 6.531 0 0 0-.251 1.8 6.478 6.478 0 0 0 2.48 5.11z" transform="translate(10983.999 10515.999)" style="fill:#fff"/>
</svg>
