<svg xmlns="http://www.w3.org/2000/svg" width="16" height="16" viewBox="0 0 16 16">
    <path d="M9.82 6.18a4.381 4.381 0 0 1 .3 5.849c-.2.242-.087.121-2.654 2.688A4.375 4.375 0 1 1 1.283 8.53l1.981-1.983A.375.375 0 0 1 3.9 6.8a5.416 5.416 0 0 0 .148 1.182.373.373 0 0 1-.1.35L2.52 9.767a2.625 2.625 0 0 0 3.712 3.713l2.35-2.35a2.626 2.626 0 0 0-.713-4.219.376.376 0 0 1-.205-.386 1.616 1.616 0 0 1 .463-.95l.137-.137a.373.373 0 0 1 .43-.072 4.35 4.35 0 0 1 1.126.814zm4.9-4.9a4.372 4.372 0 0 0-6.187 0c-2.57 2.57-2.462 2.449-2.657 2.69a4.375 4.375 0 0 0 1.43 6.663.373.373 0 0 0 .43-.072l.137-.137a1.616 1.616 0 0 0 .463-.95.376.376 0 0 0-.205-.386 2.626 2.626 0 0 1-.713-4.219l2.35-2.35a2.625 2.625 0 0 1 3.712 3.713l-1.432 1.432a.373.373 0 0 0-.1.35A5.416 5.416 0 0 1 12.1 9.2a.375.375 0 0 0 .64.256l1.982-1.983a4.372 4.372 0 0 0 0-6.187z" style="fill:#3c71fd"/>
</svg>
