<svg xmlns="http://www.w3.org/2000/svg" width="24" height="22.13" viewBox="0 0 24 22.13">
    <defs>
        <clipPath id="hlh9hslpka">
            <path data-name="사각형 5893" style="fill:none" d="M0 0h24v22.13H0z"/>
        </clipPath>
    </defs>
    <g data-name="그룹 7326" style="clip-path:url(#hlh9hslpka)">
        <path data-name="패스 12610" d="M14.263 14.315H1.7a.719.719 0 0 1-.7-.73V1.73A.719.719 0 0 1 1.7 1h17.5a.719.719 0 0 1 .7.73v5.431" transform="translate(.552 .316)" style="stroke-width:2px;stroke-linecap:round;stroke-linejoin:round;stroke:#fff;fill:none"/>
        <path data-name="선 596" transform="translate(5.879 18.367)" style="stroke-width:2px;stroke-linecap:round;stroke-linejoin:round;stroke:#fff;fill:none" d="M0 0h9.233"/>
        <path data-name="선 597" transform="translate(8.924 14.631)" style="stroke-width:2px;stroke-linecap:round;stroke-linejoin:round;stroke:#fff;fill:none" d="M0 0v3.736"/>
        <path data-name="선 598" transform="translate(12.669 14.631)" style="stroke-width:2px;stroke-linecap:round;stroke-linejoin:round;stroke:#fff;fill:none" d="M0 0v3.736"/>
        <g data-name="사각형 5892" transform="translate(14.177 6.969)" style="stroke-width:2px;stroke-linecap:round;stroke-linejoin:round;stroke:#fff;fill:none">
            <rect width="9.451" height="14.789" rx="1" style="stroke:none"/>
            <path style="fill:none" d="M1 1h7.451v12.789H1z"/>
        </g>
        <path data-name="선 599" transform="translate(15.177 16.983)" style="stroke-linecap:round;stroke-linejoin:round;stroke:#fff;fill:none" d="M0 0h7.257"/>
        <path data-name="선 600" transform="translate(15.177 8.917)" style="stroke-linecap:round;stroke-linejoin:round;stroke:#fff;fill:none" d="M0 0h7.257"/>
        <g data-name="패스 12611" style="stroke-linecap:round;stroke-linejoin:round;fill:none">
            <path d="M52.425 52.753a.65.65 0 1 1-.65-.65.65.65 0 0 1 .65.65z" style="stroke:none" transform="translate(-32.625 -34.102)"/>
            <path d="M51.775 52.103a.65.65 0 1 1 0 1.3.65.65 0 0 1 0-1.3z" style="fill:#fff;stroke:none" transform="translate(-32.625 -34.102)"/>
        </g>
    </g>
</svg>
