<svg xmlns="http://www.w3.org/2000/svg" width="20" height="20" viewBox="0 0 20 20">
    <defs>
        <clipPath id="bqhbxnnq8a">
            <path data-name="사각형 6628" transform="translate(639 1273)" style="fill:none" d="M0 0h20v20H0z"/>
        </clipPath>
        <clipPath id="07ih7v48rb">
            <path data-name="사각형 6624" style="fill:#3c71fd" d="M0 0h14v20H0z"/>
        </clipPath>
    </defs>
    <g data-name="w_icon_dragh_01_on" transform="translate(-639 -1273)" style="clip-path:url(#bqhbxnnq8a)">
        <g data-name="그룹 7859" transform="translate(642 1273)" style="clip-path:url(#07ih7v48rb)">
            <path data-name="패스 12827" d="M12.947 38.874H1.054a1.111 1.111 0 0 1 0-2.22h11.893a1.111 1.111 0 0 1 0 2.22" transform="translate(0 -29.829)" style="fill:#3c71fd"/>
            <path data-name="패스 12828" d="M12.947 61.078H1.054a1.111 1.111 0 0 1 0-2.22h11.893a1.111 1.111 0 0 1 0 2.22" transform="translate(0 -47.899)" style="fill:#3c71fd"/>
            <path data-name="패스 12829" d="M24.607 4.753a.516.516 0 0 0 .057-.018c.011-.005.021-.012.032-.018a.472.472 0 0 0 .063-.036l.014-.012a.542.542 0 0 0 .067-.057.578.578 0 0 0 .037-.047c.01-.013.022-.026.031-.04s.011-.022.017-.033a.617.617 0 0 0 .035-.07.593.593 0 0 0-.049-.532.58.58 0 0 0-.072-.092L21.395.169a.533.533 0 0 0-.776 0L17.173 3.8a.572.572 0 0 0-.1.16c0 .009-.009.017-.013.026a.566.566 0 0 0-.019.066c0 .015-.009.028-.012.044a.582.582 0 0 0-.008.078V4.225a.629.629 0 0 0 .009.1c0 .008 0 .016.007.024a.578.578 0 0 0 .142.27.531.531 0 0 0 .256.149l.023.007a.556.556 0 0 0 .091.01h6.946a.514.514 0 0 0 .07-.007.471.471 0 0 0 .047-.015" transform="translate(-14.007 -.001)" style="fill:#3c71fd"/>
            <path data-name="패스 12830" d="M17.408 81.779a.517.517 0 0 0-.057.019c-.011.005-.021.012-.032.018a.515.515 0 0 0-.063.036l-.014.012a.544.544 0 0 0-.067.057.58.58 0 0 0-.037.047c-.01.013-.022.026-.031.04s-.011.022-.017.033a.617.617 0 0 0-.035.07.592.592 0 0 0 .049.531.58.58 0 0 0 .072.092l3.443 3.627a.533.533 0 0 0 .776 0l3.445-3.629a.574.574 0 0 0 .1-.16c0-.009.009-.017.013-.026a.567.567 0 0 0 .019-.066c0-.015.009-.028.012-.044a.583.583 0 0 0 .016-.074V82.311a.629.629 0 0 0-.009-.1c0-.008 0-.016-.007-.024a.578.578 0 0 0-.142-.27.531.531 0 0 0-.256-.149l-.023-.007a.518.518 0 0 0-.091-.01H17.525a.515.515 0 0 0-.07.007c-.016 0-.031.01-.047.015" transform="translate(-14.008 -66.531)" style="fill:#3c71fd"/>
        </g>
    </g>
</svg>
