<svg xmlns="http://www.w3.org/2000/svg" width="16.625" height="19" viewBox="0 0 16.625 19">
    <path d="M16.1 2.447 14.178.522A1.781 1.781 0 0 0 12.918 0H6.531A1.781 1.781 0 0 0 4.75 1.781v1.782H1.781A1.781 1.781 0 0 0 0 5.344v11.875A1.781 1.781 0 0 0 1.781 19h8.313a1.781 1.781 0 0 0 1.781-1.781v-1.781h2.969a1.781 1.781 0 0 0 1.781-1.781v-9.95a1.781 1.781 0 0 0-.522-1.26zM9.871 17.219H2A.223.223 0 0 1 1.781 17V5.566A.223.223 0 0 1 2 5.344h2.75v8.313a1.781 1.781 0 0 0 1.781 1.781h3.563V17a.223.223 0 0 1-.223.219zm4.75-3.562H6.754a.223.223 0 0 1-.223-.223V2a.223.223 0 0 1 .223-.223h3.934v3.27a.891.891 0 0 0 .891.891h3.266v7.5a.223.223 0 0 1-.224.218zm.223-9.5h-2.375V1.781h.357a.223.223 0 0 1 .157.065l1.795 1.795a.223.223 0 0 1 .065.157z" style="fill:#07e6ff"/>
</svg>
