<svg xmlns="http://www.w3.org/2000/svg" width="14.646" height="11.656" viewBox="0 0 14.646 11.656">
    <defs>
        <clipPath id="r4mx2x1y4a">
            <path data-name="사각형 7066" style="fill:none" d="M0 0h14.646v11.656H0z"/>
        </clipPath>
    </defs>
    <g data-name="그룹 8278" style="clip-path:url(#r4mx2x1y4a)">
        <path data-name="패스 12531" d="M69.532 34.883h-3.048a.766.766 0 0 1 0-1.532h3.048a.766.766 0 1 1 0 1.532" transform="translate(-55.651 -28.242)" style="fill:#ffb8c9"/>
        <path data-name="패스 12532" d="M67.392 58.535a.762.762 0 0 1-.408-.118l-2.608-1.644a.766.766 0 1 1 .817-1.3l2.607 1.648a.766.766 0 0 1-.409 1.414" transform="translate(-54.213 -46.879)" style="fill:#ffb8c9"/>
        <path data-name="패스 12533" d="M64.786 3.784a.766.766 0 0 1-.409-1.414L66.985.726a.766.766 0 1 1 .817 1.3l-2.608 1.64a.763.763 0 0 1-.408.118" transform="translate(-54.213 -.515)" style="fill:#ffb8c9"/>
        <path data-name="패스 12534" d="M2.891 3.051H1.572A1.572 1.572 0 0 0 0 4.623v2.392a1.572 1.572 0 0 0 1.572 1.572h1.319a.9.9 0 0 1 .61.239L6.288 11.4a.9.9 0 0 0 1.512-.663V.9A.9.9 0 0 0 6.288.24L3.5 2.813a.9.9 0 0 1-.61.239" style="fill:#ff6482"/>
    </g>
</svg>
