<svg xmlns="http://www.w3.org/2000/svg" width="20" height="17.477" viewBox="0 0 20 17.477">
    <path d="M18.708 3.136h-6.419L9.72 1.21a1.493 1.493 0 0 0-.889-.3h-4.2A1.481 1.481 0 0 0 3.153 2.4v2.657H1.671A1.481 1.481 0 0 0 .19 6.539v10.37a1.481 1.481 0 0 0 1.481 1.481h14.157a1.4 1.4 0 0 0 1.4-1.4v-1.562h1.564a1.4 1.4 0 0 0 1.4-1.4v-9.41a1.482 1.482 0 0 0-1.481-1.481zm0 10.81h-1.481V8.761a1.482 1.482 0 0 0-1.481-1.481h-6.42L6.758 5.354a1.493 1.493 0 0 0-.889-.3H4.634V2.4h4.2L11.6 4.47a.741.741 0 0 0 .444.148h6.667z" transform="translate(-.19 -.914)" style="fill:#3c71fd"/>
</svg>
