<svg xmlns="http://www.w3.org/2000/svg" width="53" height="60" viewBox="0 0 53 60">
    <path d="M17.063 2.224A3.774 3.774 0 0 1 20.447.15H34.69a3.774 3.774 0 0 1 3.383 2.074l.853 1.676h11.357a3.75 3.75 0 1 1 0 7.5H4.854a3.75 3.75 0 1 1 0-7.5h11.358l.852-1.676zM4.854 15.15h45.429v37.5a7.543 7.543 0 0 1-7.571 7.5H12.426a7.543 7.543 0 0 1-7.571-7.5v-37.5zm11.357 7.5a1.89 1.89 0 0 0-1.893 1.875v26.25a1.893 1.893 0 0 0 3.786 0v-26.25a1.89 1.89 0 0 0-1.893-1.875zm11.357 0a1.89 1.89 0 0 0-1.893 1.875v26.25a1.893 1.893 0 0 0 3.786 0v-26.25a1.89 1.89 0 0 0-1.893-1.875zm11.357 0a1.89 1.89 0 0 0-1.893 1.875v26.25a1.893 1.893 0 0 0 3.786 0v-26.25a1.89 1.89 0 0 0-1.893-1.875z" transform="translate(-1.069 -.15)" style="fill:#ccc"/>
</svg>
