<svg xmlns="http://www.w3.org/2000/svg" width="42.145" height="42.383" viewBox="0 0 42.145 42.383">
    <g data-name="그룹 7663">
        <g data-name="그룹 4063">
            <g data-name="그룹 4059">
                <g data-name="그룹 4034">
                    <g data-name="그룹 4026">
                        <g data-name="그룹 4005" transform="translate(4.769 1.764)">
                            <path data-name="빼기 8" d="M-10034.317-4985.028h-30.45a1 1 0 0 1-1-1v-24.731a1 1 0 0 1 1-1h30.45a1 1 0 0 1 1 1v24.731a1 1 0 0 1-1 1zm-7.285-10.009a1 1 0 0 0-1 1v5.148a1 1 0 0 0 1 1h5.148a1 1 0 0 0 1-1v-5.148a1 1 0 0 0-1-1zm-10.506 0a1 1 0 0 0-1 1v5.148a1 1 0 0 0 1 1h5.146a1 1 0 0 0 1-1v-5.148a1 1 0 0 0-1-1zm-10.509 0a1 1 0 0 0-1 1v5.148a1 1 0 0 0 1 1h5.147a1 1 0 0 0 1-1v-5.148a1 1 0 0 0-1-1zm21.015-10.006a1 1 0 0 0-1 1v5.151a1 1 0 0 0 1 1h5.148a1 1 0 0 0 1-1v-5.151a1 1 0 0 0-1-1zm-10.512 0a1 1 0 0 0-1 1v5.148a1 1 0 0 0 1 1h5.148a1 1 0 0 0 1-1v-5.148a1 1 0 0 0-1-1zm-10.506 0a1 1 0 0 0-1 1v5.148a1 1 0 0 0 1 1h5.148a1 1 0 0 0 1-1v-5.148a1 1 0 0 0-1-1z" transform="translate(10065.767 5020.339)" style="fill:#fff"/>
                            <rect data-name="사각형 3378" width="4.289" height="12.388" rx="2.145" transform="translate(5.929)" style="fill:#fff"/>
                            <rect data-name="사각형 3379" width="4.289" height="12.388" rx="2.145" transform="translate(22.233)" style="fill:#fff"/>
                            <path data-name="패스 11317" d="M0 7.148z" transform="translate(0 4.289)" style="fill:#fff"/>
                        </g>
                        <g data-name="그룹 4039">
                            <text transform="translate(24.163 34.216)" style="font-family:NanumSquareRoundEB,NanumSquareRound;font-size:14px;fill:#2a2d3e"><tspan x="0" y="0">w</tspan></text>
                            <path data-name="선 179" transform="translate(22.998 29.999)" style="stroke:#335075;fill:none" d="M0 0h14"/>
                        </g>
                    </g>
                </g>
            </g>
        </g>
        <g data-name="그룹 5399">
            <g data-name="그룹 4052">
                <g data-name="그룹 4002">
                    <path data-name="패스 1172" d="M8.949 0A8.95 8.95 0 1 1 0 8.95 8.95 8.95 0 0 1 8.949 0z" transform="translate(22.059 22.294)" style="fill:#2a2d3e"/>
                    <g data-name="그룹 3991">
                        <path data-name="합치기 20" d="M3.519 9.375V5.859H0V3.516h3.519V0h2.344v3.516h3.511v2.343H5.863v3.516z" transform="translate(26.322 26.557)" style="fill:#fff"/>
                    </g>
                    <g data-name="그룹 3995">
                        <path data-name="패스 1172" d="M8.949 0A8.95 8.95 0 1 1 0 8.95 8.95 8.95 0 0 1 8.949 0z" transform="translate(22.059 22.294)" style="fill:#fff"/>
                    </g>
                </g>
                <path data-name="패스 1178" d="M9.636.687a8.95 8.95 0 1 0 8.949 8.95A8.95 8.95 0 0 0 9.636.687m0-2.187A11.138 11.138 0 1 1-1.5 9.638 11.15 11.15 0 0 1 9.636-1.5z" transform="translate(21.372 21.607)" style="fill:#c1c8db"/>
            </g>
            <g data-name="그룹 4053">
                <text data-name="w" transform="translate(24.448 35.492)" style="font-size:17px;fill:#c1c8db;font-family:NanumSquareRoundEB,NanumSquareRound"><tspan x="0" y="0">w</tspan></text>
                <path data-name="선 179" transform="translate(24.143 30.411)" style="stroke:#c1c8db;fill:none" d="M0 0h13.869"/>
            </g>
        </g>
    </g>
</svg>
