<svg xmlns="http://www.w3.org/2000/svg" width="15" height="15" viewBox="0 0 15 15">
    <path data-name="패스 953" d="M24.367 17.224a7.5 7.5 0 1 1-7.5-7.5 7.5 7.5 0 0 1 7.5 7.5z" transform="translate(-9.367 -9.723)" style="fill:#ffffff"/>
    <g data-name="그룹 4629">
        <path data-name="선 152" d="M-.142 3.722A.858.858 0 0 1-1 2.865V-.143A.858.858 0 0 1-.142-1a.858.858 0 0 1 .858.857v3.008a.858.858 0 0 1-.858.857z" transform="translate(7.657 7.573)" style="fill:#3c71fd"/>
        <path data-name="패스 954" d="M15.737 12.721a1.15 1.15 0 1 1-1.15-1.149 1.148 1.148 0 0 1 1.15 1.149" transform="translate(-7.087 -8.156)" style="fill:#3c71fd"/>
    </g>
</svg>
