<svg xmlns="http://www.w3.org/2000/svg" width="32" height="28" viewBox="0 0 32 28">
    <defs>
        <clipPath id="kdpuqszwxa">
            <path data-name="사각형 5102" style="fill:#2e3765" d="M0 0h32v28H0z"/>
        </clipPath>
    </defs>
    <g data-name="no pic_img">
        <g data-name="그룹 6452" style="clip-path:url(#kdpuqszwxa)">
            <path data-name="패스 12137" d="m18.717 5.465-5.173 9.027-2.717-4.741a2.061 2.061 0 0 0-3.582 0L.279 21.9a2.085 2.085 0 0 0 1.792 3.126h27.857A2.084 2.084 0 0 0 31.72 21.9L22.3 5.465a2.061 2.061 0 0 0-3.582 0" transform="translate(0 2.971)" style="fill:#2e3765"/>
            <path data-name="패스 12138" d="M9.633 3.761A3.733 3.733 0 1 1 5.9 0a3.747 3.747 0 0 1 3.733 3.761" transform="translate(1.428)" style="fill:#2e3765"/>
        </g>
    </g>
</svg>
