<svg xmlns="http://www.w3.org/2000/svg" width="52" height="52" viewBox="0 0 52 52">
    <g data-name="그룹 7667">
        <g data-name="그룹 4021">
            <g data-name="그룹 3978" transform="translate(1.638 5.743)">
                <path data-name="합치기 18" d="M6.4 31.157a2.192 2.192 0 0 1-2.192-2.192V17.14l-.931.931a.5.5 0 0 1-.706 0L.174 15.677a.5.5 0 0 1 0-.707L14.97.175a.651.651 0 0 1 .815 0l14.8 14.8a.5.5 0 0 1 0 .707l-2.393 2.394a.5.5 0 0 1-.707 0l-.626-.626v11.52a2.192 2.192 0 0 1-2.193 2.192z" style="fill:#fff"/>
                <g data-name="그룹 3974">
                    <g data-name="그룹 3975">
                        <path data-name="합치기 19" d="M21.325 26.931 15.9 22.605a1.606 1.606 0 0 1-.565-.9l-.675-2.345.532-.125a3.587 3.587 0 0 0 2.71-2.843l.744 3.175a1.12 1.12 0 0 0 .4.658l4.664 3.718a1.91 1.91 0 0 1 .3 2.684 1.912 1.912 0 0 1-2.686.3zM3.377 26.8l-.238-.066a1.785 1.785 0 0 1-1.251-2.195l1.753-6.4a1.776 1.776 0 0 1 .655-.961 1.794 1.794 0 0 1 .474-.256l4.99-1.786-1.737-7.382L7.275 9.7a1.686 1.686 0 0 1-.675.813 1.955 1.955 0 0 1-.266.212l-3.653 2.3a1.666 1.666 0 0 1-2.466-.658 2.233 2.233 0 0 1 .744-2.785 10.036 10.036 0 0 0 2.792-2.39 15.418 15.418 0 0 0 1.91-3.907l.007-.015A10.42 10.42 0 0 1 7.915.984 3.074 3.074 0 0 1 8.6.444h.007a3.192 3.192 0 0 1 1.575-.426 16.139 16.139 0 0 1 7.937 1.853l2.837 1.473a3.277 3.277 0 0 1 1.7 2.259l1.251 6.156a1.532 1.532 0 0 1-1.561 1.911 1.91 1.91 0 0 1-2.246-1.492l-1.129-5.55-3.651-1.9 1.975 8.392a4.059 4.059 0 0 1-3.021 4.876l-3.633.875-1.239.43a4.4 4.4 0 0 0-2.512 1.465l-1.318 4.781A1.784 1.784 0 0 1 3.377 26.8z" transform="translate(22.652 9.892)" style="fill:#fff"/>
                        <path data-name="합치기 19 - 윤곽선" d="M23.751 36.181a1.909 1.909 0 0 0 1.5-.719 1.91 1.91 0 0 0-.3-2.684l-4.671-3.72a1.12 1.12 0 0 1-.4-.658l-.744-3.175a3.587 3.587 0 0 1-2.71 2.843l-.532.125.675 2.346a1.606 1.606 0 0 0 .565.9l5.425 4.326a1.9 1.9 0 0 0 1.19.417M5.087 35.7a1.785 1.785 0 0 0 1.721-1.32l1.311-4.789a4.4 4.4 0 0 1 2.512-1.465l1.239-.43 3.633-.875a4.059 4.059 0 0 0 3.021-4.876l-1.974-8.387 3.651 1.9 1.129 5.55a1.91 1.91 0 0 0 2.253 1.492 1.532 1.532 0 0 0 1.561-1.911l-1.251-6.156a3.277 3.277 0 0 0-1.7-2.259L19.354 10.7a16.139 16.139 0 0 0-7.937-1.853 3.192 3.192 0 0 0-1.571.422h-.007a3.074 3.074 0 0 0-.688.54A10.42 10.42 0 0 0 6.9 12.107l-.007.015a15.418 15.418 0 0 1-1.909 3.907 10.036 10.036 0 0 1-2.792 2.39 2.233 2.233 0 0 0-.741 2.781 1.666 1.666 0 0 0 2.466.658l3.653-2.3a1.955 1.955 0 0 0 .266-.212 1.686 1.686 0 0 0 .675-.813l.749-1.945L11 23.969 6.007 25.75a1.794 1.794 0 0 0-.474.256 1.776 1.776 0 0 0-.655.961l-1.753 6.4a1.785 1.785 0 0 0 1.251 2.195l.238.066a1.789 1.789 0 0 0 .474.064m18.664 3.222a4.663 4.663 0 0 1-2.9-1.014l-5.426-4.326a4.362 4.362 0 0 1-1.5-2.339L13.6 30.1l-1.006.242-1.22.423-.163.035a2.114 2.114 0 0 0-.653.252L9.446 35.1a4.529 4.529 0 0 1-4.36 3.329 4.528 4.528 0 0 1-1.2-.162l-.239-.067a4.521 4.521 0 0 1-3.162-5.553l1.753-6.4a4.515 4.515 0 0 1 .625-1.351A4.4 4.4 0 0 1-1 22.422a4.973 4.973 0 0 1 1.685-6.288l.11-.073.085-.045a7.329 7.329 0 0 0 1.936-1.655 10.9 10.9 0 0 0 1.452-3.017c.042-.122.08-.23.137-.355L9.639-.789v6.4l.206-.211.77.77a5.948 5.948 0 0 1 .678-.055c.138-.009.366-.02.67-.02a19.7 19.7 0 0 1 8.605 2.156l.046.024 2.837 1.473a5.986 5.986 0 0 1 3.123 4.144l1.251 6.155a4.259 4.259 0 0 1-3.968 5.184 4.652 4.652 0 0 1-1.94-.136l.509 2.175 4.223 3.367a4.652 4.652 0 0 1 1.333 5.563v.221l-.6.751a4.627 4.627 0 0 1-3.633 1.747z" transform="translate(21.417 1.059)" style="fill:#3c71fd"/>
                    </g>
                </g>
                <path data-name="패스 1171" d="M65.837 3.646A3.646 3.646 0 1 0 69.483 0a3.646 3.646 0 0 0-3.646 3.646" transform="translate(-38.695 1.709)" style="fill:#fff"/>
                <rect data-name="사각형 3346" width="8.834" height="10.359" rx=".5" transform="translate(7.083 18.358)" style="fill:#3c71fd"/>
            </g>
        </g>
    </g>
</svg>
