<svg xmlns="http://www.w3.org/2000/svg" width="70" height="67" viewBox="0 0 70 67">
    <g data-name="그룹 4508">
        <g data-name="그룹 4503">
            <g data-name="그룹 4494">
                <g data-name="사각형 3415" style="stroke:#3c71fd;fill:#fff">
                    <path d="M0 0h43v31a3 3 0 0 1-3 3H3a3 3 0 0 1-3-3V0z" style="stroke:none" transform="translate(14 14)"/>
                    <path d="M.5.5h42V31a2.5 2.5 0 0 1-2.5 2.5H3A2.5 2.5 0 0 1 .5 31V.5z" style="fill:none" transform="translate(14 14)"/>
                </g>
                <g data-name="패스 12703" style="fill:#3c71fd">
                    <path d="M42.5 15.5H.5V3C.5 1.622 1.622.5 3 .5h37c1.379 0 2.5 1.122 2.5 2.5v12.5z" style="stroke:none" transform="translate(14 11)"/>
                    <path d="M3 1c-1.103 0-2 .897-2 2v12h41V3c0-1.103-.897-2-2-2H3m0-1h37a3 3 0 0 1 3 3v13H0V3a3 3 0 0 1 3-3z" style="fill:#3c71fd;stroke:none" transform="translate(14 11)"/>
                </g>
                <g data-name="그룹 4051" transform="translate(20 17)">
                    <circle data-name="타원 52" cx="2.5" cy="2.5" r="2.5" style="fill:#fff"/>
                    <rect data-name="사각형 3417" width="22" height="5" rx="2.5" transform="translate(9)" style="fill:#fff"/>
                </g>
            </g>
            <g data-name="그룹 4495" transform="translate(21.998 31)">
                <path data-name="패스 12708" d="M1 0h25a1 1 0 0 1 1 1v19a1 1 0 0 1-1 1H1a1 1 0 0 1-1-1V1a1 1 0 0 1 1-1z" style="fill:#3c71fd"/>
                <rect data-name="사각형 3420" width="15" height="3" rx="1.5" transform="translate(6 6)" style="fill:#9bb7ff"/>
                <rect data-name="사각형 3421" width="10" height="3" rx="1.5" transform="translate(6 12)" style="fill:#9bb7ff"/>
            </g>
        </g>
        <path data-name="사각형 3715" transform="translate(10 8)" style="fill:none" d="M0 0h50v50H0z"/>
    </g>
</svg>
