<svg xmlns="http://www.w3.org/2000/svg" width="59.602" height="37.19" viewBox="0 0 59.602 37.19">
    <defs>
        <clipPath id="3v85lylzga">
            <path data-name="사각형 7040" style="fill:#fff" d="M0 0h59.602v37.19H0z"/>
        </clipPath>
    </defs>
    <g data-name="그룹 8264" style="clip-path:url(#3v85lylzga)">
        <path data-name="패스 12522" d="M176.123 130.868h27.368a1.316 1.316 0 0 0 0-2.631h-2.632V113.5a2.368 2.368 0 0 0-4.736 0v14.737h-3.948v-8.948a2.368 2.368 0 1 0-4.737 0v8.948h-3.947v-3.947a2.368 2.368 0 1 0-4.736 0v3.947h-2.632a1.316 1.316 0 1 0 0 2.631" transform="translate(-160.006 -101.722)" style="fill:#fff"/>
        <path data-name="패스 12523" d="M57.266 0H2.336A2.343 2.343 0 0 0 0 2.336v.747a2.343 2.343 0 0 0 2.336 2.335h4.619V37.19h45.692V5.418h4.619A2.343 2.343 0 0 0 59.6 3.083v-.747A2.343 2.343 0 0 0 57.266 0m-8.484 33.325H10.82V5.449h37.962z" style="fill:#fff"/>
    </g>
</svg>
