<svg xmlns="http://www.w3.org/2000/svg" width="49.949" height="47.485" viewBox="0 0 49.949 47.485">
    <defs>
        <clipPath id="fx00oro2ma">
            <path data-name="사각형 7043" style="fill:#fff" d="M0 0h49.949v47.485H0z"/>
        </clipPath>
    </defs>
    <g data-name="그룹 8270" style="clip-path:url(#fx00oro2ma)">
        <path data-name="패스 12534" d="M49.949 20.871a1.483 1.483 0 0 0-.434-1.048l-7.039-7.039a1.526 1.526 0 0 0-2.1 0l-1.827 1.827v-2.937c0-.043-.011-.086-.019-.129a1.383 1.383 0 0 0-.031-.123l-.011-.036q-.015-.048-.034-.094l-.013-.032a1.492 1.492 0 0 0-.121-.228L38.29 11q-.028-.041-.059-.079l-.024-.03a2.056 2.056 0 0 0-.089-.1L27.341.434a1.71 1.71 0 0 0-.1-.091l-.025-.02q-.043-.034-.088-.065l-.021-.014a1.478 1.478 0 0 0-.242-.129L26.852.11q-.059-.024-.119-.043h-.015a1.485 1.485 0 0 0-.273-.055h-.015Q26.367 0 26.3 0H1.482A1.482 1.482 0 0 0 0 1.482V46a1.482 1.482 0 0 0 1.482 1.482H37.07A1.482 1.482 0 0 0 38.552 46V32.882L49.515 21.92a1.483 1.483 0 0 0 .434-1.048M35.588 44.52H2.965V2.965h21.846v8.871a1.482 1.482 0 0 0 1.482 1.482h9.295v4.258L23.262 29.9a1.484 1.484 0 0 0-.434 1.084l.163 6.876a1.482 1.482 0 0 0 1.447 1.446l6.875.164h.035a1.481 1.481 0 0 0 1.048-.434l3.191-3.191zm-4.838-8.028-4.827-.115-.114-4.828 15.62-15.62 4.943 4.943z" style="fill:#fff"/>
        <path data-name="패스 12535" d="M77.328 236.532h21.515a1.622 1.622 0 0 0 0-3.245H77.328a1.622 1.622 0 1 0 0 3.245" transform="translate(-70.366 -216.831)" style="fill:#fff"/>
        <path data-name="패스 12536" d="M77.013 371.532H90.2a1.66 1.66 0 0 0 0-3.245H77.013a1.66 1.66 0 0 0 0 3.245" transform="translate(-70.366 -342.308)" style="fill:#fff"/>
        <path data-name="패스 12537" d="M77.328 516.532h11.64a1.622 1.622 0 0 0 0-3.245h-11.64a1.622 1.622 0 0 0 0 3.245" transform="translate(-70.366 -477.08)" style="fill:#fff"/>
    </g>
</svg>
