<svg xmlns="http://www.w3.org/2000/svg" width="18.2" height="20.771" viewBox="0 0 18.2 20.771">
    <path d="M16.071 2.571h-1.928V.482A.484.484 0 0 0 13.661 0h-.321a.484.484 0 0 0-.482.482v2.089H5.143V.482A.484.484 0 0 0 4.661 0h-.322a.484.484 0 0 0-.482.482v2.089H1.929A1.929 1.929 0 0 0 0 4.5v14.143a1.929 1.929 0 0 0 1.929 1.929h14.142A1.929 1.929 0 0 0 18 18.643V4.5a1.929 1.929 0 0 0-1.929-1.929zM1.929 3.857h14.142a.645.645 0 0 1 .643.643v1.929H1.286V4.5a.645.645 0 0 1 .643-.643zm14.142 15.429H1.929a.645.645 0 0 1-.643-.643V7.714h15.428v10.929a.645.645 0 0 1-.643.643zM5.946 12.857H4.339a.484.484 0 0 1-.482-.482v-1.607a.484.484 0 0 1 .482-.482h1.607a.484.484 0 0 1 .482.482v1.607a.484.484 0 0 1-.482.482zm3.857 0H8.2a.484.484 0 0 1-.482-.482v-1.607a.484.484 0 0 1 .482-.482h1.6a.484.484 0 0 1 .482.482v1.607a.484.484 0 0 1-.482.482zm3.857 0h-1.606a.484.484 0 0 1-.482-.482v-1.607a.484.484 0 0 1 .482-.482h1.607a.484.484 0 0 1 .482.482v1.607a.484.484 0 0 1-.482.482zM9.8 16.714H8.2a.484.484 0 0 1-.482-.482v-1.607a.484.484 0 0 1 .482-.482h1.6a.484.484 0 0 1 .482.482v1.607a.484.484 0 0 1-.482.482zm-3.857 0H4.339a.484.484 0 0 1-.482-.482v-1.607a.484.484 0 0 1 .482-.482h1.607a.484.484 0 0 1 .482.482v1.607a.484.484 0 0 1-.482.482zm7.714 0h-1.603a.484.484 0 0 1-.482-.482v-1.607a.484.484 0 0 1 .482-.482h1.607a.484.484 0 0 1 .482.482v1.607a.484.484 0 0 1-.482.482z" transform="translate(.1 .1)" style="fill:#c4c4c4;stroke:#3c7c4c4c41fd;stroke-width:.2px"/>
</svg>
