<svg xmlns="http://www.w3.org/2000/svg" width="36" height="36" viewBox="0 0 36 36">
    <g data-name="그룹 7300">
        <g data-name="그룹 4021">
            <g data-name="그룹 3978" transform="translate(1.153 3.995)">
                <path data-name="합치기 18" d="M4.41 21.551a1.518 1.518 0 0 1-1.517-1.517v-8.186l-.536.536a.5.5 0 0 1-.707 0l-1.439-1.44a.5.5 0 0 1 0-.707L10.237.211a.6.6 0 0 1 .782 0l10.025 10.026a.5.5 0 0 1 0 .707L19.6 12.383a.5.5 0 0 1-.707 0l-.325-.325v7.976a1.518 1.518 0 0 1-1.518 1.517z" style="fill:#222"/>
                <g data-name="그룹 3974">
                    <g data-name="그룹 3975">
                        <path data-name="합치기 19" d="m14.763 18.644-3.756-2.994a1.112 1.112 0 0 1-.391-.623l-.467-1.627.368-.086a2.483 2.483 0 0 0 1.876-1.968l.515 2.2a.775.775 0 0 0 .276.456l3.229 2.574a1.322 1.322 0 0 1 .209 1.858 1.323 1.323 0 0 1-1.859.209zm-12.425-.092-.165-.045a1.236 1.236 0 0 1-.866-1.519l1.214-4.433a1.229 1.229 0 0 1 .454-.665 1.242 1.242 0 0 1 .328-.177l3.454-1.233-1.2-5.111-.521 1.346a1.167 1.167 0 0 1-.467.563 1.354 1.354 0 0 1-.184.147L1.856 9.017a1.154 1.154 0 0 1-1.707-.456 1.546 1.546 0 0 1 .515-1.927A6.948 6.948 0 0 0 2.6 4.979a10.674 10.674 0 0 0 1.322-2.7v-.01A7.214 7.214 0 0 1 5.479.681a2.128 2.128 0 0 1 .477-.374A2.21 2.21 0 0 1 7.049.013 11.173 11.173 0 0 1 12.544 1.3l1.964 1.019a2.269 2.269 0 0 1 1.179 1.564l.866 4.262a1.061 1.061 0 0 1-1.081 1.323 1.322 1.322 0 0 1-1.559-1.033l-.783-3.847-2.53-1.317 1.367 5.81a2.81 2.81 0 0 1-2.091 3.375l-2.515.606-.858.3a3.048 3.048 0 0 0-1.739 1.014l-.908 3.316a1.235 1.235 0 0 1-1.519.866z" transform="translate(15.664 6.83)" style="fill:#07e6ff"/>
                        <path data-name="합치기 19 - 윤곽선" d="M15.981 24.806a1.322 1.322 0 0 0 1.035-.5 1.322 1.322 0 0 0-.209-1.858l-3.229-2.574a.775.775 0 0 1-.276-.456l-.515-2.2a2.483 2.483 0 0 1-1.876 1.968l-.368.086.467 1.628a1.112 1.112 0 0 0 .391.623l3.756 2.995a1.317 1.317 0 0 0 .824.289M3.06 24.469a1.236 1.236 0 0 0 1.191-.91l.908-3.316A3.048 3.048 0 0 1 6.9 19.229l.858-.3 2.515-.606a2.81 2.81 0 0 0 2.091-3.375L11 9.144l2.528 1.317.782 3.842a1.322 1.322 0 0 0 1.559 1.033 1.061 1.061 0 0 0 1.081-1.323l-.87-4.261a2.269 2.269 0 0 0-1.18-1.564l-1.962-1.02a11.173 11.173 0 0 0-5.495-1.283 2.21 2.21 0 0 0-1.088.292 2.128 2.128 0 0 0-.476.374 7.214 7.214 0 0 0-1.562 1.588v.01a10.674 10.674 0 0 1-1.322 2.7 6.948 6.948 0 0 1-1.933 1.655 1.546 1.546 0 0 0-.515 1.927 1.154 1.154 0 0 0 1.707.456L4.779 13.3a1.354 1.354 0 0 0 .184-.147 1.167 1.167 0 0 0 .467-.563l.518-1.347 1.2 5.111-3.448 1.23a1.242 1.242 0 0 0-.328.177 1.229 1.229 0 0 0-.454.665L1.7 22.86a1.236 1.236 0 0 0 .866 1.519l.165.045a1.239 1.239 0 0 0 .328.044M15.981 26.7a3.228 3.228 0 0 1-2-.7l-3.761-3a3.02 3.02 0 0 1-1.042-1.619l-.226-.781-.7.168-.845.293-.107.019a1.464 1.464 0 0 0-.452.175l-.768 2.8a3.135 3.135 0 0 1-3.018 2.3 3.135 3.135 0 0 1-.829-.112l-.168-.046a3.13 3.13 0 0 1-2.191-3.838l1.214-4.433a3.126 3.126 0 0 1 .432-.935 3.049 3.049 0 0 1-2.672-1.711 3.443 3.443 0 0 1 1.165-4.353l.076-.05.059-.031A5.074 5.074 0 0 0 1.488 9.7a7.546 7.546 0 0 0 1.005-2.089c.029-.084.055-.159.095-.246L6.211-.789V3.64l.143-.14.533.533a4.118 4.118 0 0 1 .47-.038c.1-.006.253-.014.464-.014a13.641 13.641 0 0 1 5.958 1.493l.032.016 1.964 1.019a4.144 4.144 0 0 1 2.162 2.869l.866 4.261a2.948 2.948 0 0 1-2.747 3.589 3.221 3.221 0 0 1-1.343-.094l.353 1.506 2.923 2.331a3.22 3.22 0 0 1 .922 3.85v.153l-.414.52a3.2 3.2 0 0 1-2.515 1.21z" transform="translate(15.27 .957)" style="fill:#fff"/>
                    </g>
                </g>
                <path data-name="패스 1171" d="M65.837 2.524A2.524 2.524 0 1 0 68.361 0a2.524 2.524 0 0 0-2.524 2.524" transform="translate(-47.065 1.164)" style="fill:#07e6ff"/>
                <rect data-name="사각형 3346" width="6.116" height="7.171" rx=".5" transform="translate(4.885 12.691)" style="fill:#fff"/>
            </g>
        </g>
    </g>
</svg>
