<svg xmlns="http://www.w3.org/2000/svg" width="16" height="16" viewBox="0 0 16 16">
    <g data-name="그룹 7688" transform="translate(-119.791 -893.25)">
        <rect data-name="사각형 4925" width="16" height="16" rx="2" transform="translate(119.791 893.25)" style="fill:#3c71fd"/>
        <path d="m36.519 80.03-5.883 5.883-2.162-2.162a.268.268 0 0 0-.38 0l-.633.633a.268.268 0 0 0 0 .38l2.984 2.984a.268.268 0 0 0 .38 0l6.706-6.706a.268.268 0 0 0 0-.38l-.631-.632a.268.268 0 0 0-.381 0z" transform="translate(95.408 817.299)" style="fill:#fff"/>
    </g>
</svg>
