<svg xmlns="http://www.w3.org/2000/svg" width="40" height="30" viewBox="0 0 40 30">
    <defs>
        <clipPath id="elvq4howka">
            <path data-name="사각형 6918" style="fill:#999" d="M0 0h40v30H0z"/>
        </clipPath>
    </defs>
    <g data-name="그룹 8478" style="clip-path:url(#elvq4howka)">
        <path data-name="패스 13189" d="M23.493 27.38a4.143 4.143 0 0 1 1.234-2.656l1.827-1.8-1.827-1.8a4.158 4.158 0 0 1 0-5.945 4.32 4.32 0 0 1 6.04 0l.749.739s.007-9.541 0-9.535H16.222L9.733 0H0v27.374h3.885c-.112-.111 3.6.006 3.6.006z" style="fill:#999"/>
        <path data-name="패스 13190" d="m62.089 39.52 3.2-3.151a2.265 2.265 0 0 0 0-3.24 2.355 2.355 0 0 0-3.293 0l-3.2 3.15-3.2-3.15a2.354 2.354 0 0 0-3.293 0 2.265 2.265 0 0 0 0 3.24l3.2 3.151-3.2 3.151a2.265 2.265 0 0 0 0 3.24 2.353 2.353 0 0 0 3.293 0l3.2-3.15L62 45.91a2.354 2.354 0 0 0 3.293 0 2.265 2.265 0 0 0 0-3.24z" transform="translate(-25.971 -16.582)" style="fill:#999"/>
    </g>
</svg>
