<svg xmlns="http://www.w3.org/2000/svg" width="20.004" height="19.998" viewBox="0 0 20.004 19.998">
    <path data-name="제외 2" d="M20490-583a10.011 10.011 0 0 1-10-10 9.935 9.935 0 0 1 2.93-7.073A9.936 9.936 0 0 1 20490-603a9.936 9.936 0 0 1 7.072 2.929A9.935 9.935 0 0 1 20500-593a10.011 10.011 0 0 1-10 10zm-.041-8.5 3.92 3.92 1.133-1.132-3.916-3.92 3.92-3.926-1.131-1.132-3.926 3.925-3.926-3.925-1.127 1.132 3.92 3.926-3.914 3.92 1.131 1.132 3.916-3.92z" transform="translate(-20479.998 602.999)" style="fill:#fff"/>
</svg>
