<svg xmlns="http://www.w3.org/2000/svg" width="41" height="40" viewBox="0 0 41 40">
    <defs>
        <clipPath id="feqjy58x5a">
            <path data-name="사각형 6021" style="fill:#07e6ff" d="M0 0h23.507v22.406H0z"/>
        </clipPath>
    </defs>
    <g data-name="그룹 7509">
        <g data-name="사각형 5926" style="stroke:#07e6ff;fill:none">
            <rect width="41" height="40" rx="3" style="stroke:none"/>
            <rect x=".5" y=".5" width="40" height="39" rx="2.5" style="fill:none"/>
        </g>
        <g data-name="그룹 7508">
            <g data-name="그룹 7507" style="clip-path:url(#feqjy58x5a)" transform="translate(9 8.271)">
                <path data-name="패스 12703" d="M7.706 10.087h-4.8A2.913 2.913 0 0 1 0 7.177V3.323A2.913 2.913 0 0 1 2.909.413h4.8a2.912 2.912 0 0 1 2.908 2.91v3.939a1.468 1.468 0 0 1-.01.162 2.913 2.913 0 0 1-2.9 2.663m-4.8-7.174a.41.41 0 0 0-.409.41v3.854a.41.41 0 0 0 .409.41h4.8a.409.409 0 0 0 .408-.41V3.323a.409.409 0 0 0-.408-.41z" style="fill:#07e6ff"/>
                <path data-name="패스 12704" d="M20.6 10.087h-4.8a2.913 2.913 0 0 1-2.909-2.91V3.323A2.913 2.913 0 0 1 15.8.413h4.8a2.912 2.912 0 0 1 2.908 2.91v3.939a1.467 1.467 0 0 1-.01.162 2.913 2.913 0 0 1-2.9 2.663M15.8 2.913a.41.41 0 0 0-.409.41v3.854a.41.41 0 0 0 .409.41h4.8a.409.409 0 0 0 .408-.41V3.323a.409.409 0 0 0-.408-.41z" style="fill:#07e6ff"/>
                <path data-name="패스 12705" d="M7.706 22.406h-4.8A2.912 2.912 0 0 1 0 19.5v-3.858a2.912 2.912 0 0 1 2.909-2.909h4.8a2.911 2.911 0 0 1 2.908 2.909v3.939a1.438 1.438 0 0 1-.01.162 2.913 2.913 0 0 1-2.9 2.663m-4.8-7.173a.409.409 0 0 0-.409.409V19.5a.409.409 0 0 0 .409.409h4.8a.409.409 0 0 0 .408-.409v-3.858a.409.409 0 0 0-.408-.409z" style="fill:#07e6ff"/>
                <path data-name="패스 12706" d="M20.6 22.406h-4.8a2.912 2.912 0 0 1-2.907-2.906v-3.858a2.912 2.912 0 0 1 2.907-2.909h4.8a2.911 2.911 0 0 1 2.908 2.909v3.939a1.438 1.438 0 0 1-.01.162 2.913 2.913 0 0 1-2.9 2.663m-4.8-7.173a.409.409 0 0 0-.409.409V19.5a.409.409 0 0 0 .409.409h4.8a.409.409 0 0 0 .408-.409v-3.858a.409.409 0 0 0-.408-.409z" style="fill:#07e6ff"/>
            </g>
        </g>
    </g>
</svg>
