<svg xmlns="http://www.w3.org/2000/svg" width="47.132" height="55.682" viewBox="0 0 47.132 55.682">
    <defs>
        <clipPath id="mka5kl2b4a">
            <path data-name="사각형 7044" style="fill:#fff" d="M0 0h47.132v55.682H0z"/>
        </clipPath>
    </defs>
    <g data-name="그룹 8272" style="clip-path:url(#mka5kl2b4a)">
        <path data-name="패스 12538" d="M105.249 228.77q.036-.07.074-.139-.039.069-.074.139" transform="translate(-97.363 -211.499)" style="fill:#fff"/>
        <path data-name="패스 12539" d="M104.175 230.838c.023-.051.048-.1.073-.153q-.038.076-.073.153" transform="translate(-96.369 -213.4)" style="fill:#fff"/>
        <path data-name="패스 12540" d="M106.443 226.722q.036-.064.075-.126a2.615 2.615 0 0 0-.075.126" transform="translate(-98.467 -209.617)" style="fill:#fff"/>
        <path data-name="패스 12541" d="m518.9 286.3-.071.1c.024-.032.048-.065.071-.1" transform="translate(-479.955 -264.85)" style="fill:#fff"/>
        <path data-name="패스 12542" d="M106.57 282.156q-.037-.059-.071-.12l.071.12" transform="translate(-98.519 -260.903)" style="fill:#fff"/>
        <path data-name="패스 12543" d="M104.3 277.749c-.025-.049-.048-.1-.071-.148.023.05.046.1.071.148" transform="translate(-96.414 -256.8)" style="fill:#fff"/>
        <path data-name="패스 12544" d="m110.932 288.588-.062-.078.062.078" transform="translate(-102.562 -266.892)" style="fill:#fff"/>
        <path data-name="패스 12545" d="m109.338 286.464-.068-.093c.022.031.044.062.068.093" transform="translate(-101.082 -264.913)" style="fill:#fff"/>
        <path data-name="패스 12546" d="m112.722 290.737-.05-.057.05.057" transform="translate(-104.229 -268.899)" style="fill:#fff"/>
        <path data-name="패스 12547" d="M105.373 279.964q-.037-.066-.071-.133.034.067.071.133" transform="translate(-97.412 -258.863)" style="fill:#fff"/>
        <path data-name="패스 12548" d="M106.025 191.666a9.666 9.666 0 0 0 19.331.136 40.072 40.072 0 0 1 5.915 2.292c-.023.052-.048.1-.073.153a4.1 4.1 0 0 0 .106-3.437 41.916 41.916 0 0 0-6.458-2.25q-1.859-.479-3.731-.771-.835-.13-1.672-.223a37.536 37.536 0 0 0-9.083.1q-1.15.153-2.291.376-.753.148-1.46.317a35.365 35.365 0 0 0-6.857 2.38 4.105 4.105 0 0 0 0 3.362 30.341 30.341 0 0 1 6.271-2.494v.06m3.041-.762a34.368 34.368 0 0 1 13.264.137c.019.206.03.414.03.624a6.669 6.669 0 1 1-13.294-.762" transform="translate(-91.945 -173.3)" style="fill:#fff"/>
        <path data-name="패스 12549" d="M107.889 284.323q-.036-.053-.07-.107.034.054.07.107" transform="translate(-99.74 -262.919)" style="fill:#fff"/>
        <path data-name="패스 12550" d="M107.764 224.7q.036-.057.074-.112l-.074.112" transform="translate(-99.689 -207.758)" style="fill:#fff"/>
        <path data-name="패스 12551" d="M521.791 226.961a4 4 0 0 1 .259.5 3.98 3.98 0 0 0-.259-.5" transform="translate(-482.693 -209.955)" style="fill:#fff"/>
        <path data-name="패스 12552" d="m518.969 222.778.1.135a1.566 1.566 0 0 0-.1-.135" transform="translate(-480.082 -206.085)" style="fill:#fff"/>
        <path data-name="패스 12553" d="m520.433 224.841.1.152a3.042 3.042 0 0 0-.1-.152" transform="translate(-481.436 -207.993)" style="fill:#fff"/>
        <path data-name="패스 12554" d="M522.826 279.738a3.721 3.721 0 0 1-.075.139q.039-.069.075-.139" transform="translate(-483.581 -258.777)" style="fill:#fff"/>
        <path data-name="패스 12555" d="m517.368 288.45-.066.082.066-.082" transform="translate(-478.54 -266.836)" style="fill:#fff"/>
        <path data-name="패스 12556" d="m520.322 284.14-.074.112.074-.112" transform="translate(-481.265 -262.849)" style="fill:#fff"/>
        <path data-name="패스 12557" d="M521.629 281.95q-.036.063-.075.125.039-.062.075-.125" transform="translate(-482.473 -260.823)" style="fill:#fff"/>
        <path data-name="패스 12558" d="m515.714 290.621-.054.062.054-.062" transform="translate(-477.021 -268.844)" style="fill:#fff"/>
        <path data-name="패스 12559" d="m110.834 220.751.064-.081a4.527 4.527 0 0 0-.064.081" transform="translate(-102.529 -204.135)" style="fill:#fff"/>
        <path data-name="패스 12560" d="M204 40.581a4 4 0 0 0-2.259 1.133l-6.04 6.04 6.04-6.04A4 4 0 0 1 204 40.581" transform="translate(-181.042 -37.54)" style="fill:#fff"/>
        <path data-name="패스 12561" d="m112.652 218.832.051-.059-.051.059" transform="translate(-104.211 -202.38)" style="fill:#fff"/>
        <path data-name="패스 12562" d="M314.5 40a4.15 4.15 0 0 1 .7.06 4.15 4.15 0 0 0-.7-.06" transform="translate(-290.934 -37.003)" style="fill:#fff"/>
        <path data-name="패스 12563" d="m515.707 218.816.071.082-.071-.082" transform="translate(-477.064 -202.42)" style="fill:#fff"/>
        <path data-name="패스 12564" d="m439.347 142.366-.013-.014-6.04-6.04 6.04 6.04.013.014" transform="translate(-400.827 -126.098)" style="fill:#fff"/>
        <path data-name="패스 12565" d="m109.223 222.708.07-.1a1.956 1.956 0 0 0-.07.1" transform="translate(-101.039 -205.931)" style="fill:#fff"/>
        <path data-name="패스 12566" d="m517.394 220.769.089.113c-.029-.038-.058-.076-.089-.113" transform="translate(-478.625 -204.227)" style="fill:#fff"/>
        <path data-name="패스 12567" d="M134.487 738.737" transform="translate(-124.41 -683.379)" style="fill:#fff"/>
        <path data-name="패스 12568" d="m35.88 28.842 4.747-4.747a7.064 7.064 0 0 0 0-9.961L28.546 2.053a7.064 7.064 0 0 0-9.961 0L6.5 14.134a7.064 7.064 0 0 0 0 9.961l4.747 4.747C4.888 30.051 0 36.327 0 43.827v5.4l7.649.018v4.933a1.5 1.5 0 0 0 1.761 1.48c1.541-.1 18.563-.042 29.776.023h.009a1.5 1.5 0 0 0 1.5-1.5v-4.9c3.9-.007 6.439-.022 6.439-.052v-5.4c0-7.5-4.888-13.776-11.252-14.985M9.942 55.453a1.508 1.508 0 0 0 .135-.1 1.5 1.5 0 0 1-.135.1m.14-.1a1.492 1.492 0 0 0 .123-.109 1.5 1.5 0 0 1-.123.109M37.7 52.675c-2.566-.014-8.031-.041-13.456-.057-2.773-.008-5.19-.012-7.226-.012h-3.1c-1.381 0-2.478.011-3.265.021v-8.19a5.551 5.551 0 0 1 5.538-5.537h15.96a5.551 5.551 0 0 1 5.549 5.541v8.234zm6.439-6.4c-.864 0-1.987.007-3.441.01v-1.844a8.552 8.552 0 0 0-8.547-8.541h-15.96a8.552 8.552 0 0 0-8.542 8.542v1.81L3 46.241v-2.414a13.675 13.675 0 0 1 .872-4.843 12.47 12.47 0 0 1 2.335-3.9 9.725 9.725 0 0 1 7.284-3.456h3.092c1.438-.075.411-1.287.411-1.287l-1.711-1.711-3.331-3.33-3.328-3.324q-.068-.068-.132-.138l-.05-.057-.073-.085-.062-.078-.052-.067-.068-.093-.038-.058-.07-.107-.028-.044q-.037-.059-.071-.12l-.018-.029q-.037-.066-.071-.133l-.01-.019c-.025-.049-.048-.1-.071-.148a4.105 4.105 0 0 1 0-3.362c.023-.051.048-.1.073-.153l.007-.015q.036-.07.074-.139l.015-.027q.036-.064.075-.126l.024-.038c.024-.038.048-.075.074-.112l.036-.051.07-.1.05-.065.064-.081.072-.084.051-.059q.064-.071.132-.139l6.04-6.04 6.04-6.04a4 4 0 0 1 2.256-1.129 4.134 4.134 0 0 1 1.3.017 4 4 0 0 1 2.161 1.116l6.04 6.04 6.04 6.04.013.014c.042.042.082.085.122.128l.071.082.056.064.088.113.029.038.1.135.014.02.1.152v.007a3.973 3.973 0 0 1 .259.5 4.1 4.1 0 0 1-.106 3.437l-.007.014q-.036.07-.075.139l-.015.027q-.036.063-.075.126l-.024.039a2.706 2.706 0 0 1-.074.112l-.035.05-.071.1-.049.063-.065.082-.069.08-.054.062q-.062.068-.127.133v.005l-6.655 6.655s-3.309 3.222 1.792 3a9.726 9.726 0 0 1 7.284 3.456 12.469 12.469 0 0 1 2.335 3.9 13.675 13.675 0 0 1 .872 4.843z" transform="translate(0 .001)" style="fill:#fff"/>
        <path data-name="패스 12569" d="M244.3 574.328h-8.579a1.616 1.616 0 1 1 0-3.222h8.579a1.616 1.616 0 1 1 0 3.222" transform="translate(-216.449 -528.312)" style="fill:#fff"/>
    </g>
</svg>
