<svg xmlns="http://www.w3.org/2000/svg" width="24" height="20.306" viewBox="0 0 24 20.306">
    <defs>
        <clipPath id="p10ljaekza">
            <path data-name="사각형 5891" style="fill:none" d="M0 0h24v20.306H0z"/>
        </clipPath>
    </defs>
    <g data-name="그룹 7324" style="clip-path:url(#p10ljaekza)">
        <g data-name="패스 12605" style="stroke-linecap:round;stroke-linejoin:round;fill:none">
            <path d="M32.953 8.9a5.123 5.123 0 1 1-1.522-7.084A5.123 5.123 0 0 1 32.953 8.9z" style="stroke:none" transform="translate(-14.828 -.63)"/>
            <path d="M28.645 9.248c1.068 0 2.05-.534 2.628-1.429.453-.7.606-1.536.43-2.351A3.102 3.102 0 0 0 30.346 3.5a3.117 3.117 0 0 0-4.319.928 3.09 3.09 0 0 0-.397 2.488 3.114 3.114 0 0 0 1.326 1.83c.507.327 1.091.5 1.69.5m0 2a5.099 5.099 0 0 1-2.776-.82 5.105 5.105 0 0 1-2.175-3.003 5.124 5.124 0 1 1 4.951 3.824z" style="fill:#fff;stroke:none" transform="translate(-14.828 -.63)"/>
        </g>
        <g data-name="패스 12606" style="stroke-linecap:round;stroke-linejoin:round;fill:none">
            <path d="M23.189 42.544a2.581 2.581 0 1 1-2.581-2.581 2.581 2.581 0 0 1 2.581 2.581z" style="stroke:none" transform="translate(-11.362 -25.189)"/>
            <path d="M20.608 43.125a.582.582 0 1 0-.001-1.163.582.582 0 0 0 .001 1.163m0 2a2.581 2.581 0 1 1 0-5.162 2.581 2.581 0 0 1 0 5.162z" style="fill:#fff;stroke:none" transform="translate(-11.362 -25.189)"/>
        </g>
        <g data-name="패스 12607" style="stroke-linecap:round;stroke-linejoin:round;fill:none">
            <path d="M45.778 42.544a2.581 2.581 0 1 1-2.578-2.581 2.581 2.581 0 0 1 2.578 2.581z" style="stroke:none" transform="translate(-25.6 -25.189)"/>
            <path d="M43.197 43.125a.582.582 0 1 0-.001-1.163.582.582 0 0 0 .001 1.163m0 2a2.581 2.581 0 1 1 0-5.162 2.581 2.581 0 0 1 0 5.162z" style="fill:#fff;stroke:none" transform="translate(-25.6 -25.189)"/>
        </g>
        <path data-name="패스 12608" d="m1 4.006 2.3.694 4.2 12.314h10.742l3.818-7.93h-4.315" transform="translate(.577 -2.525)" style="stroke-width:2px;stroke:#fff;stroke-linecap:round;stroke-linejoin:round;fill:none"/>
        <path data-name="선 595" transform="translate(7.183 6.559)" style="stroke-width:2px;stroke:#fff;stroke-linecap:round;stroke-linejoin:round;fill:none" d="M0 0h1.396"/>
        <path data-name="패스 12609" d="m30.584 11.056 1.551 1.551 2.371-2.371" transform="translate(-18.608 -6.047)" style="stroke:#fff;stroke-linecap:round;stroke-linejoin:round;fill:none"/>
    </g>
</svg>
