<svg xmlns="http://www.w3.org/2000/svg" width="19.5" height="21.5" viewBox="0 0 19.5 21.5">
    <path data-name="패스 12246" d="M7 2h9.5L21 6.5V19" style="fill:none;stroke:#fff;stroke-linecap:round;stroke-linejoin:round;stroke-width:1.5px" transform="translate(-2.25 -1.25)"/>
    <path data-name="패스 12247" d="M3 20.5v-14A1.5 1.5 0 0 1 4.5 5h9.752a.6.6 0 0 1 .424.176l3.148 3.148A.6.6 0 0 1 18 8.75V20.5a1.5 1.5 0 0 1-1.5 1.5h-12A1.5 1.5 0 0 1 3 20.5z" style="fill:none;stroke:#fff;stroke-linecap:round;stroke-linejoin:round;stroke-width:1.5px" transform="translate(-2.25 -1.25)"/>
    <path data-name="패스 12248" d="M14 5v3.4a.6.6 0 0 0 .6.6H18" style="fill:none;stroke:#fff;stroke-linecap:round;stroke-linejoin:round;stroke-width:1.5px" transform="translate(-2.25 -1.25)"/>
</svg>
