<svg xmlns="http://www.w3.org/2000/svg" width="24" height="22.477" viewBox="0 0 24 22.477">
    <defs>
        <clipPath id="civgp6hc3a">
            <path data-name="사각형 5901" style="fill:none" d="M0 0h24v22.477H0z"/>
        </clipPath>
    </defs>
    <g data-name="그룹 7330" transform="translate(0 .001)" style="clip-path:url(#civgp6hc3a)">
        <path data-name="패스 12613" d="M19.033 34.546a5.85 5.85 0 1 1 5.85-5.85 5.857 5.857 0 0 1-5.85 5.85m0-10.7a4.85 4.85 0 1 0 4.85 4.85 4.856 4.856 0 0 0-4.85-4.85" transform="translate(-7.035 -12.887)" style="stroke:#fff;stroke-width:.2px;fill:#fff"/>
        <path data-name="패스 12614" d="m34.636 11.655-.131-.992a4.851 4.851 0 0 0 .616-9.494 4.854 4.854 0 0 0-5.194 1.854l-.813-.583a5.851 5.851 0 0 1 10.4 4.928 5.856 5.856 0 0 1-4.88 4.287" transform="translate(-16.591 .817)" style="stroke:#fff;stroke-width:.2px;fill:#fff"/>
        <g data-name="패스 12615" style="fill:#fff">
            <path d="m5.157 11.766-.1-.014A5.958 5.958 0 0 1 .696 2.878 5.91 5.91 0 0 1 4.31.106 5.987 5.987 0 0 1 5.86-.1c1.034 0 2.06.277 2.965.8a5.918 5.918 0 0 1 2.429 7.646l-.042.09-.09-.042-.909-.42-.09-.041.041-.091A4.723 4.723 0 0 0 8.224 1.74a4.74 4.74 0 0 0-6.488 1.738 4.756 4.756 0 0 0 3.48 7.084l.1.013-.013.1-.133.991-.013.1z" style="stroke:none" transform="translate(.873 .817)"/>
            <path d="m5.071 11.653.133-.992A4.857 4.857 0 0 1 1.65 3.428a4.818 4.818 0 0 1 2.944-2.26 4.816 4.816 0 0 1 3.68.486 4.823 4.823 0 0 1 1.98 6.23l.908.42A5.818 5.818 0 0 0 8.774.787 5.809 5.809 0 0 0 4.335.202 5.81 5.81 0 0 0 .783 2.928a5.858 5.858 0 0 0 4.288 8.725m.172.225-.198-.027A6.058 6.058 0 0 1 .61 2.828 6.01 6.01 0 0 1 4.284.01 6.087 6.087 0 0 1 5.859-.2c1.051 0 2.094.282 3.015.814a6.017 6.017 0 0 1 2.47 7.774l-.084.181-1.272-.588.084-.181a4.624 4.624 0 0 0-1.898-5.973 4.64 4.64 0 0 0-6.352 1.701 4.656 4.656 0 0 0 3.408 6.935l.198.026-.185 1.389z" style="fill:#fff;stroke:none" transform="translate(.873 .817)"/>
        </g>
        <path data-name="패스 12616" d="M24.578 43.149a3.451 3.451 0 0 1-2.448-1.013l.763-.763a2.387 2.387 0 0 0 3.372 0l.763.763a3.452 3.452 0 0 1-2.449 1.013" transform="translate(-12.58 -23.52)" style="fill:#fff"/>
        <path data-name="사각형 5895" transform="translate(9.807 14.19)" style="fill:#fff" d="M0 0h1.079v1.355H0z"/>
        <path data-name="사각형 5896" transform="translate(13.11 14.19)" style="fill:#fff" d="M0 0h1.079v1.355H0z"/>
        <path data-name="패스 12617" d="M11.207 20.053a3.44 3.44 0 0 1-2.449-1.015l.763-.763a2.384 2.384 0 0 0 3.371 0l.763.763a3.44 3.44 0 0 1-2.449 1.015" transform="translate(-4.48 -10.39)" style="fill:#fff"/>
        <path data-name="사각형 5897" transform="translate(4.536 4.222)" style="fill:#fff" d="M0 0h1.079v1.355H0z"/>
        <path data-name="사각형 5898" transform="translate(7.84 4.222)" style="fill:#fff" d="M0 0h1.079v1.355H0z"/>
        <path data-name="패스 12618" d="M37.948 20.053a3.439 3.439 0 0 1-2.448-1.015l.763-.763a2.384 2.384 0 0 0 3.371 0l.763.763a3.44 3.44 0 0 1-2.449 1.015" transform="translate(-20.5 -10.39)" style="fill:#fff"/>
        <path data-name="사각형 5899" transform="translate(18.561 4.222)" style="fill:#fff" d="M0 0h1.079v1.355H0z"/>
        <path data-name="사각형 5900" transform="translate(15.258 4.222)" style="fill:#fff" d="M0 0h1.079v1.355H0z"/>
    </g>
</svg>
