<svg xmlns="http://www.w3.org/2000/svg" width="15.5" height="19" viewBox="0 0 15.5 19">
    <defs>
        <clipPath id="mgckfkg0oa">
            <path data-name="사각형 6709" style="fill:none" d="M0 0h15.5v19H0z"/>
        </clipPath>
    </defs>
    <g data-name="그룹 7937" style="clip-path:url(#mgckfkg0oa)">
        <path data-name="패스 12366" d="M15.317.185a.62.62 0 0 0-.882 0l-3 3.028a3.468 3.468 0 0 0-6.766 1.109v4.086a3.5 3.5 0 0 0 .277 1.349l-1.06 1.07A4.666 4.666 0 0 1 3.525 9.1a.692.692 0 1 0-1.384 0 6.053 6.053 0 0 0 .691 2.791l-2.65 2.671a.632.632 0 0 0 0 .889.619.619 0 0 0 .882 0L15.317 1.074a.633.633 0 0 0 0-.889M6.049 8.408V4.32a2.087 2.087 0 1 1 4.174 0v.113l-4.162 4.2a2.113 2.113 0 0 1-.013-.223" style="fill:#fff"/>
        <path data-name="패스 12367" d="M33.018 54.126a.692.692 0 1 0-1.384 0 4.635 4.635 0 0 1-4.684 4.588 4.57 4.57 0 0 1-2.647-.891.706.706 0 0 0-.512-.221.72.72 0 0 0-.5 1.233l.035.026a.736.736 0 0 0 .1.071 5.928 5.928 0 0 0 2.901 1.168v2.54h-3.275a.694.694 0 0 0 0 1.388h7.934a.694.694 0 0 0 0-1.388H27.71V60.1a6.017 6.017 0 0 0 5.308-5.972" transform="translate(-18.877 -45.027)" style="fill:#fff"/>
        <path data-name="패스 12368" d="M42.067 49.136h.007c.04.021 0 0 .1.037a3.432 3.432 0 0 0 1.1.18 3.479 3.479 0 0 0 3.476-3.478v-.716a.694.694 0 0 0-1.387-.021v.737a2.085 2.085 0 0 1-2.5 2.064.721.721 0 0 0-.51-.212.732.732 0 0 0-.33 1.383l.042.021" transform="translate(-35.14 -37.47)" style="fill:#fff"/>
    </g>
</svg>
