<svg xmlns="http://www.w3.org/2000/svg" width="42" height="42" viewBox="0 0 42 42">
    <defs>
        <clipPath id="5b0mvisw2a">
            <path data-name="사각형 3409" style="stroke:#c1c8db;fill:none" d="M0 0h14.29v12.438H0z"/>
        </clipPath>
    </defs>
    <g data-name="그룹 7669">
        <g data-name="그룹 4028">
            <g data-name="그룹 4012">
                <g data-name="그룹 4011">
                    <g data-name="그룹 4002">
                        <path data-name="패스 1172" d="M8.938 0A8.939 8.939 0 1 1 0 8.939 8.939 8.939 0 0 1 8.938 0z" transform="translate(20.995 20.48)" style="fill:#fff"/>
                        <g data-name="그룹 3991">
                            <path data-name="합치기 20" d="M3.514 9.363V5.851H0V3.512h3.514V0h2.341v3.512h3.507v2.34H5.855v3.511z" transform="translate(25.253 24.737)" style="fill:#fff"/>
                        </g>
                        <g data-name="그룹 3995">
                            <path data-name="패스 1172" d="M8.938 0A8.939 8.939 0 1 1 0 8.939 8.939 8.939 0 0 1 8.938 0z" transform="translate(20.995 20.48)" style="fill:#fff"/>
                        </g>
                    </g>
                </g>
                <path data-name="패스 1180" d="M19841.984 11370.332a1.466 1.466 0 0 1-1.051-.445l-2.668-2.771a1.457 1.457 0 0 1 2.1-2.021l1.664 1.727 4.629-4.41a1.455 1.455 0 1 1 2.008 2.107l-5.676 5.41a1.443 1.443 0 0 1-1.006.403z" transform="translate(-19813.334 -11336.907)" style="fill:#2a2d3e"/>
            </g>
            <path data-name="제외 1" d="M4474.99-609.533h-24.468a5.607 5.607 0 0 1-5.646-5.554V-629.5a2.8 2.8 0 0 1 2.818-2.785h6.711v-3.553a1.206 1.206 0 0 1 .036-.295 9.135 9.135 0 0 1 2.928-5.917 9.126 9.126 0 0 1 6.193-2.418 9.128 9.128 0 0 1 6.194 2.418 9.134 9.134 0 0 1 2.929 5.917 1.25 1.25 0 0 1 .037.295v3.553h5.085a2.8 2.8 0 0 1 2.814 2.785v14.41a5.6 5.6 0 0 1-5.631 5.557zm-5.975-22.75v4.21a1.7 1.7 0 0 0 1.853 1.48 1.7 1.7 0 0 0 1.854-1.48v-4.209h-3.708zm-14.61 0v4.21a1.7 1.7 0 0 0 1.852 1.48 1.7 1.7 0 0 0 1.854-1.48v-4.209h10.9v-3.345a5.458 5.458 0 0 0-5.453-5.452 5.458 5.458 0 0 0-5.452 5.452v3.345z" transform="translate(-4441.752 644.932)" style="fill:#fff"/>
            <g data-name="그룹 4013">
                <g data-name="그룹 4011">
                    <g data-name="그룹 4002">
                        <path data-name="패스 1172" d="M8.938 0A8.939 8.939 0 1 1 0 8.939 8.939 8.939 0 0 1 8.938 0z" transform="translate(20.996 21.937)" style="fill:#fff"/>
                        <g data-name="그룹 3991">
                            <path data-name="합치기 20" d="M3.514 9.363V5.851H0V3.512h3.514V0h2.341v3.512h3.507v2.34H5.855v3.511z" transform="translate(25.254 26.194)" style="fill:#fff"/>
                        </g>
                        <g data-name="그룹 3995">
                            <path data-name="패스 1172" d="M8.938 0A8.939 8.939 0 1 1 0 8.939 8.939 8.939 0 0 1 8.938 0z" transform="translate(20.996 21.937)" style="fill:#fff"/>
                        </g>
                    </g>
                    <path data-name="패스 1178" d="M9.623.684a8.939 8.939 0 1 0 8.938 8.939A8.939 8.939 0 0 0 9.623.684m0-2.184A11.124 11.124 0 1 1-1.5 9.624 11.136 11.136 0 0 1 9.623-1.5z" transform="translate(20.312 21.253)" style="fill:#c1c8db"/>
                </g>
                <g data-name="그룹 4047">
                    <g data-name="그룹 4046" transform="translate(22.194 25.534)" style="clip-path:url(#5b0mvisw2a)">
                        <path data-name="패스 11295" d="m2 8.821 2.348.513L6.7 7.5l2.343 1.835 2.348-6.38" transform="translate(.1 -.635)" style="stroke-linecap:round;stroke-linejoin:round;stroke-width:2.5px;stroke:#c1c8db;fill:none"/>
                        <path data-name="패스 11296" d="M52.451 2.146 54.138 2l.88 1.467" transform="translate(-42.611 .1)" style="stroke-linecap:round;stroke-linejoin:round;stroke-width:2.5px;stroke:#c1c8db;fill:none"/>
                    </g>
                </g>
            </g>
        </g>
    </g>
</svg>
