<svg xmlns="http://www.w3.org/2000/svg" width="44" height="37.657" viewBox="0 0 44 37.657">
    <defs>
        <clipPath id="loo9mmog3a">
            <path data-name="사각형 3410" style="stroke:#fff;fill:none" d="M0 0h37.717v29.773H0z"/>
        </clipPath>
        <clipPath id="0f6jpaxibb">
            <path data-name="사각형 3409" style="stroke:#3c71fd;fill:none" d="M0 0h14.29v12.438H0z"/>
        </clipPath>
    </defs>
    <g data-name="그룹 7656">
        <g data-name="그룹 4048" style="clip-path:url(#loo9mmog3a)">
            <path data-name="패스 11297" d="M28.908 69.664v1.809h-3.527a.842.842 0 0 0-.847.83v.044a.841.841 0 0 0 .847.83h17.166a.841.841 0 0 0 .847-.83V72.3a.842.842 0 0 0-.847-.83H38.6v-1.806z" transform="translate(-15.106 -43.405)" style="fill:#fff"/>
            <path data-name="패스 11298" d="M0 53.972v2.843a1.96 1.96 0 0 0 2.1 1.759h33.511a1.963 1.963 0 0 0 2.106-1.759v-4.082H0z" transform="translate(0 -32.856)" style="stroke:#c1c8db;fill:#fff"/>
            <path data-name="패스 11300" d="M39.85 5.154a2.384 2.384 0 0 0-1.75-.766H6.7a2.323 2.323 0 0 0-2.359 2.27v14.008h36.12V6.658a2.207 2.207 0 0 0-.608-1.5" transform="translate(-3.468 -3.449)" style="fill:#fff;stroke:#fff"/>
        </g>
        <g data-name="그룹 4050">
            <g data-name="그룹 4011">
                <g data-name="그룹 4002">
                    <path data-name="패스 1172" d="M8.938 17.879A8.939 8.939 0 1 0 0 8.939a8.939 8.939 0 0 0 8.938 8.94z" transform="translate(23.939 17.594)" style="fill:#fff"/>
                    <g data-name="그룹 3991">
                        <path data-name="합치기 20" d="M3.514 0v3.512H0v2.34h3.514v3.511h2.341V5.852h3.507v-2.34H5.855V0z" transform="translate(28.197 21.852)" style="fill:#fff"/>
                    </g>
                    <g data-name="그룹 3995">
                        <path data-name="패스 1172" d="M8.938 17.879A8.939 8.939 0 1 0 0 8.939a8.939 8.939 0 0 0 8.938 8.94z" transform="translate(23.939 17.594)" style="fill:#fff"/>
                    </g>
                </g>
                <path data-name="패스 1178" d="M9.623 18.563a8.939 8.939 0 1 1 8.938-8.939 8.939 8.939 0 0 1-8.938 8.939m0 2.184A11.124 11.124 0 1 0-1.5 9.624 11.136 11.136 0 0 0 9.623 20.748z" transform="translate(23.255 16.91)" style="fill:#3c71fd"/>
            </g>
            <g data-name="그룹 4047">
                <g data-name="그룹 4046" style="clip-path:url(#0f6jpaxibb)" transform="translate(25.137 19.439)">
                    <path data-name="패스 11295" d="m2 3.468 2.348-.513L6.7 4.788l2.344-1.833 2.348 6.38" transform="translate(.1 .783)" style="stroke-linecap:round;stroke-linejoin:round;stroke-width:2.5px;stroke:#3c71fd;fill:none"/>
                    <path data-name="패스 11296" d="m52.451 3.32 1.687.147.88-1.467" transform="translate(-42.611 6.872)" style="stroke-linecap:round;stroke-linejoin:round;stroke-width:2.5px;stroke:#3c71fd;fill:none"/>
                </g>
            </g>
        </g>
    </g>
</svg>
