<svg xmlns="http://www.w3.org/2000/svg" width="20" height="17.668" viewBox="0 0 20 17.668">
    <defs>
        <clipPath id="ndq1f18x6a">
            <path data-name="사각형 5937" style="fill:none" d="M0 0h20v17.668H0z"/>
        </clipPath>
    </defs>
    <g data-name="그룹 7387" style="clip-path:url(#ndq1f18x6a)">
        <path data-name="패스 12647" d="M12.045 15.825a.728.728 0 0 1 0-1.456l3.752-.005a.728.728 0 0 1 0 1.456l-3.752.005z" style="fill:#07e6ff"/>
        <path data-name="패스 12648" d="M4.22 15.834a.728.728 0 0 1 0-1.456l3.751-.005a.728.728 0 0 1 0 1.456H4.22z" style="fill:#07e6ff"/>
        <path data-name="사각형 5936" d="M.728 0a.727.727 0 0 1 .727.727v3.7a.728.728 0 0 1-.728.728A.727.727 0 0 1 0 4.426V.728A.728.728 0 0 1 .728 0z" transform="translate(9.199 8.918)" style="fill:#07e6ff"/>
        <path data-name="패스 12649" d="M9.9 17.659a2.373 2.373 0 0 1 0-4.746 2.376 2.376 0 0 1 2.372 2.37A2.373 2.373 0 0 1 9.9 17.659zm0-3.29a.835.835 0 0 0-.649.269.918.918 0 1 0 .649-.269" style="fill:#07e6ff"/>
        <path data-name="패스 12650" d="M2.373 17.667a2.373 2.373 0 0 1 0-4.746 2.373 2.373 0 0 1 0 4.746zm0-3.29a.918.918 0 0 0 0 1.835.918.918 0 0 0 .647-1.567.91.91 0 0 0-.648-.268" style="fill:#07e6ff"/>
        <path data-name="패스 12651" d="M17.627 17.65a2.373 2.373 0 0 1 0-4.746A2.377 2.377 0 0 1 20 15.275a2.373 2.373 0 0 1-2.37 2.375zm0-3.29a.918.918 0 1 0 .651 1.565.909.909 0 0 0 .267-.648.918.918 0 0 0-.917-.917" style="fill:#07e6ff"/>
        <path data-name="패스 12652" d="M14.366 10.022H5.634a1.18 1.18 0 0 1-1.179-1.18V1.179A1.18 1.18 0 0 1 5.634 0h2.5a1.461 1.461 0 0 1 1.3.862l.525 1.247h4.409a1.182 1.182 0 0 1 1.18 1.18v5.553a1.182 1.182 0 0 1-1.18 1.18M5.91 8.566h8.18v-5H9.474A.729.729 0 0 1 8.8 3.12l-.7-1.664H5.91zm8.456-5z" style="fill:#07e6ff"/>
    </g>
</svg>
