<svg xmlns="http://www.w3.org/2000/svg" width="60" height="60" viewBox="0 0 60 60">
    <g data-name="그룹 7858" transform="translate(-1618.5 -422)">
        <rect data-name="사각형 6563" width="60" height="60" rx="15" transform="translate(1618.5 422)" style="fill:#07e6ff"/>
        <path d="M-10971.368-10499.257a8.694 8.694 0 0 1 8.687-8.686 8.694 8.694 0 0 1 8.682 8.686 8.694 8.694 0 0 1-8.682 8.688 8.694 8.694 0 0 1-8.687-8.688zm5.073.448a1.115 1.115 0 0 0-.335.807 1.123 1.123 0 0 0 .335.809l3.063 3.067a1.123 1.123 0 0 0 .809.335 1.112 1.112 0 0 0 .812-.335l3.067-3.067a1.145 1.145 0 0 0 0-1.615 1.135 1.135 0 0 0-.81-.334 1.133 1.133 0 0 0-.808.334l-1.114 1.114v-5.883a1.148 1.148 0 0 0-1.147-1.147 1.145 1.145 0 0 0-1.138 1.147v5.883l-1.12-1.114a1.121 1.121 0 0 0-.81-.334 1.116 1.116 0 0 0-.804.333zm-2.739 7.622h-11.422a3.353 3.353 0 0 1-3.107-1.784 3.43 3.43 0 0 1 .166-3.609l7.981-12.669v-4.429h-1.771v-2.32h11.187v2.32h-1.771v4.429l.5.8a10.208 10.208 0 0 0-1.951 1.271l-.661-1.054a1.449 1.449 0 0 1-.222-.766v-4.684h-2.987v4.618a1.7 1.7 0 0 1-.255.892l-3.836 6.067h4.628a10.3 10.3 0 0 0-.4 2.841 10.223 10.223 0 0 0 3.917 8.067v.006z" transform="translate(12617.5 10954.998)" style="fill:#0a072b"/>
    </g>
</svg>
