<svg xmlns="http://www.w3.org/2000/svg" width="41" height="41" viewBox="0 0 41 41">
    <g data-name="그룹 4558">
        <path data-name="사각형 3403" style="opacity:.97;fill:none" d="M0 0h41v41H0z"/>
        <g data-name="그룹 4022">
            <g data-name="그룹 3980" transform="translate(2.029 4.093)">
                <path data-name="Icon awesome-shopping-basket" d="M36.543 13.924v1.015a1.523 1.523 0 0 1-1.523 1.523h-.508l-1.657 11.6a3.045 3.045 0 0 1-3.015 2.615H6.7a3.045 3.045 0 0 1-3.015-2.615L2.03 16.461h-.507A1.523 1.523 0 0 1 0 14.939v-1.015A1.523 1.523 0 0 1 1.523 12.4h4.272l6.774-9.315a2.03 2.03 0 1 1 3.284 2.388L10.816 12.4h14.912L20.69 5.474a2.03 2.03 0 0 1 3.284-2.388l6.774 9.314h4.272a1.523 1.523 0 0 1 1.523 1.524zM19.794 25.09v-7.106a1.523 1.523 0 0 0-3.045 0v7.106a1.523 1.523 0 1 0 3.045 0zm7.106 0v-7.106a1.523 1.523 0 0 0-3.045 0v7.106a1.523 1.523 0 1 0 3.045 0zm-14.211 0v-7.106a1.523 1.523 0 0 0-3.045 0v7.106a1.523 1.523 0 1 0 3.045 0z" transform="translate(0 -1.339)" style="fill:#fff"/>
                <rect data-name="사각형 4738" width="36.9" height="4.116" rx="1.5" transform="translate(0 11.007)" style="fill:#07e6ff"/>
                <rect data-name="사각형 3349" width="4.353" height="16.037" rx="2.176" transform="rotate(36 6.782 20.896)" style="fill:#fff"/>
                <rect data-name="사각형 3350" width="4.353" height="16.038" rx="2.176" transform="rotate(144 13.986 11.719)" style="fill:#fff"/>
            </g>
            <path data-name="빼기 1 - 윤곽선" d="M18.512 20.543a.915.915 0 0 0 .655-.273l1.1-1.1a.936.936 0 0 0 0-1.317L16.405 14a.924.924 0 0 0-.658-.271h-.631A8.057 8.057 0 0 0 8.765.711a8.057 8.057 0 0 0-5.7 13.753 8.058 8.058 0 0 0 10.653.655v.631a.924.924 0 0 0 .271.658l3.86 3.861a.925.925 0 0 0 .658.273M8.765 2.192a6.575 6.575 0 1 1-6.573 6.575 6.582 6.582 0 0 1 6.573-6.575m9.746 20.561a3.121 3.121 0 0 1-2.221-.921l-3.579-3.581a10.293 10.293 0 0 1-11.2-2.225 10.27 10.27 0 0 1 0-14.52 10.267 10.267 0 0 1 14.519 0 10.3 10.3 0 0 1 2.225 11.206l3.583 3.588a3.152 3.152 0 0 1-.012 4.436l-1.094 1.094a3.11 3.11 0 0 1-2.22.923zM8.765 4.4a4.364 4.364 0 1 0 4.363 4.364A4.368 4.368 0 0 0 8.765 4.4z" transform="translate(18.038 18.05)" style="fill:none"/>
        </g>
        <g data-name="패스 1306" style="fill:#fff">
            <path d="M8.136 17.272C3.098 17.272-1 13.173-1 8.136-1 3.098 3.098-1 8.136-1c5.037 0 9.136 4.098 9.136 9.136 0 5.037-4.099 9.136-9.136 9.136z" style="stroke:none" transform="translate(22.719 22.721)"/>
            <path d="M8.136 0a8.136 8.136 0 1 0 0 16.272A8.136 8.136 0 0 0 8.136 0m0-2c5.589 0 10.136 4.547 10.136 10.136 0 5.589-4.547 10.136-10.136 10.136C2.546 18.272-2 13.725-2 8.136-2 2.546 2.547-2 8.136-2z" style="fill:#133b6d;stroke:none" transform="translate(22.719 22.721)"/>
        </g>
        <g data-name="그룹 4559">
            <path data-name="합치기 20" d="M2.858 7.613V4.758H0v-1.9h2.858V0h1.9v2.855h2.855v1.9H4.761v2.858z" transform="translate(27.047 27.051)" style="fill:#133b6d"/>
        </g>
    </g>
</svg>
