<svg xmlns="http://www.w3.org/2000/svg" width="38.145" height="38.145" viewBox="0 0 38.145 38.145">
    <path data-name="패스 494" d="M0 0h38.145v38.145H0z" style="fill:none"/>
    <g data-name="그룹 2475">
        <path data-name="사각형 697" d="M989.526 570.985v6.115a.675.675 0 0 1-.676.675h-18.613a.677.677 0 0 1-.677-.677v-18.839a.677.677 0 0 1 .677-.677h7.148" transform="translate(-961.328 -547.452)" style="stroke-width:1.5px;stroke:#fff;stroke-linecap:round;stroke-miterlimit:10;fill:none"/>
        <path data-name="패스 903" d="m981.009 570.393-6.818 1.417 1.338-6.9 9.173-9.173a1.629 1.629 0 0 1 2.3 0l3.176 3.178a1.627 1.627 0 0 1 0 2.3z" transform="translate(-958.792 -548.794)" style="stroke:#07e6ff;stroke-linejoin:round;stroke-width:1.5px;fill:none"/>
    </g>
</svg>
