<svg xmlns="http://www.w3.org/2000/svg" width="25" height="25" viewBox="0 0 25 25">
    <g data-name="그룹 4569" transform="translate(-501.429 -549)">
        <ellipse data-name="타원 156" cx="8.115" cy="7.928" rx="8.115" ry="7.928" transform="translate(505.814 553.795)" style="fill:#fff"/>
        <path d="M11.03 37.065a3.1 3.1 0 0 1 .331-.016 3.787 3.787 0 1 1-3.787 3.787 3.106 3.106 0 0 1 .016-.331 2.9 2.9 0 0 0 1.247.331 2.527 2.527 0 0 0 2.525-2.525 2.9 2.9 0 0 0-.332-1.246zm7.929-1.886a15.283 15.283 0 0 1 3.665 5.172 1.255 1.255 0 0 1 0 .97 16 16 0 0 1-3.665 5.172 11.1 11.1 0 0 1-7.6 3.18 11.1 11.1 0 0 1-7.6-3.18A16.056 16.056 0 0 1 .1 41.322a1.261 1.261 0 0 1 0-.97 15.339 15.339 0 0 1 3.664-5.172 11.1 11.1 0 0 1 7.6-3.18 11.108 11.108 0 0 1 7.6 3.18zm-7.6-.024a5.681 5.681 0 1 0 5.681 5.681 5.682 5.682 0 0 0-5.679-5.68z" transform="translate(502.568 520.886)" style="fill:#07e6ff"/>
    </g>
</svg>
