<svg xmlns="http://www.w3.org/2000/svg" xmlns:xlink="http://www.w3.org/1999/xlink" width="73" height="67" viewBox="0 0 73 67">
  <defs>
    <style>
      .cls-1, .cls-3 {
        fill: #fff;
      }

      .cls-1, .cls-2 {
        stroke: #2d3346;
      }

      .cls-2 {
        fill: #212332;
      }

      .cls-4 {
        fill: #4299e1;
      }

      .cls-5 {
        fill: #8ec5f2;
      }

      .cls-6, .cls-7 {
        fill: none;
      }

      .cls-7 {
        stroke: #707070;
        opacity: 0;
      }

      .cls-8 {
        stroke: none;
      }

      .cls-9 {
        filter: url(#사각형_3419);
      }

      .cls-10 {
        filter: url(#사각형_3415);
      }
    </style>
    <filter id="사각형_3415" x="0" y="2" width="73" height="64" filterUnits="userSpaceOnUse">
      <feOffset dy="3" input="SourceAlpha"/>
      <feGaussianBlur stdDeviation="5" result="blur"/>
      <feFlood flood-color="#071754" flood-opacity="0.502"/>
      <feComposite operator="in" in2="blur"/>
      <feComposite in="SourceGraphic"/>
    </filter>
    <filter id="사각형_3419" x="13.998" y="25" width="45" height="39" filterUnits="userSpaceOnUse">
      <feOffset dy="3" input="SourceAlpha"/>
      <feGaussianBlur stdDeviation="3" result="blur-2"/>
      <feFlood flood-color="#00437a" flood-opacity="0.502"/>
      <feComposite operator="in" in2="blur-2"/>
      <feComposite in="SourceGraphic"/>
    </filter>
  </defs>
  <g id="noty_ico_hover" transform="translate(-17645 -20272)">
    <g id="그룹_4508" data-name="그룹 4508" transform="translate(17477.582 20263)">
      <g id="그룹_4503" data-name="그룹 4503" transform="translate(182.418 20)">
        <g id="그룹_4494" data-name="그룹 4494">
          <g class="cls-10" transform="matrix(1, 0, 0, 1, -15, -11)">
            <g id="사각형_3415-2" data-name="사각형 3415" class="cls-1" transform="translate(15 14)">
              <path class="cls-8" d="M0,0H43a0,0,0,0,1,0,0V31a3,3,0,0,1-3,3H3a3,3,0,0,1-3-3V0A0,0,0,0,1,0,0Z"/>
              <path class="cls-6" d="M.5.5h42a0,0,0,0,1,0,0V31A2.5,2.5,0,0,1,40,33.5H3A2.5,2.5,0,0,1,.5,31V.5A0,0,0,0,1,.5.5Z"/>
            </g>
          </g>
          <g id="사각형_3416" data-name="사각형 3416" class="cls-2" transform="translate(0 0)">
            <path class="cls-8" d="M3,0H40a3,3,0,0,1,3,3V16a0,0,0,0,1,0,0H0a0,0,0,0,1,0,0V3A3,3,0,0,1,3,0Z"/>
            <path class="cls-6" d="M3,.5H40A2.5,2.5,0,0,1,42.5,3V15.5a0,0,0,0,1,0,0H.5a0,0,0,0,1,0,0V3A2.5,2.5,0,0,1,3,.5Z"/>
          </g>
          <g id="그룹_4051" data-name="그룹 4051" transform="translate(6 6)">
            <circle id="타원_52" data-name="타원 52" class="cls-3" cx="2.5" cy="2.5" r="2.5" transform="translate(0 0)"/>
            <rect id="사각형_3417" data-name="사각형 3417" class="cls-3" width="22" height="5" rx="2.5" transform="translate(9 0)"/>
          </g>
        </g>
        <g id="그룹_4495" data-name="그룹 4495" transform="translate(7.998 20)">
          <g class="cls-9" transform="matrix(1, 0, 0, 1, -23, -31)">
            <rect id="사각형_3419-2" data-name="사각형 3419" class="cls-4" width="27" height="21" rx="1" transform="translate(23 31)"/>
          </g>
          <rect id="사각형_3420" data-name="사각형 3420" class="cls-5" width="15" height="3" rx="1.5" transform="translate(6 6)"/>
          <rect id="사각형_3421" data-name="사각형 3421" class="cls-5" width="10" height="3" rx="1.5" transform="translate(6 12)"/>
        </g>
      </g>
      <rect id="사각형_3715" data-name="사각형 3715" class="cls-6" width="50" height="50" transform="translate(178.418 17)"/>
    </g>
    <g id="사각형_3837" data-name="사각형 3837" class="cls-7" transform="translate(17646 20272)">
      <rect class="cls-8" width="70" height="67"/>
      <rect class="cls-6" x="0.5" y="0.5" width="69" height="66"/>
    </g>
  </g>
</svg>
