<svg xmlns="http://www.w3.org/2000/svg" width="46" height="46" viewBox="0 0 46 46">
    <g data-name="그룹 4031">
        <g data-name="그룹 4022">
            <g data-name="그룹 3980" transform="translate(.621 3.586)">
                <path data-name="Icon awesome-shopping-basket" d="M40.165 15.562v1.158a1.706 1.706 0 0 1-1.674 1.736h-.558l-1.82 13.224a3.39 3.39 0 0 1-3.313 2.982H7.366a3.39 3.39 0 0 1-3.314-2.982L2.231 18.456h-.557A1.706 1.706 0 0 1 0 16.719v-1.157a1.706 1.706 0 0 1 1.674-1.736h4.7L13.815 3.2a2.18 2.18 0 0 1 3.117-.511 2.372 2.372 0 0 1 .492 3.234l-5.537 7.9h16.39l-5.537-7.9a2.372 2.372 0 0 1 .492-3.234 2.18 2.18 0 0 1 3.118.511l7.45 10.626h4.7a1.706 1.706 0 0 1 1.665 1.736zM21.756 28.295v-8.1a1.675 1.675 0 1 0-3.347 0v8.1a1.675 1.675 0 1 0 3.347 0zm7.81 0v-8.1a1.675 1.675 0 1 0-3.347 0v8.1a1.675 1.675 0 1 0 3.347 0zm-15.62 0v-8.1a1.675 1.675 0 1 0-3.347 0v8.1a1.675 1.675 0 1 0 3.347 0z" transform="translate(0 -1.211)" style="fill:#fff"/>
                <rect data-name="사각형 3349" width="4.964" height="18.287" rx="1" transform="rotate(36 7.735 23.828)" style="fill:#fff"/>
                <rect data-name="사각형 3350" width="4.964" height="18.289" rx="1" transform="rotate(144 15.196 13.119)" style="fill:#fff"/>
            </g>
            <path data-name="빼기 1" d="M20.3 22.615a1.055 1.055 0 0 1-.75-.311l-4.4-4.4a1.054 1.054 0 0 1-.309-.751v-.72A9.186 9.186 0 0 1 0 9.187a9.185 9.185 0 0 1 15.68-6.5 9.192 9.192 0 0 1 .747 12.15h.72a1.054 1.054 0 0 1 .751.309l4.4 4.4a1.067 1.067 0 0 1 0 1.5l-1.25 1.25a1.044 1.044 0 0 1-.748.319zM9.185 1.689a7.5 7.5 0 1 0 7.5 7.5 7.505 7.505 0 0 0-7.5-7.5z" transform="translate(20.251 20.265)" style="fill:#fff"/>
            <path data-name="빼기 1 - 윤곽선" d="M21.32 23.636a1.044 1.044 0 0 0 .747-.311l1.25-1.25a1.067 1.067 0 0 0 0-1.5l-4.4-4.4a1.054 1.054 0 0 0-.751-.309h-.72a9.187 9.187 0 0 0-7.242-14.84A9.188 9.188 0 0 0 3.711 16.7a9.188 9.188 0 0 0 12.148.747v.72a1.054 1.054 0 0 0 .309.751l4.4 4.4a1.055 1.055 0 0 0 .75.311M10.206 2.71a7.5 7.5 0 1 1-7.5 7.5 7.505 7.505 0 0 1 7.5-7.5M21.32 26.157a3.559 3.559 0 0 1-2.533-1.05l-4.082-4.083a11.737 11.737 0 0 1-12.777-2.538 11.711 11.711 0 0 1 0-16.558 11.708 11.708 0 0 1 16.556 0 11.741 11.741 0 0 1 2.537 12.779l4.092 4.093a3.594 3.594 0 0 1-.013 5.058L23.853 25.1a3.547 3.547 0 0 1-2.533 1.057zM10.206 5.231a4.976 4.976 0 1 0 4.975 4.977 4.981 4.981 0 0 0-4.975-4.977z" transform="translate(19.23 19.244)" style="fill:none"/>
        </g>
        <g data-name="Icon awesome-search" style="fill:#4299e1">
            <path d="M20.3 23.365a1.8 1.8 0 0 1-1.281-.53l-4.403-4.404a1.797 1.797 0 0 1-.42-.66 9.834 9.834 0 0 1-5.011 1.352 9.87 9.87 0 0 1-7.026-2.91A9.873 9.873 0 0 1-.75 9.187 9.872 9.872 0 0 1 2.16 2.16 9.87 9.87 0 0 1 9.184-.75a9.87 9.87 0 0 1 7.025 2.91 9.872 9.872 0 0 1 2.91 7.027c0 1.79-.464 3.5-1.351 5.011.245.09.47.231.659.42l4.402 4.404c.703.71.7 1.858-.004 2.562l-1.25 1.25a1.785 1.785 0 0 1-1.277.531zM9.184 4.283a4.908 4.908 0 0 0-4.902 4.904c0 2.703 2.199 4.903 4.902 4.903 2.703 0 4.902-2.2 4.902-4.903 0-2.704-2.199-4.904-4.902-4.904z" style="stroke:none" transform="translate(20.251 20.264)"/>
            <path d="M20.3 22.615c.27 0 .54-.104.746-.311l1.25-1.25a1.065 1.065 0 0 0 .004-1.502l-4.403-4.403a1.059 1.059 0 0 0-.75-.31h-.72a9.143 9.143 0 0 0 1.943-5.652A9.184 9.184 0 0 0 9.185 0 9.184 9.184 0 0 0 0 9.187a9.184 9.184 0 0 0 9.185 9.186 9.139 9.139 0 0 0 5.652-1.943v.72c0 .282.11.552.31.75l4.402 4.404c.208.207.48.311.75.311M9.185 3.533a5.65 5.65 0 0 1 5.652 5.654 5.65 5.65 0 0 1-5.652 5.653 5.65 5.65 0 0 1-5.652-5.653 5.65 5.65 0 0 1 5.652-5.654m11.114 20.582a2.544 2.544 0 0 1-1.81-.75l-4.403-4.404a2.595 2.595 0 0 1-.17-.186 10.6 10.6 0 0 1-4.731 1.098 10.615 10.615 0 0 1-7.556-3.13A10.618 10.618 0 0 1-1.5 9.187c0-2.855 1.111-5.54 3.13-7.557A10.615 10.615 0 0 1 9.184-1.5c2.855 0 5.538 1.111 7.556 3.13a10.618 10.618 0 0 1 3.129 7.557c0 1.67-.376 3.275-1.098 4.732.064.053.126.11.186.17l4.408 4.408a2.57 2.57 0 0 1-.01 3.617l-1.249 1.25a2.532 2.532 0 0 1-1.808.751zM9.185 5.033a4.157 4.157 0 0 0-4.152 4.154 4.157 4.157 0 0 0 4.152 4.153 4.157 4.157 0 0 0 4.152-4.153 4.157 4.157 0 0 0-4.152-4.154z" style="fill:#2a2d3e;stroke:none" transform="translate(20.251 20.264)"/>
        </g>
    </g>
</svg>
