<svg xmlns="http://www.w3.org/2000/svg" width="42.997" height="43.001" viewBox="0 0 42.997 43.001">
    <g data-name="그룹 4560">
        <g data-name="그룹 4028">
            <path data-name="합치기 21" d="M5.056 21.782A5.193 5.193 0 0 1 0 16.461v-13.8A2.6 2.6 0 0 1 2.528 0h27a2.6 2.6 0 0 1 2.528 2.661v13.8A5.193 5.193 0 0 1 27 21.782z" transform="translate(4.476 14.423)" style="fill:#fff"/>
            <path data-name="합치기 22" d="M13.991 15.7V8.463a5.22 5.22 0 0 0-10.441 0V15.7a1.627 1.627 0 0 1-1.775 1.417A1.627 1.627 0 0 1 0 15.7V8.263a1.148 1.148 0 0 1 .035-.283 8.77 8.77 0 0 1 17.469 0 1.148 1.148 0 0 1 .035.283V15.7a1.627 1.627 0 0 1-1.775 1.417 1.627 1.627 0 0 1-1.773-1.417z" transform="translate(12.509 2.754)" style="fill:#fff"/>
            <path data-name="패스 1307" d="M0 2h3.542v1.738a1.771 1.771 0 0 1-3.542 0z" transform="translate(12.478 14.48)" style="fill:#133b6d"/>
            <path data-name="패스 1308" d="M0 2h3.542v1.738a1.771 1.771 0 0 1-3.542 0z" transform="translate(26.438 14.48)" style="fill:#133b6d"/>
        </g>
        <g data-name="Icon awesome-search" style="fill:#07e6ff">
            <path d="M17.174 20.133c-.507 0-.984-.198-1.342-.556l-3.725-3.726c-.096-.095-.18-.2-.252-.31a8.692 8.692 0 0 1-4.084 1.003C2.935 16.544-1 12.61-1 7.772S2.935-1 7.77-1c4.837 0 8.771 3.935 8.771 8.772a8.695 8.695 0 0 1-1.003 4.085c.11.072.215.157.31.252l3.726 3.726.001.002.002.001c.733.741.73 1.944-.007 2.681l-1.057 1.058a1.875 1.875 0 0 1-1.34.556zM7.77 3.989a3.787 3.787 0 0 0-3.782 3.783 3.787 3.787 0 0 0 3.782 3.783 3.787 3.787 0 0 0 3.782-3.783A3.787 3.787 0 0 0 7.77 3.989z" style="stroke:none" transform="translate(21.873 21.868)"/>
            <path d="M17.174 19.133c.229 0 .458-.088.631-.263l1.058-1.058a.901.901 0 0 0 .003-1.27l-3.724-3.726a.896.896 0 0 0-.635-.261h-.61a7.735 7.735 0 0 0 1.644-4.783A7.77 7.77 0 0 0 7.771 0 7.77 7.77 0 0 0 0 7.772a7.77 7.77 0 0 0 7.77 7.772 7.732 7.732 0 0 0 4.783-1.644v.609c0 .24.093.467.261.635l3.725 3.726a.895.895 0 0 0 .635.263M7.77 2.989a4.78 4.78 0 0 1 4.782 4.783 4.78 4.78 0 0 1-4.782 4.783 4.78 4.78 0 0 1-4.782-4.783A4.78 4.78 0 0 1 7.77 2.989m9.403 18.144a2.879 2.879 0 0 1-2.05-.85l-3.517-3.517a9.718 9.718 0 0 1-3.836.778 9.706 9.706 0 0 1-6.91-2.862A9.709 9.709 0 0 1-2 7.772 9.709 9.709 0 0 1 .861.862 9.706 9.706 0 0 1 7.771-2 9.706 9.706 0 0 1 14.68.862a9.709 9.709 0 0 1 2.86 6.91 9.722 9.722 0 0 1-.778 3.838l3.525 3.525a2.907 2.907 0 0 1-.011 4.091l-1.054 1.055a2.868 2.868 0 0 1-2.05.852zM7.77 4.989a2.786 2.786 0 0 0-2.782 2.783 2.786 2.786 0 0 0 2.782 2.783 2.786 2.786 0 0 0 2.782-2.783A2.786 2.786 0 0 0 7.77 4.989z" style="fill:#133b6d;stroke:none" transform="translate(21.873 21.868)"/>
        </g>
    </g>
</svg>
