<svg xmlns="http://www.w3.org/2000/svg" width="25.437" height="27.901" viewBox="0 0 25.437 27.901">
    <g data-name="그룹 7301">
        <g data-name="그룹 4055">
            <g data-name="그룹 4051">
                <g data-name="그룹 3975">
                    <path data-name="합치기 19" d="m14.515 18.33-3.693-2.944a1.093 1.093 0 0 1-.384-.612l-.459-1.6.362-.085a2.441 2.441 0 0 0 1.845-1.935l.506 2.161a.762.762 0 0 0 .272.448l3.173 2.537a1.3 1.3 0 0 1 .206 1.827 1.3 1.3 0 0 1-1.828.206zM2.3 18.24l-.163-.04a1.215 1.215 0 0 1-.852-1.5l1.193-4.359a1.209 1.209 0 0 1 .446-.654 1.221 1.221 0 0 1 .323-.174l3.4-1.212-1.186-5.023-.51 1.322a1.148 1.148 0 0 1-.459.553 1.331 1.331 0 0 1-.181.144L1.825 8.865a1.134 1.134 0 0 1-1.678-.448 1.52 1.52 0 0 1 .506-1.9A6.831 6.831 0 0 0 2.554 4.9a10.5 10.5 0 0 0 1.3-2.659v-.01A7.092 7.092 0 0 1 5.387.67 2.092 2.092 0 0 1 5.855.3 2.172 2.172 0 0 1 6.93.013a10.985 10.985 0 0 1 5.4 1.261l1.931 1a2.231 2.231 0 0 1 1.159 1.537L16.273 8a1.043 1.043 0 0 1-1.063 1.3 1.3 1.3 0 0 1-1.533-1.016l-.769-3.778-2.485-1.3 1.344 5.712a2.763 2.763 0 0 1-2.056 3.319l-2.473.6-.844.293a3 3 0 0 0-1.71 1l-.892 3.26a1.214 1.214 0 0 1-1.492.85z" transform="translate(1.862 7.06)" style="fill:#fff"/>
                    <path data-name="합치기 19 - 윤곽선" d="M15.687 24.85a1.291 1.291 0 0 0 1.018-.5 1.341 1.341 0 0 0-.206-1.861l-3.174-2.579a.779.779 0 0 1-.272-.457l-.506-2.2a2.468 2.468 0 0 1-1.847 1.971l-.362.087.459 1.627a1.116 1.116 0 0 0 .384.624l3.693 3a1.28 1.28 0 0 0 .81.289m-12.7-.337a1.219 1.219 0 0 0 1.171-.914l.892-3.321a2.986 2.986 0 0 1 1.71-1.016l.844-.3 2.473-.607a2.818 2.818 0 0 0 2.056-3.381l-1.344-5.82 2.485 1.319.769 3.849a1.3 1.3 0 0 0 1.533 1.035 1.057 1.057 0 0 0 1.063-1.325l-.852-4.263a2.268 2.268 0 0 0-1.159-1.57l-1.931-1.018A10.811 10.811 0 0 0 7.292 5.9a2.141 2.141 0 0 0-1.069.293 2.1 2.1 0 0 0-.468.375 7.165 7.165 0 0 0-1.53 1.588v.01a10.785 10.785 0 0 1-1.3 2.71 6.859 6.859 0 0 1-1.9 1.658 1.566 1.566 0 0 0-.516 1.926 1.124 1.124 0 0 0 1.678.457l2.486-1.6a1.335 1.335 0 0 0 .181-.147 1.165 1.165 0 0 0 .459-.564l.51-1.349L7 16.381l-3.4 1.235a1.214 1.214 0 0 0-.323.177 1.232 1.232 0 0 0-.446.666L1.647 22.9a1.241 1.241 0 0 0 .853 1.523l.162.046a1.2 1.2 0 0 0 .323.044m12.7 2.234a3.137 3.137 0 0 1-1.971-.7l-3.693-3A3.032 3.032 0 0 1 9 21.423l-.223-.79-.685.168-.831.294-.111.024a1.423 1.423 0 0 0-.444.175L5.951 24.1a3.092 3.092 0 0 1-2.967 2.308 3.029 3.029 0 0 1-.815-.112L2 26.252a3.061 3.061 0 0 1-1.854-1.468 3.168 3.168 0 0 1-.3-2.384l1.193-4.441a3.159 3.159 0 0 1 .425-.937 2.994 2.994 0 0 1-2.627-1.714 3.487 3.487 0 0 1 1.15-4.361l.075-.05.058-.031a5.012 5.012 0 0 0 1.317-1.148 7.615 7.615 0 0 0 .988-2.092c.029-.084.054-.159.093-.246L6.082-.789v4.437l.14-.143.524.534A3.975 3.975 0 0 1 7.207 4a7.08 7.08 0 0 1 .456-.014 13.207 13.207 0 0 1 5.857 1.5l.032.016 1.931 1.021a4.143 4.143 0 0 1 2.126 2.874l.851 4.268a3.045 3.045 0 0 1-.584 2.513 2.917 2.917 0 0 1-2.117 1.082 3.11 3.11 0 0 1-1.32-.094l.347 1.508 2.874 2.335a3.216 3.216 0 0 1 1.171 2.159 3.255 3.255 0 0 1-.264 1.7v.153l-.407.521a3.128 3.128 0 0 1-2.473 1.212z" transform="translate(1.5 .789)" style="fill:#2a2d3e"/>
                </g>
            </g>
            <path data-name="패스 11301" d="M65.837 2.482A2.482 2.482 0 1 0 68.319 0a2.482 2.482 0 0 0-2.482 2.482" transform="translate(-60.919 .979)" style="fill:#fff"/>
        </g>
        <g data-name="그룹 4056">
            <g data-name="그룹 4052">
                <g data-name="그룹 4002">
                    <path data-name="패스 1172" d="M5.945 0A5.946 5.946 0 1 1 0 5.946 5.945 5.945 0 0 1 5.945 0z" transform="translate(12.094 14.557)" style="fill:#2a2d3e"/>
                    <g data-name="그룹 3991">
                        <path data-name="합치기 20" d="M2.338 6.228V3.892H0V2.336h2.338V0h1.557v2.336h2.332v1.556H3.895v2.336z" transform="translate(14.926 17.389)" style="fill:#fff"/>
                    </g>
                    <g data-name="그룹 3995">
                        <path data-name="패스 1172" d="M5.945 0A5.946 5.946 0 1 1 0 5.946 5.945 5.945 0 0 1 5.945 0z" transform="translate(12.094 14.557)" style="fill:#ae6bfb"/>
                    </g>
                </g>
                <path data-name="패스 1178" d="M5.9-.047A5.946 5.946 0 1 0 11.843 5.9 5.945 5.945 0 0 0 5.9-.047m0-1.453a7.4 7.4 0 1 1-7.4 7.4 7.407 7.407 0 0 1 7.4-7.4z" transform="translate(12.141 14.604)" style="fill:#111a46"/>
            </g>
            <text data-name="\" transform="translate(13.437 23.452)" style="font-size:8px;font-family:GmarketSansBold,Gmarket Sans;fill:#111a46"><tspan x="0" y="0">\</tspan></text>
        </g>
    </g>
</svg>
