<svg xmlns="http://www.w3.org/2000/svg" width="34" height="32" viewBox="0 0 34 32">
    <defs>
        <clipPath id="pso0z8g2ha">
            <path data-name="사각형 7003" style="fill:#07e6ff" d="M0 0h34v32H0z"/>
        </clipPath>
    </defs>
    <g data-name="그룹 8216" style="clip-path:url(#pso0z8g2ha)">
        <path data-name="패스 12509" d="M87.606 39.528a1 1 0 0 1-1.415 0L80.112 33.4a1.874 1.874 0 0 1 0-2.634 1.835 1.835 0 0 1 2.611 0l4.177 4.208 15.529-15.461a1.835 1.835 0 0 1 2.612 0 1.874 1.874 0 0 1 0 2.634z" transform="translate(-71.58 -17.046)" style="fill:#07e6ff"/>
        <path data-name="패스 12510" d="M29 16A13.14 13.14 0 1 1 15.863 2.747a13.03 13.03 0 0 1 8.967 3.576l1.944-1.936a15.765 15.765 0 0 0-22.128.3 16.1 16.1 0 0 0 0 22.627 15.767 15.767 0 0 0 22.433 0 16.142 16.142 0 0 0 3.529-17.234l-2.15 2.144A13.318 13.318 0 0 1 29 16" style="fill:#fff"/>
    </g>
</svg>
