<svg xmlns="http://www.w3.org/2000/svg" width="24" height="24" viewBox="0 0 24 24">
    <path data-name="패스 12125" d="M7 21h10" transform="translate(-.5)" style="fill:none;stroke:#fff;stroke-linecap:round;stroke-linejoin:round;stroke-width:1.5px"/>
    <path data-name="패스 12218" d="M20536.748-3097.5h-8.488a1.31 1.31 0 0 1-1.26-1.351v-12.8a1.31 1.31 0 0 1 1.26-1.351h15.98a1.308 1.308 0 0 1 1.258 1.351v5.4h-1.5v-5.251h-15.5v12.5h8.246v1.5z" transform="translate(-20524.75 3115.25)" style="fill:#fff"/>
    <path data-name="패스 12130" d="M3.5 6.769 6 9.462 10 3l3.5 2.692" transform="translate(2.5 3.815)" style="fill:none;stroke:#fff;stroke-linecap:round;stroke-linejoin:round;stroke-width:1.5px"/>
    <g data-name="그룹 6780">
        <path data-name="패스 12131" d="m17.134 16.726 1.632 1.632" transform="translate(3.233 .49)" style="fill:none;stroke:#fff;stroke-linecap:round;stroke-linejoin:round;stroke-width:1.5px"/>
        <path data-name="패스 12132" d="M15 15.612a3.264 3.264 0 1 0 3.264-3.264A3.264 3.264 0 0 0 15 15.612z" transform="translate(-.617 -1.116)" style="fill:none;stroke:#fff;stroke-linecap:round;stroke-linejoin:round;stroke-width:1.5px"/>
    </g>
</svg>
