<svg xmlns="http://www.w3.org/2000/svg" width="20" height="20" viewBox="0 0 20 20">
    <defs>
        <clipPath id="pv1vksfwua">
            <path data-name="사각형 6652" transform="translate(23 330)" style="fill:none" d="M0 0h20v20H0z"/>
        </clipPath>
        <clipPath id="izxl8n5gdb">
            <path data-name="사각형 6636" style="fill:#fff" d="M0 0h20v20H0z"/>
        </clipPath>
    </defs>
    <g data-name="그룹 7830" transform="translate(-23 -330)" style="clip-path:url(#pv1vksfwua)">
        <g data-name="그룹 7829" transform="translate(23 330)" style="clip-path:url(#izxl8n5gdb)">
            <path data-name="패스 12286" d="M20.4 12.432v-.015c0-.019 0-.036-.006-.055a.775.775 0 0 0-.01-.1.842.842 0 0 0-.027-.093c-.006-.019-.009-.039-.017-.058l-.006-.015L18.7 8.119V.828A.839.839 0 0 0 17.849 0H2.55a.839.839 0 0 0-.85.828v7.291L.067 12.1l-.006.015c-.008.019-.011.038-.017.058a.841.841 0 0 0-.027.093.771.771 0 0 0-.01.1C0 12.381 0 12.4 0 12.418v6.623a.839.839 0 0 0 .85.828h18.7a.839.839 0 0 0 .85-.828v-6.609M17 1.656v9.934h-4.25a.839.839 0 0 0-.85.828 1.7 1.7 0 0 1-3.4 0 .839.839 0 0 0-.85-.828H3.4V1.656zm1.7 16.557h-17v-4.967h5.207a3.424 3.424 0 0 0 6.585 0H18.7z" transform="translate(-.267 .132)" style="fill:#fff"/>
            <path data-name="패스 12287" d="M21.85 16.656h6.8a.828.828 0 1 0 0-1.656h-6.8a.828.828 0 1 0 0 1.656" transform="translate(-15.317 -10.729)" style="fill:#fff"/>
            <path data-name="패스 12288" d="M21.85 28.656h6.8a.828.828 0 1 0 0-1.656h-6.8a.828.828 0 1 0 0 1.656" transform="translate(-15.317 -19.418)" style="fill:#fff"/>
        </g>
    </g>
</svg>
