<svg xmlns="http://www.w3.org/2000/svg" width="24" height="24" viewBox="0 0 24 24">
    <g data-name="그룹 6480">
        <path data-name="패스 12131" d="M18.47 5.391a.543.543 0 0 0-.159-.384l-2.847-2.848A.543.543 0 0 0 15.081 2H4.543A.543.543 0 0 0 4 2.543v17a.543.543 0 0 0 .543.543h13.741M7.618 10.371h7.235M7.618 6.754h3.618m-3.618 7.235h2.713" transform="translate(.781 .85)" style="stroke-linejoin:round;fill:none;stroke:#fff;stroke-linecap:round;stroke-width:1.5px"/>
        <path data-name="패스 12132" d="M15.8 2v3.075a.543.543 0 0 0 .543.543h3.075" transform="translate(-.162 .85)" style="stroke-linejoin:round;fill:none;stroke:#fff;stroke-linecap:round;stroke-width:1.5px"/>
        <path data-name="선 351" transform="translate(19.324 6.258)" style="fill:none;stroke:#fff;stroke-linecap:round;stroke-width:1.5px" d="M0 0v14.656"/>
    </g>
</svg>
