<svg xmlns="http://www.w3.org/2000/svg" width="24" height="24" viewBox="0 0 24 24">
    <g data-name="그룹 7503">
        <g data-name="그룹 6818">
            <path data-name="패스 12226" d="M7 22h10.993" transform="translate(-.992 -.25)" style="stroke-linejoin:round;stroke-linecap:round;fill:none;stroke:#fff;stroke-width:1.5px"/>
            <path data-name="패스 12227" d="M2 15.362V3.782A1.871 1.871 0 0 1 3.949 2h15.594a1.871 1.871 0 0 1 1.949 1.782v11.58a1.871 1.871 0 0 1-1.949 1.782H3.949A1.871 1.871 0 0 1 2 15.362z" transform="translate(-.242 1.833)" style="fill:none;stroke:#fff;stroke-width:1.5px"/>
        </g>
    </g>
    <g data-name="그룹 7505">
        <path data-name="패스 332" d="M2767.825 214.815a4.466 4.466 0 1 1-4.466-4.467 4.466 4.466 0 0 1 4.466 4.467z" transform="translate(-2751.854 -203.315)" style="stroke-miterlimit:10;stroke-linecap:round;fill:none;stroke:#fff;stroke-width:1.5px"/>
        <path data-name="패스 642" d="M2763.24 210.685v4.109l3.656-1.915" transform="translate(-2751.76 -203.304)" style="stroke-linejoin:round;stroke-linecap:round;fill:none;stroke:#fff;stroke-width:1.5px"/>
    </g>
</svg>
