<svg xmlns="http://www.w3.org/2000/svg" width="24" height="24" viewBox="0 0 24 24">
    <path data-name="패스 494" d="M0 0h24v24H0z" style="fill:none"/>
    <path data-name="link-regular (1)" d="M10.219 6.432a4.559 4.559 0 0 1 .317 6.087c-.2.251-.091.126-2.762 2.8a4.553 4.553 0 0 1-6.439-6.442L3.4 6.813a.39.39 0 0 1 .666.266 5.636 5.636 0 0 0 .154 1.23.388.388 0 0 1-.1.364l-1.498 1.492a2.732 2.732 0 0 0 3.864 3.864l2.445-2.446a2.733 2.733 0 0 0-.742-4.391.391.391 0 0 1-.213-.4 1.682 1.682 0 0 1 .482-.992l.142-.141a.388.388 0 0 1 .447-.075 4.527 4.527 0 0 1 1.172.847zm5.1-5.1a4.55 4.55 0 0 0-6.439 0c-2.674 2.674-2.562 2.548-2.765 2.8A4.553 4.553 0 0 0 7.6 11.066a.388.388 0 0 0 .447-.075l.142-.142a1.682 1.682 0 0 0 .482-.989.391.391 0 0 0-.213-.4 2.733 2.733 0 0 1-.738-4.393l2.445-2.446a2.732 2.732 0 1 1 3.864 3.864l-1.491 1.491a.388.388 0 0 0-.1.364 5.636 5.636 0 0 1 .154 1.23.39.39 0 0 0 .666.266l2.062-2.064a4.55 4.55 0 0 0 0-6.439z" transform="translate(3.674 3.675)" style="fill:#fff"/>
</svg>
