<svg xmlns="http://www.w3.org/2000/svg" width="24" height="24" viewBox="0 0 24 24">
    <g data-name="그룹 7584">
        <g data-name="그룹 7583">
            <path data-name="패스 12753" d="M3.322 11.519A3.442 3.442 0 1 0 4.33 9.085a3.442 3.442 0 0 0-1.008 2.434z" transform="translate(3.123 1.924)" style="fill:none;stroke:#fff;stroke-linecap:round;stroke-linejoin:round;stroke-width:1.5px"/>
            <path data-name="패스 12754" d="M7.049 8.076v3.442l2.44 2.433" transform="translate(2.466 2.025)" style="fill:none;stroke:#fff;stroke-linecap:round;stroke-linejoin:round;stroke-width:1.5px"/>
            <path data-name="패스 12755" d="M13.676 8.49h1.879" transform="translate(2.662 2.349)" style="fill:none;stroke:#fff;stroke-linecap:round;stroke-linejoin:round;stroke-width:1.5px"/>
            <path data-name="패스 12756" d="M13.676 11.8h1.879" transform="translate(2.662 2.058)" style="fill:none;stroke:#fff;stroke-linecap:round;stroke-linejoin:round;stroke-width:1.5px"/>
            <path data-name="패스 12757" d="M13.676 15.117h1.879" transform="translate(2.662 1.495)" style="fill:none;stroke:#fff;stroke-linecap:round;stroke-linejoin:round;stroke-width:1.5px"/>
            <path data-name="패스 12758" d="M1.755 1.657h14.733a1.129 1.129 0 0 1 1.133 1.191v13.5a1.15 1.15 0 0 1-1.133 1.191H1.755a1.129 1.129 0 0 1-1.134-1.194V2.848a1.15 1.15 0 0 1 1.134-1.191z" transform="translate(3.379 2.344)" style="fill:none;stroke:#fff;stroke-linecap:round;stroke-linejoin:round;stroke-width:1.5px"/>
            <path data-name="패스 12759" d="M.621 5.384h17" transform="translate(3.379 1.261)" style="fill:none;stroke:#fff;stroke-linecap:round;stroke-linejoin:round;stroke-width:1.5px"/>
        </g>
    </g>
</svg>
