<svg xmlns="http://www.w3.org/2000/svg" width="20" height="20" viewBox="0 0 20 20">
    <defs>
        <clipPath id="siin04yi0a">
            <path data-name="사각형 6901" style="fill:#fff" d="M0 0h20v20H0z"/>
        </clipPath>
    </defs>
    <g data-name="그룹 8135" style="clip-path:url(#siin04yi0a)">
        <path data-name="패스 12462" d="M52.374 9.826h1.194a.789.789 0 1 0 0-1.576h-1.194a.789.789 0 1 0 0 1.576" transform="translate(-37.224 -6.083)" style="fill:#fff"/>
        <path data-name="패스 12463" d="M52.374 34.576h1.194a.789.789 0 1 0 0-1.576h-1.194a.789.789 0 1 0 0 1.576" transform="translate(-37.224 -24.33)" style="fill:#fff"/>
        <path data-name="패스 12464" d="M19.167 16.256h-6.158a3.052 3.052 0 0 0-2.176-2.056v-1.786h6.036a3.047 3.047 0 0 0 3.125-2.956A3.047 3.047 0 0 0 16.869 6.5h-6.036v-.589h6.036a3.047 3.047 0 0 0 3.125-2.956A3.047 3.047 0 0 0 16.869 0H3.212A3.047 3.047 0 0 0 .087 2.956a3.047 3.047 0 0 0 3.125 2.955h5.955V6.5H3.212A3.047 3.047 0 0 0 .087 9.458a3.047 3.047 0 0 0 3.125 2.956h5.955V14.2a3.052 3.052 0 0 0-2.175 2.057H.833a.789.789 0 1 0 0 1.576h6.158a3.172 3.172 0 0 0 6.017 0h6.158a.789.789 0 1 0 0-1.576M1.754 2.956a1.422 1.422 0 0 1 1.458-1.38h13.657a1.422 1.422 0 0 1 1.458 1.379 1.422 1.422 0 0 1-1.458 1.379H3.212a1.422 1.422 0 0 1-1.458-1.378m0 6.5a1.422 1.422 0 0 1 1.458-1.377h13.657a1.381 1.381 0 1 1 0 2.759H3.212a1.422 1.422 0 0 1-1.458-1.38M10 18.424a1.381 1.381 0 1 1 1.458-1.379A1.422 1.422 0 0 1 10 18.424" style="fill:#fff"/>
    </g>
</svg>
