<svg xmlns="http://www.w3.org/2000/svg" width="24" height="24" viewBox="0 0 24 24">
    <g data-name="그룹 6480">
        <path data-name="패스 12131" d="M16.736 9.96V4.984a.478.478 0 0 0-.14-.338L14.09 2.14a.478.478 0 0 0-.337-.14H4.478A.478.478 0 0 0 4 2.478v14.965a.478.478 0 0 0 .478.478h5.094M7.184 8.368h6.368M7.184 5.184h3.184m-3.184 6.368h2.388m7.562 5.174 1.194 1.194" style="fill:none;stroke:#fff;stroke-linecap:round;stroke-linejoin:round;stroke-width:1.5px" transform="translate(1 2)"/>
        <path data-name="패스 12132" d="M15 14.736a2.388 2.388 0 1 0 2.388-2.388A2.388 2.388 0 0 0 15 14.736zM15.8 2v2.706a.478.478 0 0 0 .478.478h2.702" transform="translate(-1.244 2)" style="fill:none;stroke:#fff;stroke-linecap:round;stroke-linejoin:round;stroke-width:1.5px"/>
    </g>
</svg>
