<svg xmlns="http://www.w3.org/2000/svg" width="24" height="24" viewBox="0 0 24 24">
    <g data-name="그룹 6874">
        <path data-name="패스 12245" d="M20.447 19.214H2.571a.571.571 0 0 1-.571-.57v-7.988h18.447a.571.571 0 0 1 .571.571v7.417a.571.571 0 0 1-.571.571zM2 10.656V4.571A.571.571 0 0 1 2.571 4h4.874a.571.571 0 0 1 .371.137l3.009 2.579a.571.571 0 0 0 .371.137h1.215" transform="translate(.5 .5)" style="fill:none;stroke:#fff;stroke-linecap:round;stroke-linejoin:round;stroke-width:1.5px"/>
        <path data-name="패스 12250" d="M17.214 7.152h3.152m3.152 0h-3.152m0 0V4m0 3.152V10.3" transform="translate(-2 -2)" style="fill:none;stroke:#fff;stroke-linecap:round;stroke-linejoin:round;stroke-width:1.5px"/>
    </g>
</svg>
