<svg xmlns="http://www.w3.org/2000/svg" width="24" height="24" viewBox="0 0 24 24">
    <g data-name="그룹 2491">
        <g data-name="그룹 2423">
            <g data-name="사각형 1400">
                <path data-name="패스 638" d="M2729.136 209.5h10.492a1.078 1.078 0 0 1 1.154.982l1.048 11.086a1.079 1.079 0 0 1-1.153.982h-12.589a1.079 1.079 0 0 1-1.154-.982l1.048-11.086a1.078 1.078 0 0 1 1.154-.982z" transform="translate(-2722.561 -201.462)" style="stroke:#fff;stroke-width:1.5px;fill:none"/>
            </g>
        </g>
        <path data-name="패스 639" d="M2730.584 212.346V207.6a3.252 3.252 0 0 1 3.252-3.252h0a3.252 3.252 0 0 1 3.253 3.252v4.746" transform="translate(-2722.015 -201.348)" style="stroke-linecap:round;stroke:#fff;stroke-width:1.5px;fill:none"/>
    </g>
</svg>
