<svg xmlns="http://www.w3.org/2000/svg" width="18.356" height="21.125" viewBox="0 0 18.356 21.125">
    <g data-name="그룹 7003">
        <g data-name="그룹 6999">
            <g data-name="그룹 6958">
                <g data-name="그룹 320">
                    <path data-name="사각형 697" d="M.457 0h13.321a.457.457 0 0 1 .457.457v15.594a.456.456 0 0 1-.456.456H.457A.457.457 0 0 1 0 16.05V.457A.457.457 0 0 1 .457 0z" transform="translate(.75 .75)" style="stroke-miterlimit:10;stroke:#777777;stroke-width:1.5px;fill:none"/>
                    <g data-name="그룹 2474">
                        <path data-name="선 82" style="stroke-miterlimit:10;stroke:#777777;stroke-width:1.5px;fill:none" d="M0 0h8.261" transform="translate(3.748 5.501)"/>
                        <path data-name="선 106" transform="translate(3.748 8.669)" style="stroke-miterlimit:10;stroke:#777777;stroke-width:1.5px;fill:none" d="M0 0h8.261"/>
                    </g>
                </g>
                <g data-name="타원 184" transform="translate(7.356 10.125)" style="fill:#fff;stroke:#777777;stroke-width:1.5px">
                    <circle cx="5.5" cy="5.5" r="5.5" style="stroke:none"/>
                    <circle cx="5.5" cy="5.5" r="4.75" style="fill:none"/>
                </g>
                <path data-name="패스 12075" d="M0 0h3.262" transform="translate(3.748 11.838)" style="stroke:#777777;stroke-width:1.5px;fill:none"/>
                <path data-name="선 301" transform="translate(10.856 15.625)" style="stroke-linecap:round;stroke:#777777;stroke-width:1.5px;fill:none" d="M0 0h4"/>
                <path data-name="선 302" transform="rotate(90 -.385 13.24)" style="stroke-linecap:round;stroke:#777777;stroke-width:1.5px;fill:none" d="M0 0h4"/>
            </g>
        </g>
    </g>
</svg>
