<svg xmlns="http://www.w3.org/2000/svg" width="24" height="24" viewBox="0 0 24 24">
    <g data-name="그룹 6384">
        <path data-name="패스 12070" d="M2 13.5A10 10 0 1 0 2.72 8" transform="translate(.112)" style="stroke-width:1.8px;fill:none;stroke:#fff;stroke-linecap:round;stroke-linejoin:round"/>
        <path data-name="패스 12071" d="M22 21h-4.4a.6.6 0 0 1-.6-.6V16" transform="translate(-15 -13)" style="stroke-width:1.8px;fill:none;stroke:#fff;stroke-linecap:round;stroke-linejoin:round"/>
    </g>
    <path data-name="패스 12092" d="M14 8a3.9 3.9 0 0 0-2.5-.992M9 13.417a3.316 3.316 0 0 0 2.5 1.159m0-7.568c-1.1-.03-2.083.467-2.083 1.826 0 2.5 4.583 1.25 4.583 3.75 0 1.426-1.22 2.038-2.5 1.993m0-7.568V5.5m0 9.076v1.757" transform="translate(.5 .8)" style="stroke-width:1.5px;fill:none;stroke:#fff;stroke-linecap:round;stroke-linejoin:round"/>
</svg>
