<svg xmlns="http://www.w3.org/2000/svg" width="24" height="24" viewBox="0 0 24 24">
    <g data-name="그룹 6481">
        <path data-name="패스 12133" d="M7 6h7.333M7 8.2h7.333m-5.866 5.867h4.4" transform="translate(1.667 1.933)" style="stroke-linecap:round;stroke-linejoin:round;fill:none;stroke:#fff;stroke-width:1.5px"/>
        <path data-name="패스 12134" d="M2.733 9.333H2.44a.44.44 0 0 0-.44.44v6.453a.44.44 0 0 0 .44.44h13.787a.44.44 0 0 0 .44-.44V9.774a.44.44 0 0 0-.44-.44h-.293m-13.2 0V2.44A.44.44 0 0 1 3.173 2h12.32a.44.44 0 0 1 .44.44v6.893m-13.2 0h13.2" transform="translate(3 3)" style="fill:none;stroke:#fff;stroke-width:1.5px"/>
    </g>
</svg>
