<svg data-name="ico_ user_pattern_off" xmlns="http://www.w3.org/2000/svg" width="20.052" height="20.408" viewBox="0 0 20.052 20.408">
    <defs>
        <clipPath id="hbzoi1x69a">
            <path data-name="사각형 696" style="fill:none;stroke:#fff" d="M0 0h20.052v20.408H0z"/>
        </clipPath>
    </defs>
    <g data-name="그룹 317">
        <g data-name="그룹 316" style="clip-path:url(#hbzoi1x69a)">
            <path data-name="패스 330" d="M9.684 4.225A3.476 3.476 0 1 1 6.208.749a3.476 3.476 0 0 1 3.476 3.476z" style="stroke-width:1.5px;stroke-miterlimit:10;fill:none;stroke:#fff"/>
            <path data-name="패스 331" d="M.769 14.594a4.266 4.266 0 0 1-.019-.41c0-2.757 2.537-4.992 5.666-4.992a6.364 6.364 0 0 1 1.933.3" transform="translate(0 -.092)" style="stroke-linecap:round;stroke-width:1.5px;stroke-miterlimit:10;fill:none;stroke:#fff"/>
            <g data-name="그룹 6827" transform="translate(6.026 6.649)">
                <circle data-name="타원 202" cx="3.397" cy="3.397" r="3.397" transform="translate(4 4)" style="stroke-linejoin:round;stroke-linecap:round;stroke-width:1.5px;fill:none;stroke:#fff"/>
                <path data-name="선 329" transform="translate(10.064 10.064)" style="stroke-linejoin:round;stroke-linecap:round;stroke-width:1.5px;fill:none;stroke:#fff" d="M1.73 1.73 0 0"/>
            </g>
        </g>
    </g>
</svg>
