<svg xmlns="http://www.w3.org/2000/svg" width="24" height="24" viewBox="0 0 24 24">
    <path data-name="패스 494" d="M0 0h24v24H0z" style="fill:none"/>
    <path data-name="cog-regular (1)" d="m32.65 16.916 1.24-.716a.936.936 0 0 0 .435-1.053 9.64 9.64 0 0 0-2.494-4.314.935.935 0 0 0-1.129-.148l-1.238.715a7.642 7.642 0 0 0-1.281-.741V9.228a.935.935 0 0 0-.695-.9 9.719 9.719 0 0 0-4.981 0 .935.935 0 0 0-.695.9v1.431a7.642 7.642 0 0 0-1.281.741l-1.238-.715a.935.935 0 0 0-1.129.148 9.639 9.639 0 0 0-2.494 4.314.936.936 0 0 0 .435 1.053l1.24.716a7.7 7.7 0 0 0 0 1.48l-1.24.716a.936.936 0 0 0-.435 1.053 9.64 9.64 0 0 0 2.494 4.314.935.935 0 0 0 1.129.148l1.238-.715a7.639 7.639 0 0 0 1.281.741v1.431a.935.935 0 0 0 .695.9 9.718 9.718 0 0 0 4.981 0 .935.935 0 0 0 .695-.9v-1.432a7.644 7.644 0 0 0 1.281-.741l1.238.715a.935.935 0 0 0 1.129-.148 9.64 9.64 0 0 0 2.494-4.314.936.936 0 0 0-.435-1.053l-1.24-.711a7.7 7.7 0 0 0 0-1.484zm-2.05 2.453 1.706.985a7.792 7.792 0 0 1-1.318 2.279l-1.707-.985a6.633 6.633 0 0 1-2.966 1.714v1.97a7.823 7.823 0 0 1-2.633 0v-1.97a6.634 6.634 0 0 1-2.966-1.714l-1.707.985a7.793 7.793 0 0 1-1.318-2.279l1.706-.985a6.7 6.7 0 0 1 0-3.428l-1.706-.985a7.794 7.794 0 0 1 1.318-2.279l1.707.985a6.633 6.633 0 0 1 2.966-1.714V9.979a7.823 7.823 0 0 1 2.633 0v1.97a6.634 6.634 0 0 1 2.966 1.714l1.707-.985a7.793 7.793 0 0 1 1.312 2.279l-1.706.985a6.7 6.7 0 0 1 0 3.428zM25 13.918a3.738 3.738 0 1 0 3.738 3.738A3.742 3.742 0 0 0 25 13.918zm0 5.607a1.869 1.869 0 1 1 1.869-1.869A1.871 1.871 0 0 1 25 19.524z" transform="translate(-12.879 -5.417)" style="fill:#fff"/>
</svg>
