<svg xmlns="http://www.w3.org/2000/svg" xmlns:xlink="http://www.w3.org/1999/xlink" width="27.038" height="24.736" viewBox="0 0 27.038 24.736">
    <defs>
        <clipPath id="t47s9hutxe">
            <path data-name="패스 12245" d="m138.823 5.589-.035-.031s.012.012.035.031M148.951 0a2.784 2.784 0 0 0-1.536.479l-6.762 5.1a1.467 1.467 0 0 1-1.83.006l2.112 1.868 2.64.37 1.4-.77 6.187-4.56a1.193 1.193 0 0 0 .334-.458.892.892 0 0 0-.138-.689 3.121 3.121 0 0 0-.918-.891A2.679 2.679 0 0 0 148.963 0z" transform="translate(-138.788)" style="fill:url(#faai1lw6ea)"/>
        </clipPath>
        <clipPath id="bdqmo4a6pf">
            <path data-name="사각형 6596" style="fill:#3c71fd" d="M0 0h27.038v24.736H0z"/>
        </clipPath>
        <clipPath id="ctzvv899fg">
            <path data-name="패스 12247" d="m5.911 18.2.032-.034zM1.364 6a2.973 2.973 0 0 0-.91.873A2.407 2.407 0 0 0 0 8.256v.014a2.643 2.643 0 0 0 .52 1.523l5.39 6.6a1.336 1.336 0 0 1 .033 1.766l1.9-2.011.344-2.542-.814-1.356-4.818-6.04a1.288 1.288 0 0 0-.479-.329.507.507 0 0 0-.186-.032A1.176 1.176 0 0 0 1.364 6" transform="translate(0 -5.849)" style="fill:url(#2zw2vlgrtb)"/>
        </clipPath>
        <clipPath id="fnal27zajh">
            <path data-name="사각형 6598" style="fill:none" d="M0 0h27.038v24.736H0z"/>
        </clipPath>
        <clipPath id="5w51bbaczi">
            <path data-name="패스 12249" d="M29.927 186.669s-.012-.012-.035-.031zm-6.183-1.5-6.187 4.56a1.194 1.194 0 0 0-.334.458.893.893 0 0 0 .138.689 3.122 3.122 0 0 0 .918.891 2.679 2.679 0 0 0 1.473.459h.012a2.783 2.783 0 0 0 1.536-.479l6.762-5.1a1.467 1.467 0 0 1 1.83-.006l-2.113-1.868-2.64-.37z" transform="translate(-17.191 -184.399)" style="fill:url(#oegdtu3ksc)"/>
        </clipPath>
        <clipPath id="e3g3rzby8j">
            <path data-name="패스 12251" d="m205.87 131.313-.344 2.542.819 1.358 4.818 6.039a1.289 1.289 0 0 0 .479.329.963.963 0 0 0 .712-.123 2.974 2.974 0 0 0 .91-.872 2.407 2.407 0 0 0 .454-1.379v-.013a2.642 2.642 0 0 0-.52-1.523l-5.39-6.6a1.336 1.336 0 0 1-.033-1.766zm1.9-2.011.032-.034-.032.034" transform="translate(-205.526 -129.268)" style="fill:url(#5zqzojoxzd)"/>
        </clipPath>
        <linearGradient id="faai1lw6ea" x1=".507" y1=".607" x2=".165" y2=".633" gradientUnits="objectBoundingBox">
            <stop offset="0" stop-color="#07e6ff"/>
            <stop offset="1" stop-color="#0f2449"/>
        </linearGradient>
        <linearGradient id="2zw2vlgrtb" x1=".625" y1=".085" x2=".362" y2="1.001" xlink:href="#faai1lw6ea"/>
        <linearGradient id="oegdtu3ksc" x1=".242" y1=".833" x2=".5" y2="1" xlink:href="#faai1lw6ea"/>
        <linearGradient id="5zqzojoxzd" x1=".622" y1=".48" x2=".69" y2=".002" gradientUnits="objectBoundingBox">
            <stop offset="0" stop-color="#07e6ff"/>
            <stop offset="1" stop-color="#002429"/>
        </linearGradient>
    </defs>
    <g data-name="그룹 7755">
        <g data-name="그룹 7754" style="clip-path:url(#t47s9hutxe)" transform="translate(12.726)">
            <path data-name="사각형 6595" transform="rotate(-55.357 3.22 6.139)" style="fill:url(#faai1lw6ea)" d="M0 0h13.721v14.988H0z"/>
        </g>
    </g>
    <g data-name="그룹 7757">
        <g data-name="그룹 7756" style="clip-path:url(#bdqmo4a6pf)">
            <path data-name="패스 12246" d="m63.625 14.908 4.27 5.513s1.722 2.36 4.224 1.3a18.969 18.969 0 0 0 1.981-1.047l3.116-2.258a4.751 4.751 0 0 1-5.675.028 7.655 7.655 0 0 1-1.254-1.152l-2.375-3.078a2.647 2.647 0 0 0-2.772-1.089 4.557 4.557 0 0 0-1.4.543.883.883 0 0 0-.108 1.239" transform="translate(-57.608 -11.857)" style="fill:#07e6ff"/>
        </g>
    </g>
    <g data-name="그룹 7759">
        <g data-name="그룹 7758" style="clip-path:url(#ctzvv899fg)" transform="translate(0 .536)">
            <path data-name="사각형 6597" transform="rotate(-55.357 5.08 9.682)" style="fill:url(#2zw2vlgrtb)" d="M0 0h14.814v13.758H0z"/>
        </g>
    </g>
    <g data-name="그룹 7761">
        <g data-name="그룹 7760" style="clip-path:url(#fnal27zajh)">
            <path data-name="패스 12248" d="m17.872 81.326 5.65-4.039s2.421-1.627 1.289-4.058a18.66 18.66 0 0 0-1.119-1.923l-2.386-3.041a4.376 4.376 0 0 1 .113 5.477 7.266 7.266 0 0 1-1.176 1.193l-3.154 2.246A2.423 2.423 0 0 0 16 79.841a4.346 4.346 0 0 0 .584 1.363.97.97 0 0 0 1.286.122" transform="translate(-14.46 -62.005)" style="fill:#07e6ff"/>
        </g>
    </g>
    <g data-name="그룹 7763">
        <g data-name="그룹 7762" style="clip-path:url(#5w51bbaczi)" transform="translate(1.576 16.909)">
            <path data-name="사각형 6599" transform="rotate(-55.357 3.183 6.21)" style="fill:url(#oegdtu3ksc)" d="M0 0h13.721v14.988H0z"/>
        </g>
    </g>
    <g data-name="그룹 7765">
        <g data-name="그룹 7764" style="clip-path:url(#bdqmo4a6pf)">
            <path data-name="패스 12250" d="m94.659 166.267-4.27-5.513s-1.722-2.36-4.224-1.3a18.969 18.969 0 0 0-1.976 1.052l-3.116 2.258a4.751 4.751 0 0 1 5.675-.028A7.655 7.655 0 0 1 88 163.883l2.375 3.078a2.647 2.647 0 0 0 2.772 1.088 4.557 4.557 0 0 0 1.4-.543.883.883 0 0 0 .108-1.239" transform="translate(-73.639 -144.581)" style="fill:#07e6ff"/>
        </g>
    </g>
    <g data-name="그룹 7767">
        <g data-name="그룹 7766" style="clip-path:url(#e3g3rzby8j)" transform="translate(18.846 11.854)">
            <path data-name="사각형 6601" transform="rotate(-55.357 5.109 9.74)" style="fill:url(#5zqzojoxzd)" d="M0 0h14.874v13.799H0z"/>
        </g>
    </g>
    <g data-name="그룹 7769">
        <g data-name="그룹 7768" style="clip-path:url(#fnal27zajh)">
            <path data-name="패스 12252" d="m185.929 57.218-5.65 4.039s-2.421 1.627-1.289 4.058a18.659 18.659 0 0 0 1.119 1.923l2.386 3.041a4.376 4.376 0 0 1-.113-5.477 7.266 7.266 0 0 1 1.176-1.193l3.154-2.246A2.423 2.423 0 0 0 187.8 58.7a4.346 4.346 0 0 0-.584-1.363.97.97 0 0 0-1.286-.122" transform="translate(-162.304 -51.802)" style="fill:#07e6ff"/>
        </g>
    </g>
</svg>
