<svg xmlns="http://www.w3.org/2000/svg" width="94.423" height="75.924" viewBox="0 0 94.423 75.924">
    <path data-name="패스 12123" d="M58.941 22.728V10.644a9.644 9.644 0 0 0-19.288 0v12.084" transform="translate(13.485 3.443)" style="stroke-linecap:round;stroke-linejoin:round;stroke-width:2.4px;stroke:#777;fill:none"/>
    <path data-name="패스 12125" d="M73.186 71.528H33.2a6.2 6.2 0 0 1-6.373-6.021v-51.93h52.731v51.93a6.2 6.2 0 0 1-6.372 6.021z" transform="translate(13.665 3.196)" style="fill:#ffdbdb;stroke-linecap:round;stroke-linejoin:round;stroke-width:2.4px;stroke:#777"/>
    <path data-name="패스 12126" d="M19.287 70.558a6.159 6.159 0 0 1-6.373-5.92V13.577h52.729v51.061a6.159 6.159 0 0 1-6.373 5.92" transform="translate(13.86 4.166)" style="fill:#fff"/>
    <path data-name="패스 12131" d="M49.16 21.576V10.644a9.644 9.644 0 0 0-19.288 0v10.932" transform="translate(13.622 3.443)" style="stroke-linecap:round;stroke-linejoin:round;stroke-width:2.4px;stroke:#777;fill:none"/>
    <path data-name="패스 12127" d="M59.271 71.528H19.287a6.2 6.2 0 0 1-6.373-6.021v-51.93h52.729v51.93a6.2 6.2 0 0 1-6.372 6.021z" transform="translate(13.86 3.196)" style="stroke-linecap:round;stroke-linejoin:round;stroke-width:2.4px;stroke:#777;fill:none"/>
    <path data-name="사각형 5072" transform="translate(3.671)" style="fill:none" d="M0 0h90.539v75.71H0z"/>
    <path data-name="패스 12134" d="M22.647 37.363c-1.356 1.356-4.056 8.967-4.056 8.967s7.611-2.7 8.967-4.056a3.472 3.472 0 1 0-4.91-4.91" transform="translate(-.046 -.508)" style="fill:#fff"/>
    <path data-name="패스 12132" d="M14.394 37.363c1.356 1.356 4.056 8.967 4.056 8.967s-7.611-2.7-8.967-4.056a3.472 3.472 0 1 1 4.91-4.91" transform="translate(.096 -.508)" style="fill:#fff"/>
    <path data-name="패스 12133" d="M14.394 37.363c1.356 1.356 4.056 8.967 4.056 8.967s-7.611-2.7-8.967-4.056a3.472 3.472 0 1 1 4.91-4.91z" transform="translate(.096 -.508)" style="stroke:#fe4a4e;stroke-linecap:round;stroke-linejoin:round;stroke-width:2.4px;fill:none"/>
    <path data-name="패스 12135" d="M22.647 37.363c-1.356 1.356-4.056 8.967-4.056 8.967s7.611-2.7 8.967-4.056a3.472 3.472 0 1 0-4.91-4.91z" transform="translate(-.046 -.508)" style="stroke:#fe4a4e;stroke-linecap:round;stroke-linejoin:round;stroke-width:2.4px;fill:none"/>
    <path data-name="사각형 5066" transform="translate(1.2 45.82)" style="fill:#fff" d="M0 0h34.69v6.922H0z"/>
    <path data-name="사각형 5067" transform="translate(1.2 45.82)" style="stroke-linecap:round;stroke-linejoin:round;stroke-width:2.4px;stroke:#777;fill:none" d="M0 0h34.69v6.922H0z"/>
    <path data-name="사각형 5068" transform="translate(2.165 52.742)" style="fill:#fff" d="M0 0h32.76v21.982H0z"/>
    <path data-name="사각형 5069" transform="translate(2.165 52.742)" style="stroke-linecap:round;stroke-linejoin:round;stroke-width:2.4px;stroke:#777;fill:none" d="M0 0h32.76v21.982H0z"/>
    <path data-name="사각형 5070" transform="translate(15.346 45.821)" style="fill:#fff" d="M0 0h6.4v28.903H0z"/>
    <path data-name="사각형 5071" transform="translate(15.346 45.821)" style="stroke:#fe4a4e;stroke-linecap:round;stroke-linejoin:round;stroke-width:2.4px;fill:none" d="M0 0h6.4v28.903H0z"/>
    <path data-name="패스 12156" d="m45.581 7.342 2.737 5.545a1.509 1.509 0 0 0 1.136.826l6.12.889a1.509 1.509 0 0 1 .836 2.574l-4.428 4.316a1.513 1.513 0 0 0-.434 1.335l1.046 6.1a1.509 1.509 0 0 1-2.194 1.586l-5.473-2.878a1.511 1.511 0 0 0-1.4 0l-5.473 2.878a1.509 1.509 0 0 1-2.189-1.591l1.045-6.1a1.51 1.51 0 0 0-.433-1.335l-4.428-4.316a1.509 1.509 0 0 1 .836-2.574L39 13.713a1.51 1.51 0 0 0 1.136-.826l2.737-5.545a1.509 1.509 0 0 1 2.708 0z" transform="translate(8.91 26.34)" style="stroke:#fe4a4e;stroke-linecap:round;stroke-linejoin:round;stroke-width:2.4px;fill:none"/>
</svg>
