<svg xmlns="http://www.w3.org/2000/svg" width="50" height="50" viewBox="0 0 50 50">
    <defs>
        <filter id="zxwoc4n4ja" x="0" y="0" width="50" height="50" filterUnits="userSpaceOnUse">
            <feOffset dy="3"/>
            <feGaussianBlur stdDeviation="3" result="blur"/>
            <feFlood flood-opacity=".161"/>
            <feComposite operator="in" in2="blur"/>
            <feComposite in="SourceGraphic"/>
        </filter>
    </defs>
    <g data-name="Group 4167">
        <g style="filter:url(#zxwoc4n4ja)">
            <circle data-name="Ellipse 169" cx="16" cy="16" r="16" transform="translate(9.005 6.001)" style="fill:#fff"/>
        </g>
        <g data-name="Group 4167">
            <path data-name="Rectangle 2915" transform="translate(23 14)" style="fill:#fe4a4e" d="M0 0h4v4H0z"/>
            <path data-name="Rectangle 2919" transform="translate(23 20)" style="fill:#fe4a4e" d="M0 0h4v4H0z"/>
            <path data-name="Rectangle 2922" transform="translate(23 26)" style="fill:#fe4a4e" d="M0 0h4v4H0z"/>
            <path data-name="Rectangle 2917" transform="translate(29 14)" style="fill:#fe4a4e" d="M0 0h4v4H0z"/>
            <path data-name="Rectangle 2918" transform="translate(29 20)" style="fill:#fe4a4e" d="M0 0h4v4H0z"/>
            <path data-name="Rectangle 2921" transform="translate(29 26)" style="fill:#fe4a4e" d="M0 0h4v4H0z"/>
            <path data-name="Rectangle 2916" transform="translate(17 14)" style="fill:#fe4a4e" d="M0 0h4v4H0z"/>
            <path data-name="Rectangle 2920" transform="translate(17 20)" style="fill:#fe4a4e" d="M0 0h4v4H0z"/>
            <path data-name="Rectangle 2923" transform="translate(17 26)" style="fill:#fe4a4e" d="M0 0h4v4H0z"/>
        </g>
    </g>
</svg>
