<svg xmlns="http://www.w3.org/2000/svg" width="64" height="64" viewBox="0 0 64 64">
    <g transform="translate(-17763 2187.459)">
        <circle data-name="Ellipse 314" cx="32" cy="32" r="32" transform="translate(17763 -2187.459)" style="fill:#f2c5c5"/>
        <g data-name="Group 6043">
            <g data-name="Group 6031">
                <path data-name="Rectangle 3712" style="fill:red" d="M0 0h1.763v5.025H0z" transform="translate(17797.453 -2149.976)"/>
            </g>
        </g>
        <g data-name="Group 6044">
            <g data-name="Group 6026" transform="translate(17775.139 -2172.732)">
                <path data-name="Union 44" d="M.05 7.459H0V0h28.347v7.459H28.3c-.61 3.525-6.7 6.293-14.123 6.293S.66 10.984.05 7.459z" transform="translate(0 18.523)" style="fill:#fff"/>
                <path data-name="Union 44 - Outline" d="M14.173 11.858a22.212 22.212 0 0 0 8.842-1.658c1.958-.878 3.235-2.023 3.415-3.063l.022-.13V1.894H1.894v5.112l.022.13C2.1 8.176 3.373 9.321 5.332 10.2a22.212 22.212 0 0 0 8.841 1.659m0 1.894C6.75 13.752.66 10.984.05 7.459H0V0h28.347v7.459H28.3c-.614 3.525-6.7 6.293-14.127 6.293z" transform="translate(0 18.523)" style="fill:red"/>
                <path data-name="Union 45" d="M.05 7.459H0V0h28.347v7.459H28.3c-.61 3.525-6.7 6.293-14.123 6.293S.66 10.984.05 7.459z" transform="translate(0 12.91)" style="fill:#fff"/>
                <path data-name="Union 45 - Outline" d="M14.173 11.858a22.212 22.212 0 0 0 8.842-1.658c1.958-.878 3.235-2.023 3.415-3.063l.022-.13V1.894H1.894v5.112l.022.13C2.1 8.176 3.373 9.321 5.332 10.2a22.212 22.212 0 0 0 8.841 1.659m0 1.894C6.75 13.752.66 10.984.05 7.459H0V0h28.347v7.459H28.3c-.614 3.525-6.7 6.293-14.127 6.293z" transform="translate(0 12.91)" style="fill:red"/>
                <path data-name="Union 46" d="M.05 7.459H0V0h28.347v7.459H28.3c-.61 3.525-6.7 6.293-14.123 6.293S.66 10.984.05 7.459z" transform="translate(0 6.736)" style="fill:#fff"/>
                <path data-name="Union 46 - Outline" d="M14.173 11.858a22.212 22.212 0 0 0 8.842-1.658c1.958-.878 3.235-2.023 3.415-3.063l.022-.13V1.894H1.894v5.112l.022.13C2.1 8.176 3.373 9.321 5.332 10.2a22.212 22.212 0 0 0 8.841 1.659m0 1.894C6.75 13.752.66 10.984.05 7.459H0V0h28.347v7.459H28.3c-.614 3.525-6.7 6.293-14.127 6.293z" transform="translate(0 6.736)" style="fill:red"/>
                <ellipse data-name="Ellipse 311" cx="14.173" cy="6.876" rx="14.173" ry="6.876" style="fill:#fff"/>
                <path data-name="Ellipse 311 - Outline" d="M14.173 1.894a25.623 25.623 0 0 0-5.136.5 17.3 17.3 0 0 0-4.059 1.324c-1.931.937-3.084 2.117-3.084 3.158S3.047 9.1 4.978 10.034a17.3 17.3 0 0 0 4.059 1.322 25.623 25.623 0 0 0 5.136.5 25.623 25.623 0 0 0 5.136-.5 17.3 17.3 0 0 0 4.059-1.322c1.932-.934 3.084-2.117 3.084-3.158S25.3 4.655 23.368 3.718A17.3 17.3 0 0 0 19.309 2.4a25.623 25.623 0 0 0-5.136-.5m0-1.894C22 0 28.347 3.079 28.347 6.876S22 13.752 14.173 13.752 0 10.674 0 6.876 6.346 0 14.173 0z" style="fill:red"/>
            </g>
            <path data-name="Path 11904" d="M44.405 30.932 53 45.814l1.6 2.772a1.688 1.688 0 0 1-1.462 2.531H32.751a1.688 1.688 0 0 1-1.461-2.531l10.192-17.654a1.688 1.688 0 0 1 2.924 0" transform="translate(17758.252 -2188.577)" style="fill:red"/>
            <path data-name="Path 11904 - Outline" d="M52.951 51.249H32.566a2 2 0 0 1-1.735-3.005L41.023 30.59a2 2 0 0 1 3.47 0l10.194 17.654a2 2 0 0 1-1.736 3.005zM42.759 30.22a1.358 1.358 0 0 0-1.188.686L31.378 48.56a1.372 1.372 0 0 0 1.188 2.058h20.385a1.372 1.372 0 0 0 1.189-2.058L43.947 30.906a1.358 1.358 0 0 0-1.188-.686z" transform="translate(17758.437 -2188.393)" style="fill:#f50000"/>
            <path data-name="Path 11893" d="M47.494 48.115a.988.988 0 0 1-.987-.987v-7.242a.987.987 0 0 1 1.975 0v7.242a.988.988 0 0 1-.987.987" transform="translate(17753.7 -2191.173)" style="fill:#fff"/>
            <path data-name="Path 11894" d="M48.523 54.024a1.058 1.058 0 1 1-1.058-1.058 1.058 1.058 0 0 1 1.058 1.058" transform="translate(17753.729 -2195.319)" style="fill:#fff"/>
        </g>
    </g>
</svg>
