<svg data-name="icon_ arrow_default" xmlns="http://www.w3.org/2000/svg" width="15" height="12.188" viewBox="0 0 15 12.188">
    <path data-name="Union 1" d="M2.859 11.161V4.794H0L3.83 0l4.053 4.731H5.039l-.142 6.3a.821.821 0 0 1 0 .129 1.071 1.071 0 0 1-1.016 1.026 1.022 1.022 0 0 1-1.022-1.025z" style="fill:#bbb"/>
    <path data-name="Union 2" d="M2.859 1.026v6.368H0l3.83 4.794 4.053-4.731H5.039L4.9 1.155a.819.819 0 0 0 0-.129A1.071 1.071 0 0 0 3.876 0a1.022 1.022 0 0 0-1.017 1.026z" transform="translate(7.117)" style="fill:#000000"/>
</svg>
