<svg xmlns="http://www.w3.org/2000/svg" width="24" height="24" viewBox="0 0 24 24">
    <g data-name="Rectangle 54" style="fill:#f3f3f3;stroke:#eee">
        <rect width="24" height="24" rx="4" style="stroke:none"/>
        <rect x=".5" y=".5" width="23" height="23" rx="3.5" style="fill:none"/>
    </g>
    <g style="fill:#333;stroke-linecap:round">
        <path d="M6.617 13.108a6.462 6.462 0 0 1-4.485-1.798l-.088-.084-.086.086L.64 12.63a.301.301 0 0 1-.515-.213V8.537c0-.166.135-.301.302-.301h3.878c.15 0 .242.096.28.186.037.09.039.224-.066.329l-1.354 1.354-.091.091.093.088a5.016 5.016 0 0 0 3.45 1.367c1.345 0 2.61-.524 3.56-1.474a5.001 5.001 0 0 0 1.474-3.56 5.04 5.04 0 0 0-5.034-5.035c-1.15 0-2.231.377-3.128 1.089a.518.518 0 0 1-.685-.043l-.3-.301a.517.517 0 0 1 .039-.765A6.507 6.507 0 0 1 6.617.125a6.448 6.448 0 0 1 4.591 1.912 6.446 6.446 0 0 1 1.9 4.592c-.006 3.572-2.919 6.48-6.491 6.48z" style="stroke:none" transform="rotate(180 9.433 9.183)"/>
        <path d="M6.617 13.233v-.25c3.504 0 6.36-2.85 6.366-6.354a6.322 6.322 0 0 0-1.863-4.504A6.324 6.324 0 0 0 6.617.25c-1.45 0-2.87.5-3.996 1.41a.383.383 0 0 0-.143.28.387.387 0 0 0 .114.298l.3.3a.394.394 0 0 0 .52.035 5.106 5.106 0 0 1 3.205-1.116 5.165 5.165 0 0 1 5.159 5.16 5.126 5.126 0 0 1-1.51 3.648 5.126 5.126 0 0 1-3.65 1.51 5.14 5.14 0 0 1-3.534-1.4l-.188-.176L4.43 8.663a.17.17 0 0 0 .039-.193.17.17 0 0 0-.164-.11H.427a.177.177 0 0 0-.177.177v3.879c0 .123.105.178.18.178a.168.168 0 0 0 .122-.053l1.49-1.49.177.169a6.338 6.338 0 0 0 4.398 1.763v.25m0 0a6.594 6.594 0 0 1-4.571-1.832L.729 12.718A.427.427 0 0 1 0 12.416V8.537c0-.235.191-.426.427-.426h3.878c.38 0 .571.46.302.728l-1.354 1.354a4.909 4.909 0 1 0 3.363-8.486 4.89 4.89 0 0 0-3.05 1.062.641.641 0 0 1-.85-.053l-.301-.301a.64.64 0 0 1 .05-.95A6.589 6.589 0 0 1 6.62 0c3.646.003 6.619 2.984 6.612 6.63a6.617 6.617 0 0 1-6.616 6.603z" style="fill:#fff;stroke:none" transform="rotate(180 9.433 9.183)"/>
    </g>
</svg>
