<svg xmlns="http://www.w3.org/2000/svg" width="48" height="37" viewBox="0 0 48 37">
    <g data-name="그룹 910">
        <path data-name="패스 905" d="M39.993 67.291a16.522 16.522 0 0 0-20.019-11.768A16.284 16.284 0 0 0 7.536 70.06 8.856 8.856 0 0 0 .121 80.216a8.953 8.953 0 0 0 8.915 7.4h7.5v-2.947h-7.5a5.892 5.892 0 1 1 0-11.781 1.486 1.486 0 0 0 1.5-1.473 13.522 13.522 0 0 1 26.742-2.577 1.489 1.489 0 0 0 1.275 1.178 7.356 7.356 0 0 1-1.02 14.653h-6v2.945h6a10.29 10.29 0 0 0 2.46-20.323z" transform="translate(0 -55.032)" style="fill:#b7b7b7"/>
        <path data-name="패스 906" d="m187.034 249.439-6 5.891 2.115 2.076 3.45-3.372v14.123h3v-14.123l3.435 3.372 2.115-2.076-6-5.891a1.519 1.519 0 0 0-2.115 0z" transform="translate(-164.065 -231.157)" style="fill:#b7b7b7"/>
    </g>
</svg>
