<svg xmlns="http://www.w3.org/2000/svg" width="50" height="50" viewBox="0 0 50 50">
    <defs>
        <clipPath id="8vri8voeea">
            <path data-name="사각형 5463" style="fill:none" d="M0 0h42.459v36.204H0z"/>
        </clipPath>
    </defs>
    <g data-name="그룹 6964">
        <g data-name="패스 12270" style="fill:none">
            <path d="M0 36.877h42.459V8.134H0z" style="stroke:none" transform="translate(4 6.328)"/>
            <path d="M40.56 34.977V10.034H1.9v24.943h38.66m1.9 1.9H0V8.134h42.46v28.743z" style="fill:#555;stroke:none" transform="translate(4 6.328)"/>
        </g>
        <g data-name="패스 12271" style="fill:none">
            <path d="M0 9.756h42.459V0H0z" style="stroke:none" transform="translate(4 6.999)"/>
            <path d="M40.56 7.856V1.9H1.9v5.955h38.66m1.9 1.9H0V0h42.46v9.755z" style="fill:#555;stroke:none" transform="translate(4 6.999)"/>
        </g>
        <path data-name="사각형 5460" transform="translate(39.532 10.73)" style="fill:#555" d="M0 0h2.743v2.294H0z"/>
        <path data-name="사각형 5474" transform="translate(35.532 10.73)" style="fill:#555" d="M0 0h2.743v2.294H0z"/>
        <path data-name="사각형 5475" transform="translate(31.532 10.73)" style="fill:#555" d="M0 0h2.743v2.294H0z"/>
        <g data-name="그룹 6963">
            <g data-name="그룹 6962" style="clip-path:url(#8vri8voeea)" transform="translate(4 7)">
                <path data-name="패스 12272" d="m32.968 25.746-9.969-6a1.214 1.214 0 0 0-1.849 1.011V32.76A1.214 1.214 0 0 0 23 33.772l9.969-6a1.174 1.174 0 0 0-.001-2.026z" transform="translate(-4.737 -4.92)" style="stroke:#fe4a4e;stroke-linecap:round;stroke-linejoin:round;stroke-width:2.2px;fill:none"/>
            </g>
        </g>
    </g>
    <path data-name="사각형 5469" style="fill:none" d="M0 0h50v50H0z"/>
</svg>
