<svg xmlns="http://www.w3.org/2000/svg" width="64" height="64" viewBox="0 0 64 64">
    <g transform="translate(-13148.5 -1422.5)">
        <path data-name="Path 11896" d="M32 0A32 32 0 1 1 0 32 32 32 0 0 1 32 0z" transform="translate(13148.5 1422.5)" style="fill:#ffc7c8"/>
        <path data-name="Union 41" d="M.052 7.67H0V0h29.568v7.67h-.052c-.636 3.624-6.989 6.471-14.732 6.471S.688 11.294.052 7.67z" transform="translate(13163.871 1454.286)" style="fill:#fff"/>
        <path data-name="Union 41 - Outline" d="M14.784 12.213a23.534 23.534 0 0 0 9.251-1.713c2.054-.908 3.393-2.091 3.581-3.164l.023-.133V1.928H1.928V7.2l.023.133C2.14 8.41 3.479 9.593 5.533 10.5a23.533 23.533 0 0 0 9.251 1.712m0 1.928C7.041 14.141.688 11.294.052 7.67H0V0h29.568v7.67h-.052c-.637 3.624-6.989 6.471-14.732 6.471z" transform="translate(13163.871 1454.286)" style="fill:#fe4a4e"/>
        <path data-name="Union 42" d="M.052 7.67H0V0h29.568v7.67h-.052c-.636 3.624-6.989 6.471-14.732 6.471S.688 11.294.052 7.67z" transform="translate(13163.871 1448.676)" style="fill:#fff"/>
        <path data-name="Union 42 - Outline" d="M14.784 12.213a23.534 23.534 0 0 0 9.251-1.713c2.054-.908 3.393-2.091 3.581-3.164l.023-.133V1.928H1.928V7.2l.023.133C2.14 8.41 3.479 9.593 5.533 10.5a23.533 23.533 0 0 0 9.251 1.712m0 1.928C7.041 14.141.688 11.294.052 7.67H0V0h29.568v7.67h-.052c-.637 3.624-6.989 6.471-14.732 6.471z" transform="translate(13163.871 1448.676)" style="fill:#fe4a4e"/>
        <path data-name="Union 43" d="M.052 7.67H0V0h29.568v7.67h-.052c-.636 3.624-6.989 6.471-14.732 6.471S.688 11.294.052 7.67z" transform="translate(13163.871 1442.444)" style="fill:#fff"/>
        <path data-name="Union 43 - Outline" d="M14.784 12.213a23.534 23.534 0 0 0 9.251-1.713c2.054-.908 3.393-2.091 3.581-3.164l.023-.133V1.928H1.928V7.2l.023.133C2.14 8.41 3.479 9.593 5.533 10.5a23.533 23.533 0 0 0 9.251 1.712m0 1.928C7.041 14.141.688 11.294.052 7.67H0V0h29.568v7.67h-.052c-.637 3.624-6.989 6.471-14.732 6.471z" transform="translate(13163.871 1442.444)" style="fill:#fe4a4e"/>
        <circle data-name="Ellipse 306" cx="10.606" cy="10.606" r="10.606" transform="translate(13178.266 1452.266)" style="fill:#fff"/>
        <path data-name="Ellipse 306 - Outline" d="M9.534-3A12.534 12.534 0 1 1-3 9.534 12.548 12.548 0 0 1 9.534-3zm0 21.212A8.678 8.678 0 1 0 .857 9.534a8.687 8.687 0 0 0 8.677 8.678z" transform="translate(13179.333 1453.332)" style="fill:#fe4a4e"/>
        <path data-name="Path 11895" d="M10892.341 1114.349a1.926 1.926 0 0 1-1.449-.656l-4.081-4.65a1.928 1.928 0 0 1 2.9-2.543l2.593 2.955 5.355-6.427a1.928 1.928 0 1 1 2.963 2.469l-6.8 8.159a1.926 1.926 0 0 1-1.456.694z" transform="translate(2295.259 354.964)" style="fill:#fe4a4e"/>
        <g data-name="Group 6023" transform="translate(13176.333 1450.332)">
            <circle data-name="Ellipse 293" cx="10.606" cy="10.606" r="10.606" transform="translate(1.928 1.928)" style="fill:#fff"/>
            <path data-name="Ellipse 293 - Outline" d="M9.534-3A12.534 12.534 0 1 1-3 9.534 12.548 12.548 0 0 1 9.534-3zm0 21.212A8.678 8.678 0 1 0 .857 9.534a8.687 8.687 0 0 0 8.677 8.678z" transform="translate(3 3)" style="fill:#fe4a4e"/>
            <path data-name="Path 11886" d="M10892.341 1114.349a1.926 1.926 0 0 1-1.449-.656l-4.081-4.65a1.928 1.928 0 0 1 2.9-2.543l2.593 2.955 5.355-6.427a1.928 1.928 0 1 1 2.963 2.469l-6.8 8.159a1.926 1.926 0 0 1-1.456.694z" transform="translate(-10881.133 -1095.429)" style="fill:#fe4a4e"/>
        </g>
        <g data-name="Group 6024" transform="translate(13177.3 1451.299)">
            <circle data-name="Ellipse 293" cx="10.606" cy="10.606" r="10.606" transform="translate(.964 .964)" style="fill:#fe4a4e"/>
            <path data-name="Ellipse 293 - Outline" d="M10.07-1.5a11.567 11.567 0 0 1 8.181 19.751A11.57 11.57 0 1 1 5.566-.59a11.5 11.5 0 0 1 4.504-.91zm0 21.212A9.642 9.642 0 1 0 .428 10.07a9.653 9.653 0 0 0 9.642 9.642z" transform="translate(1.5 1.5)" style="fill:#fe4a4e"/>
            <path data-name="Path 11886" d="M10892.877 1113.921a.966.966 0 0 1-.726-.328l-4.08-4.65a.964.964 0 0 1 1.45-1.272l3.336 3.8 6.077-7.293a.964.964 0 0 1 1.481 1.234l-6.8 8.159a.964.964 0 0 1-.729.347z" transform="translate(-10882.632 -1096.929)" style="fill:#fff"/>
        </g>
        <ellipse data-name="Ellipse 307" cx="14.784" cy="7.071" rx="14.784" ry="7.071" transform="translate(13163.871 1436.211)" style="fill:#fff"/>
        <path data-name="Ellipse 307 - Outline" d="M14.784 1.928a27.173 27.173 0 0 0-5.372.517 18.3 18.3 0 0 0-4.25 1.365C3.137 4.779 1.928 6 1.928 7.071s1.209 2.292 3.234 3.26a18.3 18.3 0 0 0 4.25 1.369 27.173 27.173 0 0 0 5.372.517 27.173 27.173 0 0 0 5.372-.517 18.3 18.3 0 0 0 4.25-1.365c2.025-.968 3.234-2.187 3.234-3.26s-1.209-2.292-3.234-3.26a18.3 18.3 0 0 0-4.25-1.365 27.173 27.173 0 0 0-5.372-.517m0-1.928c8.165 0 14.784 3.166 14.784 7.071s-6.619 7.071-14.784 7.071S0 10.976 0 7.071 6.619 0 14.784 0z" transform="translate(13163.871 1436.211)" style="fill:#fe4a4e"/>
    </g>
</svg>
