<svg xmlns="http://www.w3.org/2000/svg" width="48.519" height="44" viewBox="0 0 48.519 44">
    <defs>
        <clipPath id="vx7qqrme1a">
            <path data-name="Rectangle 2935" style="fill:#ccc" d="M0 0h48.519v44H0z"/>
        </clipPath>
    </defs>
    <g data-name="Group 4185" style="clip-path:url(#vx7qqrme1a)">
        <path data-name="Path 11404" d="M54.924 41.628h3.461a.047.047 0 0 1 .047.047v6.555l-.168 4.7a.047.047 0 0 1-.047.045h-3.126a.047.047 0 0 1-.047-.045l-.167-4.7v-6.555a.047.047 0 0 1 .047-.047m.169 13.264h3.123a.047.047 0 0 1 .048.047v3.089a.047.047 0 0 1-.048.047h-3.123a.047.047 0 0 1-.047-.047v-3.089a.047.047 0 0 1 .047-.047" transform="translate(-32.395 -24.574)" style="fill:#ccc"/>
        <path data-name="Path 11405" d="M58.071 58.03h-3.123a.147.147 0 0 1-.147-.147v-3.089a.148.148 0 0 1 .147-.148h3.123a.148.148 0 0 1 .147.148v3.088a.147.147 0 0 1-.147.147m-3.023-.2h2.922a.047.047 0 0 0 .048-.047v-2.888a.047.047 0 0 0-.048-.047h-2.921a.047.047 0 0 0-.047.047v2.887a.047.047 0 0 0 .047.047m3.024-4.9h-3.126a.147.147 0 0 1-.147-.142l-.167-4.695V41.53a.148.148 0 0 1 .147-.148h3.46a.148.148 0 0 1 .147.148v6.555l-.168 4.7a.147.147 0 0 1-.147.142m-3.029-.2h2.932a.047.047 0 0 0 .047-.045l.164-4.6V41.63a.047.047 0 0 0-.047-.047H54.88a.047.047 0 0 0-.047.047v6.455L55 52.679a.047.047 0 0 0 .047.045" transform="translate(-32.25 -24.429)" style="fill:#ccc"/>
        <path data-name="Path 11406" d="M24.26 4.916a2.436 2.436 0 0 1 2.129 1.229L43.277 35.4a2.458 2.458 0 0 1-2.129 3.688H7.372a2.458 2.458 0 0 1-2.13-3.688L22.131 6.145a2.436 2.436 0 0 1 2.129-1.229m0-4.916a7.4 7.4 0 0 0-6.386 3.687L.985 32.938A7.374 7.374 0 0 0 7.372 44h33.776a7.374 7.374 0 0 0 6.386-11.062L30.646 3.687A7.4 7.4 0 0 0 24.26 0" style="fill:#ccc"/>
    </g>
</svg>
