<svg xmlns="http://www.w3.org/2000/svg" width="93.327" height="69.131" viewBox="0 0 93.327 69.131">
    <g data-name="그룹 6595">
        <g data-name="그룹 6597">
            <path data-name="패스 12138" d="M85.009 1H7.365C3.85 1 1 4.8 1 9.485v4.577h90.375V9.485C91.375 4.8 88.525 1 85.009 1" transform="translate(.261 .123)" style="fill:#ffdbdb"/>
            <path data-name="패스 12140" d="M71 5.852a1.919 1.919 0 1 1-1.919-1.919A1.919 1.919 0 0 1 71 5.852" transform="translate(3.124 1.635)" style="fill:#fff"/>
            <path data-name="패스 12141" d="M76.127 5.852a1.919 1.919 0 1 1-1.919-1.919 1.919 1.919 0 0 1 1.919 1.919" transform="translate(3.754 1.635)" style="fill:#fff"/>
            <path data-name="패스 12142" d="M81.258 5.852a1.919 1.919 0 1 1-1.918-1.919 1.919 1.919 0 0 1 1.919 1.919" transform="translate(4.384 1.635)" style="fill:#fff"/>
            <path data-name="패스 12143" d="m66.592 20.041 1.662 3.368a.9.9 0 0 0 .678.492l3.716.54a.9.9 0 0 1 .5 1.534L70.456 28.6a.9.9 0 0 0-.258.8l.635 3.7a.9.9 0 0 1-1.306.949L66.2 32.294a.9.9 0 0 0-.836 0l-3.324 1.748a.9.9 0 0 1-1.3-.949l.634-3.7a.9.9 0 0 0-.258-.8l-2.69-2.622a.9.9 0 0 1 .5-1.534l3.717-.54a.9.9 0 0 0 .677-.492l1.662-3.368a.9.9 0 0 1 1.613 0" transform="translate(2.704 5.144)" style="fill:#fff"/>
            <path data-name="패스 12144" d="m66.592 20.041 1.662 3.368a.9.9 0 0 0 .678.492l3.716.54a.9.9 0 0 1 .5 1.534L70.456 28.6a.9.9 0 0 0-.258.8l.635 3.7a.9.9 0 0 1-1.306.949L66.2 32.294a.9.9 0 0 0-.836 0l-3.324 1.748a.9.9 0 0 1-1.3-.949l.634-3.7a.9.9 0 0 0-.258-.8l-2.69-2.622a.9.9 0 0 1 .5-1.534l3.717-.54a.9.9 0 0 0 .677-.492l1.662-3.368a.9.9 0 0 1 1.61.004z" transform="translate(2.704 4.079)" style="stroke-linejoin:round;stroke-linecap:round;stroke-width:2.4px;stroke:#fe4a4e;fill:none"/>
            <path data-name="패스 12146" d="m47.648 7.466 3.141 6.365a1.731 1.731 0 0 0 1.3.948l7.028 1.021a1.732 1.732 0 0 1 .96 2.954l-5.083 4.953a1.737 1.737 0 0 0-.5 1.533l1.2 7a1.732 1.732 0 0 1-2.513 1.826l-6.282-3.3a1.734 1.734 0 0 0-1.612 0l-6.282 3.3a1.732 1.732 0 0 1-2.505-1.831l1.2-7a1.733 1.733 0 0 0-.5-1.533l-5.083-4.953a1.732 1.732 0 0 1 .96-2.954l7.023-1.016a1.733 1.733 0 0 0 1.3-.948l3.141-6.365a1.732 1.732 0 0 1 3.107 0z" transform="translate(1.068 4.928)" style="stroke-linejoin:round;stroke-linecap:round;stroke-width:2.4px;stroke:#fe4a4e;fill:#fff"/>
            <path data-name="패스 12147" d="m25.711 20.041 1.662 3.368a.9.9 0 0 0 .678.492l3.716.54a.9.9 0 0 1 .5 1.534L29.576 28.6a.9.9 0 0 0-.259.8l.635 3.7a.9.9 0 0 1-1.306.949l-3.324-1.748a.9.9 0 0 0-.836 0l-3.324 1.748a.9.9 0 0 1-1.3-.949l.634-3.7a.9.9 0 0 0-.258-.8l-2.69-2.622a.9.9 0 0 1 .5-1.534l3.717-.54a.9.9 0 0 0 .677-.492l1.658-3.371a.9.9 0 0 1 1.613 0" transform="translate(.956 5.144)" style="fill:#fff"/>
            <path data-name="패스 12148" d="m25.711 20.041 1.662 3.368a.9.9 0 0 0 .678.492l3.716.54a.9.9 0 0 1 .5 1.534L29.576 28.6a.9.9 0 0 0-.259.8l.635 3.7a.9.9 0 0 1-1.306.949l-3.324-1.748a.9.9 0 0 0-.836 0l-3.324 1.748a.9.9 0 0 1-1.3-.949l.634-3.7a.9.9 0 0 0-.258-.8l-2.69-2.622a.9.9 0 0 1 .5-1.534l3.717-.54a.9.9 0 0 0 .677-.492l1.658-3.371a.9.9 0 0 1 1.611 0z" transform="translate(.956 4.079)" style="stroke-linejoin:round;stroke-linecap:round;stroke-width:2.4px;stroke:#fe4a4e;fill:none"/>
            <path data-name="사각형 5074" transform="translate(17.809 44.585)" style="stroke:#777;stroke-linejoin:round;stroke-linecap:round;stroke-width:2.4px;fill:none" d="M0 0h58.419v11.85H0z"/>
            <path data-name="패스 12150" d="M13.011 53.748H6.445l2.21-5.448-2.211-5.57h6.566z" transform="translate(4.798 5.578)" style="stroke:#777;stroke-linejoin:round;stroke-linecap:round;stroke-width:2.4px;fill:none"/>
            <path data-name="패스 12152" d="M75.56 42.731h6.99l-2.35 5.446 2.353 5.57H75.56z" transform="translate(.669 5.578)" style="stroke:#777;stroke-linejoin:round;stroke-linecap:round;stroke-width:2.4px;fill:none"/>
        </g>
        <g data-name="패스 12155" style="fill:none">
            <path d="M8.682 0h75.963a8.88 8.88 0 0 1 8.682 9.066v51a8.88 8.88 0 0 1-8.682 9.066H8.682A8.88 8.88 0 0 1 0 60.065v-51A8.88 8.88 0 0 1 8.682 0z" style="stroke:none"/>
            <path d="M8.682 2.4C5.218 2.4 2.4 5.39 2.4 9.066v50.999c0 3.675 2.818 6.666 6.282 6.666h75.963c3.464 0 6.282-2.99 6.282-6.666V9.066c0-3.675-2.818-6.666-6.282-6.666H8.682m0-2.4h75.963c4.795 0 8.682 4.06 8.682 9.066v50.999c0 5.007-3.887 9.066-8.682 9.066H8.682C3.887 69.131 0 65.071 0 60.065V9.066C0 4.06 3.887 0 8.682 0z" style="fill:#777;stroke:none"/>
        </g>
    </g>
    <path data-name="패스 12153" d="M810.338 367.032h36.133" transform="translate(-808.798 -353.169)" style="stroke:#777;stroke-linecap:round;stroke-width:2.4px;fill:none"/>
    <path data-name="패스 12154" d="M810.338 367.032h36.107" transform="translate(-754.497 -353.169)" style="stroke:#777;stroke-linecap:round;stroke-width:2.4px;fill:none"/>
</svg>
