<svg xmlns="http://www.w3.org/2000/svg" width="64" height="60" viewBox="0 0 64 60">
    <path data-name="Path 11911" d="M0 0h2.377v6.775H0z" transform="translate(33.462 6.471)" style="fill:#fe4a4e"/>
    <path data-name="Path 11910" d="M0 0h2.377v6.775H0z" transform="translate(38.454 6.471)" style="fill:#fe4a4e"/>
    <path data-name="Path 11909" d="M0 0h2.377v6.775H0z" transform="translate(33.462 23.111)" style="fill:#fe4a4e"/>
    <path data-name="Path 11908" d="M0 0h2.377v6.775H0z" transform="translate(38.454 23.111)" style="fill:#fe4a4e"/>
    <path data-name="Path 11855" d="m62.5 52.834-13.741-23.8a3.658 3.658 0 0 0-2.029-1.654v-4.595a5.873 5.873 0 0 0-2.648-4.84 5.91 5.91 0 0 0 2.9-5.012v-6.94A6.226 6.226 0 0 0 40.561 0H6.68A6.226 6.226 0 0 0 .258 5.993v6.94A5.878 5.878 0 0 0 2.9 17.776 5.9 5.9 0 0 0 0 22.785v6.942a5.9 5.9 0 0 0 2.827 4.966 5.888 5.888 0 0 0-2.755 4.915v6.942a6.226 6.226 0 0 0 6.422 6h22.279l-.165.288a3.7 3.7 0 0 0 3.205 5.552h27.48a3.7 3.7 0 0 0 3.207-5.556m-2.469 2.274a.839.839 0 0 1-.736.425H31.812a.849.849 0 0 1-.736-1.273l.99-1.714 1.372-2.377 4.516-7.821 1.306-2.262 2.269-3.929.36-.625.861-1.491 2.067-3.581a.837.837 0 0 1 .736-.425.836.836 0 0 1 .734.425l.3.518L60.029 54.26a.835.835 0 0 1 0 .848M2.635 12.933v-6.94A3.853 3.853 0 0 1 6.68 2.377h33.881a3.852 3.852 0 0 1 4.045 3.616v6.94a3.855 3.855 0 0 1-4.045 3.623H6.68a3.856 3.856 0 0 1-4.045-3.623m-.258 16.794v-6.942a3.854 3.854 0 0 1 4.046-3.618h33.884a3.856 3.856 0 0 1 4.046 3.618v4.6a3.667 3.667 0 0 0-2.006 1.648l-2.489 4.312H6.423a3.855 3.855 0 0 1-4.046-3.619m4.117 20.443a3.854 3.854 0 0 1-4.045-3.618v-6.943a3.854 3.854 0 0 1 4.045-3.618h31.837l-2.992 5.183v-1.087h-2.377v5.2l-2.816 4.879z" transform="translate(.5 .378)" style="fill:#fe4a4e"/>
    <path data-name="Path 11856" d="M47.838 51.324a1.315 1.315 0 0 0 .523-.107 1.33 1.33 0 0 0 .808-1.224V40.23a1.331 1.331 0 1 0-2.662 0v9.762a1.331 1.331 0 0 0 1.331 1.331" transform="translate(-1.786 -1.534)" style="fill:#fe4a4e"/>
    <path data-name="Path 11857" d="M47.833 52.966a1.4 1.4 0 0 0-.246.025 1.409 1.409 0 1 0 .246-.025" transform="translate(-1.781 -2.226)" style="fill:#fe4a4e"/>
</svg>
