<svg xmlns="http://www.w3.org/2000/svg" width="64" height="64" viewBox="0 0 64 64">
    <g transform="translate(-12776.213 -307.212)">
        <circle data-name="Ellipse 293" cx="30.982" cy="30.982" r="30.982" transform="translate(12777.372 308.088)" style="fill:#fff"/>
        <path data-name="Ellipse 293 - Outline" d="M26-1.317A27.317 27.317 0 1 0 53.317 26 27.317 27.317 0 0 0 26-1.317M26-6A32 32 0 1 1-6 26 32.036 32.036 0 0 1 26-6z" transform="translate(12782.213 313.212)" style="fill:#fe4a4e"/>
        <path data-name="Path 11886" d="M10899.009 1128.885a2.339 2.339 0 0 1-1.8-.846l-10.336-12.463a2.341 2.341 0 0 1 3.6-2.993l8.488 10.235 15.437-19.593a2.341 2.341 0 1 1 3.675 2.9l-17.227 21.866a2.34 2.34 0 0 1-1.809.892z" transform="translate(1905.759 -775.539)" style="fill:#fe4a4e"/>
    </g>
</svg>
