<svg xmlns="http://www.w3.org/2000/svg" width="64" height="60" viewBox="0 0 64 60">
    <g data-name="Group 6578">
        <path data-name="Path 11888" d="M86.532 85.588h-50.2a6.76 6.76 0 0 1-5.856-10.141l25.1-43.477a6.7 6.7 0 0 1 5.856-3.382 6.7 6.7 0 0 1 5.854 3.382l25.1 43.477a6.76 6.76 0 0 1-5.856 10.141M61.431 33.8a1.525 1.525 0 0 0-1.343.776l-25.1 43.477a1.549 1.549 0 0 0 1.344 2.324h50.2a1.549 1.549 0 0 0 1.344-2.324l-25.1-43.477a1.526 1.526 0 0 0-1.341-.776z" transform="translate(-29.558 -27.088)" style="fill:red"/>
        <path data-name="Path 11889" d="M48.948 61.686a2.442 2.442 0 0 1-2.441-2.441V41.34a2.441 2.441 0 0 1 4.883 0v17.9a2.442 2.442 0 0 1-2.441 2.441" transform="translate(-16.823 -19.536)" style="fill:red"/>
        <path data-name="Path 11890" d="M51.639 55.582a2.616 2.616 0 1 1-2.616-2.616 2.617 2.617 0 0 1 2.616 2.616" transform="translate(-16.898 -9.138)" style="fill:red"/>
    </g>
</svg>
