<svg xmlns="http://www.w3.org/2000/svg" width="11.999" height="12" viewBox="0 0 11.999 12">
    <path data-name="Path 957" d="M62.029 67.718a1.109 1.109 0 1 0 1.109 1.109 1.109 1.109 0 0 0-1.109-1.109zm3.4 1.408a1.109 1.109 0 1 0 1.109 1.109 1.109 1.109 0 0 0-1.11-1.109zm4.807-4.807a1.109 1.109 0 1 0 1.109 1.109 1.109 1.109 0 0 0-1.11-1.109zm-1.408 3.4a1.109 1.109 0 1 0 1.109 1.109 1.109 1.109 0 0 0-1.11-1.11zm0-4.579a1.109 1.109 0 1 0-1.109-1.109 1.109 1.109 0 0 0 1.108 1.108z" transform="translate(-59.345 -59.344)" style="fill:#f9d98e"/>
    <path data-name="Path 958" d="M2.817 1.576a1.242 1.242 0 1 0 1.242 1.241 1.242 1.242 0 0 0-1.242-1.241zM1.242 5.38a1.242 1.242 0 1 0 1.241 1.242A1.242 1.242 0 0 0 1.242 5.38zM6.622 0a1.242 1.242 0 1 0 1.242 1.242A1.242 1.242 0 0 0 6.622 0z" style="fill:#f3b115"/>
</svg>
