<svg xmlns="http://www.w3.org/2000/svg" width="50" height="50" viewBox="0 0 50 50">
    <defs>
        <clipPath id="2xcau62nna">
            <path data-name="사각형 5465" style="fill:none" d="M0 0h39.739v39.74H0z"/>
        </clipPath>
    </defs>
    <g data-name="그룹 6966">
        <g data-name="그룹 6965" transform="translate(5 5)" style="clip-path:url(#2xcau62nna)">
            <path data-name="패스 12273" d="M16.139 27.309a11.171 11.171 0 1 1 6.476-20.274L21.506 8.59a9.237 9.237 0 1 0 3.306 4.292l1.787-.671a11.178 11.178 0 0 1-10.46 15.1" transform="translate(-1.174 -1.174)" style="fill:#fe4a4e"/>
            <path data-name="패스 12274" d="M29.572 12.372a9.36 9.36 0 0 0-1.139-1.487l1.391-1.307A11.257 11.257 0 0 1 31.2 11.37z" transform="translate(-6.72 -2.263)" style="fill:#fe4a4e"/>
            <path data-name="패스 12275" d="M14.965 29.929A14.965 14.965 0 1 1 29.93 14.965a14.981 14.981 0 0 1-14.965 14.964m0-28.02a13.055 13.055 0 1 0 13.056 13.056A13.07 13.07 0 0 0 14.965 1.909" style="fill:#555"/>
            <path data-name="패스 12276" d="m43.648 47.961-8.855-8.855 4.314-4.315 8.855 8.856zm-6.155-8.855 6.155 6.155 1.614-1.614-6.155-6.155z" transform="translate(-8.223 -8.222)" style="fill:#555"/>
            <path data-name="사각형 5464" transform="rotate(-45 45.657 -17.56)" style="fill:#555" d="M0 0h1.909v4.154H0z"/>
        </g>
    </g>
    <path data-name="사각형 5467" style="fill:none" d="M0 0h50v50H0z"/>
</svg>
