<svg xmlns="http://www.w3.org/2000/svg" width="15.999" height="16" viewBox="0 0 15.999 16">
    <path d="M15.122 6.263 13.869 6.1a6.3 6.3 0 0 0-.379-.916l.774-1a.991.991 0 0 0-.081-1.319l-1.05-1.05a.994.994 0 0 0-1.323-.085l-1 .774a6.277 6.277 0 0 0-.91-.373L9.737.88a1 1 0 0 0-.99-.88H7.253a1 1 0 0 0-.991.878L6.1 2.131a6.2 6.2 0 0 0-.917.379l-1-.774a.992.992 0 0 0-1.319.081l-1.043 1.05a.994.994 0 0 0-.085 1.324l.774 1a6.227 6.227 0 0 0-.379.916L.88 6.263a1 1 0 0 0-.88.99v1.494a1 1 0 0 0 .878.991l1.253.162a6.3 6.3 0 0 0 .379.916l-.774 1a.991.991 0 0 0 .081 1.319l1.05 1.05a.994.994 0 0 0 1.323.084l1-.774a6.155 6.155 0 0 0 .916.379l.159 1.251a1 1 0 0 0 .988.875h1.494a1 1 0 0 0 .991-.878l.162-1.253a6.3 6.3 0 0 0 .916-.379l1 .774a.991.991 0 0 0 1.319-.081l1.05-1.05a.993.993 0 0 0 .085-1.323l-.774-1a6.155 6.155 0 0 0 .379-.916l1.251-.159A1 1 0 0 0 16 8.747V7.253a1 1 0 0 0-.877-.991zM8 11.333A3.333 3.333 0 1 1 11.333 8 3.337 3.337 0 0 1 8 11.333z" style="fill:#aaa"/>
</svg>
