<svg xmlns="http://www.w3.org/2000/svg" width="12" height="12" viewBox="0 0 12 12">
    <path data-name="Path 900" d="M20.229 3H16v1.377h1.4v.937H16v.916h1.385v.923H16v.923h1.385V9H16v.923h1.385v.923H16v1.385h4.229a.4.4 0 0 0 .387-.4V3.4a.4.4 0 0 0-.387-.4zm-.536 7.846h-1.847v-.923h1.846zm0-1.846h-1.847v-.923h1.846zm0-1.846h-1.847v-.923h1.846zm0-1.846h-1.847v-.923h1.846z" transform="translate(-8.615 -1.615)" style="fill:#fff"/>
    <path data-name="Path 901" d="M0 1.333v9.334L6.923 12V0zm4.379 7.012-.805-1.523a1.351 1.351 0 0 1-.095-.313h-.012a2.37 2.37 0 0 1-.108.326l-.809 1.51H1.3l1.49-2.337L1.422 3.67H2.7l.668 1.4a2.449 2.449 0 0 1 .14.394h.013q.039-.137.147-.408l.743-1.389h1.177l-1.4 2.318 1.44 2.359z" style="fill:#fff"/>
</svg>
