<svg xmlns="http://www.w3.org/2000/svg" width="15" height="15" viewBox="0 0 15 15">
    <path data-name="btn_que" d="M15.5 18.04a.847.847 0 1 0 .847.847.847.847 0 0 0-.847-.847zm.232-.726h-.484a.363.363 0 0 1-.363-.363v-.011c0-2.127 2.342-1.924 2.342-3.248 0-.605-.537-1.216-1.737-1.216a2 2 0 0 0-1.791.868.362.362 0 0 1-.491.072l-.4-.277a.362.362 0 0 1-.08-.519 3.173 3.173 0 0 1 2.759-1.353c1.582 0 2.947.9 2.947 2.426 0 2.039-2.342 1.931-2.342 3.248v.012a.363.363 0 0 1-.363.363zM15.5 8.968A6.532 6.532 0 1 1 8.968 15.5 6.533 6.533 0 0 1 15.5 8.968m0-.968a7.5 7.5 0 1 0 7.5 7.5A7.5 7.5 0 0 0 15.5 8z" transform="translate(-8 -8)" style="fill:#aaa"/>
</svg>
