<svg xmlns="http://www.w3.org/2000/svg" width="13.997" height="17.991" viewBox="0 0 13.997 17.991">
    <path data-name="-e-icon_id_on" d="M2842.81 445a.821.821 0 0 1-.812-.828v-2.809a6.371 6.371 0 0 1 4.074-5.951 4.746 4.746 0 0 1-1.718-3.671 4.644 4.644 0 1 1 9.286 0 4.747 4.747 0 0 1-1.719 3.671 6.372 6.372 0 0 1 4.074 5.951v2.809a.821.821 0 0 1-.812.828zm11.56-1.656v-1.982a4.655 4.655 0 0 0-4.606-4.693h-1.535a4.655 4.655 0 0 0-4.606 4.693v1.982zm-5.37-14.682a3.076 3.076 0 1 0 3.018 3.076 3.051 3.051 0 0 0-3.018-3.076z" transform="translate(-2841.998 -427.006)" style="fill:#bfe09a"/>
</svg>
