<svg xmlns="http://www.w3.org/2000/svg" width="13.998" height="17.991" viewBox="0 0 13.998 17.991">
    <path data-name="-e-icon_id_off" d="M814.81 445a.821.821 0 0 1-.812-.828v-2.809a6.372 6.372 0 0 1 4.074-5.951 4.747 4.747 0 0 1-1.719-3.671 4.644 4.644 0 1 1 9.286 0 4.746 4.746 0 0 1-1.718 3.671 6.372 6.372 0 0 1 4.074 5.951v2.809a.821.821 0 0 1-.813.828zm11.56-1.656v-1.982a4.655 4.655 0 0 0-4.606-4.693h-1.535a4.655 4.655 0 0 0-4.606 4.693v1.982zM821 428.662a3.076 3.076 0 1 0 3.018 3.076 3.051 3.051 0 0 0-3.018-3.076z" transform="translate(-813.997 -427.006)" style="fill:#e8e9ec"/>
</svg>
