<svg data-name="그룹 22" xmlns="http://www.w3.org/2000/svg" width="76.26" height="67.651" viewBox="0 0 76.26 67.651">
    <defs>
        <clipPath id="jpsiluktia">
            <path data-name="사각형 6045" style="fill:none" d="M0 0h76.26v67.651H0z"/>
        </clipPath>
        <clipPath id="z01j35h5gb">
            <path data-name="사각형 6043" style="fill:none" d="M0 0h43.029v23.619H0z"/>
        </clipPath>
    </defs>
    <g data-name="그룹 20" style="clip-path:url(#jpsiluktia)">
        <g data-name="그룹 19">
            <g data-name="그룹 18" style="clip-path:url(#jpsiluktia)">
                <path data-name="패스 6816" d="M49.939 89.38a32.427 32.427 0 1 1 32.427 32.427A32.427 32.427 0 0 1 49.939 89.38" transform="translate(-48.713 -55.555)" style="fill:#ffffe3"/>
                <path data-name="패스 6817" d="M1081.585 1082.509a1.326 1.326 0 0 1 1.326-1.326.033.033 0 0 0 .033-.038 7.555 7.555 0 0 0-6.005-6.058h-.033l-.032-.006a.032.032 0 0 0-.038.032 1.326 1.326 0 0 1-2.651 0 .033.033 0 0 0-.038-.033 7.545 7.545 0 0 0-6.056 6v.02l-.01.055a.032.032 0 0 0 .032.038 1.326 1.326 0 0 1 0 2.651.032.032 0 0 0-.032.038 7.548 7.548 0 0 0 6.07 6.07.032.032 0 0 0 .038-.032 1.326 1.326 0 0 1 2.651 0 .032.032 0 0 0 .038.032 7.546 7.546 0 0 0 6.055-5.988v-.01l.013-.073a.032.032 0 0 0-.032-.038 1.326 1.326 0 0 1-1.326-1.326" transform="translate(-1041.856 -1048.684)" style="fill:#fe0955"/>
                <path data-name="패스 6818" d="M1259.329 1265.22v.326c0 .016 0 .033-.006.049v.016l-.009.055v.01c0 .021-.007.041-.011.062a2.881 2.881 0 0 1-5.658-1.092.075.075 0 0 1 0-.008 2.881 2.881 0 0 1 3-2.328h.069l.058.005h.019l.053.006h.021l.034.005h.027l.045.007.033.006h.009a2.88 2.88 0 0 1 2.336 2.857" transform="translate(-1222.794 -1231.324)" style="fill:#ffffe3"/>
                <path data-name="패스 6819" d="M132.138 87.893a31.859 31.859 0 0 0-18.294-11.6l-.246-.036a32.525 32.525 0 0 0-13.29 0l-.058.015a31.789 31.789 0 0 0-25.059 31.088q0 .739.034 1.47a31.791 31.791 0 0 0 63.546.023q.034-.742.035-1.493a31.65 31.65 0 0 0-6.668-19.467m.811 20.512a25.972 25.972 0 0 1-51.9.046 26.156 26.156 0 0 1 .633-6.5 25.962 25.962 0 0 1 39.535-15.968h.016a28.361 28.361 0 0 1 3.029 2.338 25.125 25.125 0 0 1 4.549 5.3l-.015-.025a25.962 25.962 0 0 1 4.152 14.81" transform="translate(-73.345 -73.717)" style="fill:#b20040"/>
                <path data-name="패스 6820" d="M60.251 13.032A33.708 33.708 0 0 0 40.9.761l-.26-.039a34.412 34.412 0 0 0-14.061 0l-.062.016A33.634 33.634 0 0 0 0 33.629q0 .782.036 1.555a33.636 33.636 0 0 0 67.233.025q.036-.785.037-1.579a33.486 33.486 0 0 0-7.055-20.6m.858 21.7a27.479 27.479 0 0 1-54.909.053 27.673 27.673 0 0 1 .67-6.877A27.469 27.469 0 0 1 48.7 11.011h.017a30.007 30.007 0 0 1 3.2 2.474 26.583 26.583 0 0 1 4.813 5.6l-.016-.027a27.469 27.469 0 0 1 4.393 15.67" transform="translate(0 .004)" style="fill:#fe0955"/>
                <path data-name="패스 6821" d="M537.72 527.923a1.325 1.325 0 1 1-.118-2.57 27.514 27.514 0 0 0-.769-4.176l.01.045a21.707 21.707 0 0 0-9.152-12.732 20.565 20.565 0 0 0-10.2-3.261 1.326 1.326 0 1 1-2.6.019A21.409 21.409 0 0 0 495.169 522a21.589 21.589 0 0 0-.468 3.37 1.326 1.326 0 1 1 0 2.561 21.4 21.4 0 0 0 20.191 20.123 1.326 1.326 0 1 1 2.6.02 21.492 21.492 0 0 0 19.559-15.422q.06-.206.116-.414l-.03.107a17.962 17.962 0 0 0 .586-4.425m-6.132.09a1.364 1.364 0 0 1-.336-.042 15.273 15.273 0 0 1-.557 2.972 15.19 15.19 0 0 1-13.1 10.844 1.388 1.388 0 0 1 .015.205 1.362 1.362 0 1 1-2.709-.2 15.235 15.235 0 0 1-13.6-13.833 1.362 1.362 0 1 1 0-2.609 15.2 15.2 0 0 1 13.6-13.829 1.362 1.362 0 1 1 2.693 0 15.177 15.177 0 0 1 4.674 1.226h-.015a15.29 15.29 0 0 1 7.805 7.834v.014a15.234 15.234 0 0 1 1.192 4.734 1.362 1.362 0 1 1 .336 2.683" transform="translate(-482.557 -492.828)" style="fill:#fe0955"/>
                <g data-name="그룹 17" style="opacity:.18">
                    <g data-name="그룹 16">
                        <g data-name="그룹 15" style="clip-path:url(#z01j35h5gb)" transform="translate(33.231 32.051)">
                            <path data-name="패스 6822" d="M38.085 17.892a.226.226 0 0 0-.048-.1h.013a.225.225 0 0 0 .093-.031l4.777-2.857a.225.225 0 0 0-.025-.4l-9.861-4.356a.225.225 0 0 0-.207.013l-3.38 2.022L1.87 0 .27.774a.471.471 0 0 0-.246.558l.508 1.707 27.577 12.183.782 3.86a.225.225 0 0 0 .13.162l9.861 4.356a.225.225 0 0 0 .312-.251z"/>
                        </g>
                    </g>
                </g>
                <path data-name="패스 6823" d="m1370.077 535.917-9.745 5.586a.235.235 0 0 1-.216.009l-3.722-1.728-27.252 15.62-1.746-.628a.487.487 0 0 1-.262-.223l37.558-21.527-.007.011a.235.235 0 0 1 .113.021l5.261 2.442a.235.235 0 0 1 .018.417" transform="translate(-1294.557 -519.941)" style="fill:#ffb938"/>
                <path data-name="패스 6824" d="m1362.805 283.643-.552 5.773a.234.234 0 0 1-.032.1l-37.558 21.527a.486.486 0 0 1-.054-.328l.34-1.824 27.252-15.62.391-4.085a.235.235 0 0 1 .117-.181l9.745-5.586a.235.235 0 0 1 .351.226" transform="translate(-1292.086 -276.429)" style="fill:#fff200"/>
            </g>
        </g>
    </g>
</svg>
