<svg xmlns="http://www.w3.org/2000/svg" width="11.983" height="11" viewBox="0 0 11.983 11">
    <defs>
        <clipPath id="wk3anrkbva">
            <path data-name="사각형 6008" style="fill:#f70" d="M0 0h10.636v9.453H0z"/>
        </clipPath>
    </defs>
    <g data-name="그룹 6031">
        <g data-name="그룹 6030" style="clip-path:url(#wk3anrkbva)" transform="rotate(9 .74 9.396)">
            <path data-name="패스 12359" d="M.346 5.208a2.647 2.647 0 0 1-.257-.289A.4.4 0 0 1 0 4.686.412.412 0 0 1 .148 4.4a1.427 1.427 0 0 1 .38-.257 2.6 2.6 0 0 1 .507-.181 2.19 2.19 0 0 1 .528-.068A1.225 1.225 0 0 1 2 3.96a.992.992 0 0 1 .333.229 14.321 14.321 0 0 1 1.183 1.328q.527.678 1.034 1.4a40.223 40.223 0 0 1 1.759-3.952Q6.98 1.886 7.765.794a1.65 1.65 0 0 1 .848-.6A4.513 4.513 0 0 1 10.053 0a1.04 1.04 0 0 1 .422.072q.16.072.16.193a.474.474 0 0 1-.051.209 1.561 1.561 0 0 1-.152.241A36.132 36.132 0 0 0 7.4 5.321 16.057 16.057 0 0 0 5.842 9a.571.571 0 0 1-.371.337 2.576 2.576 0 0 1-.87.112q-.27 0-.456-.016a1.311 1.311 0 0 1-.312-.06.761.761 0 0 1-.211-.108.577.577 0 0 1-.144-.16q-.363-.562-.7-1.047t-.709-.943q-.369-.455-.79-.92t-.933-.987" style="fill:#f70"/>
        </g>
    </g>
</svg>
